<svg id="svg" version="1.1" width="400" height="400" viewBox="0 0 400 400" xmlns="http://www.w3.org/2000/svg" xmlns:xlink="http://www.w3.org/1999/xlink"><g id="svgg"><path id="path0" d="M212.109 61.386 C 212.042 61.494,211.867 61.536,211.719 61.480 C 211.572 61.423,211.316 61.513,211.150 61.679 C 210.984 61.845,210.792 61.925,210.724 61.857 C 210.656 61.789,210.600 61.844,210.600 61.978 C 210.600 62.113,210.510 62.168,210.400 62.100 C 210.290 62.032,210.200 62.072,210.200 62.188 C 210.200 62.305,210.088 62.403,209.950 62.406 C 209.516 62.415,207.726 64.595,208.145 64.603 C 208.230 64.605,208.210 64.672,208.099 64.753 C 207.736 65.018,207.435 66.282,207.515 67.200 C 207.686 69.157,207.803 69.708,208.092 69.919 C 208.258 70.040,208.335 70.198,208.264 70.270 C 208.192 70.341,208.238 70.400,208.367 70.400 C 208.495 70.400,208.581 70.468,208.558 70.550 C 208.487 70.801,209.080 71.600,209.338 71.600 C 209.471 71.600,209.672 71.758,209.784 71.950 C 209.896 72.142,209.991 72.217,209.994 72.115 C 209.997 72.013,210.225 72.142,210.500 72.400 C 210.775 72.658,211.001 72.787,211.003 72.685 C 211.005 72.583,211.076 72.610,211.162 72.745 C 211.247 72.880,211.493 73.023,211.709 73.063 C 211.924 73.103,212.435 73.205,212.845 73.289 C 213.685 73.462,215.519 73.106,216.016 72.674 C 216.190 72.523,216.391 72.457,216.462 72.528 C 216.533 72.599,216.647 72.509,216.717 72.329 C 216.786 72.148,216.968 72.000,217.121 72.000 C 217.275 72.000,217.400 71.920,217.400 71.823 C 217.400 71.726,217.558 71.605,217.750 71.555 C 217.943 71.504,218.235 71.201,218.400 70.882 C 218.565 70.562,218.745 70.255,218.800 70.200 C 219.418 69.584,219.743 65.400,219.173 65.400 C 219.085 65.400,219.064 65.265,219.128 65.100 C 219.191 64.935,219.138 64.800,219.010 64.800 C 218.881 64.800,218.826 64.719,218.887 64.620 C 218.949 64.522,218.738 64.162,218.419 63.820 C 218.100 63.479,217.875 63.200,217.918 63.200 C 217.961 63.200,217.842 63.020,217.654 62.800 C 217.465 62.580,217.156 62.400,216.965 62.400 C 216.775 62.400,216.548 62.272,216.460 62.116 C 216.372 61.960,216.165 61.803,216.000 61.766 C 215.835 61.730,215.643 61.622,215.573 61.526 C 215.391 61.275,212.256 61.148,212.109 61.386 M184.883 66.628 C 184.822 66.726,184.689 66.755,184.586 66.691 C 184.484 66.628,184.400 66.677,184.400 66.800 C 184.400 66.923,184.316 66.972,184.214 66.909 C 184.111 66.845,183.970 66.886,183.900 67.000 C 183.830 67.114,183.689 67.155,183.586 67.091 C 183.484 67.028,183.400 67.069,183.400 67.182 C 183.400 67.295,183.266 67.336,183.102 67.273 C 182.930 67.207,182.750 67.298,182.677 67.488 C 182.608 67.669,182.202 67.995,181.775 68.213 C 181.349 68.430,181.000 68.657,181.000 68.716 C 181.000 68.775,181.113 68.756,181.250 68.673 C 181.415 68.574,181.406 68.639,181.221 68.866 C 181.068 69.055,180.899 69.166,180.845 69.112 C 180.691 68.958,179.989 69.940,179.891 70.444 C 179.843 70.694,179.713 70.929,179.601 70.966 C 179.489 71.004,179.448 71.116,179.511 71.217 C 179.573 71.318,179.519 71.400,179.390 71.400 C 179.262 71.400,179.205 71.525,179.264 71.677 C 179.322 71.829,179.263 72.122,179.132 72.327 C 178.986 72.557,178.913 73.350,178.942 74.400 C 179.003 76.560,179.031 76.800,179.227 76.800 C 179.315 76.800,179.336 76.935,179.272 77.100 C 179.207 77.270,179.268 77.400,179.412 77.400 C 179.552 77.400,179.607 77.459,179.535 77.532 C 179.463 77.604,179.511 77.793,179.643 77.952 C 179.775 78.110,179.902 78.375,179.926 78.539 C 179.970 78.835,180.194 79.121,180.991 79.900 C 181.849 80.738,182.305 81.098,182.450 81.050 C 182.533 81.022,182.600 81.087,182.600 81.193 C 182.600 81.299,182.791 81.488,183.024 81.613 C 183.367 81.797,183.418 81.788,183.290 81.570 C 183.203 81.421,183.312 81.458,183.532 81.650 C 183.752 81.843,183.993 81.941,184.066 81.867 C 184.140 81.794,184.200 81.838,184.200 81.967 C 184.200 82.109,184.545 82.200,185.088 82.200 C 185.577 82.200,186.032 82.290,186.100 82.400 C 186.168 82.510,186.528 82.600,186.900 82.600 C 187.272 82.600,187.632 82.510,187.700 82.400 C 187.768 82.290,188.091 82.200,188.418 82.200 C 188.745 82.200,189.327 82.069,189.710 81.909 C 190.094 81.748,190.465 81.622,190.536 81.627 C 190.606 81.632,190.744 81.493,190.842 81.318 C 190.940 81.143,191.182 81.000,191.380 81.000 C 191.740 81.000,193.802 78.806,193.876 78.345 C 193.898 78.210,194.082 77.850,194.285 77.544 C 194.488 77.238,194.604 76.937,194.542 76.876 C 194.481 76.814,194.544 76.434,194.683 76.032 C 194.822 75.629,194.903 74.850,194.863 74.300 C 194.824 73.750,194.788 73.132,194.785 72.927 C 194.781 72.721,194.651 72.358,194.495 72.120 C 194.338 71.882,194.180 71.483,194.142 71.234 C 194.104 70.985,193.921 70.604,193.736 70.388 C 193.551 70.172,193.400 69.861,193.400 69.698 C 193.400 69.534,193.265 69.400,193.100 69.400 C 192.935 69.400,192.800 69.268,192.800 69.107 C 192.800 68.946,192.597 68.707,192.350 68.576 C 192.103 68.444,191.687 68.104,191.427 67.819 C 191.166 67.533,191.015 67.435,191.091 67.600 C 191.181 67.793,191.129 67.777,190.945 67.553 C 190.789 67.362,190.602 67.265,190.530 67.336 C 190.459 67.408,190.400 67.356,190.400 67.222 C 190.400 67.087,190.316 67.028,190.214 67.091 C 190.111 67.155,189.970 67.114,189.900 67.000 C 189.830 66.886,189.689 66.845,189.586 66.909 C 189.484 66.972,189.400 66.943,189.400 66.845 C 189.400 66.623,189.333 66.614,186.946 66.524 C 185.872 66.483,184.943 66.530,184.883 66.628 M235.600 79.636 C 235.600 79.750,235.466 79.791,235.302 79.728 C 234.947 79.592,233.000 80.186,233.000 80.430 C 233.000 80.524,232.772 80.600,232.494 80.600 C 232.215 80.600,231.936 80.735,231.872 80.900 C 231.809 81.065,231.632 81.200,231.479 81.200 C 231.325 81.200,231.200 81.295,231.200 81.412 C 231.200 81.528,231.109 81.568,230.999 81.499 C 230.888 81.431,230.743 81.515,230.678 81.686 C 230.612 81.858,230.477 81.948,230.378 81.886 C 230.278 81.825,230.144 81.912,230.080 82.080 C 230.016 82.247,229.796 82.438,229.591 82.503 C 229.387 82.568,229.023 82.939,228.783 83.328 C 228.542 83.717,228.188 84.185,227.994 84.367 C 227.491 84.843,226.370 86.989,226.508 87.212 C 226.571 87.316,226.528 87.400,226.412 87.400 C 226.295 87.400,226.211 87.468,226.224 87.550 C 226.237 87.633,226.229 87.745,226.207 87.800 C 226.185 87.855,226.135 88.080,226.096 88.300 C 226.057 88.520,225.971 88.970,225.904 89.300 C 225.697 90.326,225.628 92.594,225.800 92.700 C 225.891 92.756,225.922 93.071,225.870 93.401 C 225.818 93.730,225.856 94.000,225.955 94.000 C 226.125 94.000,226.193 94.274,226.215 95.046 C 226.221 95.236,226.311 95.445,226.416 95.510 C 226.521 95.575,226.555 95.711,226.491 95.814 C 226.428 95.916,226.472 96.000,226.588 96.000 C 226.705 96.000,226.782 96.067,226.760 96.150 C 226.686 96.431,227.026 97.200,227.225 97.200 C 227.334 97.200,227.368 97.291,227.299 97.401 C 227.231 97.512,227.315 97.657,227.487 97.723 C 227.659 97.789,227.800 97.951,227.800 98.084 C 227.800 98.216,227.968 98.505,228.173 98.725 C 228.378 98.945,228.651 99.322,228.780 99.563 C 228.909 99.803,229.161 100.000,229.340 100.000 C 229.520 100.000,229.609 100.058,229.538 100.128 C 229.411 100.255,231.158 101.600,231.449 101.600 C 231.532 101.600,231.783 101.783,232.007 102.007 C 232.231 102.231,232.501 102.361,232.607 102.295 C 232.713 102.230,232.800 102.279,232.800 102.405 C 232.800 102.531,232.912 102.596,233.048 102.551 C 233.185 102.505,233.416 102.588,233.563 102.734 C 233.709 102.880,234.002 103.011,234.214 103.025 C 234.646 103.053,234.975 103.123,235.050 103.204 C 235.105 103.263,236.614 103.418,237.400 103.445 C 238.459 103.481,240.664 103.221,240.779 103.045 C 240.846 102.943,241.058 102.847,241.250 102.830 C 242.081 102.758,242.200 102.724,242.200 102.555 C 242.200 102.457,242.290 102.432,242.400 102.500 C 242.510 102.568,242.600 102.528,242.600 102.412 C 242.600 102.295,242.770 102.200,242.979 102.200 C 243.187 102.200,243.409 102.065,243.472 101.900 C 243.536 101.735,243.761 101.600,243.972 101.600 C 244.184 101.600,244.409 101.464,244.473 101.298 C 244.537 101.132,244.669 101.020,244.768 101.048 C 244.867 101.077,245.146 100.875,245.389 100.600 C 245.632 100.325,245.765 100.235,245.684 100.400 C 245.604 100.565,245.819 100.439,246.162 100.119 C 246.505 99.800,246.739 99.463,246.681 99.369 C 246.624 99.276,246.667 99.200,246.779 99.200 C 246.890 99.200,247.131 98.885,247.313 98.500 C 247.496 98.115,247.725 97.800,247.823 97.800 C 247.920 97.800,248.000 97.660,248.000 97.488 C 248.000 97.317,248.090 97.232,248.200 97.300 C 248.310 97.368,248.410 97.306,248.423 97.162 C 248.474 96.587,248.514 96.480,248.873 95.949 C 249.079 95.646,249.271 95.106,249.302 94.749 C 249.332 94.392,249.380 94.055,249.409 94.000 C 249.437 93.945,249.482 93.810,249.507 93.700 C 249.533 93.590,249.569 93.455,249.587 93.400 C 249.719 93.007,249.738 89.785,249.609 89.706 C 249.520 89.651,249.442 89.247,249.436 88.809 C 249.425 88.006,248.642 86.000,248.339 86.000 C 248.250 86.000,248.232 85.910,248.300 85.800 C 248.368 85.690,248.323 85.600,248.200 85.600 C 248.077 85.600,248.032 85.510,248.100 85.400 C 248.168 85.290,248.128 85.200,248.012 85.200 C 247.895 85.200,247.800 85.110,247.800 85.000 C 247.800 84.797,247.500 84.413,246.600 83.462 C 246.325 83.172,246.226 83.008,246.381 83.098 C 246.570 83.208,246.615 83.186,246.519 83.031 C 246.441 82.904,246.289 82.800,246.181 82.800 C 246.074 82.800,245.723 82.530,245.400 82.200 C 245.077 81.870,244.720 81.600,244.607 81.600 C 244.493 81.600,244.400 81.510,244.400 81.400 C 244.400 81.290,244.265 81.200,244.100 81.200 C 243.935 81.200,243.800 81.110,243.800 81.000 C 243.800 80.890,243.659 80.800,243.486 80.800 C 243.313 80.800,243.036 80.665,242.871 80.500 C 242.706 80.335,242.348 80.200,242.076 80.200 C 241.803 80.200,241.297 80.053,240.950 79.874 C 240.204 79.489,235.600 79.284,235.600 79.636 M162.073 86.643 C 162.013 86.740,161.815 86.804,161.632 86.787 C 161.450 86.769,161.255 86.771,161.200 86.792 C 161.145 86.813,160.882 86.870,160.616 86.919 C 160.349 86.968,160.012 87.107,159.866 87.228 C 159.720 87.350,159.600 87.382,159.600 87.300 C 159.600 87.218,159.457 87.269,159.283 87.414 C 159.109 87.558,158.793 87.689,158.582 87.705 C 158.370 87.721,157.957 87.951,157.665 88.217 C 156.581 89.201,156.457 89.306,156.048 89.584 C 155.817 89.740,155.584 90.041,155.528 90.254 C 155.465 90.496,155.336 90.584,155.183 90.489 C 155.026 90.393,154.990 90.421,155.081 90.569 C 155.159 90.696,155.128 90.800,155.012 90.800 C 154.895 90.800,154.800 90.935,154.800 91.100 C 154.800 91.265,154.710 91.400,154.600 91.400 C 154.490 91.400,154.400 91.486,154.400 91.591 C 154.400 91.696,154.187 92.095,153.928 92.478 C 153.492 93.120,153.089 94.558,153.180 95.150 C 153.200 95.288,153.134 95.400,153.031 95.400 C 152.807 95.400,152.956 99.511,153.198 100.000 C 153.225 100.055,153.234 100.177,153.217 100.271 C 153.200 100.365,153.290 100.568,153.417 100.721 C 153.545 100.874,153.587 101.000,153.510 101.000 C 153.434 101.000,153.514 101.142,153.688 101.316 C 153.861 101.490,153.953 101.715,153.890 101.816 C 153.828 101.917,153.872 102.000,153.988 102.000 C 154.105 102.000,154.200 102.185,154.200 102.412 C 154.200 102.638,154.290 102.768,154.400 102.700 C 154.510 102.632,154.600 102.752,154.600 102.967 C 154.600 103.182,154.741 103.411,154.913 103.477 C 155.085 103.543,155.179 103.672,155.123 103.763 C 155.006 103.952,156.689 105.600,156.998 105.600 C 157.109 105.600,157.200 105.688,157.200 105.796 C 157.200 105.904,157.424 106.049,157.699 106.118 C 157.973 106.186,158.154 106.313,158.101 106.398 C 158.048 106.484,158.251 106.646,158.553 106.758 C 158.854 106.870,159.280 107.031,159.500 107.114 C 159.720 107.197,159.960 107.273,160.033 107.283 C 160.107 107.292,160.228 107.361,160.303 107.436 C 160.378 107.511,160.565 107.524,160.720 107.465 C 160.874 107.406,161.000 107.459,161.000 107.583 C 161.000 107.723,161.267 107.780,161.700 107.732 C 162.085 107.690,162.400 107.719,162.400 107.796 C 162.400 107.988,164.451 107.999,164.700 107.808 C 164.810 107.724,165.103 107.672,165.350 107.694 C 165.597 107.715,165.800 107.649,165.800 107.545 C 165.800 107.442,165.932 107.408,166.094 107.470 C 166.466 107.613,167.600 107.228,167.600 106.959 C 167.600 106.848,167.728 106.806,167.885 106.867 C 168.042 106.927,168.278 106.848,168.408 106.690 C 168.539 106.533,168.718 106.449,168.806 106.504 C 169.090 106.679,172.271 103.737,172.043 103.509 C 171.983 103.449,172.038 103.400,172.167 103.400 C 172.295 103.400,172.400 103.269,172.400 103.110 C 172.400 102.950,172.558 102.728,172.750 102.616 C 172.942 102.504,173.026 102.409,172.936 102.406 C 172.846 102.403,172.946 102.153,173.159 101.850 C 173.643 101.159,174.069 99.873,173.902 99.604 C 173.833 99.492,173.856 99.400,173.953 99.400 C 174.050 99.400,174.141 99.108,174.154 98.750 C 174.167 98.392,174.211 97.830,174.251 97.500 C 174.291 97.170,174.277 96.810,174.219 96.700 C 174.161 96.590,174.085 96.050,174.050 95.500 C 174.016 94.950,173.940 94.365,173.881 94.200 C 173.822 94.035,173.774 93.855,173.773 93.800 C 173.772 93.745,173.634 93.548,173.466 93.363 C 173.298 93.177,173.220 92.930,173.292 92.813 C 173.364 92.696,173.323 92.600,173.200 92.600 C 173.077 92.600,173.032 92.510,173.100 92.400 C 173.168 92.290,173.123 92.200,173.000 92.200 C 172.877 92.200,172.829 92.116,172.892 92.012 C 172.956 91.909,172.863 91.743,172.686 91.644 C 172.509 91.545,172.372 91.405,172.382 91.332 C 172.437 90.929,172.378 90.790,172.200 90.900 C 172.090 90.968,172.000 90.921,172.000 90.795 C 172.000 90.448,169.612 88.169,169.392 88.305 C 169.286 88.370,169.200 88.331,169.200 88.217 C 169.200 88.103,168.930 87.871,168.600 87.700 C 168.270 87.529,168.000 87.439,168.000 87.500 C 168.000 87.561,167.716 87.464,167.369 87.284 C 167.023 87.105,166.550 86.925,166.319 86.885 C 166.089 86.844,165.630 86.757,165.300 86.692 C 164.281 86.489,162.188 86.458,162.073 86.643 M199.703 88.964 C 199.645 89.021,199.216 89.088,198.749 89.113 C 198.282 89.137,197.662 89.251,197.371 89.366 C 197.079 89.481,196.787 89.520,196.721 89.454 C 196.654 89.388,196.600 89.448,196.600 89.588 C 196.600 89.730,196.470 89.793,196.306 89.730 C 196.145 89.668,195.959 89.705,195.893 89.812 C 195.826 89.919,195.696 89.959,195.602 89.901 C 195.509 89.844,195.297 89.932,195.132 90.097 C 194.966 90.262,194.657 90.424,194.445 90.457 C 194.232 90.489,193.798 90.689,193.479 90.900 C 193.161 91.111,192.772 91.305,192.615 91.330 C 192.458 91.355,192.250 91.517,192.153 91.692 C 192.055 91.866,191.908 91.967,191.825 91.916 C 191.647 91.805,189.368 93.901,189.511 94.044 C 189.565 94.099,189.455 94.268,189.266 94.421 C 188.969 94.663,188.947 94.660,189.100 94.400 C 189.252 94.142,189.230 94.138,188.941 94.373 C 188.756 94.523,188.654 94.725,188.714 94.823 C 188.774 94.920,188.734 95.000,188.625 95.000 C 188.516 95.000,188.223 95.286,187.974 95.636 C 187.709 96.009,187.641 96.210,187.811 96.121 C 187.970 96.038,187.942 96.099,187.750 96.257 C 187.558 96.415,187.400 96.694,187.400 96.878 C 187.400 97.062,187.260 97.266,187.089 97.332 C 186.917 97.398,186.826 97.580,186.886 97.736 C 186.946 97.893,186.916 97.972,186.819 97.912 C 186.721 97.851,186.589 97.941,186.523 98.112 C 186.456 98.287,186.489 98.368,186.600 98.300 C 186.711 98.232,186.744 98.314,186.676 98.490 C 186.611 98.660,186.467 98.800,186.357 98.800 C 186.247 98.800,186.209 98.935,186.272 99.100 C 186.336 99.265,186.295 99.400,186.182 99.400 C 186.069 99.400,186.028 99.484,186.091 99.586 C 186.155 99.689,186.114 99.830,186.000 99.900 C 185.886 99.970,185.841 100.105,185.900 100.200 C 185.959 100.295,185.924 100.424,185.822 100.486 C 185.721 100.549,185.685 100.780,185.742 101.000 C 185.800 101.220,185.760 101.400,185.654 101.400 C 185.548 101.400,185.479 101.648,185.500 101.950 C 185.520 102.252,185.474 102.590,185.397 102.700 C 185.222 102.949,185.200 107.400,185.374 107.400 C 185.443 107.400,185.517 107.625,185.538 107.900 C 185.558 108.175,185.592 108.625,185.613 108.900 C 185.633 109.175,185.734 109.400,185.837 109.400 C 185.940 109.400,185.967 109.492,185.898 109.604 C 185.739 109.860,186.169 111.200,186.409 111.200 C 186.507 111.200,186.543 111.316,186.488 111.459 C 186.433 111.601,186.751 112.235,187.194 112.868 C 187.637 113.500,188.000 114.149,188.000 114.309 C 188.000 114.469,188.084 114.600,188.187 114.600 C 188.289 114.600,188.430 114.780,188.500 115.000 C 188.570 115.220,188.771 115.400,188.947 115.400 C 189.123 115.400,189.205 115.462,189.129 115.538 C 188.934 115.732,190.623 117.409,190.864 117.260 C 190.976 117.191,190.999 117.240,190.917 117.373 C 190.825 117.522,191.015 117.711,191.436 117.888 C 191.801 118.042,192.406 118.443,192.779 118.778 C 193.153 119.113,193.535 119.340,193.629 119.282 C 193.723 119.224,193.800 119.263,193.800 119.369 C 193.800 119.599,194.916 120.018,195.083 119.850 C 195.147 119.786,195.200 119.816,195.200 119.917 C 195.200 120.017,195.437 120.114,195.726 120.130 C 196.016 120.147,196.320 120.271,196.404 120.406 C 196.487 120.541,196.655 120.589,196.778 120.514 C 196.900 120.438,197.000 120.462,197.000 120.567 C 197.000 120.744,197.211 120.773,198.637 120.789 C 198.932 120.793,199.218 120.868,199.273 120.956 C 199.384 121.136,202.827 121.112,203.592 120.926 C 203.862 120.861,204.402 120.790,204.792 120.770 C 205.181 120.750,205.680 120.639,205.900 120.525 C 206.120 120.410,206.413 120.339,206.550 120.367 C 206.688 120.395,206.800 120.326,206.800 120.215 C 206.800 120.104,206.935 120.064,207.100 120.128 C 207.265 120.191,207.400 120.134,207.400 120.000 C 207.400 119.866,207.532 119.808,207.694 119.870 C 207.856 119.932,208.106 119.874,208.249 119.742 C 208.392 119.609,208.642 119.473,208.805 119.439 C 208.967 119.405,209.199 119.249,209.320 119.092 C 209.441 118.935,209.598 118.865,209.670 118.936 C 209.741 119.008,209.800 118.956,209.800 118.822 C 209.800 118.687,209.890 118.632,210.000 118.700 C 210.110 118.768,210.200 118.728,210.200 118.612 C 210.200 118.495,210.298 118.400,210.418 118.400 C 210.538 118.400,210.815 118.197,211.033 117.950 C 211.252 117.703,211.361 117.635,211.276 117.800 C 211.191 117.965,211.746 117.478,212.510 116.718 C 213.275 115.958,213.881 115.271,213.858 115.191 C 213.834 115.111,214.125 114.727,214.503 114.338 C 214.881 113.949,215.215 113.511,215.245 113.366 C 215.275 113.220,215.435 112.982,215.600 112.836 C 215.867 112.600,215.867 112.587,215.600 112.720 C 215.377 112.830,215.390 112.765,215.650 112.469 C 215.843 112.249,216.000 111.926,216.000 111.751 C 216.000 111.576,216.092 111.403,216.204 111.365 C 216.317 111.328,216.457 111.030,216.516 110.705 C 216.575 110.379,216.700 110.020,216.794 109.906 C 217.046 109.601,217.362 107.663,217.287 106.885 C 217.251 106.514,217.285 106.171,217.363 106.123 C 217.561 106.001,217.387 102.522,217.137 101.600 C 217.093 101.435,216.987 100.919,216.903 100.454 C 216.819 99.988,216.632 99.509,216.487 99.389 C 216.342 99.269,216.268 99.057,216.321 98.917 C 216.374 98.778,216.280 98.549,216.111 98.409 C 215.943 98.269,215.854 98.075,215.914 97.977 C 215.974 97.880,215.931 97.800,215.818 97.800 C 215.705 97.800,215.664 97.665,215.728 97.500 C 215.791 97.335,215.743 97.200,215.621 97.200 C 215.500 97.200,215.400 97.065,215.400 96.900 C 215.400 96.735,215.310 96.600,215.200 96.600 C 215.090 96.600,215.014 96.533,215.032 96.450 C 215.091 96.168,214.759 95.602,214.593 95.704 C 214.503 95.760,214.371 95.625,214.301 95.403 C 214.231 95.181,214.089 95.000,213.987 95.000 C 213.884 95.000,213.800 94.900,213.800 94.779 C 213.800 94.657,213.575 94.290,213.300 93.964 C 213.025 93.637,212.800 93.433,212.800 93.510 C 212.800 93.587,212.501 93.323,212.135 92.924 C 211.769 92.524,211.416 92.251,211.351 92.316 C 211.286 92.381,211.139 92.259,211.024 92.045 C 210.910 91.831,210.362 91.461,209.808 91.223 C 209.254 90.984,208.800 90.696,208.800 90.583 C 208.800 90.469,208.710 90.432,208.600 90.500 C 208.490 90.568,208.400 90.546,208.400 90.452 C 208.400 90.271,207.263 89.809,206.531 89.692 C 205.955 89.600,205.579 89.494,205.108 89.293 C 204.892 89.200,204.330 89.125,203.858 89.125 C 203.386 89.125,203.000 89.074,203.000 89.013 C 203.000 88.870,199.844 88.823,199.703 88.964 M115.297 109.748 C 115.471 110.433,115.601 111.029,116.307 114.400 C 116.365 114.675,116.417 115.035,116.423 115.200 C 116.429 115.365,116.483 115.635,116.542 115.800 C 116.602 115.965,116.677 116.280,116.709 116.500 C 116.771 116.933,116.894 117.557,117.104 118.500 C 117.178 118.830,117.257 119.210,117.280 119.344 C 117.303 119.479,117.378 119.645,117.447 119.714 C 117.516 119.783,117.524 119.966,117.464 120.122 C 117.404 120.278,117.455 120.525,117.576 120.671 C 117.697 120.817,117.752 120.982,117.697 121.037 C 117.604 121.130,117.756 121.983,118.495 125.501 C 118.553 125.775,118.637 126.203,118.683 126.450 C 118.728 126.697,118.826 127.215,118.901 127.600 C 118.976 127.985,119.054 128.390,119.074 128.500 C 119.094 128.610,119.165 128.790,119.230 128.900 C 119.295 129.010,119.323 129.258,119.292 129.450 C 119.261 129.643,119.328 129.800,119.441 129.800 C 119.554 129.800,119.604 130.025,119.551 130.300 C 119.498 130.575,119.543 130.800,119.649 130.800 C 119.756 130.800,119.788 131.019,119.721 131.288 C 119.654 131.556,119.695 131.835,119.813 131.908 C 119.931 131.981,119.975 132.178,119.910 132.346 C 119.846 132.513,119.895 132.773,120.019 132.923 C 120.143 133.072,120.193 133.331,120.129 133.497 C 120.065 133.664,120.087 133.800,120.179 133.800 C 120.270 133.800,120.320 134.025,120.290 134.300 C 120.260 134.575,120.319 134.800,120.421 134.800 C 120.524 134.800,120.551 135.025,120.482 135.300 C 120.413 135.576,120.444 135.800,120.551 135.800 C 120.658 135.800,120.720 136.025,120.690 136.300 C 120.660 136.575,120.712 136.800,120.806 136.800 C 120.900 136.800,120.943 136.978,120.901 137.196 C 120.859 137.413,120.905 137.641,121.004 137.702 C 121.102 137.763,121.135 137.936,121.078 138.086 C 121.020 138.237,121.060 138.414,121.168 138.480 C 121.275 138.546,121.315 138.781,121.258 139.001 C 121.200 139.222,121.242 139.514,121.351 139.651 C 121.460 139.788,121.523 140.058,121.492 140.250 C 121.461 140.442,121.505 140.600,121.590 140.600 C 121.675 140.600,121.720 140.825,121.690 141.100 C 121.660 141.375,121.712 141.600,121.805 141.600 C 121.899 141.600,121.975 141.758,121.974 141.950 C 121.973 142.311,122.079 142.929,122.290 143.800 C 122.356 144.075,122.462 144.750,122.524 145.300 C 122.587 145.850,122.730 146.411,122.841 146.547 C 122.953 146.684,122.993 146.931,122.929 147.097 C 122.865 147.264,122.894 147.400,122.994 147.400 C 123.094 147.400,123.177 147.558,123.179 147.750 C 123.181 147.942,123.237 148.370,123.302 148.700 C 123.543 149.916,123.584 150.112,123.716 150.700 C 123.790 151.030,123.877 151.480,123.909 151.700 C 123.941 151.920,123.981 152.100,124.000 152.100 C 124.037 152.100,124.178 153.074,124.239 153.750 C 124.262 153.998,124.346 154.200,124.428 154.200 C 124.509 154.200,124.577 154.358,124.579 154.550 C 124.581 154.743,124.631 155.125,124.690 155.400 C 124.899 156.376,125.041 157.305,125.033 157.650 C 125.028 157.843,125.103 158.000,125.199 158.000 C 125.295 158.000,125.334 158.219,125.285 158.487 C 125.237 158.755,125.291 159.033,125.407 159.104 C 125.522 159.175,125.562 159.406,125.495 159.617 C 125.428 159.828,125.466 160.000,125.580 160.000 C 125.694 160.000,125.735 160.136,125.671 160.303 C 125.607 160.469,125.644 160.716,125.752 160.853 C 125.860 160.989,125.923 161.257,125.892 161.449 C 125.861 161.641,125.921 161.851,126.026 161.916 C 126.131 161.981,126.162 162.206,126.095 162.417 C 126.022 162.646,126.068 162.800,126.208 162.800 C 126.359 162.800,126.398 162.979,126.318 163.300 C 126.240 163.612,126.277 163.800,126.418 163.800 C 126.541 163.800,126.588 163.943,126.521 164.118 C 126.454 164.293,126.458 164.533,126.531 164.651 C 126.605 164.769,126.691 165.098,126.724 165.383 C 126.810 166.134,126.893 166.470,127.056 166.732 C 127.136 166.860,127.150 167.098,127.087 167.262 C 127.024 167.426,127.060 167.614,127.168 167.680 C 127.275 167.746,127.315 167.980,127.258 168.200 C 127.200 168.420,127.242 168.600,127.351 168.600 C 127.459 168.600,127.610 169.230,127.686 170.000 C 127.762 170.770,127.906 171.400,128.006 171.400 C 128.106 171.400,128.136 171.535,128.072 171.700 C 128.009 171.865,128.025 172.158,128.109 172.350 C 128.358 172.925,128.368 172.966,128.684 174.800 C 128.731 175.075,128.789 175.300,128.811 175.300 C 128.858 175.300,128.992 176.337,129.012 176.850 C 129.019 177.043,129.115 177.200,129.224 177.200 C 129.334 177.200,129.377 177.275,129.321 177.366 C 129.265 177.457,129.351 177.972,129.513 178.511 C 129.675 179.050,129.764 179.605,129.710 179.745 C 129.657 179.885,129.694 180.000,129.793 180.000 C 129.892 180.000,129.934 180.219,129.885 180.487 C 129.837 180.755,129.879 181.025,129.980 181.087 C 130.080 181.150,130.115 181.380,130.058 181.600 C 130.000 181.820,130.031 182.000,130.127 182.000 C 130.222 182.000,130.326 182.378,130.358 182.839 C 130.389 183.300,130.501 183.781,130.606 183.907 C 130.711 184.033,130.741 184.192,130.674 184.260 C 130.606 184.327,130.621 184.544,130.706 184.741 C 130.791 184.939,130.879 185.190,130.900 185.300 C 130.922 185.410,130.959 185.545,130.983 185.600 C 131.008 185.655,131.059 185.925,131.098 186.200 C 131.136 186.475,131.228 186.970,131.301 187.300 C 131.374 187.630,131.463 188.080,131.500 188.300 C 131.537 188.520,131.586 188.700,131.609 188.700 C 131.660 188.700,131.779 189.324,131.855 190.000 C 131.886 190.275,131.979 190.608,132.062 190.740 C 132.144 190.872,132.224 191.304,132.238 191.699 C 132.253 192.094,132.332 192.458,132.414 192.509 C 132.496 192.559,132.515 192.780,132.458 193.000 C 132.400 193.220,132.445 193.400,132.558 193.400 C 132.670 193.400,132.715 193.580,132.658 193.801 C 132.600 194.022,132.642 194.314,132.751 194.451 C 132.860 194.588,132.923 194.858,132.892 195.050 C 132.861 195.243,132.898 195.400,132.975 195.400 C 133.052 195.400,133.129 195.761,133.147 196.202 C 133.165 196.643,133.250 197.116,133.336 197.252 C 133.422 197.388,133.506 197.745,133.523 198.044 C 133.539 198.343,133.620 198.748,133.702 198.944 C 133.851 199.299,133.968 199.900,134.054 200.750 C 134.079 200.998,134.178 201.200,134.273 201.200 C 134.369 201.200,134.400 201.380,134.342 201.600 C 134.285 201.820,134.297 202.000,134.369 202.001 C 134.441 202.002,134.524 202.418,134.554 202.926 C 134.583 203.434,134.671 203.951,134.748 204.075 C 134.826 204.199,134.895 204.390,134.901 204.500 C 134.953 205.370,135.271 206.800,135.412 206.800 C 135.509 206.800,135.536 206.935,135.472 207.100 C 135.409 207.265,135.426 207.558,135.509 207.750 C 135.593 207.943,135.642 208.258,135.618 208.450 C 135.594 208.643,135.670 208.800,135.785 208.800 C 135.901 208.800,135.985 209.003,135.972 209.250 C 135.950 209.674,136.237 211.355,136.408 211.800 C 136.429 211.855,136.430 212.058,136.410 212.250 C 136.391 212.443,136.481 212.600,136.611 212.600 C 136.755 212.600,136.809 212.795,136.751 213.100 C 136.698 213.375,136.739 213.600,136.841 213.600 C 136.943 213.600,136.966 213.791,136.892 214.025 C 136.806 214.297,136.832 214.404,136.965 214.322 C 137.079 214.251,137.224 214.276,137.286 214.378 C 137.349 214.479,137.580 214.515,137.800 214.458 C 138.020 214.400,138.200 214.451,138.200 214.570 C 138.200 214.690,138.335 214.736,138.500 214.672 C 138.665 214.609,138.800 214.666,138.800 214.800 C 138.800 214.934,138.921 214.996,139.069 214.940 C 139.217 214.883,139.721 215.008,140.189 215.217 C 140.657 215.427,141.120 215.550,141.216 215.490 C 141.313 215.430,141.596 215.495,141.846 215.633 C 142.096 215.772,142.370 215.865,142.456 215.840 C 142.542 215.816,142.879 215.934,143.206 216.103 C 143.533 216.272,143.800 216.361,143.800 216.300 C 143.800 216.239,144.064 216.326,144.387 216.493 C 144.710 216.660,145.115 216.743,145.287 216.677 C 145.465 216.609,145.600 216.662,145.600 216.800 C 145.600 216.934,145.732 216.992,145.894 216.930 C 146.055 216.868,146.241 216.905,146.307 217.012 C 146.374 217.119,146.505 217.159,146.600 217.100 C 146.695 217.041,146.830 217.086,146.900 217.200 C 146.970 217.314,147.105 217.359,147.200 217.300 C 147.295 217.241,147.430 217.286,147.500 217.400 C 147.570 217.514,147.711 217.555,147.814 217.491 C 147.916 217.428,148.000 217.460,148.000 217.562 C 148.000 217.664,148.416 217.795,148.925 217.852 C 149.433 217.910,149.908 218.051,149.980 218.167 C 150.130 218.410,151.726 218.808,151.890 218.643 C 151.951 218.583,152.000 218.648,152.000 218.788 C 152.000 218.928,152.120 218.997,152.268 218.940 C 152.415 218.884,152.797 218.954,153.118 219.096 C 153.438 219.238,154.038 219.504,154.452 219.687 C 154.866 219.871,155.293 219.966,155.402 219.899 C 155.511 219.831,155.600 219.881,155.600 220.010 C 155.600 220.138,155.735 220.191,155.900 220.128 C 156.065 220.064,156.200 220.105,156.200 220.218 C 156.200 220.331,156.284 220.372,156.386 220.309 C 156.489 220.245,156.630 220.286,156.700 220.400 C 156.770 220.514,156.911 220.555,157.014 220.491 C 157.116 220.428,157.200 220.476,157.200 220.597 C 157.200 220.718,157.313 220.795,157.450 220.767 C 157.588 220.739,157.903 220.828,158.150 220.965 C 158.398 221.102,158.600 221.164,158.600 221.102 C 158.600 221.040,158.893 221.147,159.250 221.340 C 159.608 221.532,160.056 221.702,160.246 221.717 C 160.437 221.733,160.729 221.858,160.896 221.997 C 161.063 222.136,161.200 222.187,161.200 222.110 C 161.200 222.034,161.342 222.114,161.516 222.288 C 161.690 222.461,161.911 222.555,162.008 222.495 C 162.194 222.380,162.892 222.723,163.368 223.162 C 163.524 223.305,163.780 223.374,163.936 223.314 C 164.094 223.253,164.166 223.293,164.099 223.402 C 164.031 223.511,164.170 223.600,164.407 223.600 C 164.644 223.600,165.087 223.777,165.392 223.994 C 165.696 224.211,166.002 224.331,166.073 224.261 C 166.143 224.191,166.200 224.253,166.200 224.400 C 166.200 224.547,166.257 224.610,166.327 224.540 C 166.397 224.470,166.677 224.589,166.950 224.804 C 167.223 225.019,167.526 225.145,167.624 225.085 C 167.721 225.025,167.800 225.072,167.800 225.188 C 167.800 225.305,167.944 225.400,168.119 225.400 C 168.295 225.400,168.683 225.575,168.983 225.788 C 169.283 226.001,169.655 226.204,169.809 226.238 C 169.964 226.272,170.212 226.413,170.361 226.552 C 170.510 226.690,170.715 226.753,170.816 226.690 C 170.917 226.628,171.000 226.677,171.000 226.800 C 171.000 226.923,171.078 226.975,171.174 226.916 C 171.270 226.857,171.601 227.027,171.911 227.293 C 172.221 227.559,172.548 227.732,172.638 227.677 C 172.727 227.622,172.800 227.672,172.800 227.788 C 172.800 227.905,172.868 227.989,172.950 227.976 C 173.331 227.916,173.613 228.016,173.514 228.177 C 173.402 228.359,174.572 228.936,174.865 228.843 C 174.956 228.814,174.973 228.882,174.903 228.995 C 174.833 229.108,174.872 229.200,174.988 229.200 C 175.105 229.200,175.245 229.200,175.300 229.200 C 175.355 229.200,175.583 229.383,175.807 229.607 C 176.031 229.831,176.301 229.961,176.407 229.895 C 176.513 229.830,176.600 229.858,176.600 229.957 C 176.600 230.056,176.938 230.309,177.350 230.519 C 177.763 230.728,178.145 230.950,178.200 231.011 C 178.461 231.299,179.801 232.013,179.806 231.866 C 179.809 231.775,179.905 231.859,180.018 232.054 C 180.132 232.249,180.310 232.356,180.414 232.292 C 180.518 232.227,180.657 232.315,180.722 232.486 C 180.788 232.658,180.922 232.748,181.021 232.687 C 181.119 232.626,181.200 232.672,181.200 232.788 C 181.200 232.905,181.322 233.000,181.471 233.000 C 181.620 233.000,181.974 233.216,182.258 233.479 C 182.543 233.742,182.824 233.910,182.883 233.850 C 182.942 233.791,183.047 233.891,183.117 234.071 C 183.186 234.252,183.368 234.400,183.521 234.400 C 183.675 234.400,183.800 234.505,183.800 234.633 C 183.800 234.762,183.858 234.808,183.930 234.737 C 184.001 234.666,184.226 234.799,184.430 235.034 C 184.633 235.269,184.800 235.398,184.800 235.321 C 184.800 235.131,185.220 235.381,186.106 236.100 C 186.513 236.430,187.124 236.925,187.464 237.200 C 187.804 237.475,188.001 237.565,187.902 237.400 C 187.802 237.235,188.016 237.393,188.377 237.751 C 188.738 238.110,189.100 238.362,189.180 238.312 C 189.261 238.262,189.589 238.464,189.910 238.761 C 190.230 239.057,190.560 239.278,190.642 239.251 C 190.725 239.224,190.939 239.427,191.119 239.701 C 191.299 239.976,191.519 240.200,191.608 240.200 C 191.697 240.200,192.036 240.447,192.362 240.750 C 193.143 241.474,193.434 241.697,193.978 241.988 C 194.227 242.121,194.597 242.381,194.801 242.565 C 195.425 243.129,195.686 243.315,196.050 243.454 C 196.243 243.527,196.400 243.686,196.400 243.806 C 196.400 243.925,196.490 243.968,196.600 243.900 C 196.710 243.832,196.800 243.922,196.800 244.100 C 196.800 244.278,196.881 244.374,196.979 244.313 C 197.078 244.252,197.210 244.337,197.273 244.501 C 197.336 244.666,197.525 244.800,197.694 244.800 C 197.862 244.800,198.000 244.887,198.000 244.994 C 198.000 245.101,198.362 245.354,198.804 245.557 C 199.246 245.760,199.562 245.971,199.506 246.027 C 199.290 246.243,200.584 246.062,200.853 245.839 C 201.009 245.710,201.196 245.663,201.268 245.735 C 201.341 245.807,201.400 245.762,201.400 245.633 C 201.400 245.505,201.540 245.400,201.712 245.400 C 201.883 245.400,201.980 245.329,201.926 245.242 C 201.873 245.156,202.074 244.976,202.374 244.843 C 202.674 244.711,203.264 244.287,203.685 243.901 C 204.106 243.515,204.534 243.200,204.637 243.200 C 204.740 243.200,204.768 243.110,204.700 243.000 C 204.632 242.890,204.694 242.800,204.838 242.800 C 204.982 242.800,205.361 242.575,205.681 242.300 C 206.001 242.025,206.338 241.800,206.431 241.800 C 206.524 241.800,206.578 241.688,206.550 241.550 C 206.523 241.413,206.615 241.323,206.756 241.352 C 206.896 241.380,207.063 241.268,207.127 241.102 C 207.191 240.936,207.331 240.800,207.439 240.800 C 207.547 240.800,207.815 240.597,208.033 240.350 C 208.252 240.103,208.372 240.035,208.300 240.200 C 208.228 240.365,208.348 240.298,208.567 240.050 C 208.785 239.803,209.058 239.600,209.172 239.600 C 209.287 239.600,209.468 239.443,209.576 239.250 C 209.684 239.058,209.822 238.920,209.884 238.945 C 210.133 239.044,210.600 238.740,210.600 238.479 C 210.600 238.325,210.735 238.200,210.900 238.200 C 211.065 238.200,211.200 238.105,211.200 237.988 C 211.200 237.872,211.290 237.832,211.400 237.900 C 211.510 237.968,211.600 237.928,211.600 237.812 C 211.600 237.695,211.698 237.600,211.818 237.600 C 211.938 237.600,212.215 237.398,212.433 237.150 C 212.652 236.903,212.763 236.835,212.681 237.000 C 212.513 237.337,213.255 236.777,213.867 236.104 C 214.069 235.882,214.167 235.835,214.085 236.000 C 214.002 236.165,214.153 236.071,214.420 235.791 C 214.687 235.511,215.332 235.075,215.853 234.823 C 216.375 234.570,216.751 234.282,216.689 234.182 C 216.587 234.017,216.861 233.928,217.096 234.050 C 217.149 234.078,217.334 233.898,217.507 233.650 C 217.681 233.403,218.003 233.200,218.223 233.200 C 218.443 233.200,218.568 233.110,218.500 233.000 C 218.432 232.890,218.562 232.800,218.788 232.800 C 219.015 232.800,219.200 232.720,219.200 232.622 C 219.200 232.524,219.404 232.392,219.654 232.329 C 219.904 232.267,220.305 232.032,220.546 231.808 C 220.786 231.583,221.045 231.400,221.120 231.400 C 221.195 231.400,221.356 231.270,221.478 231.111 C 221.600 230.952,221.835 230.795,221.999 230.761 C 222.164 230.727,222.418 230.565,222.564 230.400 C 222.800 230.133,222.813 230.133,222.676 230.400 C 222.500 230.745,222.984 230.427,223.662 229.752 C 223.861 229.553,224.099 229.438,224.191 229.494 C 224.283 229.551,224.410 229.463,224.473 229.299 C 224.536 229.134,224.738 229.000,224.922 229.000 C 225.106 229.000,225.385 228.843,225.543 228.650 C 225.701 228.457,225.769 228.419,225.694 228.565 C 225.581 228.784,225.630 228.784,225.979 228.567 C 226.211 228.422,226.400 228.230,226.400 228.140 C 226.400 228.050,226.490 228.032,226.600 228.100 C 226.710 228.168,226.800 228.128,226.800 228.012 C 226.800 227.895,226.923 227.800,227.073 227.800 C 227.223 227.800,227.571 227.623,227.846 227.407 C 228.121 227.190,228.403 227.070,228.473 227.140 C 228.543 227.210,228.600 227.162,228.600 227.033 C 228.600 226.905,228.757 226.799,228.950 226.799 C 229.143 226.798,229.570 226.617,229.900 226.396 C 230.607 225.924,233.737 224.381,233.925 224.412 C 233.997 224.424,234.117 224.334,234.192 224.212 C 234.268 224.090,234.503 223.954,234.715 223.910 C 234.927 223.865,235.572 223.597,236.149 223.314 C 236.726 223.031,237.288 222.800,237.399 222.800 C 237.510 222.800,237.600 222.720,237.600 222.621 C 237.600 222.523,237.740 222.389,237.910 222.324 C 238.086 222.256,238.168 222.289,238.100 222.400 C 238.032 222.511,238.114 222.544,238.290 222.476 C 238.460 222.411,238.600 222.272,238.600 222.167 C 238.600 222.062,238.690 222.032,238.800 222.100 C 238.910 222.168,239.000 222.123,239.000 222.000 C 239.000 221.877,239.068 221.819,239.152 221.870 C 239.236 221.922,239.618 221.824,240.002 221.652 C 240.386 221.481,240.826 221.315,240.980 221.284 C 241.134 221.252,241.314 221.153,241.380 221.063 C 241.446 220.973,241.590 220.897,241.700 220.894 C 242.282 220.876,243.188 220.543,243.090 220.384 C 243.027 220.283,243.139 220.186,243.338 220.170 C 243.697 220.139,244.008 220.081,244.200 220.008 C 244.255 219.987,244.520 219.930,244.789 219.880 C 245.057 219.831,245.544 219.658,245.869 219.495 C 246.195 219.333,246.617 219.200,246.806 219.200 C 246.996 219.200,247.263 219.065,247.400 218.900 C 247.537 218.735,247.953 218.600,248.324 218.600 C 248.696 218.600,249.000 218.525,249.000 218.433 C 249.000 218.342,249.135 218.252,249.300 218.233 C 249.465 218.215,249.735 218.185,249.900 218.167 C 250.065 218.148,250.200 218.053,250.200 217.955 C 250.200 217.857,250.290 217.832,250.400 217.900 C 250.510 217.968,250.713 217.953,250.850 217.867 C 250.988 217.781,251.323 217.680,251.595 217.642 C 251.867 217.605,252.189 217.492,252.310 217.392 C 252.431 217.291,252.883 217.153,253.315 217.085 C 253.747 217.017,254.213 216.869,254.350 216.756 C 254.488 216.643,254.600 216.602,254.600 216.664 C 254.600 216.726,254.836 216.654,255.125 216.504 C 255.414 216.354,255.774 216.279,255.925 216.337 C 256.076 216.395,256.200 216.346,256.200 216.228 C 256.200 216.109,256.326 216.061,256.480 216.120 C 256.634 216.179,256.817 216.135,256.886 216.022 C 256.956 215.910,257.145 215.868,257.306 215.930 C 257.468 215.992,257.600 215.946,257.600 215.828 C 257.600 215.709,257.735 215.664,257.900 215.728 C 258.065 215.791,258.200 215.758,258.200 215.655 C 258.200 215.476,258.469 215.407,259.250 215.385 C 259.443 215.380,259.600 215.285,259.600 215.176 C 259.600 215.066,259.694 215.034,259.809 215.105 C 259.924 215.176,260.216 215.105,260.459 214.947 C 260.701 214.789,261.058 214.683,261.250 214.712 C 261.443 214.741,261.600 214.675,261.600 214.566 C 261.600 214.456,261.713 214.407,261.850 214.456 C 262.484 214.683,263.861 212.783,263.493 212.189 C 263.423 212.075,263.465 211.863,263.586 211.717 C 263.708 211.570,263.751 211.304,263.682 211.125 C 263.613 210.946,263.639 210.800,263.740 210.800 C 263.840 210.800,263.944 210.426,263.971 209.968 C 263.998 209.511,264.102 208.983,264.203 208.795 C 264.304 208.606,264.331 208.398,264.264 208.331 C 264.198 208.264,264.234 208.095,264.344 207.955 C 264.455 207.815,264.552 207.565,264.560 207.400 C 264.585 206.886,264.741 206.115,264.891 205.760 C 264.971 205.572,264.981 205.331,264.914 205.223 C 264.848 205.116,264.889 204.969,265.005 204.897 C 265.121 204.825,265.162 204.594,265.095 204.383 C 265.024 204.160,265.067 204.000,265.199 204.000 C 265.323 204.000,265.409 203.843,265.390 203.650 C 265.370 203.458,265.372 203.255,265.394 203.200 C 265.488 202.962,265.620 202.060,265.628 201.601 C 265.632 201.326,265.717 201.052,265.815 200.991 C 265.913 200.930,266.035 200.480,266.085 199.990 C 266.136 199.501,266.188 199.100,266.202 199.100 C 266.240 199.100,266.431 197.952,266.460 197.550 C 266.474 197.358,266.541 197.200,266.610 197.200 C 266.678 197.200,266.741 197.088,266.751 196.950 C 266.761 196.813,266.831 196.385,266.905 196.000 C 266.980 195.615,267.051 195.053,267.062 194.750 C 267.074 194.448,267.149 194.200,267.229 194.200 C 267.309 194.200,267.373 194.043,267.370 193.850 C 267.365 193.532,267.434 193.074,267.708 191.600 C 267.759 191.325,267.832 190.911,267.870 190.681 C 267.907 190.450,267.993 190.173,268.060 190.064 C 268.229 189.792,268.465 188.615,268.484 187.950 C 268.493 187.648,268.562 187.400,268.638 187.400 C 268.713 187.400,268.774 187.243,268.772 187.050 C 268.769 186.693,268.962 185.558,269.324 183.800 C 269.380 183.525,269.426 183.143,269.426 182.950 C 269.425 182.758,269.519 182.600,269.634 182.600 C 269.749 182.600,269.788 182.457,269.721 182.282 C 269.654 182.107,269.662 181.861,269.740 181.735 C 269.818 181.610,269.901 181.370,269.926 181.204 C 270.086 180.120,270.205 179.512,270.385 178.862 C 270.497 178.455,270.547 178.081,270.496 178.030 C 270.445 177.979,270.498 177.822,270.615 177.682 C 270.731 177.542,270.848 177.081,270.874 176.658 C 270.901 176.234,270.982 175.791,271.055 175.673 C 271.128 175.554,271.233 175.097,271.289 174.655 C 271.344 174.214,271.481 173.612,271.594 173.317 C 271.706 173.022,271.821 172.380,271.849 171.891 C 271.877 171.402,271.973 171.002,272.062 171.001 C 272.151 171.000,272.175 170.922,272.116 170.826 C 272.057 170.730,272.151 170.123,272.326 169.476 C 272.501 168.829,272.676 168.120,272.715 167.900 C 272.936 166.659,273.003 166.261,273.055 165.900 C 273.086 165.680,273.182 165.388,273.268 165.250 C 273.353 165.113,273.368 164.910,273.300 164.800 C 273.232 164.690,273.247 164.487,273.333 164.350 C 273.515 164.059,273.604 163.695,273.664 163.000 C 273.688 162.725,273.771 162.400,273.848 162.278 C 273.926 162.156,274.030 161.751,274.079 161.378 C 274.128 161.005,274.305 160.183,274.473 159.551 C 274.640 158.919,274.743 158.222,274.700 158.001 C 274.658 157.781,274.702 157.600,274.799 157.600 C 274.896 157.600,274.969 157.442,274.962 157.250 C 274.955 157.058,275.014 156.585,275.093 156.200 C 275.172 155.815,275.254 155.410,275.274 155.300 C 275.294 155.190,275.382 154.988,275.467 154.850 C 275.553 154.713,275.566 154.506,275.495 154.391 C 275.424 154.276,275.474 154.052,275.606 153.892 C 275.739 153.733,275.800 153.422,275.742 153.201 C 275.685 152.980,275.725 152.800,275.831 152.800 C 275.938 152.800,276.003 152.643,275.976 152.450 C 275.948 152.258,276.001 151.785,276.093 151.400 C 276.185 151.015,276.289 150.520,276.324 150.300 C 276.407 149.774,276.512 149.368,276.660 149.000 C 276.834 148.568,277.050 147.176,277.026 146.650 C 277.014 146.403,277.074 146.200,277.159 146.200 C 277.310 146.200,277.365 145.880,277.406 144.750 C 277.418 144.447,277.520 144.200,277.635 144.200 C 277.749 144.200,277.787 144.054,277.718 143.875 C 277.649 143.696,277.695 143.426,277.820 143.276 C 277.945 143.125,278.001 142.826,277.945 142.611 C 277.889 142.395,277.921 142.192,278.017 142.160 C 278.114 142.127,278.234 141.695,278.285 141.200 C 278.336 140.705,278.393 140.255,278.412 140.200 C 278.431 140.145,278.430 139.942,278.410 139.750 C 278.391 139.558,278.459 139.400,278.562 139.400 C 278.666 139.400,278.765 139.175,278.782 138.900 C 278.800 138.625,278.830 138.175,278.848 137.900 C 278.865 137.625,278.937 137.400,279.008 137.400 C 279.078 137.400,279.147 137.081,279.162 136.690 C 279.177 136.300,279.243 135.892,279.310 135.785 C 279.376 135.677,279.467 135.344,279.513 135.044 C 279.622 134.317,279.710 133.967,279.888 133.560 C 279.969 133.372,279.981 133.131,279.914 133.023 C 279.848 132.916,279.891 132.767,280.010 132.694 C 280.130 132.620,280.175 132.422,280.110 132.254 C 280.046 132.087,280.088 131.835,280.205 131.695 C 280.321 131.554,280.435 131.027,280.458 130.521 C 280.481 130.016,280.560 129.602,280.633 129.601 C 280.707 129.601,280.767 129.182,280.767 128.672 C 280.767 128.162,280.853 127.689,280.959 127.622 C 281.065 127.555,281.218 127.095,281.300 126.600 C 281.381 126.105,281.491 125.475,281.542 125.200 C 281.770 123.989,281.822 123.676,281.861 123.300 C 281.884 123.080,281.970 122.796,282.052 122.668 C 282.134 122.540,282.216 122.068,282.234 121.618 C 282.251 121.168,282.335 120.800,282.420 120.800 C 282.505 120.800,282.577 120.642,282.579 120.450 C 282.581 120.258,282.682 119.605,282.803 119.000 C 282.924 118.395,283.057 117.630,283.099 117.300 C 283.140 116.970,283.192 116.700,283.213 116.700 C 283.234 116.700,283.278 116.520,283.310 116.300 C 283.342 116.080,283.452 115.630,283.553 115.300 C 283.655 114.970,283.722 114.498,283.702 114.250 C 283.683 114.003,283.752 113.800,283.855 113.800 C 283.959 113.800,283.987 113.575,283.918 113.300 C 283.849 113.025,283.869 112.800,283.963 112.800 C 284.057 112.800,284.145 112.688,284.160 112.550 C 284.240 111.780,284.366 111.064,284.467 110.800 C 284.913 109.631,284.566 108.700,283.924 109.342 C 283.846 109.420,283.404 109.499,282.941 109.518 C 282.479 109.536,281.560 109.618,280.900 109.699 C 280.240 109.781,279.475 109.870,279.200 109.898 C 278.925 109.926,278.700 109.970,278.700 109.995 C 278.700 110.043,277.933 110.140,276.500 110.273 C 276.060 110.313,275.700 110.368,275.700 110.395 C 275.700 110.421,275.385 110.470,275.000 110.503 C 274.615 110.537,273.895 110.625,273.400 110.700 C 272.905 110.775,272.298 110.838,272.050 110.839 C 271.803 110.841,271.600 110.916,271.600 111.007 C 271.600 111.097,271.308 111.177,270.950 111.184 C 269.753 111.207,269.000 111.299,269.000 111.423 C 269.000 111.490,268.798 111.532,268.550 111.515 C 268.303 111.498,267.470 111.608,266.700 111.759 C 264.671 112.156,264.569 112.175,263.800 112.299 C 263.415 112.361,262.875 112.470,262.600 112.542 C 262.088 112.677,262.005 112.693,260.800 112.899 C 260.415 112.965,259.965 113.073,259.800 113.140 C 259.635 113.207,259.357 113.244,259.182 113.224 C 259.007 113.203,258.602 113.293,258.282 113.424 C 257.604 113.701,257.302 113.773,256.550 113.838 C 256.248 113.864,256.000 113.933,256.000 113.993 C 256.000 114.052,255.798 114.113,255.550 114.129 C 254.616 114.190,254.200 114.291,254.200 114.456 C 254.200 114.550,254.020 114.570,253.800 114.500 C 253.580 114.430,253.400 114.447,253.400 114.537 C 253.399 114.626,253.066 114.724,252.660 114.753 C 252.253 114.782,251.857 114.908,251.780 115.032 C 251.703 115.157,251.496 115.203,251.320 115.135 C 251.144 115.068,251.000 115.092,251.000 115.189 C 251.000 115.285,250.843 115.341,250.650 115.312 C 250.457 115.283,250.030 115.342,249.700 115.443 C 249.370 115.544,248.965 115.658,248.800 115.698 C 248.635 115.737,248.478 115.788,248.450 115.810 C 248.423 115.832,248.310 115.873,248.200 115.900 C 248.090 115.928,247.933 115.975,247.850 116.005 C 247.768 116.036,247.610 116.082,247.500 116.107 C 247.390 116.133,247.255 116.171,247.200 116.192 C 247.145 116.213,246.935 116.262,246.734 116.300 C 246.533 116.338,246.218 116.435,246.034 116.515 C 245.632 116.690,245.236 116.803,244.700 116.897 C 244.480 116.935,244.255 116.985,244.200 117.007 C 244.145 117.029,244.032 117.037,243.950 117.024 C 243.868 117.011,243.800 117.082,243.800 117.181 C 243.800 117.281,243.620 117.315,243.400 117.258 C 243.168 117.197,243.000 117.252,243.000 117.388 C 243.000 117.518,242.906 117.566,242.791 117.495 C 242.676 117.424,242.467 117.461,242.326 117.578 C 242.185 117.695,241.717 117.847,241.285 117.915 C 240.853 117.983,240.402 118.119,240.282 118.217 C 240.161 118.316,240.004 118.337,239.932 118.265 C 239.859 118.193,239.800 118.238,239.800 118.367 C 239.800 118.495,239.732 118.589,239.650 118.576 C 239.568 118.563,239.455 118.572,239.400 118.596 C 239.345 118.620,239.075 118.662,238.800 118.690 C 237.985 118.772,236.000 119.458,236.000 119.658 C 236.000 119.760,235.865 119.791,235.700 119.728 C 235.535 119.664,235.400 119.685,235.400 119.773 C 235.400 119.861,235.265 119.948,235.100 119.967 C 234.935 119.985,234.665 120.015,234.500 120.033 C 234.335 120.052,234.200 120.151,234.200 120.255 C 234.200 120.358,234.065 120.391,233.900 120.328 C 233.735 120.264,233.600 120.305,233.600 120.418 C 233.600 120.531,233.512 120.569,233.404 120.503 C 233.296 120.436,233.004 120.494,232.754 120.632 C 232.294 120.885,232.185 120.915,231.538 120.970 C 231.317 120.988,231.232 121.091,231.321 121.234 C 231.418 121.391,231.357 121.426,231.133 121.340 C 230.950 121.270,230.800 121.300,230.800 121.406 C 230.800 121.513,230.548 121.600,230.240 121.600 C 229.932 121.600,229.572 121.708,229.440 121.840 C 229.308 121.972,229.200 122.006,229.200 121.916 C 229.200 121.825,229.088 121.840,228.950 121.949 C 228.813 122.059,228.340 122.261,227.900 122.400 C 227.460 122.539,226.988 122.741,226.850 122.851 C 226.713 122.960,226.600 122.987,226.600 122.910 C 226.600 122.834,226.458 122.914,226.284 123.088 C 226.110 123.261,225.879 123.349,225.771 123.282 C 225.663 123.215,225.411 123.309,225.210 123.491 C 225.009 123.673,224.655 123.836,224.422 123.853 C 224.190 123.871,224.000 123.953,224.000 124.036 C 224.000 124.119,223.865 124.136,223.700 124.072 C 223.535 124.009,223.400 124.062,223.400 124.190 C 223.400 124.319,223.310 124.368,223.200 124.300 C 223.090 124.232,223.000 124.281,223.000 124.410 C 223.000 124.538,222.872 124.594,222.716 124.534 C 222.560 124.474,222.231 124.599,221.986 124.812 C 221.470 125.260,221.314 125.306,221.523 124.950 C 221.603 124.813,221.488 124.858,221.268 125.050 C 221.048 125.243,220.807 125.341,220.734 125.267 C 220.660 125.194,220.600 125.236,220.600 125.360 C 220.600 125.490,220.457 125.533,220.267 125.460 C 220.026 125.367,219.979 125.405,220.098 125.597 C 220.210 125.778,220.185 125.814,220.018 125.711 C 219.882 125.627,219.610 125.710,219.400 125.900 C 219.194 126.087,218.937 126.185,218.829 126.118 C 218.721 126.051,218.501 126.128,218.340 126.289 C 218.179 126.449,217.992 126.525,217.924 126.457 C 217.856 126.389,217.800 126.453,217.800 126.600 C 217.800 126.747,217.744 126.810,217.675 126.741 C 217.606 126.672,217.292 126.749,216.977 126.912 C 216.662 127.075,216.368 127.184,216.323 127.154 C 216.278 127.124,216.053 127.271,215.821 127.481 C 215.589 127.691,215.400 127.792,215.400 127.707 C 215.400 127.621,215.265 127.663,215.100 127.800 C 214.935 127.937,214.800 127.979,214.800 127.893 C 214.800 127.808,214.635 127.887,214.434 128.069 C 214.232 128.252,214.007 128.341,213.934 128.267 C 213.860 128.194,213.800 128.242,213.800 128.375 C 213.800 128.509,213.688 128.604,213.550 128.587 C 213.149 128.538,212.400 128.830,212.400 129.035 C 212.400 129.139,212.317 129.172,212.216 129.110 C 212.115 129.047,211.901 129.128,211.740 129.289 C 211.579 129.449,211.392 129.525,211.324 129.457 C 211.256 129.389,211.200 129.453,211.200 129.600 C 211.200 129.747,211.140 129.806,211.066 129.733 C 210.993 129.659,210.768 129.748,210.566 129.931 C 210.365 130.113,210.200 130.189,210.200 130.100 C 210.200 130.011,210.005 130.109,209.766 130.319 C 209.527 130.529,209.396 130.589,209.476 130.452 C 209.574 130.285,209.520 130.243,209.312 130.323 C 209.141 130.389,209.061 130.536,209.132 130.652 C 209.210 130.779,209.165 130.802,209.018 130.711 C 208.875 130.623,208.648 130.714,208.472 130.930 C 208.299 131.142,208.226 131.172,208.300 131.000 C 208.371 130.835,208.288 130.875,208.115 131.088 C 207.942 131.302,207.800 131.400,207.800 131.307 C 207.800 131.214,207.611 131.309,207.379 131.519 C 207.147 131.729,206.900 131.880,206.829 131.855 C 206.626 131.785,205.600 132.281,205.600 132.449 C 205.600 132.532,205.425 132.600,205.210 132.600 C 204.996 132.600,204.571 132.831,204.266 133.114 C 203.961 133.396,203.462 133.678,203.156 133.739 C 202.850 133.800,202.600 133.934,202.600 134.037 C 202.600 134.140,202.510 134.168,202.400 134.100 C 202.290 134.032,202.200 134.050,202.200 134.140 C 202.200 134.230,202.011 134.422,201.779 134.567 C 201.548 134.711,201.417 134.734,201.489 134.617 C 201.570 134.487,201.500 134.451,201.310 134.524 C 201.140 134.589,201.000 134.711,201.000 134.794 C 201.000 134.877,200.528 134.912,199.950 134.873 C 199.373 134.833,198.743 134.795,198.550 134.788 C 198.358 134.781,198.200 134.685,198.200 134.576 C 198.200 134.466,198.110 134.432,198.000 134.500 C 197.890 134.568,197.800 134.523,197.800 134.400 C 197.800 134.277,197.710 134.232,197.600 134.300 C 197.490 134.368,197.400 134.350,197.400 134.260 C 197.400 134.170,197.211 133.978,196.979 133.833 C 196.630 133.616,196.581 133.616,196.694 133.835 C 196.769 133.981,196.688 133.925,196.515 133.712 C 196.342 133.498,196.200 133.403,196.200 133.499 C 196.200 133.596,196.015 133.476,195.788 133.233 C 195.562 132.990,195.292 132.843,195.188 132.907 C 195.085 132.971,195.000 132.913,195.000 132.778 C 195.000 132.644,194.944 132.589,194.876 132.657 C 194.808 132.725,194.621 132.649,194.460 132.489 C 194.299 132.328,194.085 132.247,193.984 132.310 C 193.883 132.372,193.800 132.323,193.800 132.200 C 193.800 132.077,193.710 132.032,193.600 132.100 C 193.490 132.168,193.400 132.148,193.400 132.056 C 193.400 131.909,192.231 131.366,192.022 131.416 C 191.980 131.426,191.881 131.330,191.802 131.204 C 191.724 131.077,191.525 130.954,191.360 130.929 C 191.195 130.905,190.825 130.731,190.537 130.543 C 190.249 130.354,189.881 130.200,189.719 130.200 C 189.556 130.200,189.367 130.109,189.298 129.997 C 189.102 129.680,187.728 129.046,187.450 129.144 C 187.313 129.193,187.200 129.136,187.200 129.017 C 187.200 128.898,187.020 128.800,186.800 128.800 C 186.580 128.800,186.400 128.705,186.400 128.588 C 186.400 128.472,186.310 128.432,186.200 128.500 C 186.090 128.568,186.000 128.528,186.000 128.412 C 186.000 128.295,185.825 128.200,185.612 128.200 C 185.398 128.200,185.167 128.109,185.098 127.997 C 185.029 127.885,184.889 127.845,184.786 127.909 C 184.684 127.972,184.600 127.923,184.600 127.800 C 184.600 127.677,184.522 127.625,184.426 127.684 C 184.330 127.743,184.046 127.614,183.795 127.396 C 183.340 127.001,183.124 126.924,182.650 126.985 C 182.513 127.003,182.400 126.931,182.400 126.825 C 182.400 126.719,182.108 126.568,181.750 126.490 C 181.393 126.412,180.892 126.185,180.637 125.985 C 180.383 125.786,180.045 125.672,179.887 125.733 C 179.729 125.793,179.600 125.738,179.600 125.610 C 179.600 125.481,179.510 125.432,179.400 125.500 C 179.290 125.568,179.200 125.531,179.200 125.418 C 179.200 125.305,179.050 125.270,178.867 125.340 C 178.624 125.434,178.579 125.396,178.700 125.200 C 178.821 125.004,178.776 124.966,178.533 125.060 C 178.350 125.130,178.200 125.095,178.200 124.982 C 178.200 124.869,178.116 124.828,178.014 124.891 C 177.911 124.955,177.770 124.914,177.700 124.800 C 177.630 124.686,177.489 124.645,177.386 124.709 C 177.284 124.772,177.200 124.739,177.200 124.635 C 177.200 124.471,176.967 124.358,176.100 124.099 C 175.990 124.067,175.630 123.927,175.300 123.789 C 174.970 123.651,174.610 123.516,174.500 123.489 C 174.390 123.462,174.030 123.323,173.700 123.181 C 173.370 123.039,173.010 122.918,172.900 122.911 C 172.790 122.905,172.576 122.782,172.424 122.638 C 172.273 122.495,172.025 122.424,171.874 122.482 C 171.723 122.540,171.600 122.500,171.600 122.394 C 171.600 122.287,171.533 122.214,171.450 122.231 C 171.368 122.248,170.952 122.107,170.527 121.918 C 170.101 121.730,169.502 121.543,169.195 121.504 C 168.889 121.466,168.424 121.294,168.162 121.122 C 167.901 120.951,167.510 120.783,167.293 120.750 C 167.077 120.716,166.788 120.618,166.650 120.532 C 166.513 120.447,166.310 120.432,166.200 120.500 C 166.090 120.568,166.000 120.540,166.000 120.437 C 166.000 120.334,165.756 120.250,165.458 120.250 C 165.160 120.250,164.885 120.154,164.845 120.036 C 164.806 119.919,164.645 119.872,164.487 119.933 C 164.329 119.993,164.200 119.934,164.200 119.800 C 164.200 119.666,164.074 119.606,163.920 119.665 C 163.765 119.724,163.578 119.711,163.503 119.636 C 163.428 119.561,163.307 119.498,163.233 119.495 C 162.791 119.479,161.200 118.920,161.200 118.780 C 161.200 118.688,161.074 118.661,160.920 118.720 C 160.766 118.779,160.580 118.730,160.506 118.610 C 160.433 118.491,160.289 118.445,160.186 118.509 C 160.084 118.572,160.000 118.545,160.000 118.450 C 160.000 118.307,158.474 117.794,157.700 117.676 C 157.590 117.660,157.433 117.625,157.350 117.598 C 157.268 117.572,157.110 117.528,157.000 117.500 C 156.890 117.472,156.755 117.428,156.700 117.400 C 156.645 117.373,156.533 117.331,156.450 117.308 C 156.368 117.284,156.165 117.208,156.000 117.138 C 155.722 117.020,154.291 116.648,153.600 116.514 C 153.435 116.482,153.165 116.398,153.000 116.328 C 152.835 116.257,152.430 116.159,152.100 116.108 C 151.770 116.058,151.005 115.872,150.400 115.696 C 149.795 115.519,149.120 115.346,148.900 115.311 C 148.680 115.277,148.249 115.148,147.943 115.026 C 147.637 114.904,147.322 114.814,147.243 114.826 C 147.164 114.838,147.055 114.830,147.000 114.808 C 146.734 114.705,146.054 114.583,145.650 114.567 C 145.403 114.558,145.200 114.465,145.200 114.362 C 145.200 114.258,145.020 114.230,144.800 114.300 C 144.580 114.370,144.400 114.339,144.400 114.232 C 144.400 114.125,144.220 114.085,144.000 114.142 C 143.780 114.200,143.600 114.165,143.600 114.066 C 143.600 113.891,143.179 113.808,142.250 113.800 C 142.003 113.797,141.800 113.696,141.800 113.574 C 141.800 113.452,141.622 113.400,141.400 113.458 C 141.180 113.515,141.000 113.493,141.000 113.409 C 141.000 113.324,140.775 113.280,140.501 113.310 C 140.226 113.340,139.950 113.281,139.887 113.179 C 139.824 113.077,139.696 113.041,139.603 113.098 C 139.510 113.156,139.179 113.106,138.867 112.987 C 138.555 112.868,137.985 112.726,137.600 112.671 C 136.444 112.507,136.128 112.443,135.500 112.247 C 135.170 112.144,134.723 112.086,134.507 112.118 C 134.291 112.151,134.021 112.105,133.907 112.016 C 133.696 111.851,133.625 111.839,132.400 111.751 C 132.015 111.723,131.599 111.634,131.475 111.554 C 131.352 111.473,130.767 111.354,130.175 111.288 C 128.682 111.122,128.372 111.073,127.800 110.918 C 127.525 110.844,126.940 110.750,126.500 110.711 C 126.060 110.672,125.385 110.586,125.000 110.521 C 124.615 110.456,123.805 110.353,123.200 110.293 C 122.595 110.233,121.830 110.140,121.500 110.085 C 121.170 110.031,120.630 109.943,120.300 109.889 C 119.970 109.836,119.340 109.765,118.900 109.733 C 118.460 109.700,117.942 109.602,117.750 109.515 C 117.557 109.428,117.170 109.414,116.890 109.485 C 116.611 109.555,116.273 109.545,116.141 109.462 C 115.501 109.063,115.152 109.181,115.297 109.748 M139.600 130.105 C 140.623 130.211,141.081 130.303,141.315 130.447 C 141.429 130.518,141.698 130.548,141.911 130.514 C 142.125 130.479,142.409 130.538,142.541 130.643 C 142.674 130.748,142.860 130.786,142.956 130.727 C 143.051 130.669,143.379 130.750,143.685 130.909 C 143.991 131.068,144.320 131.150,144.415 131.091 C 144.510 131.032,144.864 131.126,145.200 131.300 C 145.536 131.474,145.899 131.562,146.006 131.496 C 146.113 131.430,146.200 131.457,146.200 131.555 C 146.200 131.653,146.313 131.738,146.450 131.743 C 147.039 131.767,147.855 131.997,148.115 132.212 C 148.269 132.340,148.531 132.393,148.697 132.329 C 148.864 132.265,149.000 132.297,149.000 132.400 C 149.000 132.503,149.135 132.536,149.300 132.472 C 149.465 132.409,149.600 132.448,149.600 132.560 C 149.600 132.671,149.780 132.715,150.000 132.658 C 150.232 132.597,150.400 132.652,150.400 132.788 C 150.400 132.918,150.486 132.970,150.592 132.905 C 150.697 132.840,150.945 132.871,151.142 132.974 C 151.636 133.232,153.267 133.709,153.450 133.649 C 153.532 133.622,153.600 133.705,153.600 133.833 C 153.600 133.962,153.659 134.007,153.732 133.935 C 153.804 133.863,153.971 133.893,154.102 134.002 C 154.233 134.110,154.579 134.219,154.870 134.243 C 155.162 134.268,155.400 134.343,155.400 134.410 C 155.400 134.589,156.836 135.002,157.033 134.880 C 157.125 134.823,157.200 134.881,157.200 135.010 C 157.200 135.138,157.335 135.191,157.500 135.128 C 157.665 135.064,157.800 135.115,157.800 135.240 C 157.800 135.364,157.856 135.410,157.925 135.341 C 157.994 135.272,158.298 135.344,158.600 135.500 C 158.902 135.656,159.190 135.743,159.240 135.693 C 159.290 135.644,159.725 135.793,160.207 136.026 C 160.690 136.259,161.289 136.450,161.538 136.450 C 161.803 136.450,161.939 136.537,161.864 136.659 C 161.785 136.786,161.859 136.820,162.054 136.745 C 162.230 136.678,162.405 136.716,162.443 136.830 C 162.481 136.944,162.757 137.051,163.056 137.068 C 163.355 137.086,163.600 137.167,163.600 137.250 C 163.600 137.332,163.668 137.381,163.750 137.358 C 163.833 137.334,164.113 137.433,164.374 137.577 C 164.635 137.722,164.795 137.754,164.731 137.650 C 164.666 137.545,165.121 137.712,165.741 138.020 C 166.361 138.329,166.943 138.535,167.034 138.479 C 167.125 138.422,167.200 138.477,167.200 138.600 C 167.200 138.723,167.296 138.764,167.413 138.692 C 167.530 138.620,167.800 138.719,168.013 138.911 C 168.226 139.104,168.400 139.192,168.400 139.107 C 168.400 139.021,168.521 139.051,168.668 139.174 C 168.816 139.296,168.996 139.337,169.068 139.265 C 169.141 139.193,169.200 139.236,169.200 139.360 C 169.200 139.485,169.335 139.536,169.500 139.472 C 169.665 139.409,169.800 139.462,169.800 139.590 C 169.800 139.719,169.890 139.768,170.000 139.700 C 170.110 139.632,170.200 139.669,170.200 139.782 C 170.200 139.895,170.335 139.936,170.500 139.872 C 170.665 139.809,170.800 139.857,170.800 139.979 C 170.800 140.100,170.913 140.203,171.050 140.207 C 171.188 140.211,171.660 140.387,172.100 140.600 C 172.540 140.813,173.108 140.989,173.362 140.993 C 173.662 140.998,173.773 141.082,173.679 141.234 C 173.582 141.390,173.643 141.426,173.861 141.343 C 174.040 141.274,174.240 141.304,174.305 141.409 C 174.370 141.514,174.598 141.600,174.812 141.600 C 175.025 141.600,175.200 141.695,175.200 141.812 C 175.200 141.928,175.290 141.968,175.400 141.900 C 175.510 141.832,175.600 141.887,175.600 142.022 C 175.600 142.156,175.660 142.206,175.734 142.133 C 175.808 142.059,176.078 142.136,176.334 142.304 C 176.590 142.472,176.800 142.548,176.800 142.474 C 176.800 142.399,176.965 142.487,177.166 142.669 C 177.368 142.852,177.593 142.941,177.666 142.867 C 177.740 142.794,177.800 142.848,177.800 142.988 C 177.800 143.132,177.930 143.193,178.100 143.128 C 178.265 143.064,178.400 143.100,178.400 143.206 C 178.400 143.313,178.468 143.390,178.550 143.378 C 178.862 143.333,179.600 143.654,179.600 143.835 C 179.600 143.939,179.690 143.968,179.800 143.900 C 179.910 143.832,180.000 143.853,180.000 143.946 C 180.000 144.039,180.194 144.130,180.432 144.147 C 180.670 144.165,180.926 144.280,181.002 144.403 C 181.078 144.526,181.279 144.647,181.450 144.672 C 181.620 144.697,181.899 144.834,182.070 144.975 C 182.241 145.117,182.626 145.260,182.926 145.293 C 183.226 145.326,183.588 145.513,183.732 145.710 C 183.875 145.906,184.163 146.079,184.372 146.094 C 184.580 146.110,184.908 146.280,185.101 146.473 C 185.294 146.665,185.580 146.774,185.736 146.714 C 185.894 146.653,185.966 146.693,185.899 146.802 C 185.789 146.980,186.053 147.086,186.450 147.024 C 186.533 147.011,186.600 147.087,186.600 147.194 C 186.600 147.300,186.716 147.343,186.857 147.289 C 186.998 147.235,187.310 147.372,187.549 147.595 C 187.788 147.818,188.059 148.000,188.152 148.000 C 188.460 148.000,189.397 148.497,189.398 148.662 C 189.399 148.751,189.476 148.776,189.570 148.719 C 189.663 148.661,189.919 148.781,190.139 148.986 C 190.358 149.190,190.815 149.501,191.155 149.677 C 192.093 150.162,192.058 148.947,192.080 182.000 C 192.103 217.139,192.072 220.242,191.707 219.743 C 191.571 219.558,191.404 219.463,191.335 219.532 C 191.266 219.601,191.153 219.510,191.084 219.330 C 191.015 219.150,190.878 219.052,190.779 219.113 C 190.681 219.174,190.600 219.139,190.600 219.035 C 190.600 218.804,189.607 218.133,189.265 218.133 C 189.129 218.133,188.969 218.008,188.910 217.854 C 188.851 217.700,188.712 217.631,188.601 217.699 C 188.491 217.768,188.400 217.738,188.400 217.633 C 188.400 217.529,188.175 217.387,187.900 217.318 C 187.625 217.249,187.400 217.099,187.400 216.984 C 187.400 216.870,187.310 216.832,187.200 216.900 C 187.090 216.968,187.000 216.928,187.000 216.812 C 187.000 216.695,186.906 216.600,186.792 216.600 C 186.677 216.600,186.390 216.420,186.154 216.200 C 185.918 215.980,185.594 215.800,185.434 215.800 C 185.275 215.800,185.015 215.643,184.857 215.450 C 184.670 215.221,184.615 215.204,184.700 215.400 C 184.771 215.565,184.688 215.525,184.515 215.312 C 184.342 215.098,184.200 215.003,184.200 215.100 C 184.200 215.197,184.058 215.102,183.885 214.888 C 183.712 214.675,183.629 214.635,183.700 214.800 C 183.787 215.000,183.735 214.985,183.545 214.753 C 183.389 214.562,183.204 214.463,183.135 214.532 C 183.066 214.601,182.953 214.510,182.884 214.330 C 182.815 214.150,182.688 214.046,182.602 214.099 C 182.516 214.152,182.334 214.062,182.198 213.898 C 182.062 213.734,181.838 213.600,181.700 213.600 C 181.562 213.600,181.337 213.465,181.200 213.300 C 181.063 213.135,180.793 213.000,180.600 213.000 C 180.407 213.000,180.139 212.868,180.005 212.706 C 179.871 212.545,179.703 212.420,179.631 212.428 C 179.307 212.466,178.600 212.133,178.600 211.943 C 178.600 211.828,178.543 211.790,178.473 211.860 C 178.403 211.930,178.123 211.811,177.850 211.596 C 177.577 211.381,177.274 211.255,177.176 211.315 C 177.079 211.375,177.000 211.350,177.000 211.261 C 177.000 211.078,175.783 210.486,175.550 210.555 C 175.468 210.580,175.400 210.510,175.400 210.400 C 175.400 210.290,175.220 210.200,175.000 210.200 C 174.780 210.200,174.600 210.110,174.600 210.000 C 174.600 209.890,174.420 209.800,174.200 209.800 C 173.980 209.800,173.800 209.710,173.800 209.600 C 173.800 209.490,173.733 209.411,173.650 209.424 C 173.211 209.493,172.814 209.359,172.405 209.004 C 172.154 208.786,171.870 208.657,171.774 208.716 C 171.678 208.775,171.600 208.750,171.600 208.659 C 171.600 208.486,170.061 207.722,169.677 207.704 C 169.555 207.699,169.305 207.570,169.122 207.418 C 168.940 207.267,168.735 207.198,168.668 207.265 C 168.601 207.332,168.323 207.211,168.050 206.996 C 167.777 206.781,167.480 206.651,167.390 206.706 C 167.301 206.761,167.170 206.714,167.100 206.600 C 167.030 206.486,166.889 206.445,166.786 206.509 C 166.684 206.572,166.600 206.519,166.600 206.390 C 166.600 206.262,166.477 206.204,166.326 206.262 C 166.175 206.320,165.770 206.196,165.426 205.987 C 165.082 205.777,164.800 205.655,164.800 205.714 C 164.800 205.774,164.553 205.690,164.250 205.527 C 163.454 205.100,162.000 204.582,162.000 204.726 C 162.000 204.794,161.879 204.749,161.732 204.626 C 161.584 204.504,161.404 204.463,161.332 204.535 C 161.259 204.607,161.200 204.564,161.200 204.440 C 161.200 204.315,161.065 204.264,160.900 204.328 C 160.730 204.393,160.600 204.332,160.600 204.188 C 160.600 204.048,160.541 203.993,160.468 204.065 C 160.396 204.137,160.231 204.109,160.103 204.002 C 159.974 203.895,159.696 203.781,159.484 203.748 C 159.273 203.715,158.997 203.624,158.872 203.546 C 158.746 203.467,158.303 203.359,157.886 203.306 C 157.470 203.253,157.065 203.106,156.987 202.979 C 156.909 202.852,156.745 202.811,156.622 202.886 C 156.500 202.962,156.400 202.928,156.400 202.812 C 156.400 202.695,156.169 202.600,155.886 202.600 C 155.603 202.600,155.231 202.460,155.060 202.288 C 154.889 202.117,154.625 202.024,154.474 202.082 C 154.323 202.140,154.200 202.095,154.200 201.982 C 154.200 201.869,154.113 201.830,154.006 201.897 C 153.899 201.963,153.588 201.870,153.314 201.691 C 153.041 201.512,152.710 201.432,152.578 201.514 C 152.426 201.607,152.391 201.577,152.481 201.431 C 152.571 201.285,152.474 201.200,152.219 201.200 C 151.774 201.200,151.400 200.657,151.400 200.013 C 151.400 199.786,151.305 199.600,151.188 199.600 C 151.072 199.600,151.023 199.524,151.081 199.431 C 151.138 199.338,151.082 198.911,150.955 198.481 C 150.829 198.052,150.709 197.633,150.688 197.550 C 150.667 197.468,150.629 197.378,150.602 197.350 C 150.558 197.303,150.474 196.729,150.303 195.300 C 150.263 194.970,150.217 194.700,150.199 194.700 C 150.182 194.700,150.139 194.475,150.105 194.200 C 150.043 193.700,149.866 192.696,149.693 191.850 C 149.642 191.602,149.560 191.197,149.511 190.950 C 149.462 190.702,149.364 190.275,149.295 190.000 C 149.225 189.725,149.139 189.275,149.104 189.000 C 149.068 188.725,149.019 188.500,148.994 188.500 C 148.969 188.500,148.919 188.275,148.882 188.000 C 148.771 187.155,148.653 186.500,148.612 186.500 C 148.570 186.500,148.372 185.264,148.348 184.850 C 148.340 184.713,148.271 184.600,148.194 184.600 C 148.118 184.600,148.098 184.375,148.151 184.100 C 148.204 183.825,148.169 183.600,148.073 183.599 C 147.978 183.598,147.879 183.227,147.853 182.773 C 147.827 182.319,147.713 181.836,147.599 181.699 C 147.486 181.562,147.449 181.304,147.518 181.125 C 147.587 180.946,147.556 180.800,147.449 180.800 C 147.343 180.800,147.298 180.575,147.351 180.300 C 147.404 180.025,147.364 179.800,147.262 179.800 C 147.161 179.800,147.056 179.421,147.029 178.958 C 147.001 178.494,146.892 178.011,146.786 177.883 C 146.680 177.755,146.649 177.504,146.718 177.325 C 146.787 177.146,146.751 177.000,146.639 177.000 C 146.527 177.000,146.460 176.775,146.490 176.500 C 146.520 176.225,146.486 176.000,146.415 176.000 C 146.343 176.000,146.271 175.639,146.253 175.198 C 146.235 174.757,146.151 174.284,146.066 174.148 C 145.981 174.012,145.883 173.720,145.848 173.500 C 145.750 172.879,145.634 172.310,145.584 172.200 C 145.559 172.145,145.518 172.010,145.493 171.900 C 145.467 171.790,145.424 171.655,145.397 171.600 C 145.339 171.480,145.207 170.439,145.188 169.950 C 145.181 169.758,145.097 169.600,145.001 169.600 C 144.905 169.600,144.867 169.375,144.917 169.100 C 144.967 168.825,144.935 168.600,144.846 168.600 C 144.690 168.600,144.594 168.172,144.544 167.250 C 144.531 167.003,144.467 166.800,144.403 166.800 C 144.338 166.800,144.277 166.643,144.265 166.450 C 144.214 165.578,144.102 165.000,143.984 165.000 C 143.913 165.000,143.880 164.775,143.910 164.500 C 143.940 164.225,143.905 164.000,143.832 164.000 C 143.760 163.999,143.678 163.752,143.651 163.450 C 143.585 162.707,143.510 162.338,143.378 162.100 C 143.317 161.990,143.248 161.544,143.225 161.110 C 143.201 160.675,143.086 160.204,142.969 160.062 C 142.851 159.921,142.807 159.669,142.871 159.503 C 142.935 159.336,142.891 159.200,142.772 159.200 C 142.642 159.200,142.606 159.002,142.682 158.700 C 142.751 158.425,142.731 158.200,142.637 158.200 C 142.544 158.200,142.482 157.999,142.500 157.753 C 142.518 157.507,142.406 156.900,142.251 156.403 C 142.096 155.906,141.935 155.230,141.893 154.900 C 141.850 154.570,141.767 154.030,141.708 153.700 C 141.648 153.370,141.555 152.830,141.499 152.500 C 141.444 152.170,141.347 151.675,141.285 151.400 C 141.223 151.125,141.144 150.720,141.111 150.500 C 141.078 150.280,141.034 150.100,141.014 150.100 C 140.994 150.100,140.936 149.699,140.885 149.210 C 140.835 148.720,140.718 148.270,140.625 148.210 C 140.532 148.149,140.484 147.923,140.517 147.707 C 140.550 147.491,140.504 147.221,140.414 147.107 C 140.325 146.993,140.277 146.743,140.308 146.550 C 140.339 146.358,140.305 146.199,140.232 146.199 C 140.160 146.198,140.086 145.836,140.070 145.393 C 140.053 144.950,139.941 144.470,139.821 144.326 C 139.702 144.181,139.659 144.008,139.726 143.940 C 139.794 143.873,139.777 143.656,139.689 143.459 C 139.498 143.032,139.452 142.814,139.279 141.500 C 139.207 140.950,139.068 140.399,138.970 140.275 C 138.873 140.152,138.849 139.904,138.918 139.725 C 138.987 139.546,138.952 139.400,138.840 139.400 C 138.729 139.400,138.685 139.220,138.742 138.999 C 138.800 138.778,138.737 138.464,138.601 138.301 C 138.466 138.138,138.407 137.869,138.471 137.703 C 138.535 137.536,138.503 137.400,138.400 137.400 C 138.297 137.400,138.265 137.264,138.329 137.097 C 138.393 136.931,138.337 136.665,138.205 136.506 C 138.073 136.347,138.026 136.120,138.100 136.000 C 138.174 135.880,138.135 135.663,138.014 135.517 C 137.892 135.370,137.849 135.104,137.918 134.925 C 137.991 134.734,137.942 134.600,137.798 134.600 C 137.652 134.600,137.595 134.439,137.658 134.200 C 137.715 133.980,137.700 133.800,137.624 133.800 C 137.548 133.800,137.479 133.643,137.471 133.450 C 137.463 133.258,137.399 132.853,137.328 132.550 C 137.258 132.248,137.143 131.753,137.074 131.450 C 137.005 131.148,136.954 130.743,136.962 130.550 C 136.969 130.358,136.868 130.191,136.738 130.180 C 136.607 130.169,136.725 130.090,137.000 130.004 C 137.275 129.918,137.815 129.890,138.200 129.940 C 138.585 129.991,139.215 130.065,139.600 130.105 M262.830 129.985 C 262.902 129.993,262.841 130.398,262.695 130.884 C 262.549 131.370,262.478 131.955,262.538 132.184 C 262.598 132.413,262.555 132.600,262.442 132.600 C 262.330 132.600,262.285 132.780,262.342 133.001 C 262.400 133.222,262.355 133.514,262.243 133.651 C 262.130 133.788,261.987 134.350,261.924 134.900 C 261.862 135.450,261.753 136.125,261.681 136.400 C 261.610 136.675,261.520 137.170,261.482 137.500 C 261.338 138.718,261.260 139.117,261.018 139.846 C 260.883 140.256,260.827 140.682,260.895 140.792 C 260.963 140.902,260.930 141.158,260.821 141.361 C 260.712 141.564,260.577 142.083,260.520 142.515 C 260.462 142.947,260.362 143.525,260.297 143.800 C 260.178 144.302,260.030 145.037,259.933 145.604 C 259.904 145.770,259.810 146.022,259.723 146.163 C 259.636 146.304,259.614 146.547,259.674 146.703 C 259.733 146.859,259.703 147.037,259.605 147.097 C 259.508 147.157,259.468 147.430,259.518 147.703 C 259.567 147.976,259.537 148.200,259.450 148.200 C 259.277 148.200,258.743 150.565,258.717 151.450 C 258.707 151.753,258.652 152.000,258.594 152.000 C 258.535 152.000,258.467 152.248,258.442 152.550 C 258.418 152.853,258.260 153.576,258.091 154.157 C 257.923 154.738,257.835 155.294,257.896 155.393 C 257.957 155.492,257.911 155.631,257.795 155.703 C 257.679 155.775,257.636 155.999,257.700 156.200 C 257.764 156.401,257.716 156.628,257.595 156.703 C 257.473 156.779,257.420 156.963,257.478 157.114 C 257.535 157.264,257.492 157.443,257.382 157.511 C 257.271 157.580,257.199 157.785,257.221 157.968 C 257.243 158.150,257.210 158.435,257.146 158.600 C 256.972 159.053,256.609 160.797,256.501 161.700 C 256.448 162.140,256.315 162.809,256.206 163.187 C 256.096 163.564,256.050 163.916,256.102 163.968 C 256.154 164.021,256.099 164.181,255.979 164.325 C 255.860 164.469,255.748 164.950,255.731 165.393 C 255.714 165.837,255.640 166.200,255.568 166.200 C 255.495 166.200,255.461 166.358,255.492 166.550 C 255.523 166.743,255.478 166.990,255.391 167.100 C 255.305 167.210,255.228 167.368,255.221 167.451 C 255.213 167.534,255.159 167.804,255.100 168.051 C 254.963 168.626,254.789 169.771,254.750 170.350 C 254.734 170.597,254.654 170.800,254.572 170.800 C 254.491 170.800,254.422 170.958,254.418 171.150 C 254.406 171.732,254.269 172.479,254.105 172.859 C 254.020 173.056,254.006 173.273,254.074 173.340 C 254.141 173.408,254.099 173.581,253.979 173.725 C 253.860 173.869,253.748 174.350,253.731 174.793 C 253.714 175.237,253.622 175.600,253.527 175.600 C 253.431 175.600,253.397 175.827,253.450 176.105 C 253.503 176.382,253.465 176.660,253.365 176.722 C 253.265 176.783,253.238 177.006,253.305 177.217 C 253.378 177.446,253.332 177.600,253.192 177.600 C 253.041 177.600,253.002 177.779,253.082 178.100 C 253.151 178.375,253.135 178.600,253.047 178.600 C 252.958 178.600,252.875 178.758,252.863 178.950 C 252.850 179.143,252.773 179.570,252.692 179.900 C 252.611 180.230,252.535 180.748,252.523 181.050 C 252.511 181.353,252.443 181.600,252.372 181.600 C 252.300 181.600,252.241 181.803,252.240 182.050 C 252.237 182.525,252.122 183.172,251.893 184.000 C 251.817 184.275,251.755 184.748,251.754 185.050 C 251.754 185.353,251.674 185.600,251.578 185.600 C 251.481 185.600,251.434 185.803,251.472 186.050 C 251.510 186.298,251.459 186.770,251.359 187.100 C 251.146 187.798,251.014 188.443,250.899 189.347 C 250.854 189.703,250.736 190.153,250.636 190.347 C 250.536 190.541,250.495 190.816,250.546 190.957 C 250.596 191.098,250.548 191.323,250.438 191.457 C 250.328 191.591,250.176 192.060,250.099 192.500 C 250.023 192.940,249.916 193.525,249.861 193.800 C 249.807 194.075,249.762 194.503,249.760 194.750 C 249.759 194.998,249.683 195.200,249.591 195.200 C 249.500 195.200,249.422 195.357,249.419 195.550 C 249.404 196.523,249.337 197.000,249.218 197.000 C 249.087 197.000,248.986 197.471,248.929 198.350 C 248.913 198.597,248.823 198.800,248.729 198.800 C 248.634 198.800,248.606 198.926,248.665 199.080 C 248.724 199.235,248.712 199.421,248.639 199.495 C 248.500 199.634,248.481 199.737,248.430 200.650 C 248.408 201.057,248.296 201.200,248.000 201.200 C 247.780 201.200,247.600 201.300,247.600 201.421 C 247.600 201.543,247.474 201.594,247.320 201.535 C 247.165 201.476,246.978 201.489,246.903 201.564 C 246.828 201.639,246.707 201.708,246.633 201.717 C 246.560 201.727,246.350 201.801,246.166 201.883 C 245.982 201.964,245.667 202.062,245.466 202.100 C 245.265 202.138,245.055 202.190,245.000 202.215 C 244.945 202.240,244.810 202.275,244.700 202.291 C 243.748 202.437,243.000 202.642,243.000 202.759 C 243.000 202.837,242.755 202.914,242.456 202.932 C 242.157 202.949,241.881 203.056,241.843 203.170 C 241.805 203.284,241.285 203.487,240.687 203.620 C 240.089 203.754,239.600 203.920,239.600 203.988 C 239.600 204.057,239.373 204.132,239.096 204.154 C 238.819 204.177,238.384 204.332,238.130 204.499 C 237.876 204.665,237.608 204.741,237.534 204.667 C 237.460 204.594,237.400 204.619,237.400 204.724 C 237.400 204.829,237.206 204.930,236.968 204.947 C 236.730 204.965,236.473 205.082,236.396 205.207 C 236.318 205.332,236.175 205.419,236.078 205.402 C 235.754 205.342,234.400 205.861,234.400 206.044 C 234.400 206.143,234.324 206.177,234.232 206.120 C 234.140 206.063,233.745 206.187,233.354 206.397 C 232.963 206.606,232.589 206.722,232.522 206.655 C 232.455 206.588,232.400 206.636,232.400 206.760 C 232.400 206.885,232.265 206.936,232.100 206.872 C 231.935 206.809,231.800 206.862,231.800 206.990 C 231.800 207.119,231.717 207.172,231.616 207.110 C 231.515 207.047,231.307 207.121,231.155 207.274 C 231.002 207.426,230.590 207.614,230.239 207.692 C 229.887 207.769,229.600 207.920,229.600 208.028 C 229.600 208.135,229.516 208.172,229.414 208.109 C 229.311 208.045,229.170 208.086,229.100 208.200 C 229.030 208.314,228.889 208.355,228.786 208.291 C 228.684 208.228,228.600 208.277,228.600 208.400 C 228.600 208.523,228.517 208.572,228.416 208.510 C 228.315 208.447,228.090 208.539,227.916 208.712 C 227.742 208.886,227.600 208.982,227.600 208.925 C 227.600 208.868,227.330 208.915,227.000 209.030 C 226.670 209.145,226.400 209.326,226.400 209.431 C 226.400 209.537,226.310 209.568,226.200 209.500 C 226.090 209.432,226.000 209.477,226.000 209.600 C 226.000 209.723,225.910 209.768,225.800 209.700 C 225.690 209.632,225.600 209.677,225.600 209.800 C 225.600 209.923,225.521 209.975,225.424 209.915 C 225.326 209.855,225.023 209.981,224.750 210.196 C 224.477 210.411,224.197 210.530,224.127 210.460 C 224.057 210.390,224.000 210.438,224.000 210.567 C 224.000 210.695,223.933 210.787,223.850 210.771 C 223.610 210.726,222.400 211.226,222.400 211.371 C 222.400 211.444,222.211 211.622,221.979 211.767 C 221.713 211.933,221.610 211.945,221.700 211.800 C 221.790 211.655,221.687 211.667,221.421 211.833 C 221.189 211.978,221.000 212.170,221.000 212.260 C 221.000 212.350,220.910 212.368,220.800 212.300 C 220.690 212.232,220.600 212.272,220.600 212.388 C 220.600 212.505,220.420 212.600,220.200 212.600 C 219.980 212.600,219.800 212.679,219.800 212.775 C 219.800 212.871,219.524 213.005,219.187 213.073 C 218.841 213.142,218.629 213.285,218.700 213.400 C 218.771 213.515,218.559 213.658,218.213 213.727 C 217.876 213.795,217.600 213.934,217.600 214.037 C 217.600 214.140,217.510 214.168,217.400 214.100 C 217.290 214.032,217.200 214.077,217.200 214.200 C 217.200 214.323,217.113 214.370,217.007 214.305 C 216.901 214.239,216.631 214.369,216.407 214.593 C 216.183 214.817,215.874 215.000,215.719 215.000 C 215.564 215.000,215.061 215.315,214.600 215.700 C 214.139 216.085,213.690 216.356,213.602 216.301 C 213.514 216.247,213.388 216.342,213.322 216.514 C 213.257 216.685,213.112 216.769,213.001 216.701 C 212.891 216.632,212.800 216.674,212.800 216.793 C 212.800 216.912,212.553 217.100,212.250 217.209 C 211.330 217.542,210.809 217.852,210.905 218.009 C 210.956 218.090,210.773 218.214,210.499 218.282 C 210.224 218.351,210.000 218.501,210.000 218.616 C 210.000 218.730,209.910 218.768,209.800 218.700 C 209.690 218.632,209.600 218.677,209.600 218.800 C 209.600 218.923,209.515 218.971,209.410 218.906 C 209.306 218.842,209.121 218.974,209.000 219.200 C 208.879 219.426,208.694 219.558,208.590 219.494 C 208.485 219.429,208.400 219.487,208.400 219.622 C 208.400 219.756,208.339 219.805,208.264 219.730 C 208.007 219.474,208.075 149.800,208.332 149.800 C 208.460 149.800,208.942 149.553,209.404 149.250 C 209.866 148.947,210.324 148.689,210.422 148.675 C 210.520 148.661,210.684 148.639,210.786 148.625 C 210.888 148.611,211.111 148.460,211.282 148.289 C 211.453 148.118,211.797 147.939,212.046 147.891 C 212.295 147.843,212.529 147.713,212.566 147.601 C 212.604 147.489,212.709 147.444,212.801 147.501 C 212.893 147.557,213.088 147.484,213.234 147.338 C 213.380 147.191,213.545 147.073,213.600 147.075 C 213.839 147.082,215.000 146.489,215.000 146.359 C 215.000 146.280,215.360 146.118,215.800 146.000 C 216.240 145.882,216.600 145.693,216.600 145.580 C 216.600 145.468,216.683 145.428,216.784 145.490 C 216.885 145.553,217.099 145.472,217.260 145.311 C 217.421 145.151,217.608 145.075,217.676 145.143 C 217.744 145.211,217.800 145.171,217.800 145.055 C 217.800 144.938,217.940 144.789,218.110 144.724 C 218.320 144.643,218.374 144.685,218.276 144.852 C 218.196 144.989,218.327 144.929,218.566 144.719 C 218.805 144.509,219.000 144.402,219.000 144.480 C 219.000 144.643,220.157 144.027,220.562 143.648 C 220.711 143.510,220.915 143.447,221.016 143.510 C 221.117 143.572,221.200 143.513,221.200 143.378 C 221.200 143.244,221.257 143.190,221.326 143.260 C 221.396 143.329,221.643 143.280,221.876 143.150 C 222.109 143.021,222.368 142.934,222.450 142.958 C 222.532 142.981,222.600 142.905,222.600 142.788 C 222.600 142.672,222.690 142.632,222.800 142.700 C 222.910 142.768,223.000 142.713,223.000 142.578 C 223.000 142.444,223.057 142.390,223.126 142.460 C 223.196 142.529,223.443 142.480,223.676 142.350 C 223.909 142.221,224.168 142.134,224.250 142.158 C 224.332 142.181,224.400 142.105,224.400 141.988 C 224.400 141.872,224.480 141.826,224.577 141.886 C 224.675 141.946,224.866 141.862,225.002 141.698 C 225.138 141.534,225.379 141.400,225.537 141.400 C 226.002 141.400,227.800 140.569,227.800 140.354 C 227.800 140.246,227.935 140.209,228.100 140.272 C 228.265 140.336,228.400 140.295,228.400 140.182 C 228.400 140.069,228.490 140.032,228.600 140.100 C 228.710 140.168,228.800 140.123,228.800 140.000 C 228.800 139.877,228.887 139.830,228.994 139.897 C 229.101 139.963,229.401 139.878,229.660 139.708 C 229.920 139.538,230.192 139.459,230.266 139.533 C 230.340 139.606,230.400 139.552,230.400 139.412 C 230.400 139.272,230.525 139.205,230.677 139.264 C 230.829 139.322,231.131 139.246,231.348 139.094 C 231.564 138.943,231.957 138.779,232.221 138.730 C 232.484 138.681,232.925 138.549,233.200 138.437 C 233.990 138.114,234.477 137.944,234.792 137.881 C 234.952 137.849,235.402 137.691,235.792 137.529 C 236.553 137.212,237.209 136.960,237.450 136.892 C 237.532 136.869,237.668 136.828,237.750 136.801 C 237.832 136.775,237.979 136.767,238.075 136.785 C 238.171 136.802,238.408 136.674,238.600 136.500 C 238.792 136.326,239.029 136.204,239.125 136.230 C 239.481 136.324,240.600 135.961,240.600 135.751 C 240.600 135.631,240.657 135.590,240.726 135.660 C 240.796 135.729,241.043 135.680,241.276 135.550 C 241.509 135.420,241.768 135.300,241.850 135.282 C 241.933 135.264,242.023 135.232,242.050 135.210 C 242.123 135.151,242.860 134.980,243.150 134.955 C 243.288 134.943,243.400 134.849,243.400 134.745 C 243.400 134.642,243.535 134.609,243.700 134.672 C 243.865 134.736,244.000 134.693,244.000 134.577 C 244.000 134.461,244.113 134.407,244.250 134.456 C 244.388 134.505,244.736 134.426,245.025 134.281 C 245.313 134.135,245.606 134.072,245.675 134.141 C 245.744 134.210,245.800 134.173,245.800 134.058 C 245.800 133.944,246.035 133.850,246.323 133.850 C 246.610 133.850,246.903 133.771,246.973 133.675 C 247.043 133.579,247.190 133.495,247.300 133.489 C 247.685 133.467,248.702 133.143,248.920 132.973 C 249.041 132.878,249.379 132.781,249.670 132.757 C 249.962 132.732,250.200 132.632,250.200 132.533 C 250.200 132.434,250.380 132.400,250.600 132.458 C 250.820 132.515,251.000 132.503,251.000 132.431 C 251.001 132.359,251.286 132.280,251.635 132.255 C 251.984 132.231,252.322 132.137,252.385 132.047 C 252.448 131.957,252.761 131.864,253.080 131.841 C 253.399 131.818,253.780 131.700,253.927 131.577 C 254.074 131.455,254.328 131.406,254.491 131.469 C 254.654 131.531,254.838 131.500,254.900 131.400 C 254.962 131.300,255.145 131.268,255.306 131.330 C 255.468 131.392,255.600 131.337,255.600 131.208 C 255.600 131.064,255.755 131.022,256.000 131.100 C 256.220 131.170,256.400 131.146,256.400 131.047 C 256.400 130.948,256.512 130.861,256.650 130.854 C 257.612 130.803,258.200 130.693,258.200 130.564 C 258.200 130.481,258.335 130.464,258.500 130.528 C 258.665 130.591,258.957 130.575,259.150 130.492 C 259.343 130.409,259.694 130.359,259.931 130.382 C 260.168 130.405,260.418 130.332,260.487 130.221 C 260.556 130.109,260.728 130.062,260.869 130.116 C 261.011 130.170,261.345 130.133,261.613 130.033 C 261.881 129.934,262.235 129.878,262.400 129.911 C 262.565 129.943,262.759 129.976,262.830 129.985 " stroke="none" fill="#9c4414" fill-rule="evenodd"></path><path id="path1" d="M69.010 277.203 C 67.601 277.535,67.381 278.773,68.531 279.890 C 68.933 280.281,69.325 280.600,69.403 280.600 C 69.765 280.600,70.699 282.350,70.933 283.464 C 71.258 285.015,71.315 308.330,70.998 310.023 C 70.753 311.333,70.392 311.849,68.954 312.947 C 67.272 314.232,67.200 315.569,68.791 315.997 C 70.309 316.406,92.956 316.179,93.747 315.747 C 94.877 315.129,95.376 313.526,95.787 309.200 C 96.251 304.307,94.353 303.613,92.175 307.880 C 89.767 312.600,89.247 312.900,83.500 312.900 C 78.928 312.900,78.376 312.750,77.983 311.403 C 77.848 310.943,77.799 306.011,77.841 297.100 C 77.915 281.296,77.784 282.346,79.904 280.474 C 81.734 278.858,81.786 277.693,80.052 277.211 C 79.171 276.967,70.043 276.960,69.010 277.203 M104.610 277.203 C 102.990 277.585,102.985 278.703,104.596 280.212 C 105.295 280.867,105.982 281.742,106.246 282.317 L 106.700 283.300 106.700 296.600 L 106.700 309.900 106.158 311.000 C 105.786 311.754,105.275 312.365,104.532 312.942 C 102.948 314.175,102.851 315.480,104.308 315.961 C 105.691 316.418,115.833 316.214,116.379 315.719 C 116.966 315.188,116.941 314.114,116.330 313.541 C 116.071 313.298,115.485 312.750,115.027 312.321 C 113.479 310.874,113.500 311.086,113.500 296.600 C 113.500 281.562,113.405 282.329,115.509 280.469 C 117.420 278.781,117.495 277.673,115.728 277.228 C 114.688 276.966,105.703 276.946,104.610 277.203 M126.251 277.223 C 124.645 277.687,124.697 278.994,126.372 280.254 C 127.132 280.825,127.663 281.429,128.000 282.101 L 128.500 283.100 128.565 295.800 C 128.646 311.674,128.706 311.223,126.302 312.999 C 124.653 314.217,124.618 315.574,126.224 316.007 C 127.797 316.430,143.492 316.141,145.800 315.646 C 153.036 314.093,156.800 310.062,156.800 303.863 C 156.800 298.463,152.988 294.010,147.582 293.097 L 146.713 292.950 147.986 292.329 C 155.127 288.843,152.997 279.437,144.672 277.702 C 141.537 277.048,128.070 276.698,126.251 277.223 M166.800 277.350 C 165.609 277.945,165.701 278.766,167.113 280.155 C 169.096 282.108,169.024 281.010,168.297 298.087 C 167.702 312.069,167.806 311.479,165.650 313.181 C 164.231 314.301,164.154 315.488,165.467 315.987 C 166.164 316.252,172.588 316.271,173.275 316.010 C 174.553 315.524,174.428 314.447,172.920 312.962 C 171.267 311.334,171.314 311.928,171.781 298.455 C 172.005 292.015,172.223 286.710,172.266 286.667 C 172.310 286.624,172.954 288.053,173.699 289.844 C 179.703 304.277,183.482 313.155,183.747 313.450 C 184.500 314.287,186.720 313.696,187.282 312.509 C 188.861 309.176,190.631 305.354,194.710 296.466 L 199.500 286.032 199.624 289.366 C 199.869 295.930,200.048 309.323,199.903 310.183 C 199.781 310.905,199.510 311.312,198.377 312.479 C 196.758 314.148,196.520 315.076,197.541 315.745 C 198.124 316.128,208.001 316.295,209.257 315.944 C 210.609 315.567,210.330 313.848,208.720 312.632 C 206.646 311.067,206.728 311.587,206.295 297.200 C 205.785 280.263,205.646 282.049,207.618 280.178 C 210.186 277.740,209.035 276.911,203.254 277.035 C 199.600 277.113,199.699 277.051,198.338 280.100 C 197.847 281.200,197.003 283.045,196.462 284.200 C 195.921 285.355,193.595 290.415,191.293 295.444 C 188.991 300.473,187.044 304.523,186.966 304.444 C 186.889 304.365,184.535 298.855,181.737 292.200 C 175.465 277.286,175.769 277.962,175.100 277.436 C 174.335 276.834,167.965 276.769,166.800 277.350 M230.263 277.201 C 229.067 277.683,229.209 278.916,230.611 280.219 C 232.244 281.736,233.089 279.058,222.779 305.022 C 220.372 311.084,220.062 311.600,217.966 313.023 C 216.249 314.189,215.988 315.365,217.321 315.922 C 218.313 316.336,224.797 316.315,225.610 315.895 C 226.604 315.381,226.498 314.460,225.297 313.176 C 224.128 311.927,224.134 311.431,225.356 308.220 C 226.706 304.673,226.156 304.915,233.064 304.832 C 242.307 304.721,241.888 304.593,243.183 307.916 C 244.436 311.129,244.410 311.708,242.950 313.111 C 241.696 314.317,241.539 314.833,242.182 315.628 L 242.565 316.100 248.241 316.100 C 254.687 316.100,255.000 316.036,255.000 314.725 C 255.000 314.152,254.805 313.885,253.621 312.833 C 251.857 311.265,251.614 310.829,249.430 305.300 C 248.431 302.770,245.629 295.664,243.203 289.510 C 238.526 277.641,238.457 277.488,237.677 277.191 C 237.050 276.953,230.858 276.962,230.263 277.201 M264.848 277.200 C 262.439 277.559,261.658 279.387,261.545 284.935 C 261.493 287.485,261.631 287.800,262.807 287.800 C 263.750 287.800,264.135 287.374,265.473 284.852 C 267.257 281.491,268.382 280.601,271.047 280.441 C 274.608 280.229,274.400 279.302,274.400 295.370 C 274.400 310.838,274.398 310.861,272.673 312.428 C 271.055 313.898,271.000 313.971,271.000 314.660 C 271.000 316.078,271.103 316.100,277.700 316.100 C 283.180 316.100,283.585 316.075,283.979 315.719 C 284.566 315.188,284.542 314.115,283.930 313.541 C 283.671 313.298,283.085 312.750,282.627 312.321 C 281.197 310.984,281.222 311.258,281.188 296.100 C 281.172 288.730,281.168 282.458,281.179 282.161 C 281.233 280.767,282.870 280.042,285.100 280.424 C 287.379 280.814,288.155 281.538,290.202 285.179 C 293.115 290.362,294.955 287.740,293.511 280.465 C 293.133 278.565,292.734 277.841,291.837 277.434 C 291.029 277.068,267.125 276.860,264.848 277.200 M302.903 277.271 C 301.331 277.745,301.462 279.080,303.200 280.299 C 305.429 281.863,305.434 281.899,305.360 297.501 L 305.300 310.100 304.800 311.099 C 304.461 311.776,303.931 312.375,303.150 312.963 C 301.420 314.264,301.352 315.556,302.988 315.997 C 304.512 316.407,329.357 316.178,330.147 315.747 C 331.275 315.130,331.801 313.444,332.201 309.160 C 332.442 306.589,332.309 305.833,331.541 305.402 C 330.537 304.838,329.807 305.486,328.407 308.187 C 326.056 312.720,325.693 312.900,318.900 312.900 C 311.481 312.900,311.999 313.492,312.003 305.005 C 312.007 296.725,311.792 297.100,316.535 297.100 C 319.956 297.100,320.148 297.194,321.219 299.385 C 322.236 301.465,323.315 301.927,324.155 300.643 C 324.682 299.838,324.673 290.947,324.145 290.141 C 323.337 288.908,322.188 289.479,321.112 291.650 C 320.157 293.576,319.887 293.700,316.635 293.700 C 311.918 293.700,312.000 293.821,312.000 286.833 C 312.000 280.220,311.789 280.477,317.405 280.262 C 323.400 280.033,325.459 280.923,328.094 284.882 C 329.773 287.406,330.734 287.919,331.654 286.783 C 332.840 285.319,330.543 277.988,328.700 277.359 C 327.425 276.924,304.316 276.845,302.903 277.271 M141.239 280.796 C 146.724 282.880,147.036 289.732,141.708 291.095 C 140.061 291.516,136.249 291.512,135.645 291.089 C 135.060 290.679,134.941 281.859,135.509 281.048 C 136.149 280.134,139.148 280.002,141.239 280.796 M240.400 301.115 C 240.400 301.669,228.937 301.818,228.392 301.272 C 228.222 301.102,228.940 299.053,231.231 293.169 L 234.298 285.294 237.349 293.066 C 239.027 297.341,240.400 300.963,240.400 301.115 M140.600 295.081 C 146.251 296.008,149.432 299.526,149.443 304.860 C 149.454 310.559,145.938 313.295,139.030 312.964 C 135.293 312.786,135.315 312.841,135.241 303.488 C 135.166 294.020,135.069 294.173,140.600 295.081 " stroke="none" fill="#442b2b" fill-rule="evenodd"></path><path id="path2" d="M194.234 71.610 C 194.351 71.946,194.483 72.183,194.529 72.138 C 194.628 72.039,194.250 71.000,194.115 71.000 C 194.063 71.000,194.117 71.275,194.234 71.610 M247.434 98.219 C 247.055 98.827,247.283 98.908,247.678 98.306 C 247.860 98.028,247.939 97.800,247.853 97.800 C 247.767 97.800,247.578 97.989,247.434 98.219 M214.232 114.600 C 213.988 114.930,213.878 115.200,213.989 115.200 C 214.099 115.200,214.329 114.930,214.500 114.600 C 214.671 114.270,214.780 114.000,214.743 114.000 C 214.706 114.000,214.476 114.270,214.232 114.600 M191.997 118.391 C 192.270 118.601,192.534 118.733,192.582 118.684 C 192.696 118.571,191.965 118.013,191.700 118.011 C 191.590 118.010,191.724 118.181,191.997 118.391 M161.200 118.843 C 161.355 118.997,163.200 119.587,163.200 119.483 C 163.200 119.432,162.971 119.303,162.691 119.197 C 162.022 118.942,161.073 118.717,161.200 118.843 M200.552 121.141 C 200.801 121.189,201.161 121.187,201.352 121.137 C 201.544 121.087,201.340 121.048,200.900 121.050 C 200.460 121.053,200.304 121.094,200.552 121.141 M280.776 128.156 C 280.710 128.554,280.740 128.740,280.851 128.629 C 280.951 128.529,281.000 128.233,280.959 127.973 C 280.896 127.573,280.868 127.601,280.776 128.156 M203.500 133.414 C 202.827 133.844,202.920 133.919,203.691 133.568 C 203.971 133.440,204.200 133.260,204.200 133.168 C 204.200 132.959,204.222 132.951,203.500 133.414 M183.088 145.506 C 183.302 145.668,183.572 145.797,183.688 145.794 C 183.805 145.790,183.725 145.655,183.512 145.494 C 183.298 145.332,183.028 145.203,182.912 145.206 C 182.795 145.210,182.875 145.345,183.088 145.506 M209.748 148.983 C 208.876 149.542,208.835 149.669,209.650 149.282 C 210.063 149.086,210.400 148.853,210.400 148.763 C 210.400 148.561,210.415 148.556,209.748 148.983 M208.023 150.850 C 208.047 151.941,208.126 151.836,208.248 150.550 C 208.288 150.138,208.248 149.800,208.160 149.800 C 208.072 149.800,208.010 150.273,208.023 150.850 M208.072 155.200 C 208.072 156.245,208.106 156.673,208.147 156.150 C 208.188 155.628,208.188 154.773,208.147 154.250 C 208.106 153.728,208.072 154.155,208.072 155.200 M192.046 158.200 C 192.046 158.585,192.088 158.743,192.138 158.550 C 192.188 158.358,192.188 158.043,192.138 157.850 C 192.088 157.658,192.046 157.815,192.046 158.200 M208.054 162.800 C 208.054 163.295,208.093 163.498,208.141 163.250 C 208.189 163.003,208.189 162.597,208.141 162.350 C 208.093 162.103,208.054 162.305,208.054 162.800 M208.057 167.900 C 208.059 168.450,208.098 168.651,208.144 168.347 C 208.189 168.043,208.188 167.593,208.141 167.347 C 208.093 167.101,208.056 167.350,208.057 167.900 M208.046 171.000 C 208.046 171.385,208.088 171.543,208.138 171.350 C 208.188 171.158,208.188 170.843,208.138 170.650 C 208.088 170.458,208.046 170.615,208.046 171.000 M192.057 173.700 C 192.059 174.250,192.098 174.451,192.144 174.147 C 192.189 173.843,192.188 173.393,192.141 173.147 C 192.093 172.901,192.056 173.150,192.057 173.700 M208.050 173.500 C 208.053 173.940,208.094 174.096,208.141 173.848 C 208.189 173.599,208.187 173.239,208.137 173.048 C 208.087 172.856,208.048 173.060,208.050 173.500 M208.046 177.200 C 208.046 177.585,208.088 177.743,208.138 177.550 C 208.188 177.358,208.188 177.043,208.138 176.850 C 208.088 176.658,208.046 176.815,208.046 177.200 M208.064 180.400 C 208.064 181.115,208.100 181.408,208.145 181.050 C 208.189 180.692,208.189 180.108,208.145 179.750 C 208.100 179.393,208.064 179.685,208.064 180.400 M192.054 185.400 C 192.054 185.895,192.093 186.097,192.141 185.850 C 192.189 185.603,192.189 185.197,192.141 184.950 C 192.093 184.703,192.054 184.905,192.054 185.400 M208.064 186.600 C 208.064 187.315,208.100 187.608,208.145 187.250 C 208.189 186.893,208.189 186.308,208.145 185.950 C 208.100 185.593,208.064 185.885,208.064 186.600 M192.054 193.800 C 192.054 194.295,192.093 194.498,192.141 194.250 C 192.189 194.003,192.189 193.597,192.141 193.350 C 192.093 193.103,192.054 193.305,192.054 193.800 M208.046 198.400 C 208.046 198.785,208.088 198.942,208.138 198.750 C 208.188 198.558,208.188 198.243,208.138 198.050 C 208.088 197.858,208.046 198.015,208.046 198.400 M208.046 201.400 C 208.046 201.785,208.088 201.942,208.138 201.750 C 208.188 201.558,208.188 201.243,208.138 201.050 C 208.088 200.858,208.046 201.015,208.046 201.400 M192.054 202.200 C 192.054 202.695,192.093 202.898,192.141 202.650 C 192.189 202.403,192.189 201.998,192.141 201.750 C 192.093 201.503,192.054 201.705,192.054 202.200 M240.900 203.400 C 240.648 203.508,240.611 203.572,240.800 203.572 C 240.965 203.572,241.280 203.495,241.500 203.400 C 241.752 203.292,241.789 203.228,241.600 203.228 C 241.435 203.228,241.120 203.305,240.900 203.400 M192.046 204.400 C 192.046 204.785,192.088 204.943,192.138 204.750 C 192.188 204.558,192.188 204.243,192.138 204.050 C 192.088 203.858,192.046 204.015,192.046 204.400 M172.400 209.080 C 172.400 209.125,172.692 209.258,173.050 209.378 C 173.645 209.576,173.667 209.569,173.312 209.297 C 172.954 209.023,172.400 208.892,172.400 209.080 M192.046 213.400 C 192.046 213.785,192.088 213.943,192.138 213.750 C 192.188 213.558,192.188 213.243,192.138 213.050 C 192.088 212.857,192.046 213.015,192.046 213.400 M149.100 218.000 C 149.320 218.095,149.635 218.172,149.800 218.172 C 149.989 218.172,149.952 218.108,149.700 218.000 C 149.480 217.905,149.165 217.828,149.000 217.828 C 148.811 217.828,148.848 217.892,149.100 218.000 M181.600 233.210 C 182.294 233.681,182.689 233.818,182.200 233.418 C 181.925 233.193,181.610 233.008,181.500 233.008 C 181.390 233.007,181.435 233.098,181.600 233.210 M214.800 235.418 C 214.468 235.690,214.434 235.757,214.700 235.620 C 215.352 235.283,215.714 235.006,215.500 235.008 C 215.390 235.008,215.075 235.193,214.800 235.418 M185.200 235.592 C 185.475 235.823,185.880 236.105,186.100 236.219 C 186.373 236.361,186.341 236.294,186.000 236.008 C 185.725 235.777,185.320 235.495,185.100 235.381 C 184.827 235.239,184.859 235.306,185.200 235.592 " stroke="none" fill="#944414" fill-rule="evenodd"></path><path id="path3" d="" stroke="none" fill="#583420" fill-rule="evenodd"></path><path id="path4" d="" stroke="none" fill="#9c4820" fill-rule="evenodd"></path></g></svg>