<svg id="svg" version="1.1" width="400" height="400" viewBox="0 0 400 400" xmlns="http://www.w3.org/2000/svg" xmlns:xlink="http://www.w3.org/1999/xlink"><g id="svgg"><path id="path0" d="M95.104 147.650 C 94.937 147.743,94.800 147.759,94.800 147.685 C 94.800 147.612,94.665 147.663,94.500 147.800 C 94.335 147.937,94.200 147.983,94.200 147.902 C 94.200 147.822,94.013 147.968,93.785 148.228 C 93.556 148.488,93.439 148.565,93.523 148.400 C 93.655 148.142,93.630 148.138,93.338 148.374 C 93.152 148.525,93.000 148.773,93.000 148.924 C 93.000 149.076,92.905 149.200,92.788 149.200 C 92.672 149.200,92.632 149.290,92.700 149.400 C 92.768 149.510,92.713 149.600,92.578 149.600 C 92.444 149.600,92.393 149.659,92.465 149.732 C 92.537 149.804,92.498 149.982,92.377 150.128 C 92.055 150.516,92.310 152.188,92.742 152.516 C 92.939 152.665,93.037 152.790,92.959 152.794 C 92.882 152.797,93.062 153.046,93.359 153.347 C 93.657 153.647,93.968 153.872,94.050 153.847 C 94.133 153.821,94.200 153.884,94.200 153.988 C 94.200 154.091,94.358 154.173,94.550 154.170 C 94.743 154.167,95.215 154.215,95.600 154.277 C 96.362 154.400,97.600 154.088,97.600 153.773 C 97.600 153.665,97.676 153.623,97.768 153.680 C 97.939 153.786,98.801 152.750,98.890 152.330 C 98.917 152.204,98.996 151.965,99.065 151.800 C 99.241 151.380,99.136 150.002,98.929 150.001 C 98.834 150.000,98.808 149.866,98.871 149.703 C 98.938 149.529,98.823 149.320,98.593 149.196 C 98.377 149.080,98.200 148.854,98.200 148.693 C 98.200 148.532,98.060 148.400,97.888 148.400 C 97.717 148.400,97.628 148.316,97.691 148.214 C 97.815 148.014,97.059 147.691,96.650 147.770 C 96.513 147.796,96.400 147.742,96.400 147.649 C 96.400 147.430,95.496 147.430,95.104 147.650 M79.150 150.555 C 78.958 150.596,78.800 150.713,78.800 150.815 C 78.800 150.917,78.656 151.000,78.480 151.000 C 78.120 151.000,76.800 152.241,76.800 152.580 C 76.800 152.701,76.695 152.800,76.567 152.800 C 76.438 152.800,76.390 152.857,76.460 152.926 C 76.529 152.996,76.484 153.243,76.359 153.476 C 76.078 154.002,75.978 156.200,76.235 156.200 C 76.339 156.200,76.369 156.288,76.303 156.396 C 76.114 156.700,76.567 157.426,77.473 158.273 C 77.928 158.698,78.300 159.029,78.300 159.009 C 78.300 158.988,78.570 159.078,78.900 159.207 C 79.772 159.549,81.373 159.671,81.677 159.419 C 81.820 159.301,81.996 159.263,82.068 159.335 C 82.182 159.448,82.954 158.908,84.240 157.817 C 84.427 157.658,84.534 157.455,84.478 157.364 C 84.422 157.274,84.487 157.200,84.622 157.200 C 84.756 157.200,84.810 157.143,84.740 157.074 C 84.671 157.004,84.716 156.757,84.841 156.524 C 85.301 155.665,85.061 152.615,84.558 152.926 C 84.421 153.011,84.395 152.969,84.490 152.816 C 84.657 152.546,83.220 150.964,82.956 151.127 C 82.870 151.180,82.800 151.138,82.800 151.033 C 82.800 150.650,80.271 150.319,79.150 150.555 M107.785 158.135 C 107.438 158.281,106.984 158.400,106.777 158.400 C 106.570 158.400,106.400 158.469,106.400 158.553 C 106.400 158.637,106.040 158.862,105.600 159.052 C 105.156 159.245,104.800 159.538,104.800 159.711 C 104.800 159.883,104.719 159.973,104.619 159.912 C 104.451 159.808,103.257 161.605,103.379 161.778 C 103.409 161.820,103.332 161.918,103.207 161.996 C 103.082 162.073,102.969 162.353,102.955 162.618 C 102.941 162.883,102.853 163.202,102.760 163.326 C 102.390 163.820,102.971 167.800,103.413 167.800 C 103.516 167.800,103.600 167.938,103.600 168.106 C 103.600 168.275,103.735 168.464,103.900 168.528 C 104.065 168.591,104.202 168.746,104.206 168.871 C 104.209 168.997,104.515 169.325,104.886 169.600 C 105.257 169.875,105.530 170.149,105.493 170.210 C 105.456 170.270,105.609 170.435,105.834 170.575 C 106.058 170.715,106.183 170.734,106.111 170.617 C 106.030 170.487,106.100 170.451,106.288 170.523 C 106.459 170.589,106.538 170.738,106.466 170.855 C 106.383 170.989,106.458 171.020,106.667 170.940 C 106.850 170.870,107.000 170.905,107.000 171.018 C 107.000 171.131,107.094 171.166,107.209 171.095 C 107.324 171.024,107.526 171.051,107.659 171.156 C 107.939 171.376,108.232 171.407,110.000 171.402 C 110.715 171.400,111.330 171.308,111.367 171.198 C 111.404 171.088,111.503 171.040,111.588 171.092 C 111.894 171.282,114.099 169.966,113.865 169.732 C 113.793 169.659,113.869 169.600,114.036 169.600 C 114.202 169.600,114.509 169.405,114.719 169.166 C 114.974 168.875,115.001 168.781,114.800 168.880 C 114.622 168.969,114.642 168.913,114.850 168.743 C 115.043 168.585,115.200 168.353,115.200 168.228 C 115.200 168.103,115.284 168.000,115.387 168.000 C 115.601 168.000,115.902 167.221,115.830 166.850 C 115.804 166.713,115.882 166.600,116.005 166.600 C 116.133 166.600,116.175 166.437,116.105 166.217 C 116.038 166.006,116.079 165.775,116.196 165.703 C 116.534 165.494,116.229 162.999,115.775 162.261 C 115.558 161.910,115.344 161.429,115.299 161.193 C 115.223 160.800,113.400 158.773,113.400 159.081 C 113.400 159.155,113.210 159.039,112.978 158.822 C 112.746 158.606,112.445 158.472,112.310 158.524 C 112.175 158.576,111.949 158.480,111.809 158.311 C 111.669 158.143,111.475 158.054,111.377 158.114 C 111.280 158.174,111.091 158.156,110.959 158.074 C 110.543 157.817,108.445 157.857,107.785 158.135 M67.386 161.878 C 67.339 161.925,66.940 161.988,66.500 162.019 C 66.060 162.049,65.588 162.159,65.450 162.262 C 65.313 162.365,65.200 162.393,65.200 162.324 C 65.200 162.060,63.771 162.982,63.033 163.723 C 62.205 164.554,61.536 165.669,61.741 165.875 C 61.810 165.944,61.767 166.000,61.646 166.000 C 61.392 166.000,61.371 166.164,61.371 168.168 C 61.370 169.678,62.177 171.961,62.616 171.690 C 62.717 171.628,62.800 171.703,62.800 171.857 C 62.800 172.012,63.001 172.309,63.247 172.519 C 63.688 172.896,63.690 172.896,63.417 172.500 C 63.265 172.280,63.419 172.398,63.758 172.763 C 64.144 173.178,64.618 173.457,65.023 173.508 C 65.379 173.553,65.722 173.672,65.785 173.773 C 65.923 173.992,68.794 173.960,69.149 173.735 C 69.286 173.648,69.597 173.539,69.839 173.492 C 70.082 173.446,70.356 173.271,70.450 173.104 C 70.543 172.937,70.696 172.800,70.790 172.800 C 71.017 172.800,72.400 171.409,72.400 171.180 C 72.400 171.081,72.480 171.000,72.577 171.000 C 72.738 171.000,73.019 170.391,73.084 169.900 C 73.099 169.790,73.181 169.588,73.267 169.450 C 73.353 169.313,73.372 169.116,73.309 169.014 C 73.245 168.911,73.283 168.773,73.392 168.705 C 73.584 168.586,73.489 167.021,73.251 166.400 C 73.188 166.235,73.151 166.033,73.168 165.950 C 73.186 165.868,73.113 165.800,73.006 165.800 C 72.900 165.800,72.864 165.666,72.927 165.502 C 72.992 165.332,72.904 165.151,72.722 165.081 C 72.546 165.013,72.449 164.883,72.506 164.791 C 72.609 164.623,71.411 163.274,71.208 163.330 C 71.149 163.346,71.121 163.284,71.146 163.192 C 71.171 163.100,70.991 162.963,70.746 162.889 C 70.501 162.814,70.142 162.614,69.950 162.445 C 69.758 162.276,69.599 162.219,69.597 162.319 C 69.595 162.419,69.524 162.390,69.439 162.256 C 69.290 162.021,67.565 161.704,67.386 161.878 M86.900 163.404 C 86.680 163.484,86.433 163.511,86.350 163.463 C 86.267 163.415,86.200 163.481,86.200 163.610 C 86.200 163.738,86.074 163.794,85.920 163.735 C 85.765 163.676,85.578 163.689,85.503 163.764 C 85.428 163.839,85.307 163.912,85.233 163.927 C 84.702 164.034,84.200 164.275,84.200 164.423 C 84.200 164.520,84.062 164.600,83.894 164.600 C 83.725 164.600,83.536 164.735,83.472 164.900 C 83.409 165.065,83.247 165.200,83.111 165.200 C 82.852 165.200,81.400 166.720,81.400 166.992 C 81.400 167.079,81.260 167.267,81.088 167.410 C 80.807 167.643,80.220 168.797,80.126 169.300 C 80.106 169.410,80.036 169.590,79.972 169.700 C 79.907 169.810,79.872 170.103,79.894 170.350 C 79.916 170.597,79.874 170.800,79.801 170.800 C 79.598 170.800,79.719 174.035,79.944 174.600 C 80.053 174.875,80.103 175.213,80.055 175.350 C 80.006 175.488,80.061 175.600,80.177 175.600 C 80.293 175.600,80.330 175.750,80.260 175.933 C 80.174 176.157,80.209 176.218,80.366 176.121 C 80.577 175.991,80.705 176.367,80.619 176.865 C 80.603 176.956,80.682 176.973,80.795 176.903 C 80.908 176.833,81.011 176.872,81.025 176.988 C 81.039 177.105,81.061 177.293,81.075 177.407 C 81.089 177.521,81.220 177.689,81.367 177.780 C 81.514 177.870,81.610 178.024,81.579 178.122 C 81.549 178.219,81.896 178.582,82.350 178.928 C 82.804 179.274,83.114 179.627,83.038 179.711 C 82.962 179.795,83.000 179.807,83.123 179.737 C 83.246 179.667,83.508 179.787,83.704 180.005 C 83.901 180.222,84.144 180.400,84.245 180.400 C 84.346 180.400,84.564 180.536,84.730 180.702 C 84.896 180.868,85.119 180.950,85.225 180.885 C 85.331 180.819,85.552 180.877,85.717 181.014 C 85.882 181.151,86.260 181.285,86.558 181.311 C 86.856 181.338,87.100 181.376,87.100 181.394 C 87.100 181.424,90.051 181.417,91.046 181.386 C 91.236 181.380,91.445 181.289,91.510 181.184 C 91.575 181.079,91.711 181.045,91.814 181.109 C 91.916 181.172,92.000 181.119,92.000 180.990 C 92.000 180.862,92.135 180.809,92.300 180.872 C 92.465 180.936,92.600 180.895,92.600 180.782 C 92.600 180.669,92.676 180.624,92.770 180.681 C 92.863 180.739,93.114 180.632,93.328 180.443 C 93.541 180.254,93.839 180.073,93.989 180.039 C 94.307 179.969,96.800 177.424,96.800 177.170 C 96.800 177.077,96.792 176.943,96.783 176.872 C 96.774 176.802,96.868 176.682,96.993 176.604 C 97.118 176.527,97.235 176.270,97.253 176.032 C 97.270 175.794,97.366 175.600,97.464 175.600 C 97.562 175.600,97.591 175.465,97.528 175.300 C 97.464 175.135,97.506 175.000,97.620 175.000 C 97.736 175.000,97.771 174.824,97.700 174.600 C 97.630 174.380,97.651 174.200,97.747 174.200 C 97.929 174.200,97.917 171.165,97.730 170.064 C 97.570 169.120,96.821 167.552,96.330 167.133 C 96.094 166.931,96.035 166.831,96.200 166.912 C 96.365 166.993,96.208 166.791,95.851 166.462 C 95.493 166.134,95.261 165.806,95.334 165.733 C 95.407 165.660,95.317 165.600,95.135 165.600 C 94.953 165.600,94.691 165.420,94.554 165.200 C 94.416 164.980,94.150 164.800,93.962 164.800 C 93.774 164.800,93.541 164.659,93.445 164.487 C 93.349 164.316,93.142 164.154,92.985 164.128 C 92.828 164.102,92.520 163.985,92.300 163.868 C 91.343 163.359,87.849 163.059,86.900 163.404 M40.185 174.983 C 40.176 175.048,40.139 175.258,40.102 175.450 C 40.066 175.643,40.119 175.800,40.222 175.800 C 40.324 175.800,40.351 176.025,40.282 176.300 C 40.200 176.628,40.240 176.800,40.400 176.800 C 40.533 176.800,40.593 176.930,40.532 177.090 C 40.398 177.438,40.813 179.800,41.008 179.800 C 41.083 179.800,41.120 180.025,41.090 180.300 C 41.060 180.575,41.123 180.800,41.231 180.800 C 41.339 180.800,41.370 180.979,41.301 181.198 C 41.231 181.417,41.244 181.709,41.329 181.846 C 41.413 181.984,41.509 182.412,41.540 182.798 C 41.571 183.184,41.656 183.635,41.729 183.800 C 41.801 183.965,41.889 184.280,41.924 184.500 C 41.959 184.720,42.086 185.395,42.207 186.000 C 42.327 186.605,42.449 187.235,42.477 187.400 C 42.505 187.565,42.601 187.861,42.689 188.059 C 42.777 188.256,42.801 188.466,42.742 188.525 C 42.683 188.584,42.750 188.918,42.892 189.266 C 43.034 189.615,43.124 190.057,43.093 190.249 C 43.061 190.441,43.109 190.644,43.199 190.699 C 43.289 190.755,43.315 190.980,43.258 191.200 C 43.200 191.420,43.242 191.600,43.351 191.600 C 43.460 191.600,43.558 192.020,43.568 192.534 C 43.578 193.048,43.657 193.520,43.743 193.584 C 43.830 193.648,43.894 193.880,43.888 194.100 C 43.881 194.320,43.947 194.705,44.035 194.955 C 44.219 195.481,44.406 196.284,44.513 197.000 C 44.645 197.890,44.719 198.186,44.845 198.311 C 44.912 198.379,44.929 198.646,44.882 198.904 C 44.835 199.163,44.879 199.425,44.980 199.487 C 45.080 199.550,45.115 199.780,45.058 200.000 C 44.999 200.224,45.052 200.400,45.177 200.400 C 45.307 200.400,45.400 200.762,45.400 201.267 C 45.400 201.743,45.462 202.195,45.537 202.271 C 45.679 202.412,45.695 202.492,45.882 203.987 C 45.944 204.474,46.078 204.958,46.181 205.061 C 46.284 205.164,46.321 205.374,46.262 205.527 C 46.203 205.680,46.255 205.925,46.376 206.071 C 46.497 206.217,46.541 206.392,46.474 206.460 C 46.406 206.527,46.420 206.744,46.506 206.941 C 46.751 207.510,46.827 207.828,46.997 209.000 C 47.265 210.850,47.447 211.690,47.631 211.925 C 47.728 212.048,47.751 212.296,47.682 212.475 C 47.609 212.665,47.658 212.800,47.800 212.800 C 47.960 212.800,48.000 212.972,47.918 213.300 C 47.839 213.613,47.877 213.800,48.020 213.800 C 48.148 213.800,48.201 213.973,48.142 214.200 C 48.085 214.420,48.111 214.645,48.201 214.701 C 48.291 214.756,48.339 214.959,48.308 215.151 C 48.277 215.343,48.333 215.603,48.433 215.729 C 48.533 215.855,48.667 216.530,48.731 217.229 C 48.795 217.928,48.904 218.545,48.974 218.600 C 49.043 218.655,49.123 218.880,49.152 219.100 C 49.367 220.769,49.467 221.313,49.575 221.400 C 49.730 221.524,49.816 221.904,49.869 222.692 C 49.891 223.026,49.984 223.418,50.075 223.563 C 50.166 223.708,50.193 223.874,50.135 223.931 C 50.078 223.989,50.161 224.407,50.321 224.859 C 50.481 225.312,50.570 225.790,50.519 225.922 C 50.469 226.053,50.489 226.222,50.564 226.297 C 50.639 226.372,50.715 226.628,50.734 226.867 C 50.770 227.315,50.858 227.683,51.053 228.200 C 51.115 228.365,51.166 228.635,51.165 228.800 C 51.164 229.143,51.309 230.025,51.509 230.900 C 51.585 231.230,51.651 231.613,51.657 231.750 C 51.662 231.888,51.743 232.000,51.837 232.000 C 51.931 232.000,51.967 232.225,51.917 232.500 C 51.867 232.775,51.888 233.000,51.963 233.000 C 52.038 233.000,52.113 233.227,52.129 233.504 C 52.164 234.104,52.564 234.646,52.845 234.472 C 52.955 234.404,53.107 234.450,53.184 234.573 C 53.260 234.697,53.587 234.816,53.911 234.839 C 54.235 234.861,54.703 235.007,54.950 235.163 C 55.198 235.318,55.400 235.380,55.400 235.299 C 55.400 235.217,55.515 235.246,55.655 235.363 C 55.795 235.479,56.133 235.605,56.405 235.642 C 56.677 235.680,57.013 235.781,57.150 235.867 C 57.288 235.953,57.490 235.968,57.600 235.900 C 57.710 235.832,57.800 235.877,57.800 236.000 C 57.800 236.123,57.894 236.166,58.009 236.095 C 58.124 236.024,58.349 236.074,58.509 236.207 C 58.669 236.340,58.800 236.382,58.800 236.300 C 58.800 236.218,58.935 236.263,59.100 236.400 C 59.265 236.537,59.400 236.591,59.400 236.520 C 59.400 236.449,59.621 236.536,59.891 236.713 C 60.161 236.890,60.470 236.980,60.577 236.914 C 60.685 236.848,60.833 236.891,60.906 237.010 C 60.980 237.130,61.166 237.179,61.320 237.120 C 61.474 237.061,61.600 237.109,61.600 237.228 C 61.600 237.346,61.735 237.391,61.900 237.328 C 62.065 237.264,62.200 237.305,62.200 237.418 C 62.200 237.531,62.284 237.572,62.386 237.509 C 62.489 237.445,62.630 237.486,62.700 237.600 C 62.770 237.714,62.912 237.754,63.015 237.691 C 63.119 237.627,63.344 237.715,63.516 237.887 C 63.688 238.059,63.995 238.200,64.198 238.200 C 64.401 238.200,64.822 238.330,65.134 238.490 C 65.641 238.750,66.229 238.989,66.650 239.108 C 66.733 239.131,66.867 239.172,66.950 239.199 C 67.033 239.225,67.168 239.237,67.250 239.224 C 67.333 239.211,67.400 239.295,67.400 239.412 C 67.400 239.528,67.478 239.575,67.574 239.516 C 67.670 239.457,67.954 239.586,68.205 239.804 C 68.456 240.022,68.778 240.200,68.922 240.200 C 69.065 240.200,69.512 240.424,69.915 240.697 C 70.318 240.971,70.727 241.145,70.824 241.085 C 70.921 241.025,71.000 241.077,71.000 241.200 C 71.000 241.323,71.090 241.368,71.200 241.300 C 71.310 241.232,71.400 241.277,71.400 241.400 C 71.400 241.523,71.490 241.568,71.600 241.500 C 71.710 241.432,71.800 241.472,71.800 241.588 C 71.800 241.705,71.867 241.790,71.950 241.778 C 72.239 241.737,73.000 242.048,73.000 242.209 C 73.000 242.355,73.435 242.621,74.748 243.276 C 74.995 243.399,75.198 243.568,75.198 243.650 C 75.199 243.732,75.353 243.800,75.539 243.800 C 75.726 243.800,76.144 244.048,76.470 244.350 C 76.796 244.653,76.996 244.765,76.916 244.600 C 76.825 244.413,76.878 244.431,77.055 244.647 C 77.211 244.838,77.381 244.952,77.432 244.901 C 77.483 244.850,77.861 245.124,78.270 245.511 C 78.680 245.898,79.103 246.160,79.209 246.094 C 79.316 246.028,79.457 246.115,79.522 246.286 C 79.588 246.458,79.717 246.551,79.809 246.495 C 79.900 246.438,80.068 246.551,80.182 246.746 C 80.295 246.941,80.391 247.012,80.394 246.905 C 80.397 246.799,80.541 246.913,80.714 247.159 C 80.886 247.405,81.107 247.558,81.204 247.498 C 81.301 247.438,81.478 247.571,81.597 247.794 C 81.716 248.017,81.946 248.200,82.107 248.200 C 82.268 248.200,82.400 248.290,82.400 248.400 C 82.400 248.510,82.531 248.600,82.690 248.600 C 82.850 248.600,83.072 248.757,83.184 248.950 C 83.296 249.143,83.391 249.228,83.394 249.140 C 83.397 249.052,83.625 249.222,83.900 249.519 C 84.175 249.816,84.400 249.996,84.400 249.919 C 84.400 249.842,84.603 249.997,84.850 250.262 C 85.098 250.527,85.504 250.808,85.753 250.887 C 86.002 250.965,86.160 251.103,86.104 251.193 C 86.014 251.339,86.459 251.635,86.839 251.683 C 86.915 251.692,87.166 251.903,87.396 252.150 C 87.838 252.624,88.200 252.736,88.200 252.400 C 88.200 252.290,88.267 252.219,88.350 252.241 C 88.596 252.309,89.800 251.606,89.800 251.395 C 89.800 251.288,89.930 251.200,90.089 251.200 C 90.247 251.200,90.503 251.021,90.657 250.801 C 90.810 250.582,90.989 250.456,91.054 250.521 C 91.119 250.586,91.290 250.450,91.434 250.219 C 91.578 249.989,91.804 249.800,91.937 249.800 C 92.069 249.800,92.317 249.600,92.489 249.355 C 92.660 249.111,92.800 248.999,92.801 249.105 C 92.802 249.212,93.033 249.030,93.315 248.700 C 93.598 248.370,93.763 248.228,93.682 248.384 C 93.588 248.565,93.720 248.529,94.046 248.284 C 94.328 248.073,94.518 247.832,94.468 247.750 C 94.417 247.668,94.517 247.600,94.688 247.600 C 94.860 247.600,95.000 247.510,95.000 247.400 C 95.000 247.290,95.135 247.200,95.300 247.200 C 95.465 247.200,95.600 247.110,95.600 247.000 C 95.600 246.890,95.735 246.800,95.900 246.800 C 96.065 246.800,96.200 246.705,96.200 246.588 C 96.200 246.472,96.290 246.432,96.400 246.500 C 96.510 246.568,96.600 246.528,96.600 246.412 C 96.600 246.295,96.740 246.200,96.912 246.200 C 97.083 246.200,97.168 246.110,97.100 246.000 C 97.032 245.890,97.167 245.800,97.400 245.800 C 97.633 245.800,97.768 245.710,97.700 245.600 C 97.632 245.490,97.767 245.400,98.000 245.400 C 98.233 245.400,98.368 245.310,98.300 245.200 C 98.232 245.090,98.352 245.000,98.567 245.000 C 98.782 245.000,99.011 244.859,99.077 244.687 C 99.143 244.515,99.288 244.431,99.399 244.499 C 99.509 244.568,99.600 244.535,99.600 244.426 C 99.600 244.317,100.005 244.026,100.500 243.779 C 100.995 243.531,101.400 243.240,101.400 243.131 C 101.400 243.022,101.457 242.990,101.526 243.060 C 101.636 243.169,103.321 242.316,103.600 242.010 C 103.655 241.949,104.442 241.544,105.350 241.110 C 106.258 240.675,107.000 240.243,107.000 240.148 C 107.000 240.054,107.083 240.028,107.184 240.090 C 107.285 240.153,107.488 240.085,107.634 239.941 C 107.964 239.614,108.576 239.341,109.092 239.289 C 109.307 239.268,109.517 239.149,109.558 239.025 C 109.600 238.901,109.856 238.800,110.128 238.800 C 110.404 238.800,110.569 238.712,110.501 238.602 C 110.431 238.489,110.512 238.455,110.690 238.524 C 110.861 238.589,111.000 238.538,111.000 238.410 C 111.000 238.281,111.077 238.224,111.171 238.282 C 111.370 238.405,112.600 237.974,112.600 237.781 C 112.600 237.709,112.803 237.647,113.050 237.643 C 113.297 237.640,113.860 237.477,114.300 237.283 C 114.740 237.088,115.190 236.917,115.300 236.903 C 115.540 236.872,116.185 236.630,116.600 236.416 C 116.765 236.330,117.058 236.284,117.250 236.313 C 117.442 236.341,117.600 236.273,117.600 236.161 C 117.600 236.049,117.735 236.009,117.900 236.072 C 118.065 236.136,118.200 236.091,118.200 235.972 C 118.200 235.854,118.335 235.809,118.500 235.872 C 118.665 235.936,118.800 235.903,118.800 235.800 C 118.800 235.697,118.935 235.664,119.100 235.728 C 119.265 235.791,119.400 235.752,119.400 235.640 C 119.400 235.529,119.580 235.485,119.800 235.542 C 120.032 235.603,120.200 235.548,120.200 235.412 C 120.200 235.282,120.300 235.238,120.422 235.314 C 120.545 235.389,120.708 235.350,120.784 235.225 C 120.861 235.101,121.321 234.961,121.807 234.914 C 122.293 234.868,122.721 234.738,122.758 234.626 C 122.795 234.514,122.938 234.466,123.076 234.518 C 123.213 234.571,123.491 234.431,123.694 234.207 C 123.896 233.983,123.992 233.800,123.907 233.800 C 123.821 233.800,123.843 233.688,123.956 233.550 C 124.069 233.413,124.214 232.985,124.277 232.600 C 124.341 232.215,124.445 231.675,124.508 231.400 C 124.571 231.125,124.655 230.630,124.694 230.300 C 124.734 229.970,124.851 229.475,124.954 229.200 C 125.058 228.925,125.102 228.584,125.052 228.443 C 125.003 228.302,125.071 228.056,125.203 227.896 C 125.336 227.736,125.394 227.472,125.331 227.309 C 125.269 227.146,125.304 226.959,125.409 226.894 C 125.515 226.829,125.546 226.556,125.479 226.288 C 125.401 225.979,125.442 225.800,125.591 225.800 C 125.720 225.800,125.809 225.643,125.790 225.450 C 125.770 225.257,125.771 225.055,125.791 225.000 C 125.824 224.910,125.886 224.552,126.085 223.300 C 126.120 223.080,126.167 222.900,126.190 222.900 C 126.239 222.900,126.387 222.256,126.467 221.692 C 126.499 221.467,126.592 221.174,126.674 221.042 C 126.756 220.909,126.766 220.706,126.695 220.591 C 126.624 220.476,126.658 220.271,126.772 220.134 C 126.885 219.997,127.006 219.461,127.039 218.943 C 127.073 218.424,127.173 218.000,127.263 218.000 C 127.352 218.000,127.399 217.843,127.368 217.650 C 127.336 217.457,127.376 217.196,127.456 217.068 C 127.536 216.940,127.616 216.468,127.634 216.018 C 127.651 215.568,127.731 215.200,127.812 215.200 C 127.892 215.200,127.955 214.998,127.952 214.750 C 127.942 214.004,128.197 212.579,128.412 212.177 C 128.523 211.970,128.570 211.800,128.516 211.800 C 128.462 211.800,128.542 211.448,128.694 211.018 C 128.845 210.588,128.924 210.191,128.869 210.135 C 128.813 210.080,128.859 209.864,128.970 209.656 C 129.081 209.448,129.228 208.878,129.297 208.389 C 129.525 206.754,129.567 206.500,129.609 206.500 C 129.658 206.500,129.766 205.943,129.879 205.100 C 129.924 204.770,129.980 204.455,130.003 204.400 C 130.027 204.345,130.030 204.143,130.010 203.950 C 129.991 203.758,130.065 203.600,130.175 203.600 C 130.285 203.600,130.373 203.442,130.371 203.250 C 130.368 203.058,130.499 202.376,130.661 201.735 C 130.822 201.094,130.909 200.396,130.854 200.185 C 130.795 199.959,130.855 199.800,131.000 199.800 C 131.155 199.800,131.211 199.615,131.151 199.300 C 131.098 199.025,131.139 198.800,131.240 198.800 C 131.342 198.800,131.409 198.643,131.390 198.450 C 131.370 198.258,131.371 198.055,131.392 198.000 C 131.477 197.778,131.608 197.059,131.694 196.343 C 131.744 195.927,131.847 195.486,131.923 195.362 C 131.999 195.239,132.093 194.927,132.131 194.669 C 132.226 194.026,132.346 193.394,132.487 192.800 C 132.670 192.028,132.837 190.937,132.831 190.550 C 132.827 190.358,132.901 190.200,132.995 190.200 C 133.088 190.200,133.139 190.043,133.108 189.850 C 133.077 189.658,133.118 189.410,133.198 189.300 C 133.350 189.094,133.410 188.706,133.440 187.750 C 133.450 187.447,133.545 187.200,133.652 187.200 C 133.759 187.200,133.804 186.975,133.751 186.700 C 133.698 186.425,133.739 186.200,133.841 186.200 C 133.943 186.200,133.966 186.009,133.892 185.775 C 133.818 185.541,133.848 185.294,133.959 185.225 C 134.070 185.156,134.217 184.568,134.287 183.918 C 134.356 183.268,134.500 182.390,134.606 181.968 C 134.713 181.546,134.896 180.817,135.014 180.350 C 135.132 179.883,135.267 179.253,135.314 178.950 C 135.361 178.648,135.452 178.108,135.515 177.750 C 135.579 177.393,135.636 176.965,135.642 176.800 C 135.649 176.635,135.734 176.399,135.831 176.275 C 135.928 176.152,135.954 175.913,135.890 175.746 C 135.825 175.578,135.869 175.381,135.986 175.308 C 136.722 174.854,135.280 174.761,133.100 175.122 C 132.770 175.177,132.236 175.219,131.914 175.216 C 131.592 175.213,131.232 175.284,131.114 175.374 C 130.996 175.464,130.653 175.520,130.350 175.500 C 130.047 175.479,129.800 175.516,129.800 175.581 C 129.800 175.647,129.553 175.716,129.250 175.735 C 128.286 175.795,127.505 175.912,127.300 176.027 C 127.190 176.088,126.853 176.121,126.550 176.100 C 126.248 176.079,126.000 176.125,126.000 176.202 C 126.000 176.279,125.753 176.349,125.450 176.358 C 124.797 176.376,124.233 176.488,123.741 176.697 C 123.544 176.781,123.335 176.802,123.276 176.743 C 123.218 176.684,122.884 176.726,122.535 176.836 C 122.186 176.945,121.720 177.063,121.500 177.098 C 121.280 177.134,120.875 177.248,120.600 177.352 C 120.325 177.457,119.897 177.525,119.650 177.504 C 119.403 177.484,119.200 177.519,119.200 177.583 C 119.200 177.648,118.870 177.718,118.468 177.740 C 118.065 177.762,117.676 177.878,117.602 177.997 C 117.528 178.116,117.318 178.156,117.134 178.085 C 116.950 178.015,116.800 178.048,116.800 178.160 C 116.800 178.271,116.620 178.315,116.400 178.258 C 116.180 178.200,116.000 178.245,116.000 178.358 C 116.000 178.470,115.820 178.515,115.600 178.458 C 115.376 178.399,115.200 178.452,115.200 178.577 C 115.200 178.700,114.885 178.800,114.500 178.800 C 114.115 178.800,113.800 178.887,113.800 178.994 C 113.800 179.100,113.665 179.136,113.500 179.072 C 113.335 179.009,113.200 179.034,113.200 179.129 C 113.199 179.223,112.952 179.312,112.650 179.327 C 112.347 179.342,111.830 179.466,111.500 179.604 C 111.170 179.741,110.699 179.880,110.454 179.913 C 110.209 179.945,109.806 180.113,109.559 180.286 C 109.313 180.459,108.912 180.600,108.669 180.600 C 108.425 180.600,107.973 180.705,107.663 180.832 C 107.353 180.960,107.033 181.050,106.950 181.032 C 106.868 181.015,106.800 181.095,106.800 181.212 C 106.800 181.328,106.713 181.370,106.607 181.304 C 106.501 181.239,106.054 181.368,105.615 181.592 C 105.175 181.817,104.677 182.000,104.508 182.000 C 104.339 182.000,104.200 182.087,104.200 182.194 C 104.200 182.300,104.065 182.336,103.900 182.272 C 103.735 182.209,103.600 182.254,103.600 182.372 C 103.600 182.491,103.477 182.540,103.326 182.482 C 103.175 182.424,102.889 182.540,102.690 182.738 C 102.491 182.937,102.277 183.073,102.214 183.040 C 102.151 183.007,101.920 183.040,101.700 183.113 C 101.480 183.186,101.240 183.258,101.167 183.273 C 101.093 183.288,100.966 183.368,100.883 183.450 C 100.801 183.533,100.568 183.600,100.367 183.600 C 100.165 183.600,100.000 183.690,100.000 183.800 C 100.000 183.910,99.928 183.978,99.840 183.950 C 99.591 183.872,98.200 184.455,98.200 184.637 C 98.200 184.727,98.068 184.800,97.907 184.800 C 97.555 184.800,96.150 185.431,95.978 185.667 C 95.910 185.759,95.798 185.826,95.728 185.817 C 95.657 185.808,95.578 185.807,95.550 185.815 C 95.523 185.824,95.322 185.864,95.104 185.904 C 94.886 185.945,94.675 186.074,94.637 186.190 C 94.598 186.307,94.484 186.352,94.383 186.289 C 94.282 186.227,94.200 186.277,94.200 186.400 C 94.200 186.523,94.119 186.574,94.021 186.513 C 93.922 186.452,93.788 186.542,93.722 186.714 C 93.657 186.885,93.516 186.972,93.409 186.906 C 93.162 186.753,90.800 187.937,90.800 188.215 C 90.800 188.330,90.710 188.368,90.600 188.300 C 90.490 188.232,90.400 188.272,90.400 188.388 C 90.400 188.505,90.261 188.600,90.092 188.600 C 89.922 188.600,89.540 188.778,89.242 188.996 C 88.590 189.472,87.206 189.435,86.699 188.928 C 86.517 188.745,86.285 188.647,86.184 188.710 C 86.083 188.772,86.000 188.723,86.000 188.600 C 86.000 188.477,85.910 188.432,85.800 188.500 C 85.690 188.568,85.600 188.528,85.600 188.412 C 85.600 188.295,85.465 188.200,85.300 188.200 C 85.135 188.200,85.000 188.095,85.000 187.967 C 85.000 187.838,84.944 187.789,84.876 187.857 C 84.808 187.925,84.621 187.849,84.460 187.689 C 84.299 187.528,84.085 187.447,83.984 187.510 C 83.883 187.572,83.800 187.523,83.800 187.400 C 83.800 187.277,83.710 187.232,83.600 187.300 C 83.490 187.368,83.400 187.323,83.400 187.200 C 83.400 187.077,83.310 187.032,83.200 187.100 C 83.090 187.168,83.000 187.135,83.000 187.028 C 83.000 186.920,82.730 186.772,82.400 186.700 C 82.070 186.628,81.800 186.496,81.800 186.407 C 81.800 186.247,81.194 186.005,80.571 185.917 C 80.390 185.891,80.091 185.719,79.906 185.535 C 79.595 185.223,79.315 185.119,78.950 185.176 C 78.868 185.189,78.800 185.110,78.800 185.000 C 78.800 184.890,78.730 184.822,78.644 184.850 C 78.559 184.877,78.086 184.708,77.594 184.474 C 77.102 184.239,76.212 183.892,75.615 183.703 C 75.018 183.514,74.404 183.233,74.251 183.079 C 74.097 182.926,73.795 182.800,73.579 182.800 C 73.363 182.800,72.968 182.657,72.702 182.483 C 72.435 182.308,72.134 182.217,72.031 182.281 C 71.929 182.344,71.739 182.267,71.608 182.110 C 71.478 181.952,71.242 181.873,71.085 181.933 C 70.928 181.994,70.800 181.943,70.800 181.821 C 70.800 181.700,70.733 181.611,70.650 181.624 C 70.567 181.637,70.433 181.625,70.350 181.599 C 70.267 181.572,70.133 181.531,70.050 181.508 C 69.968 181.485,69.630 181.349,69.300 181.206 C 68.970 181.063,68.543 180.952,68.350 180.960 C 68.158 180.968,68.000 180.891,68.000 180.788 C 68.000 180.684,67.797 180.599,67.550 180.599 C 67.302 180.598,66.839 180.461,66.520 180.295 C 66.201 180.129,65.897 180.036,65.845 180.088 C 65.792 180.141,65.503 180.057,65.202 179.901 C 64.900 179.745,64.439 179.577,64.177 179.527 C 63.915 179.477,63.475 179.351,63.200 179.246 C 62.925 179.141,62.542 179.080,62.350 179.110 C 62.158 179.140,62.000 179.098,62.000 179.016 C 62.000 178.934,61.888 178.857,61.750 178.845 C 61.457 178.820,61.022 178.707,60.600 178.546 C 60.312 178.437,59.436 178.235,58.796 178.131 C 58.630 178.103,58.395 178.020,58.274 177.946 C 58.047 177.806,56.834 177.586,56.050 177.544 C 55.803 177.531,55.600 177.453,55.600 177.371 C 55.600 177.290,55.420 177.258,55.200 177.300 C 54.980 177.342,54.800 177.286,54.800 177.175 C 54.800 177.064,54.621 177.030,54.402 177.099 C 54.183 177.169,53.892 177.157,53.755 177.072 C 53.619 176.988,53.370 176.898,53.204 176.873 C 52.782 176.809,52.362 176.687,51.950 176.509 C 51.758 176.425,51.468 176.408,51.306 176.470 C 51.145 176.532,50.959 176.496,50.894 176.390 C 50.828 176.284,50.555 176.237,50.287 176.285 C 50.019 176.334,49.800 176.279,49.800 176.163 C 49.800 176.047,49.577 175.996,49.300 176.049 C 49.025 176.102,48.800 176.079,48.800 176.000 C 48.800 175.921,48.574 175.899,48.299 175.951 C 48.023 176.004,47.686 175.961,47.549 175.855 C 47.412 175.749,47.053 175.680,46.750 175.700 C 46.448 175.721,46.200 175.652,46.200 175.547 C 46.200 175.436,45.904 175.411,45.500 175.487 C 45.114 175.559,44.800 175.536,44.800 175.435 C 44.800 175.334,44.508 175.256,44.150 175.262 C 43.793 175.267,42.915 175.170,42.200 175.046 C 40.831 174.809,40.210 174.790,40.185 174.983 M54.350 186.684 C 54.653 186.731,55.170 186.829,55.500 186.903 C 55.830 186.977,56.235 187.068,56.400 187.104 C 56.565 187.140,56.723 187.176,56.750 187.185 C 56.778 187.193,56.831 187.178,56.869 187.150 C 56.907 187.123,57.087 187.224,57.269 187.374 C 57.451 187.525,57.600 187.582,57.600 187.500 C 57.600 187.418,57.734 187.462,57.897 187.598 C 58.061 187.734,58.331 187.793,58.497 187.729 C 58.664 187.665,58.800 187.706,58.800 187.820 C 58.800 187.934,58.972 187.972,59.183 187.905 C 59.394 187.838,59.625 187.879,59.697 187.995 C 59.769 188.111,59.911 188.155,60.014 188.091 C 60.116 188.028,60.200 188.081,60.200 188.210 C 60.200 188.338,60.335 188.391,60.500 188.328 C 60.665 188.264,60.800 188.297,60.800 188.400 C 60.800 188.503,60.926 188.539,61.080 188.480 C 61.234 188.421,61.420 188.470,61.494 188.590 C 61.567 188.709,61.711 188.755,61.814 188.691 C 61.916 188.628,62.000 188.669,62.000 188.782 C 62.000 188.895,62.135 188.936,62.300 188.872 C 62.465 188.809,62.600 188.866,62.600 189.000 C 62.600 189.134,62.729 189.193,62.887 189.133 C 63.045 189.072,63.206 189.119,63.245 189.236 C 63.285 189.354,63.560 189.450,63.858 189.450 C 64.156 189.450,64.400 189.526,64.400 189.619 C 64.400 189.712,64.535 189.736,64.700 189.672 C 64.865 189.609,65.000 189.666,65.000 189.800 C 65.000 189.934,65.135 189.991,65.300 189.928 C 65.465 189.864,65.600 189.896,65.600 189.997 C 65.600 190.099,65.938 190.243,66.350 190.317 C 66.763 190.391,67.190 190.514,67.300 190.590 C 67.410 190.666,67.905 190.853,68.400 191.006 C 68.895 191.158,69.347 191.349,69.404 191.429 C 69.462 191.510,69.763 191.622,70.075 191.678 C 70.386 191.735,70.868 191.930,71.145 192.111 C 71.493 192.339,71.600 192.358,71.490 192.171 C 71.403 192.022,71.527 192.071,71.766 192.281 C 72.005 192.491,72.200 192.601,72.200 192.526 C 72.200 192.452,72.410 192.528,72.666 192.696 C 72.922 192.864,73.192 192.941,73.266 192.867 C 73.340 192.794,73.400 192.836,73.400 192.960 C 73.400 193.085,73.535 193.136,73.700 193.072 C 73.865 193.009,74.000 193.042,74.000 193.146 C 74.000 193.386,74.894 193.800,75.409 193.800 C 75.624 193.800,75.800 193.895,75.800 194.012 C 75.800 194.128,75.883 194.172,75.984 194.110 C 76.085 194.047,76.310 194.139,76.484 194.312 C 76.658 194.486,76.801 194.555,76.803 194.464 C 76.805 194.374,76.872 194.390,76.953 194.500 C 77.194 194.828,78.334 195.400,78.472 195.261 C 78.542 195.191,78.600 195.244,78.600 195.378 C 78.600 195.513,78.690 195.568,78.800 195.500 C 78.910 195.432,79.000 195.469,79.000 195.582 C 79.000 195.695,79.123 195.740,79.274 195.682 C 79.425 195.624,79.689 195.717,79.860 195.888 C 80.031 196.060,80.293 196.200,80.441 196.200 C 80.590 196.200,80.869 196.384,81.061 196.609 C 81.253 196.833,81.498 196.963,81.605 196.897 C 81.712 196.831,81.800 196.877,81.800 197.000 C 81.800 197.123,81.882 197.173,81.983 197.111 C 82.084 197.048,82.196 197.081,82.233 197.184 C 82.270 197.286,82.428 197.399,82.583 197.435 C 83.544 197.655,83.502 196.693,83.474 217.700 C 83.459 228.480,83.437 237.371,83.424 237.458 C 83.402 237.604,83.206 237.475,82.517 236.860 C 82.369 236.727,82.192 236.675,82.124 236.743 C 82.056 236.811,82.000 236.756,82.000 236.622 C 82.000 236.487,81.926 236.422,81.836 236.478 C 81.745 236.534,81.521 236.404,81.338 236.190 C 81.154 235.975,80.882 235.800,80.733 235.800 C 80.584 235.800,80.301 235.622,80.104 235.405 C 79.908 235.187,79.675 235.054,79.587 235.108 C 79.499 235.162,79.183 234.980,78.885 234.703 C 78.586 234.426,78.265 234.189,78.171 234.175 C 78.077 234.161,77.910 234.128,77.800 234.100 C 77.690 234.072,77.505 234.039,77.388 234.025 C 77.272 234.011,77.232 233.910,77.300 233.800 C 77.368 233.690,77.301 233.600,77.152 233.600 C 76.774 233.600,75.803 233.133,75.802 232.950 C 75.801 232.868,75.620 232.800,75.400 232.800 C 75.180 232.800,75.000 232.705,75.000 232.588 C 75.000 232.472,74.910 232.432,74.800 232.500 C 74.690 232.568,74.600 232.523,74.600 232.400 C 74.600 232.277,74.510 232.232,74.400 232.300 C 74.290 232.368,74.200 232.339,74.200 232.235 C 74.200 232.054,73.462 231.733,73.150 231.778 C 73.067 231.790,73.000 231.713,73.000 231.606 C 73.000 231.500,72.850 231.470,72.667 231.540 C 72.443 231.626,72.382 231.591,72.479 231.434 C 72.613 231.217,72.357 231.104,71.918 231.187 C 71.818 231.206,71.683 231.149,71.618 231.061 C 71.409 230.776,70.617 230.400,70.227 230.400 C 70.019 230.400,69.741 230.270,69.610 230.112 C 69.478 229.953,69.242 229.873,69.085 229.933 C 68.928 229.994,68.800 229.938,68.800 229.810 C 68.800 229.681,68.710 229.632,68.600 229.700 C 68.490 229.768,68.400 229.738,68.400 229.633 C 68.400 229.528,68.260 229.389,68.090 229.324 C 67.880 229.243,67.826 229.285,67.924 229.452 C 68.004 229.589,67.885 229.539,67.659 229.342 C 67.434 229.145,67.171 229.006,67.075 229.034 C 66.979 229.062,66.704 228.976,66.465 228.844 C 66.226 228.711,65.866 228.577,65.665 228.545 C 65.464 228.514,65.210 228.433,65.100 228.364 C 64.770 228.160,63.119 227.727,62.850 227.774 C 62.713 227.798,62.600 227.718,62.600 227.597 C 62.600 227.476,62.504 227.436,62.387 227.508 C 62.270 227.580,62.000 227.481,61.786 227.287 C 61.572 227.094,61.346 226.988,61.282 227.051 C 61.131 227.202,60.439 226.545,60.544 226.350 C 60.588 226.268,60.523 226.200,60.400 226.200 C 60.277 226.200,60.234 226.106,60.305 225.991 C 60.376 225.876,60.329 225.655,60.200 225.500 C 60.071 225.345,60.024 225.124,60.095 225.009 C 60.166 224.894,60.154 224.688,60.069 224.550 C 59.984 224.413,59.941 224.053,59.972 223.750 C 60.006 223.427,59.932 223.200,59.793 223.200 C 59.641 223.200,59.601 223.022,59.682 222.700 C 59.751 222.425,59.734 222.200,59.644 222.200 C 59.554 222.200,59.473 221.998,59.464 221.750 C 59.441 221.126,59.172 219.651,58.881 218.550 C 58.815 218.303,58.769 217.898,58.779 217.650 C 58.788 217.403,58.719 217.200,58.625 217.200 C 58.532 217.200,58.498 216.975,58.551 216.700 C 58.604 216.425,58.565 216.200,58.466 216.200 C 58.367 216.200,58.271 216.043,58.252 215.850 C 58.135 214.639,57.935 213.486,57.826 213.400 C 57.757 213.345,57.681 212.953,57.657 212.529 C 57.633 212.104,57.521 211.646,57.408 211.510 C 57.296 211.374,57.263 211.204,57.335 211.131 C 57.408 211.059,57.368 210.797,57.247 210.550 C 57.126 210.302,56.969 209.582,56.899 208.950 C 56.829 208.318,56.703 207.800,56.619 207.800 C 56.465 207.800,56.417 207.541,56.389 206.550 C 56.380 206.248,56.295 206.000,56.200 206.000 C 56.105 206.000,56.067 205.775,56.117 205.500 C 56.167 205.225,56.116 205.000,56.004 205.000 C 55.892 205.000,55.817 204.933,55.838 204.850 C 55.859 204.768,55.771 204.230,55.642 203.656 C 55.513 203.082,55.352 202.092,55.285 201.456 C 55.218 200.820,55.073 200.191,54.964 200.059 C 54.855 199.926,54.824 199.724,54.895 199.609 C 54.966 199.494,54.952 199.288,54.865 199.150 C 54.778 199.013,54.703 198.765,54.700 198.600 C 54.697 198.435,54.640 198.210,54.573 198.100 C 54.507 197.990,54.442 197.630,54.429 197.300 C 54.406 196.740,54.269 195.900,54.200 195.900 C 54.145 195.900,53.969 195.110,53.933 194.700 C 53.913 194.480,53.822 194.183,53.731 194.040 C 53.639 193.898,53.614 193.653,53.674 193.497 C 53.733 193.341,53.693 193.157,53.583 193.090 C 53.473 193.022,53.438 192.794,53.505 192.583 C 53.572 192.372,53.543 192.200,53.441 192.200 C 53.338 192.200,53.271 191.998,53.290 191.750 C 53.309 191.503,53.246 191.137,53.149 190.937 C 53.052 190.738,52.965 190.311,52.956 189.987 C 52.947 189.664,52.875 189.400,52.797 189.400 C 52.719 189.400,52.698 189.175,52.751 188.900 C 52.804 188.625,52.756 188.400,52.646 188.400 C 52.378 188.400,52.204 187.184,52.414 186.782 C 52.576 186.471,52.862 186.456,54.350 186.684 M123.742 186.841 C 123.727 187.039,123.650 187.200,123.570 187.200 C 123.490 187.200,123.425 187.358,123.425 187.550 C 123.425 187.743,123.363 188.305,123.287 188.800 C 123.212 189.295,123.152 189.903,123.154 190.150 C 123.156 190.398,123.097 190.600,123.022 190.600 C 122.892 190.600,122.778 191.220,122.739 192.150 C 122.729 192.398,122.648 192.600,122.560 192.600 C 122.472 192.600,122.417 192.668,122.438 192.750 C 122.473 192.891,122.264 194.202,122.064 195.100 C 122.014 195.320,121.946 195.725,121.911 196.000 C 121.876 196.275,121.786 196.649,121.710 196.831 C 121.634 197.013,121.546 197.418,121.514 197.731 C 121.483 198.044,121.390 198.458,121.307 198.650 C 121.225 198.843,121.209 199.135,121.272 199.300 C 121.336 199.465,121.295 199.600,121.181 199.600 C 121.068 199.600,120.991 199.758,121.010 199.950 C 121.030 200.143,121.029 200.345,121.008 200.400 C 120.781 200.991,120.431 202.888,120.521 203.034 C 120.568 203.110,120.511 203.231,120.395 203.303 C 120.279 203.375,120.238 203.606,120.305 203.817 C 120.372 204.028,120.339 204.200,120.232 204.200 C 120.070 204.200,119.821 205.314,119.695 206.600 C 119.679 206.765,119.595 207.060,119.509 207.256 C 119.423 207.452,119.339 207.857,119.323 208.156 C 119.306 208.455,119.233 208.794,119.160 208.909 C 119.087 209.023,118.985 209.473,118.932 209.909 C 118.879 210.344,118.777 210.849,118.704 211.031 C 118.631 211.213,118.541 211.663,118.503 212.031 C 118.466 212.399,118.416 212.722,118.392 212.750 C 118.369 212.778,118.328 212.980,118.300 213.200 C 118.272 213.420,118.228 213.645,118.200 213.700 C 118.172 213.755,118.128 213.980,118.100 214.200 C 118.072 214.420,118.028 214.645,118.000 214.700 C 117.972 214.755,117.928 214.980,117.900 215.200 C 117.873 215.420,117.828 215.645,117.800 215.700 C 117.772 215.755,117.728 215.980,117.700 216.200 C 117.672 216.420,117.631 216.623,117.608 216.650 C 117.585 216.678,117.539 216.880,117.505 217.100 C 117.470 217.320,117.379 217.860,117.301 218.300 C 117.223 218.740,117.149 219.257,117.137 219.450 C 117.124 219.643,117.033 219.800,116.934 219.800 C 116.835 219.800,116.796 220.025,116.849 220.300 C 116.902 220.575,116.857 220.800,116.751 220.800 C 116.644 220.800,116.613 221.024,116.682 221.300 C 116.760 221.612,116.723 221.800,116.582 221.800 C 116.459 221.800,116.408 221.932,116.470 222.094 C 116.532 222.255,116.502 222.437,116.404 222.498 C 116.306 222.558,116.224 222.764,116.222 222.954 C 116.216 223.609,115.960 225.004,115.700 225.800 C 115.682 225.855,115.597 226.148,115.512 226.450 C 115.371 226.948,115.181 227.092,114.750 227.024 C 114.668 227.011,114.600 227.090,114.600 227.200 C 114.600 227.310,114.533 227.389,114.450 227.376 C 114.368 227.363,114.233 227.375,114.150 227.401 C 114.067 227.428,113.910 227.472,113.800 227.500 C 113.690 227.528,113.578 227.569,113.550 227.592 C 113.522 227.616,113.194 227.666,112.820 227.704 C 112.446 227.742,112.086 227.847,112.020 227.937 C 111.954 228.027,111.765 228.130,111.600 228.166 C 111.435 228.202,111.014 228.366,110.666 228.531 C 110.317 228.696,109.912 228.851,109.766 228.875 C 109.619 228.899,109.303 229.027,109.063 229.160 C 108.823 229.292,108.440 229.400,108.213 229.400 C 107.986 229.400,107.800 229.490,107.800 229.600 C 107.800 229.710,107.575 229.800,107.300 229.800 C 107.025 229.800,106.800 229.889,106.800 229.998 C 106.800 230.106,106.440 230.253,106.000 230.323 C 105.560 230.394,105.200 230.530,105.200 230.626 C 105.200 230.722,105.020 230.800,104.800 230.800 C 104.580 230.800,104.400 230.880,104.400 230.977 C 104.400 231.074,104.197 231.219,103.950 231.300 C 103.393 231.481,103.458 231.455,102.526 231.862 C 102.100 232.048,101.672 232.200,101.576 232.200 C 101.479 232.200,101.400 232.295,101.400 232.412 C 101.400 232.528,101.310 232.568,101.200 232.500 C 101.090 232.432,101.000 232.487,101.000 232.622 C 101.000 232.756,100.941 232.808,100.870 232.736 C 100.798 232.665,100.611 232.762,100.455 232.953 C 100.298 233.144,100.227 233.189,100.296 233.052 C 100.378 232.889,100.315 232.845,100.112 232.923 C 99.941 232.989,99.846 233.113,99.900 233.200 C 99.954 233.287,99.859 233.411,99.688 233.477 C 99.480 233.557,99.426 233.515,99.524 233.348 C 99.604 233.211,99.496 233.239,99.284 233.408 C 99.073 233.578,98.473 233.922,97.950 234.172 C 97.428 234.423,97.000 234.717,97.000 234.826 C 97.000 234.935,96.910 234.968,96.800 234.900 C 96.690 234.832,96.600 234.877,96.600 235.000 C 96.600 235.123,96.521 235.175,96.424 235.115 C 96.327 235.055,95.997 235.252,95.690 235.553 C 95.382 235.854,95.203 235.978,95.290 235.829 C 95.396 235.650,95.273 235.674,94.925 235.902 C 94.636 236.091,94.400 236.326,94.400 236.423 C 94.400 236.520,94.231 236.600,94.024 236.600 C 93.818 236.600,93.499 236.803,93.315 237.050 C 93.132 237.298,93.037 237.365,93.106 237.200 C 93.204 236.962,93.175 236.966,92.965 237.220 C 92.745 237.486,92.700 234.187,92.700 217.670 C 92.700 202.550,92.756 197.800,92.936 197.800 C 93.065 197.800,93.292 197.680,93.439 197.533 C 93.818 197.154,95.606 196.176,96.092 196.082 C 96.315 196.039,96.529 195.913,96.566 195.801 C 96.604 195.689,96.709 195.644,96.801 195.701 C 96.893 195.757,97.108 195.663,97.280 195.491 C 97.452 195.319,97.786 195.141,98.021 195.096 C 98.257 195.051,98.664 194.873,98.925 194.702 C 99.186 194.531,99.400 194.443,99.400 194.507 C 99.400 194.571,99.600 194.483,99.845 194.311 C 100.089 194.140,100.439 194.000,100.623 194.000 C 100.807 194.000,101.008 193.867,101.071 193.703 C 101.134 193.540,101.312 193.455,101.467 193.515 C 101.622 193.574,101.895 193.476,102.074 193.297 C 102.253 193.118,102.400 193.037,102.400 193.117 C 102.400 193.197,102.565 193.113,102.766 192.931 C 102.968 192.748,103.192 192.659,103.265 192.732 C 103.338 192.805,103.563 192.715,103.765 192.532 C 103.967 192.349,104.193 192.259,104.266 192.333 C 104.340 192.406,104.400 192.352,104.400 192.212 C 104.400 192.068,104.530 192.007,104.700 192.072 C 104.865 192.136,105.000 192.091,105.000 191.972 C 105.000 191.854,105.135 191.809,105.300 191.872 C 105.465 191.936,105.600 191.903,105.600 191.800 C 105.600 191.697,105.735 191.664,105.900 191.728 C 106.065 191.791,106.200 191.734,106.200 191.600 C 106.200 191.466,106.335 191.409,106.500 191.472 C 106.665 191.536,106.800 191.495,106.800 191.382 C 106.800 191.269,106.884 191.228,106.986 191.291 C 107.089 191.355,107.230 191.314,107.300 191.200 C 107.370 191.086,107.517 191.049,107.626 191.116 C 107.736 191.184,107.977 191.104,108.163 190.938 C 108.348 190.772,108.856 190.581,109.292 190.513 C 109.727 190.445,110.132 190.324,110.192 190.244 C 110.251 190.165,110.480 190.069,110.700 190.030 C 110.920 189.992,111.166 189.857,111.247 189.730 C 111.328 189.604,111.395 189.573,111.397 189.662 C 111.399 189.751,111.513 189.753,111.650 189.667 C 111.913 189.503,111.948 189.493,112.900 189.299 C 113.230 189.231,113.530 189.092,113.567 188.988 C 113.603 188.885,113.828 188.799,114.067 188.799 C 114.305 188.798,114.757 188.664,115.071 188.500 C 115.385 188.336,115.722 188.252,115.821 188.313 C 115.919 188.374,116.000 188.337,116.000 188.231 C 116.000 188.124,116.180 188.085,116.400 188.142 C 116.632 188.203,116.800 188.148,116.800 188.012 C 116.800 187.882,116.882 187.827,116.983 187.890 C 117.084 187.952,117.421 187.898,117.733 187.770 C 118.045 187.642,118.390 187.520,118.500 187.499 C 118.610 187.478,118.745 187.441,118.800 187.417 C 118.916 187.365,119.984 187.184,120.350 187.154 C 120.488 187.143,120.600 187.048,120.600 186.943 C 120.600 186.839,120.825 186.796,121.100 186.849 C 121.375 186.902,121.600 186.866,121.600 186.769 C 121.600 186.673,121.864 186.641,122.188 186.698 C 122.511 186.755,122.828 186.717,122.892 186.613 C 123.098 186.279,123.771 186.459,123.742 186.841 " stroke="none" fill="#9c4414" fill-rule="evenodd" data-darkreader-inline-fill="" data-darkreader-inline-stroke="" ></path><path id="path1" d="M157.456 183.204 C 156.468 183.601,156.685 184.787,157.916 185.726 C 159.544 186.967,159.492 186.568,159.564 198.500 C 159.639 211.098,159.678 210.757,157.986 212.228 C 156.593 213.440,156.334 214.433,157.313 214.805 C 158.212 215.147,177.271 215.059,178.108 214.710 C 178.834 214.406,179.061 214.015,179.408 212.463 C 180.793 206.284,179.119 203.737,176.723 208.376 C 174.837 212.029,174.356 212.300,169.765 212.300 C 166.685 212.300,166.387 212.268,165.865 211.878 L 165.300 211.457 165.243 200.078 C 165.178 186.873,165.114 187.438,166.856 185.779 C 168.189 184.510,168.355 183.738,167.400 183.258 C 166.809 182.960,158.178 182.913,157.456 183.204 M186.656 183.204 C 185.668 183.601,185.885 184.787,187.116 185.726 C 188.757 186.978,188.700 186.500,188.700 198.906 C 188.700 211.456,188.773 210.886,186.974 212.403 C 185.792 213.399,185.590 214.454,186.513 214.805 C 187.211 215.070,196.115 215.060,196.613 214.793 C 197.395 214.375,197.125 213.349,195.922 212.163 C 194.362 210.624,194.402 210.975,194.401 199.023 C 194.400 186.941,194.339 187.424,196.060 185.779 C 197.388 184.509,197.554 183.738,196.600 183.258 C 196.009 182.960,187.378 182.913,186.656 183.204 M204.400 183.249 C 203.422 183.758,203.612 184.576,204.983 185.769 C 206.662 187.229,206.598 186.699,206.599 199.146 C 206.600 210.977,206.592 211.067,205.459 211.905 C 203.624 213.263,203.292 214.058,204.287 214.710 C 205.118 215.254,219.714 215.026,221.867 214.435 C 232.046 211.639,232.924 199.504,223.174 196.364 L 221.829 195.931 222.765 195.457 C 224.886 194.383,226.032 192.549,226.047 190.203 C 226.069 186.733,224.175 184.630,220.000 183.489 C 218.279 183.018,205.229 182.817,204.400 183.249 M237.600 183.400 C 236.949 184.051,237.147 184.594,238.521 185.930 C 239.719 187.096,239.712 186.964,239.216 198.986 C 238.709 211.282,238.760 210.930,237.258 212.339 C 235.031 214.428,235.647 215.000,240.124 215.000 C 244.436 215.000,245.091 214.415,243.015 212.415 C 242.307 211.732,241.990 211.251,241.887 210.701 C 241.752 209.982,242.059 197.688,242.331 192.922 L 242.455 190.743 243.100 192.322 C 243.454 193.190,244.577 195.880,245.595 198.300 C 246.613 200.720,248.384 204.944,249.529 207.687 C 251.965 213.519,251.810 213.273,252.966 213.143 C 254.290 212.994,254.559 212.593,257.214 206.800 C 258.550 203.885,260.653 199.295,261.888 196.600 C 263.124 193.905,264.273 191.435,264.442 191.112 C 264.780 190.469,264.801 190.872,265.120 204.025 C 265.273 210.371,265.247 210.546,263.962 211.873 C 262.459 213.425,262.294 213.894,263.000 214.600 C 263.458 215.058,272.204 215.226,273.013 214.793 C 273.854 214.343,273.538 213.148,272.298 212.089 C 270.659 210.689,270.686 210.877,270.299 198.400 C 269.928 186.415,269.871 187.074,271.403 185.597 C 272.524 184.517,272.691 183.826,271.955 183.311 C 271.264 182.827,265.616 182.858,265.020 183.350 C 264.785 183.544,262.638 187.975,260.199 193.300 C 257.780 198.580,255.513 203.509,255.161 204.253 L 254.520 205.606 253.783 203.853 C 246.285 186.010,245.221 183.560,244.845 183.275 C 244.212 182.794,238.100 182.900,237.600 183.400 M289.705 183.272 C 289.030 183.765,289.222 184.729,290.167 185.592 C 291.383 186.704,291.358 186.830,288.427 194.216 C 287.011 197.782,285.029 202.778,284.022 205.317 C 281.911 210.640,281.591 211.198,279.990 212.346 C 277.325 214.257,278.065 215.000,282.631 215.000 C 287.060 215.000,287.645 214.601,286.000 212.700 C 284.999 211.543,284.992 211.173,285.923 208.655 C 287.025 205.674,286.426 205.909,293.055 205.848 C 299.823 205.786,299.445 205.675,300.383 208.004 C 301.460 210.675,301.448 211.491,300.317 212.592 C 299.330 213.552,299.175 214.135,299.766 214.669 C 300.201 215.063,309.103 215.173,309.813 214.793 C 310.681 214.329,310.346 213.258,308.994 212.173 C 307.585 211.041,307.934 211.828,300.665 193.400 C 299.732 191.035,298.513 187.930,297.956 186.500 C 296.523 182.819,296.774 183.000,293.103 183.000 C 290.869 183.000,289.979 183.071,289.705 183.272 M317.378 183.320 C 316.191 183.814,315.607 185.784,315.607 189.300 C 315.606 191.587,315.716 191.867,316.614 191.867 C 317.390 191.867,317.591 191.642,318.893 189.322 C 320.467 186.518,321.399 185.844,323.739 185.815 C 324.773 185.803,325.070 185.880,325.539 186.283 L 326.100 186.766 326.100 198.033 C 326.100 210.874,326.135 210.545,324.595 212.037 C 321.926 214.623,322.456 215.000,328.755 215.000 C 334.906 215.000,335.722 214.546,333.409 212.408 C 331.622 210.757,331.708 211.423,331.641 198.764 C 331.576 186.585,331.584 186.474,332.609 185.938 C 334.672 184.859,337.211 186.219,338.805 189.259 C 340.596 192.675,342.200 192.896,342.200 189.728 C 342.200 186.485,341.604 184.119,340.620 183.457 L 339.941 183.000 329.020 183.010 C 319.788 183.019,317.988 183.067,317.378 183.320 M349.200 183.258 C 348.220 183.751,348.412 184.576,349.783 185.769 C 351.462 187.229,351.398 186.699,351.399 199.146 C 351.400 210.977,351.392 211.067,350.259 211.905 C 348.452 213.242,348.107 214.032,349.045 214.689 C 349.809 215.224,371.051 215.150,371.939 214.609 C 373.412 213.711,374.236 206.924,372.959 206.211 C 372.144 205.755,371.509 206.347,370.191 208.793 C 368.416 212.089,367.762 212.401,362.614 212.399 C 356.719 212.397,357.000 212.721,357.000 205.911 L 357.000 200.622 357.482 200.061 C 357.955 199.510,358.011 199.499,360.441 199.435 C 363.343 199.358,363.459 199.411,364.465 201.300 C 365.361 202.984,366.458 203.409,366.976 202.274 C 367.258 201.655,367.280 194.638,367.003 193.908 C 366.538 192.684,365.406 193.003,364.608 194.583 C 363.670 196.443,363.364 196.600,360.682 196.600 C 356.950 196.600,357.000 196.677,357.000 190.998 C 357.000 185.478,356.772 185.698,362.500 185.703 C 366.707 185.706,368.029 186.319,369.910 189.137 C 371.495 191.512,372.395 192.003,373.125 190.890 C 373.948 189.634,372.113 183.688,370.757 183.215 C 369.813 182.886,349.860 182.925,349.200 183.258 M216.363 185.888 C 218.930 186.571,220.467 188.373,220.469 190.700 C 220.470 193.453,218.761 194.678,214.900 194.692 C 211.954 194.704,212.200 195.092,212.200 190.437 C 212.200 186.230,212.228 186.099,213.200 185.742 C 213.765 185.534,215.300 185.605,216.363 185.888 M295.797 196.285 C 297.129 199.682,298.178 202.569,298.127 202.701 C 297.854 203.413,288.737 203.390,288.464 202.677 C 288.408 202.533,289.371 199.824,290.602 196.657 C 291.834 193.491,292.925 190.685,293.027 190.422 C 293.277 189.775,293.089 189.378,295.797 196.285 M218.300 198.190 C 225.505 200.721,225.860 210.631,218.800 212.119 C 215.569 212.800,212.887 212.312,212.415 210.957 C 211.934 209.578,212.138 198.268,212.650 197.894 C 213.286 197.430,216.636 197.606,218.300 198.190 " stroke="none" fill="#442b2b" fill-rule="evenodd" data-darkreader-inline-fill="" data-darkreader-inline-stroke="" ></path><path id="path2" d="M115.500 161.800 C 115.671 162.130,115.848 162.400,115.895 162.400 C 115.941 162.400,115.885 162.130,115.770 161.800 C 115.655 161.470,115.477 161.200,115.375 161.200 C 115.273 161.200,115.329 161.470,115.500 161.800 M66.450 161.938 C 66.642 161.988,66.958 161.988,67.150 161.938 C 67.343 161.888,67.185 161.846,66.800 161.846 C 66.415 161.846,66.258 161.888,66.450 161.938 M104.844 169.707 C 105.143 170.021,105.424 170.239,105.468 170.189 C 105.511 170.140,105.267 169.883,104.924 169.617 L 104.300 169.134 104.844 169.707 M80.406 176.200 C 80.407 176.365,80.595 176.725,80.822 177.000 C 81.049 177.275,81.176 177.387,81.105 177.249 C 80.509 176.097,80.403 175.937,80.406 176.200 M82.400 179.063 C 82.400 179.112,82.730 179.405,83.134 179.713 C 83.538 180.021,83.805 180.170,83.728 180.046 C 83.570 179.790,82.400 178.924,82.400 179.063 M88.154 181.545 C 88.513 181.589,89.053 181.589,89.354 181.543 C 89.654 181.497,89.360 181.461,88.700 181.462 C 88.040 181.463,87.794 181.500,88.154 181.545 M74.913 183.483 C 75.922 183.922,76.563 184.029,75.700 183.614 C 75.260 183.403,74.765 183.227,74.600 183.223 C 74.435 183.219,74.576 183.336,74.913 183.483 M80.017 185.673 C 80.420 186.026,81.076 186.236,80.826 185.933 C 80.675 185.750,80.412 185.600,80.242 185.600 C 80.072 185.600,79.971 185.633,80.017 185.673 M88.700 189.107 C 88.370 189.258,88.240 189.386,88.412 189.391 C 88.583 189.396,88.898 189.268,89.112 189.106 C 89.586 188.748,89.485 188.748,88.700 189.107 M94.100 197.014 C 93.770 197.225,93.590 197.398,93.700 197.398 C 93.810 197.397,94.170 197.219,94.500 197.000 C 94.830 196.781,95.010 196.609,94.900 196.616 C 94.790 196.623,94.430 196.802,94.100 197.014 M46.729 208.200 C 46.887 209.063,47.001 209.225,46.997 208.583 C 46.995 208.318,46.905 207.965,46.797 207.800 C 46.659 207.589,46.639 207.708,46.729 208.200 M92.646 210.800 C 92.646 211.185,92.688 211.343,92.738 211.150 C 92.788 210.957,92.788 210.643,92.738 210.450 C 92.688 210.257,92.646 210.415,92.646 210.800 M83.454 213.000 C 83.454 213.495,83.493 213.697,83.541 213.450 C 83.589 213.203,83.589 212.798,83.541 212.550 C 83.493 212.303,83.454 212.505,83.454 213.000 M128.223 212.634 C 128.210 212.817,128.148 213.132,128.085 213.334 C 127.976 213.681,127.982 213.681,128.198 213.344 C 128.324 213.148,128.386 212.833,128.337 212.644 C 128.255 212.334,128.244 212.333,128.223 212.634 M92.660 213.600 C 92.660 214.205,92.697 214.453,92.743 214.150 C 92.789 213.847,92.789 213.353,92.743 213.050 C 92.697 212.748,92.660 212.995,92.660 213.600 M48.397 216.191 C 48.502 216.556,48.643 216.909,48.710 216.977 C 48.898 217.165,48.572 215.926,48.378 215.713 C 48.284 215.611,48.293 215.826,48.397 216.191 M83.446 223.800 C 83.446 224.185,83.488 224.343,83.538 224.150 C 83.588 223.957,83.588 223.643,83.538 223.450 C 83.488 223.257,83.446 223.415,83.446 223.800 M108.700 229.107 C 108.370 229.258,108.240 229.386,108.412 229.391 C 108.583 229.396,108.898 229.268,109.112 229.106 C 109.586 228.748,109.485 228.748,108.700 229.107 M83.469 230.500 C 83.469 231.380,83.504 231.715,83.547 231.245 C 83.589 230.774,83.588 230.054,83.545 229.645 C 83.502 229.235,83.468 229.620,83.469 230.500 " stroke="none" fill="#944414" fill-rule="evenodd" data-darkreader-inline-fill="" data-darkreader-inline-stroke="" ></path><path id="path3" d="" stroke="none" fill="#583420" fill-rule="evenodd" data-darkreader-inline-fill="" data-darkreader-inline-stroke="" ></path><path id="path4" d="" stroke="none" fill="#9c4820" fill-rule="evenodd" data-darkreader-inline-fill="" data-darkreader-inline-stroke="" ></path></g></svg>