<svg version="1.1" id="Layer_1" xmlns="http://www.w3.org/2000/svg" xmlns:xlink="http://www.w3.org/1999/xlink" x="0px" y="0px"
	 width="100%" viewBox="0 0 2000 2000" enable-background="new 0 0 2000 2000" xml:space="preserve">
<path fill="#000000" opacity="1.000000" stroke="none" 
	d="
M1369.000000,2001.000000 
	C912.666687,2001.000000 456.833344,2001.000000 1.000000,2001.000000 
	C1.000000,1334.333374 1.000000,667.666687 1.000000,1.000000 
	C667.666687,1.000000 1334.333374,1.000000 2001.000000,1.000000 
	C2001.000000,667.666687 2001.000000,1334.333374 2001.000000,2001.000000 
	C1790.500000,2001.000000 1580.000000,2001.000000 1369.000000,2001.000000 
M864.345398,1140.104614 
	C883.664429,1152.095337 903.106873,1163.893311 922.253662,1176.152954 
	C932.790894,1182.900024 942.963806,1190.242310 953.063660,1197.640015 
	C967.675842,1208.342773 981.969055,1219.484009 996.682800,1230.041870 
	C998.703979,1231.492065 1002.947083,1231.800293 1005.140686,1230.664795 
	C1010.355347,1227.965820 1015.049316,1224.206787 1019.792053,1220.659790 
	C1038.388672,1206.751953 1056.399292,1191.985352 1075.619507,1179.006714 
	C1097.039307,1164.542603 1119.114014,1150.914307 1141.696899,1138.347534 
	C1160.848755,1127.690308 1180.740845,1118.112793 1201.020752,1109.803467 
	C1221.551514,1101.391479 1242.894897,1094.923096 1264.007935,1087.985962 
	C1278.226440,1083.314209 1292.556763,1078.891235 1307.047119,1075.176392 
	C1314.281982,1073.321411 1317.567383,1069.024658 1318.930664,1062.434570 
	C1321.730103,1048.902100 1324.343750,1035.331177 1327.156250,1021.801514 
	C1334.051270,988.633728 1341.045044,955.486572 1347.944702,922.319824 
	C1355.983398,883.677429 1363.936279,845.017212 1371.980347,806.375916 
	C1377.577271,779.489258 1383.329834,752.634888 1388.891968,725.741089 
	C1393.688965,702.547302 1398.305298,679.316040 1403.019775,656.105164 
	C1408.519287,629.030212 1414.053223,601.962158 1419.542114,574.885071 
	C1421.385498,565.791199 1423.137207,556.678711 1425.055420,546.942017 
	C1419.479370,547.684204 1414.640991,548.363098 1409.793335,548.966980 
	C1393.281616,551.024048 1376.700195,552.630676 1360.271118,555.210266 
	C1342.574219,557.988892 1325.018066,561.665039 1307.401978,564.957703 
	C1268.528931,572.223572 1230.340820,582.321106 1192.877319,594.797302 
	C1162.121826,605.039612 1131.724121,616.464111 1101.593628,628.436584 
	C1081.380737,636.468262 1061.805664,646.150146 1042.151123,655.525574 
	C1031.124878,660.785217 1020.366028,666.660278 1009.777832,672.763123 
	C1003.139221,676.589417 996.911621,675.911438 990.618530,672.774536 
	C985.904846,670.424988 981.565796,667.318970 976.837036,665.005310 
	C958.139648,655.857300 939.594543,646.340515 920.540039,637.994812 
	C897.610840,627.951965 874.548584,618.026672 850.947815,609.750427 
	C820.986450,599.243530 790.721680,589.327698 760.044678,581.209045 
	C726.381226,572.299927 692.158081,565.448975 658.058838,558.271118 
	C644.392151,555.394287 630.422791,553.910706 616.559326,552.027405 
	C605.131470,550.474976 593.656006,549.273987 582.203369,547.902222 
	C580.585388,547.708374 578.977722,547.428955 576.882141,547.117310 
	C581.261902,568.795898 585.457153,589.569641 589.655945,610.342712 
	C595.096741,637.260254 600.517456,664.181824 605.988708,691.093140 
	C611.820801,719.779419 617.635925,748.469360 623.581055,777.132324 
	C628.958862,803.060120 634.542603,828.945068 639.961975,854.864380 
	C646.525269,886.254883 653.015564,917.660828 659.529358,949.061707 
	C664.038635,970.799622 668.534912,992.540222 673.035706,1014.279907 
	C676.770447,1032.319580 680.516357,1050.356934 684.223938,1068.402222 
	C684.824036,1071.322632 686.104553,1073.078857 689.301941,1074.022217 
	C714.236267,1081.377808 739.146973,1088.821411 763.976135,1096.523926 
	C798.773621,1107.319092 831.845459,1122.146973 864.345398,1140.104614 
M1054.928345,459.498291 
	C1041.764038,450.120392 1026.847168,445.565552 1010.937500,445.136017 
	C990.546448,444.585602 972.080322,450.280609 955.851746,463.390564 
	C938.339050,477.537781 929.143127,495.872498 927.162109,517.759521 
	C925.507385,536.040771 928.551208,553.596375 938.745911,569.503540 
	C947.277161,582.815063 958.419983,593.164551 972.697571,599.721191 
	C988.221130,606.850159 1004.665710,608.736938 1021.565613,605.977478 
	C1042.941040,602.487183 1060.072632,591.805237 1073.019409,574.637512 
	C1082.240234,562.410645 1087.093506,548.599426 1088.270142,533.077393 
	C1089.202393,520.781433 1087.741333,509.144196 1083.850464,497.682129 
	C1078.540405,482.039398 1068.487183,469.870850 1054.928345,459.498291 
M1000.003052,1495.446045 
	C1000.336365,1509.919678 1000.210510,1524.423096 1001.146851,1538.857666 
	C1001.907898,1550.591064 999.131836,1560.214478 989.147949,1567.101562 
	C988.620483,1567.465332 988.228455,1568.049072 987.830566,1568.573853 
	C983.764893,1573.937012 985.818359,1580.416870 992.414673,1580.812988 
	C1006.846680,1581.679810 1021.331055,1581.726196 1035.796509,1581.944092 
	C1038.922363,1581.991089 1042.088257,1581.518921 1045.182983,1580.981445 
	C1049.890991,1580.163696 1052.121948,1577.465942 1050.897339,1572.970093 
	C1050.143311,1570.202271 1048.255127,1567.036499 1045.920654,1565.532959 
	C1037.417725,1560.056519 1034.454224,1551.977173 1034.080933,1542.603271 
	C1033.267090,1522.165649 1032.589722,1501.721313 1032.040894,1481.274902 
	C1031.558594,1463.306030 1031.327393,1445.330688 1030.983887,1427.358154 
	C1030.967896,1426.525269 1031.066040,1425.663696 1030.890381,1424.864136 
	C1028.535522,1414.144775 1032.344849,1406.191772 1041.168213,1399.888916 
	C1043.169800,1398.459229 1044.862061,1394.581665 1044.396240,1392.300415 
	C1043.962402,1390.175293 1040.584106,1387.336914 1038.295776,1387.133667 
	C1028.714966,1386.282593 1019.052917,1386.390503 1009.427917,1385.976929 
	C1002.513367,1385.679810 998.392334,1388.892090 995.571411,1395.108887 
	C976.801392,1436.473755 957.852051,1477.757324 938.928162,1519.052246 
	C938.291077,1520.442505 937.304199,1521.672485 936.114685,1523.556274 
	C934.938965,1521.467651 934.085632,1520.245972 933.519897,1518.902954 
	C924.289856,1496.988647 915.108582,1475.053955 905.890564,1453.134644 
	C897.640381,1433.516357 889.549377,1413.826660 880.904785,1394.383423 
	C879.451294,1391.114014 875.699585,1386.842529 872.743652,1386.623413 
	C861.329285,1385.777222 849.793823,1386.113647 838.335754,1386.671143 
	C835.907715,1386.789185 831.979309,1389.426880 831.657654,1391.383057 
	C831.215149,1394.073975 833.461487,1397.260010 834.747009,1400.148804 
	C835.121765,1400.991089 836.075623,1401.647949 836.887756,1402.211670 
	C842.725891,1406.264893 845.267822,1411.930664 845.015198,1418.902466 
	C844.401245,1435.847290 843.745178,1452.790527 843.070129,1469.733032 
	C842.064148,1494.979614 840.866028,1520.220093 840.088745,1545.473633 
	C839.807190,1554.620728 837.009399,1562.011597 829.036499,1566.992798 
	C825.329590,1569.308594 822.922668,1572.474365 824.363159,1576.983521 
	C825.792664,1581.458374 829.981262,1581.852295 833.817627,1581.919067 
	C843.314209,1582.084595 852.816467,1582.042725 862.314758,1581.934448 
	C866.082703,1581.891602 869.840759,1581.193115 871.290649,1577.020264 
	C872.728271,1572.883057 870.398987,1570.021851 867.335693,1567.668823 
	C860.607605,1562.500732 857.622986,1555.708496 857.977600,1547.247803 
	C858.722473,1529.476318 859.413269,1511.701660 859.973877,1493.923584 
	C860.440674,1479.121460 860.607178,1464.309937 861.083740,1449.508301 
	C861.235718,1444.787231 861.954895,1440.084473 862.548950,1433.995483 
	C863.810791,1436.792358 864.578369,1438.390747 865.262024,1440.024292 
	C882.602783,1481.456055 899.894897,1522.908203 917.379700,1564.279053 
	C918.306335,1566.471680 920.541016,1568.932617 922.697266,1569.631104 
	C929.293274,1571.768188 935.173950,1568.484619 938.126892,1562.040894 
	C943.117126,1551.151733 948.249146,1540.327515 953.245850,1529.441406 
	C965.671082,1502.371094 978.038330,1475.274048 990.466675,1448.205200 
	C992.835144,1443.046509 995.377625,1437.967773 997.839844,1432.852051 
	C998.202576,1432.959106 998.565308,1433.066040 998.928040,1433.172974 
	C999.286133,1453.602173 999.644226,1474.031494 1000.003052,1495.446045 
M741.881775,1462.392944 
	C745.519348,1459.790283 749.744751,1457.725098 752.697144,1454.495972 
	C769.217468,1436.427490 763.521179,1407.464844 741.877197,1395.843384 
	C726.607605,1387.644653 709.975159,1386.942383 693.468018,1386.189331 
	C675.849915,1385.385742 658.166687,1385.974121 640.512268,1386.046143 
	C638.215942,1386.055542 635.918457,1386.586060 633.627625,1386.917480 
	C630.031677,1387.437500 626.517395,1389.231201 626.678284,1392.836670 
	C626.803223,1395.635986 628.882812,1399.416382 631.251709,1400.859131 
	C640.617371,1406.562744 643.919250,1415.109985 643.947998,1425.291016 
	C644.058533,1464.430786 643.995483,1503.571289 643.990540,1542.711426 
	C643.989258,1552.990234 641.001282,1561.704834 631.280762,1566.889282 
	C630.556885,1567.275513 629.600464,1567.711548 629.324768,1568.365723 
	C628.280823,1570.843262 626.374817,1573.680298 626.896667,1575.884399 
	C627.383728,1577.941772 630.297485,1579.967651 632.593384,1580.907227 
	C635.095398,1581.931030 638.114685,1581.947510 640.909973,1581.957153 
	C662.395203,1582.031250 683.884949,1582.252563 705.364746,1581.903809 
	C719.020935,1581.682129 732.501160,1579.582764 745.459167,1574.983765 
	C774.918701,1564.528198 789.902344,1538.740479 784.021240,1508.144653 
	C780.563416,1490.155518 769.106873,1478.515625 752.881042,1471.219360 
	C747.709106,1468.893555 742.189209,1467.341675 735.798706,1465.069458 
	C738.295593,1463.998901 739.778259,1463.363281 741.881775,1462.392944 
M1593.906006,1469.900757 
	C1588.075073,1469.922607 1582.237305,1470.135620 1576.414673,1469.926270 
	C1564.372314,1469.493408 1561.020142,1465.955811 1561.004639,1454.054077 
	C1560.987427,1440.891113 1560.961914,1427.727905 1561.033203,1414.565308 
	C1561.066772,1408.356323 1563.369751,1404.661255 1569.444336,1404.113403 
	C1581.983521,1402.982788 1594.624390,1402.165527 1607.195679,1402.448853 
	C1618.464355,1402.702759 1628.024170,1407.983521 1635.193726,1416.822998 
	C1638.739990,1421.195312 1641.804321,1425.977173 1644.878662,1430.708984 
	C1648.440186,1436.191040 1652.552612,1438.505737 1656.548340,1436.907837 
	C1660.534180,1435.313965 1661.971436,1431.372070 1660.386841,1424.817139 
	C1658.165039,1415.625610 1655.573853,1406.524048 1653.252319,1397.355713 
	C1651.669800,1391.105957 1647.692383,1387.725342 1641.399658,1386.916748 
	C1638.773926,1386.579102 1636.140381,1386.045898 1633.509766,1386.041626 
	C1597.520020,1385.983643 1561.530151,1385.977417 1525.540405,1386.048584 
	C1522.580444,1386.054443 1519.432251,1386.207764 1516.719604,1387.222656 
	C1514.337280,1388.114014 1511.058960,1390.048584 1510.688965,1391.999023 
	C1510.237915,1394.376465 1511.941895,1397.605469 1513.592285,1399.808350 
	C1515.104004,1401.826294 1517.889404,1402.841064 1519.931274,1404.519653 
	C1527.329834,1410.601196 1527.853882,1419.311401 1527.902466,1427.760620 
	C1528.117798,1465.248901 1528.060059,1502.739136 1527.957031,1540.228394 
	C1527.926025,1551.487061 1525.661011,1561.844116 1514.256592,1567.520996 
	C1513.541138,1567.877075 1512.963501,1568.571533 1512.415039,1569.191040 
	C1508.242432,1573.903809 1509.861084,1579.421875 1516.008057,1580.924438 
	C1518.721802,1581.587646 1521.578735,1581.932983 1524.373657,1581.951294 
	C1539.368774,1582.049438 1554.364990,1582.000732 1569.360718,1581.999512 
	C1592.854126,1581.997681 1616.352539,1582.283691 1639.838989,1581.877563 
	C1653.218628,1581.646118 1657.263916,1578.535522 1659.169067,1566.018433 
	C1660.441040,1557.661865 1661.266235,1549.237549 1662.534058,1540.880371 
	C1663.587158,1533.939575 1661.953857,1528.932373 1657.747559,1527.535645 
	C1654.065063,1526.312866 1649.473389,1529.397339 1646.345093,1535.364868 
	C1644.027100,1539.786865 1641.899658,1544.308350 1639.617798,1548.749878 
	C1634.946045,1557.843018 1628.224731,1564.593262 1617.521362,1565.211060 
	C1605.743164,1565.890991 1593.919434,1565.876221 1582.114136,1565.938599 
	C1578.321655,1565.958618 1574.476440,1565.526489 1570.741943,1564.833984 
	C1564.937378,1563.757446 1561.135498,1559.970093 1561.101318,1554.963745 
	C1560.969238,1535.636963 1560.987671,1516.308594 1561.089722,1496.981567 
	C1561.116211,1491.961060 1563.527710,1487.796875 1568.715576,1487.366577 
	C1577.762817,1486.615967 1586.958130,1486.032349 1595.939331,1486.919556 
	C1599.411255,1487.262695 1602.903564,1491.427612 1605.579468,1494.544189 
	C1607.774048,1497.099976 1608.303711,1501.069092 1610.457031,1503.681763 
	C1612.031250,1505.592041 1615.433105,1507.726807 1617.314453,1507.207031 
	C1619.573486,1506.582764 1622.614136,1503.286743 1622.671509,1501.078857 
	C1623.076904,1485.498901 1623.149292,1469.888306 1622.561035,1454.316406 
	C1622.348511,1448.690918 1615.750366,1446.948853 1611.646362,1451.055908 
	C1609.958740,1452.744751 1608.787109,1455.092285 1607.819214,1457.329956 
	C1605.205811,1463.371582 1601.954712,1468.606323 1593.906006,1469.900757 
M1123.791138,1504.211304 
	C1119.828857,1514.089966 1115.790527,1523.939087 1111.923340,1533.854736 
	C1106.779541,1547.043213 1102.459473,1560.738525 1088.441162,1567.803101 
	C1085.009521,1569.532349 1083.274902,1572.272095 1083.960815,1576.371704 
	C1084.695923,1580.764648 1088.394043,1581.566406 1091.434326,1581.668579 
	C1102.749512,1582.048706 1114.094849,1582.074829 1125.403931,1581.617310 
	C1127.655273,1581.526367 1131.059937,1579.087769 1131.652588,1577.064087 
	C1132.314575,1574.803467 1130.519531,1571.726929 1129.501465,1569.119751 
	C1129.113770,1568.127197 1127.958740,1567.399536 1127.076538,1566.640747 
	C1122.886353,1563.037476 1122.035400,1558.540649 1123.768066,1553.525879 
	C1126.211670,1546.452881 1128.749512,1539.409058 1131.423340,1532.420288 
	C1132.909058,1528.536865 1135.804688,1526.031616 1140.116943,1526.022217 
	C1162.216553,1525.974121 1184.318481,1525.901489 1206.412964,1526.258179 
	C1208.592407,1526.293335 1211.653687,1528.725586 1212.703857,1530.840576 
	C1215.648926,1536.771729 1217.990479,1543.039185 1220.136719,1549.322021 
	C1223.221436,1558.352295 1222.215698,1561.414429 1214.780762,1567.516113 
	C1211.970459,1569.822510 1209.414062,1572.185547 1210.373169,1576.249756 
	C1211.426758,1580.714722 1215.295166,1581.160522 1218.901855,1581.864990 
	C1219.549072,1581.991455 1220.230347,1581.971436 1220.895996,1581.971680 
	C1235.227539,1581.977417 1249.560181,1582.063599 1263.889893,1581.900513 
	C1266.649048,1581.869141 1269.522461,1581.189453 1272.121094,1580.216187 
	C1276.035278,1578.750366 1277.358032,1574.119263 1274.931030,1570.733887 
	C1273.692383,1569.006592 1272.036865,1567.476685 1270.305786,1566.222046 
	C1264.067627,1561.700806 1259.351074,1555.907104 1256.532593,1548.834961 
	C1244.833984,1519.481812 1233.346436,1490.044556 1221.756958,1460.647705 
	C1212.972778,1438.366455 1204.131958,1416.107422 1195.362427,1393.820312 
	C1193.375488,1388.770752 1189.877930,1386.032837 1184.381348,1386.031250 
	C1175.382568,1386.028564 1166.382568,1385.948853 1157.385620,1386.078003 
	C1153.586182,1386.132568 1149.248291,1387.028198 1148.838623,1391.286499 
	C1148.554565,1394.240356 1150.131958,1398.232178 1152.260620,1400.405518 
	C1160.066650,1408.375000 1160.817871,1410.398926 1156.678223,1420.880249 
	C1145.802856,1448.415405 1134.895020,1475.937744 1123.791138,1504.211304 
M1187.560059,398.000244 
	C1184.904175,398.083405 1182.165405,397.774445 1179.606079,398.314850 
	C1165.596436,401.272949 1153.341919,407.364594 1143.912598,418.546387 
	C1130.922729,433.950409 1126.367310,451.475342 1130.607422,471.129517 
	C1133.629150,485.136353 1140.876709,496.713806 1152.147949,505.598816 
	C1166.702271,517.072021 1183.494995,521.339233 1201.378052,517.528809 
	C1222.889893,512.945251 1238.482666,500.031677 1246.311523,479.123993 
	C1255.138428,455.551056 1248.904053,431.252655 1231.666992,414.449707 
	C1219.919312,402.997894 1205.387695,396.982239 1187.560059,398.000244 
M1469.368652,1437.717896 
	C1469.906128,1435.665527 1471.023438,1433.572510 1470.882935,1431.567627 
	C1470.198730,1421.812500 1469.590210,1412.020508 1468.177246,1402.355347 
	C1466.195557,1388.799438 1462.554565,1387.550781 1448.616089,1386.031982 
	C1447.627441,1385.924316 1446.618164,1386.002075 1445.618408,1386.002075 
	C1409.460205,1386.001831 1373.301880,1385.960083 1337.143921,1386.056274 
	C1332.510620,1386.068604 1327.843506,1386.563843 1323.255859,1387.257690 
	C1317.210938,1388.171997 1313.359253,1391.841309 1312.081177,1397.848145 
	C1310.941772,1403.203369 1309.659424,1408.585449 1309.223755,1414.018433 
	C1308.670288,1420.920898 1308.295532,1427.949097 1308.993896,1434.805786 
	C1309.569580,1440.456665 1316.003784,1442.038330 1320.285645,1438.075073 
	C1321.485352,1436.964600 1322.511230,1435.579590 1323.323730,1434.153442 
	C1325.793945,1429.817383 1328.074951,1425.374023 1330.513916,1421.019653 
	C1335.181274,1412.687500 1340.679321,1405.137817 1350.989502,1403.620728 
	C1355.390869,1402.973022 1359.981567,1402.826538 1364.401001,1403.280762 
	C1370.150757,1403.871704 1372.977783,1408.569458 1372.982910,1416.501831 
	C1373.009277,1457.325562 1373.009399,1498.149414 1372.991699,1538.973145 
	C1372.986572,1550.666138 1370.345581,1561.099976 1359.258545,1567.522217 
	C1355.835449,1569.505127 1355.133911,1573.101196 1356.396118,1576.255249 
	C1357.211426,1578.292358 1359.794312,1579.997803 1361.976196,1581.002197 
	C1363.980469,1581.924683 1366.506592,1581.939819 1368.805786,1581.956665 
	C1380.469116,1582.042480 1392.133545,1582.024048 1403.797363,1581.985474 
	C1407.623047,1581.972778 1411.485962,1582.082520 1415.262451,1581.596802 
	C1418.533813,1581.175903 1422.086792,1580.335083 1422.783936,1576.230103 
	C1423.451904,1572.296387 1422.126831,1569.152710 1418.656616,1566.795776 
	C1412.159424,1562.383057 1407.958740,1556.352417 1407.188354,1548.381470 
	C1406.613159,1542.430420 1406.069702,1536.446899 1406.052734,1530.476318 
	C1405.949463,1494.151733 1405.969604,1457.826660 1406.050171,1421.502075 
	C1406.058228,1417.873169 1406.174438,1414.052612 1407.308960,1410.680420 
	C1408.173584,1408.110352 1410.276733,1405.252075 1412.618286,1404.010864 
	C1420.786011,1399.680786 1436.839478,1403.610107 1442.078491,1411.278687 
	C1447.130371,1418.673462 1451.486328,1426.543579 1456.146362,1434.205933 
	C1459.829102,1440.261353 1462.869141,1441.244141 1469.368652,1437.717896 
M389.998688,1537.499390 
	C389.998749,1501.687866 390.036407,1465.876221 389.977600,1430.064819 
	C389.958069,1418.171143 392.656189,1407.802368 403.403595,1400.681274 
	C405.597687,1399.227661 407.797363,1395.042358 407.211914,1392.864258 
	C406.557770,1390.430908 402.908417,1387.492920 400.257050,1387.152222 
	C392.389282,1386.140991 384.370636,1386.046509 376.412079,1386.064819 
	C366.784149,1386.087036 357.155487,1386.544312 347.531006,1386.913818 
	C344.150818,1387.043457 341.224091,1388.253540 340.327698,1391.922974 
	C339.382233,1395.793579 341.008240,1398.992798 344.182251,1400.930664 
	C354.071228,1406.968140 356.790771,1416.654419 356.865692,1427.049316 
	C357.146515,1466.023438 357.092804,1505.001587 356.874725,1543.976562 
	C356.834839,1551.108398 355.785156,1558.376221 349.273499,1563.193359 
	C347.138092,1564.773071 344.482971,1565.928833 342.932739,1567.945312 
	C341.255920,1570.126343 339.803894,1573.051514 339.684875,1575.716064 
	C339.532013,1579.138184 342.442719,1580.723877 345.751953,1581.113647 
	C348.215240,1581.403687 350.676361,1581.943848 353.140594,1581.956665 
	C368.464203,1582.036377 383.788422,1582.000854 399.112457,1581.999512 
	C418.767181,1581.997803 438.422363,1582.072510 458.076477,1581.959351 
	C470.726471,1581.886475 474.924500,1578.510742 477.085114,1566.279663 
	C478.582825,1557.801392 479.314392,1549.190552 480.593262,1540.669800 
	C481.566772,1534.183594 479.943146,1529.149170 476.008942,1527.648804 
	C472.258148,1526.218384 467.668365,1529.108032 464.489166,1535.111206 
	C462.075439,1539.668945 459.894867,1544.349487 457.527618,1548.932617 
	C452.829132,1558.028809 445.993744,1564.665283 435.337524,1565.265869 
	C424.232880,1565.891724 413.031494,1566.293945 401.959229,1565.532227 
	C392.970154,1564.913940 390.089325,1560.595703 390.010712,1551.490967 
	C389.973328,1547.160522 390.000641,1542.829590 389.998688,1537.499390 
M823.165833,433.010986 
	C801.943787,432.483276 784.986145,440.244629 773.109070,458.333069 
	C760.110657,478.129181 762.940063,507.389862 779.640930,524.153992 
	C788.665771,533.213074 799.215454,538.691589 812.145874,540.301636 
	C825.457458,541.959167 837.744629,539.272766 848.321167,531.845154 
	C865.336243,519.895935 874.123535,503.548615 872.146729,481.902222 
	C870.618591,465.168488 862.532654,452.743073 849.637329,442.926208 
	C842.120605,437.203857 833.272583,434.593475 823.165833,433.010986 
M568.004639,1429.673340 
	C568.413574,1418.165771 570.448975,1407.440186 581.477478,1400.867554 
	C582.580505,1400.210083 583.475037,1399.080933 584.247742,1398.012695 
	C587.427002,1393.617676 585.981079,1388.991821 580.760315,1387.521118 
	C577.753235,1386.673950 574.563965,1386.110474 571.448853,1386.072876 
	C558.454285,1385.916016 545.455933,1385.927124 532.460938,1386.065308 
	C529.335205,1386.098389 526.149109,1386.582886 523.111450,1387.342407 
	C518.486877,1388.498657 516.710632,1393.053467 519.240051,1397.140869 
	C520.357117,1398.946167 521.821167,1400.769897 523.567505,1401.913818 
	C532.789429,1407.954346 534.840942,1417.342163 534.899658,1427.178711 
	C535.127136,1465.333496 535.017334,1503.490479 534.977783,1541.646729 
	C534.967163,1551.897949 531.477051,1560.664185 522.683228,1566.454102 
	C518.546875,1569.177734 516.519897,1572.929443 518.487488,1576.894531 
	C519.690430,1579.318604 523.856628,1581.563721 526.753052,1581.642578 
	C543.233704,1582.090698 559.734680,1581.995239 576.223938,1581.753784 
	C579.594055,1581.704346 583.566101,1580.895508 584.652405,1576.774536 
	C585.781616,1572.490723 584.198181,1569.120239 580.355286,1566.542725 
	C574.141907,1562.375000 570.109558,1556.569458 569.215759,1548.998169 
	C568.612915,1543.891235 568.065674,1538.740356 568.050659,1533.607422 
	C567.950562,1499.283691 568.000122,1464.959717 568.004639,1429.673340 
M958.601746,406.128967 
	C977.153442,393.193024 981.558472,367.772278 967.794067,348.753754 
	C954.943848,330.998322 930.266418,327.703308 912.808960,339.206879 
	C892.964844,352.283173 889.544739,376.983185 901.427368,395.590485 
	C913.214844,414.048645 938.820435,419.624878 958.601746,406.128967 
M1038.000854,338.372345 
	C1038.512451,354.775940 1053.068848,368.837860 1069.464844,367.888031 
	C1085.590088,366.953857 1100.185669,354.610840 1099.010254,335.024689 
	C1098.184692,321.270813 1085.688965,305.826019 1066.780151,306.872192 
	C1052.489746,307.662903 1037.774292,319.703064 1038.000854,338.372345 
z"/>
<path fill="#984715" opacity="1.000000" stroke="none" 
	d="
M863.989868,1139.997437 
	C831.845459,1122.146973 798.773621,1107.319092 763.976135,1096.523926 
	C739.146973,1088.821411 714.236267,1081.377808 689.301941,1074.022217 
	C686.104553,1073.078857 684.824036,1071.322632 684.223938,1068.402222 
	C680.516357,1050.356934 676.770447,1032.319580 673.035706,1014.279907 
	C668.534912,992.540222 664.038635,970.799622 659.529358,949.061707 
	C653.015564,917.660828 646.525269,886.254883 639.961975,854.864380 
	C634.542603,828.945068 628.958862,803.060120 623.581055,777.132324 
	C617.635925,748.469360 611.820801,719.779419 605.988708,691.093140 
	C600.517456,664.181824 595.096741,637.260254 589.655945,610.342712 
	C585.457153,589.569641 581.261902,568.795898 576.882141,547.117310 
	C578.977722,547.428955 580.585388,547.708374 582.203369,547.902222 
	C593.656006,549.273987 605.131470,550.474976 616.559326,552.027405 
	C630.422791,553.910706 644.392151,555.394287 658.058838,558.271118 
	C692.158081,565.448975 726.381226,572.299927 760.044678,581.209045 
	C790.721680,589.327698 820.986450,599.243530 850.947815,609.750427 
	C874.548584,618.026672 897.610840,627.951965 920.540039,637.994812 
	C939.594543,646.340515 958.139648,655.857300 976.837036,665.005310 
	C981.565796,667.318970 985.904846,670.424988 990.618530,672.774536 
	C996.911621,675.911438 1003.139221,676.589417 1009.777832,672.763123 
	C1020.366028,666.660278 1031.124878,660.785217 1042.151123,655.525574 
	C1061.805664,646.150146 1081.380737,636.468262 1101.593628,628.436584 
	C1131.724121,616.464111 1162.121826,605.039612 1192.877319,594.797302 
	C1230.340820,582.321106 1268.528931,572.223572 1307.401978,564.957703 
	C1325.018066,561.665039 1342.574219,557.988892 1360.271118,555.210266 
	C1376.700195,552.630676 1393.281616,551.024048 1409.793335,548.966980 
	C1414.640991,548.363098 1419.479370,547.684204 1425.055420,546.942017 
	C1423.137207,556.678711 1421.385498,565.791199 1419.542114,574.885071 
	C1414.053223,601.962158 1408.519287,629.030212 1403.019775,656.105164 
	C1398.305298,679.316040 1393.688965,702.547302 1388.891968,725.741089 
	C1383.329834,752.634888 1377.577271,779.489258 1371.980347,806.375916 
	C1363.936279,845.017212 1355.983398,883.677429 1347.944702,922.319824 
	C1341.045044,955.486572 1334.051270,988.633728 1327.156250,1021.801514 
	C1324.343750,1035.331177 1321.730103,1048.902100 1318.930664,1062.434570 
	C1317.567383,1069.024658 1314.281982,1073.321411 1307.047119,1075.176392 
	C1292.556763,1078.891235 1278.226440,1083.314209 1264.007935,1087.985962 
	C1242.894897,1094.923096 1221.551514,1101.391479 1201.020752,1109.803467 
	C1180.740845,1118.112793 1160.848755,1127.690308 1141.696899,1138.347534 
	C1119.114014,1150.914307 1097.039307,1164.542603 1075.619507,1179.006714 
	C1056.399292,1191.985352 1038.388672,1206.751953 1019.792053,1220.659790 
	C1015.049316,1224.206787 1010.355347,1227.965820 1005.140686,1230.664795 
	C1002.947083,1231.800293 998.703979,1231.492065 996.682800,1230.041870 
	C981.969055,1219.484009 967.675842,1208.342773 953.063660,1197.640015 
	C942.963806,1190.242310 932.790894,1182.900024 922.253662,1176.152954 
	C903.106873,1163.893311 883.664429,1152.095337 863.989868,1139.997437 
M879.629639,711.886597 
	C858.371033,703.399414 837.435791,693.954163 815.779419,686.645691 
	C781.807068,675.180908 747.423584,664.903442 713.042358,654.702759 
	C704.341309,652.121155 694.989807,651.732056 685.509094,650.269470 
	C686.201416,654.437012 686.591553,657.382507 687.188049,660.285583 
	C694.137817,694.110352 701.044800,727.944153 708.113831,761.744080 
	C714.272339,791.190369 720.640991,820.592590 726.883301,850.021423 
	C732.923889,878.498779 739.068176,906.955322 744.878723,935.479736 
	C747.930969,950.463257 750.234497,965.598022 753.138306,980.613770 
	C754.478027,987.541138 756.071411,994.473267 758.320129,1001.143555 
	C759.176697,1003.684326 761.810364,1006.304504 764.299255,1007.478821 
	C769.936768,1010.138611 775.944397,1012.051208 781.877625,1014.040710 
	C810.629456,1023.681519 839.215149,1033.698120 866.623230,1046.853882 
	C893.742310,1059.870850 920.175659,1074.090698 945.638123,1090.110962 
	C950.439514,1093.131836 955.283264,1096.085449 961.000244,1099.622314 
	C961.000244,1096.364014 961.000183,1094.246216 961.000183,1092.128296 
	C961.000122,981.313354 961.000061,870.498352 960.999023,759.683411 
	C960.998962,758.183716 961.413330,756.505554 960.879333,755.225647 
	C960.055115,753.250061 958.970093,750.955811 957.298828,749.846313 
	C953.327026,747.209595 949.026062,745.023438 944.717712,742.946289 
	C923.290955,732.615601 901.818726,722.379150 879.629639,711.886597 
M1116.651978,714.106201 
	C1112.760254,715.907837 1108.823486,717.618469 1104.984619,719.526428 
	C1085.901245,729.010803 1066.908569,738.680603 1047.728027,747.963318 
	C1043.406372,750.054871 1041.867188,752.447815 1041.874390,757.355042 
	C1042.036743,867.980347 1042.003052,978.606018 1041.974609,1089.231567 
	C1041.973755,1092.374146 1041.622559,1095.516602 1041.462036,1098.200928 
	C1062.153564,1086.387695 1082.730591,1074.644409 1103.302856,1062.893066 
	C1127.441162,1049.104614 1152.818726,1037.921265 1178.753540,1028.110718 
	C1198.133667,1020.779541 1217.941406,1014.569092 1237.624390,1008.057922 
	C1240.842773,1006.993286 1242.429199,1005.344971 1243.034424,1002.070007 
	C1244.049316,996.580017 1245.484863,991.169495 1246.628418,985.701416 
	C1251.440186,962.691772 1256.230225,939.677490 1260.987549,916.656555 
	C1265.645142,894.118286 1270.188721,871.556335 1274.901733,849.029724 
	C1279.851929,825.370422 1285.020264,801.756775 1289.952271,778.093750 
	C1294.883667,754.433777 1299.747559,730.758606 1304.439819,707.050293 
	C1308.093994,688.587036 1311.439453,670.062683 1315.015869,651.066772 
	C1313.014893,651.066772 1311.649658,650.808960 1310.417236,651.104797 
	C1287.415405,656.626892 1264.172607,661.345032 1241.511108,668.030579 
	C1218.317261,674.873230 1195.567871,683.310425 1172.864136,691.699646 
	C1154.187378,698.600891 1135.861938,706.453552 1116.651978,714.106201 
z"/>
<path fill="#984715" opacity="1.000000" stroke="none" 
	d="
M1055.195557,459.743103 
	C1068.487183,469.870850 1078.540405,482.039398 1083.850464,497.682129 
	C1087.741333,509.144196 1089.202393,520.781433 1088.270142,533.077393 
	C1087.093506,548.599426 1082.240234,562.410645 1073.019409,574.637512 
	C1060.072632,591.805237 1042.941040,602.487183 1021.565613,605.977478 
	C1004.665710,608.736938 988.221130,606.850159 972.697571,599.721191 
	C958.419983,593.164551 947.277161,582.815063 938.745911,569.503540 
	C928.551208,553.596375 925.507385,536.040771 927.162109,517.759521 
	C929.143127,495.872498 938.339050,477.537781 955.851746,463.390564 
	C972.080322,450.280609 990.546448,444.585602 1010.937500,445.136017 
	C1026.847168,445.565552 1041.764038,450.120392 1055.195557,459.743103 
z"/>
<path fill="#442828" opacity="1.000000" stroke="none" 
	d="
M1000.002686,1494.953369 
	C999.644226,1474.031494 999.286133,1453.602173 998.928040,1433.172974 
	C998.565308,1433.066040 998.202576,1432.959106 997.839844,1432.852051 
	C995.377625,1437.967773 992.835144,1443.046509 990.466675,1448.205200 
	C978.038330,1475.274048 965.671082,1502.371094 953.245850,1529.441406 
	C948.249146,1540.327515 943.117126,1551.151733 938.126892,1562.040894 
	C935.173950,1568.484619 929.293274,1571.768188 922.697266,1569.631104 
	C920.541016,1568.932617 918.306335,1566.471680 917.379700,1564.279053 
	C899.894897,1522.908203 882.602783,1481.456055 865.262024,1440.024292 
	C864.578369,1438.390747 863.810791,1436.792358 862.548950,1433.995483 
	C861.954895,1440.084473 861.235718,1444.787231 861.083740,1449.508301 
	C860.607178,1464.309937 860.440674,1479.121460 859.973877,1493.923584 
	C859.413269,1511.701660 858.722473,1529.476318 857.977600,1547.247803 
	C857.622986,1555.708496 860.607605,1562.500732 867.335693,1567.668823 
	C870.398987,1570.021851 872.728271,1572.883057 871.290649,1577.020264 
	C869.840759,1581.193115 866.082703,1581.891602 862.314758,1581.934448 
	C852.816467,1582.042725 843.314209,1582.084595 833.817627,1581.919067 
	C829.981262,1581.852295 825.792664,1581.458374 824.363159,1576.983521 
	C822.922668,1572.474365 825.329590,1569.308594 829.036499,1566.992798 
	C837.009399,1562.011597 839.807190,1554.620728 840.088745,1545.473633 
	C840.866028,1520.220093 842.064148,1494.979614 843.070129,1469.733032 
	C843.745178,1452.790527 844.401245,1435.847290 845.015198,1418.902466 
	C845.267822,1411.930664 842.725891,1406.264893 836.887756,1402.211670 
	C836.075623,1401.647949 835.121765,1400.991089 834.747009,1400.148804 
	C833.461487,1397.260010 831.215149,1394.073975 831.657654,1391.383057 
	C831.979309,1389.426880 835.907715,1386.789185 838.335754,1386.671143 
	C849.793823,1386.113647 861.329285,1385.777222 872.743652,1386.623413 
	C875.699585,1386.842529 879.451294,1391.114014 880.904785,1394.383423 
	C889.549377,1413.826660 897.640381,1433.516357 905.890564,1453.134644 
	C915.108582,1475.053955 924.289856,1496.988647 933.519897,1518.902954 
	C934.085632,1520.245972 934.938965,1521.467651 936.114685,1523.556274 
	C937.304199,1521.672485 938.291077,1520.442505 938.928162,1519.052246 
	C957.852051,1477.757324 976.801392,1436.473755 995.571411,1395.108887 
	C998.392334,1388.892090 1002.513367,1385.679810 1009.427917,1385.976929 
	C1019.052917,1386.390503 1028.714966,1386.282593 1038.295776,1387.133667 
	C1040.584106,1387.336914 1043.962402,1390.175293 1044.396240,1392.300415 
	C1044.862061,1394.581665 1043.169800,1398.459229 1041.168213,1399.888916 
	C1032.344849,1406.191772 1028.535522,1414.144775 1030.890381,1424.864136 
	C1031.066040,1425.663696 1030.967896,1426.525269 1030.983887,1427.358154 
	C1031.327393,1445.330688 1031.558594,1463.306030 1032.040894,1481.274902 
	C1032.589722,1501.721313 1033.267090,1522.165649 1034.080933,1542.603271 
	C1034.454224,1551.977173 1037.417725,1560.056519 1045.920654,1565.532959 
	C1048.255127,1567.036499 1050.143311,1570.202271 1050.897339,1572.970093 
	C1052.121948,1577.465942 1049.890991,1580.163696 1045.182983,1580.981445 
	C1042.088257,1581.518921 1038.922363,1581.991089 1035.796509,1581.944092 
	C1021.331055,1581.726196 1006.846680,1581.679810 992.414673,1580.812988 
	C985.818359,1580.416870 983.764893,1573.937012 987.830566,1568.573853 
	C988.228455,1568.049072 988.620483,1567.465332 989.147949,1567.101562 
	C999.131836,1560.214478 1001.907898,1550.591064 1001.146851,1538.857666 
	C1000.210510,1524.423096 1000.336365,1509.919678 1000.002686,1494.953369 
z"/>
<path fill="#442828" opacity="1.000000" stroke="none" 
	d="
M741.571350,1462.560303 
	C739.778259,1463.363281 738.295593,1463.998901 735.798706,1465.069458 
	C742.189209,1467.341675 747.709106,1468.893555 752.881042,1471.219360 
	C769.106873,1478.515625 780.563416,1490.155518 784.021240,1508.144653 
	C789.902344,1538.740479 774.918701,1564.528198 745.459167,1574.983765 
	C732.501160,1579.582764 719.020935,1581.682129 705.364746,1581.903809 
	C683.884949,1582.252563 662.395203,1582.031250 640.909973,1581.957153 
	C638.114685,1581.947510 635.095398,1581.931030 632.593384,1580.907227 
	C630.297485,1579.967651 627.383728,1577.941772 626.896667,1575.884399 
	C626.374817,1573.680298 628.280823,1570.843262 629.324768,1568.365723 
	C629.600464,1567.711548 630.556885,1567.275513 631.280762,1566.889282 
	C641.001282,1561.704834 643.989258,1552.990234 643.990540,1542.711426 
	C643.995483,1503.571289 644.058533,1464.430786 643.947998,1425.291016 
	C643.919250,1415.109985 640.617371,1406.562744 631.251709,1400.859131 
	C628.882812,1399.416382 626.803223,1395.635986 626.678284,1392.836670 
	C626.517395,1389.231201 630.031677,1387.437500 633.627625,1386.917480 
	C635.918457,1386.586060 638.215942,1386.055542 640.512268,1386.046143 
	C658.166687,1385.974121 675.849915,1385.385742 693.468018,1386.189331 
	C709.975159,1386.942383 726.607605,1387.644653 741.877197,1395.843384 
	C763.521179,1407.464844 769.217468,1436.427490 752.697144,1454.495972 
	C749.744751,1457.725098 745.519348,1459.790283 741.571350,1462.560303 
M727.637634,1484.818970 
	C724.074951,1483.054443 720.661072,1480.834839 716.921204,1479.612183 
	C706.297485,1476.138550 695.482178,1473.715942 684.155640,1475.778076 
	C679.438721,1476.636841 677.120422,1479.594727 677.097900,1484.072021 
	C676.987122,1506.059326 676.819031,1528.051147 677.149780,1550.034180 
	C677.307190,1560.496460 682.975159,1565.721558 693.606995,1565.885132 
	C700.564392,1565.992310 707.609802,1565.821167 714.485046,1564.849365 
	C739.920776,1561.254028 748.747681,1546.142456 748.670959,1525.228027 
	C748.611084,1508.895996 742.546387,1494.706909 727.637634,1484.818970 
M682.265076,1457.785034 
	C688.757751,1457.842773 695.311951,1458.490601 701.728821,1457.821411 
	C711.595215,1456.792358 721.636658,1454.933838 726.170044,1444.367798 
	C730.586060,1434.075439 728.555237,1424.387817 722.200012,1415.269409 
	C715.516296,1405.679932 696.222717,1399.927002 684.760498,1402.869873 
	C678.992371,1404.350708 677.083557,1406.431641 677.045776,1412.149414 
	C676.961060,1424.974121 677.083862,1437.800049 676.977417,1450.624390 
	C676.948792,1454.073730 678.180542,1456.387451 682.265076,1457.785034 
z"/>
<path fill="#442828" opacity="1.000000" stroke="none" 
	d="
M1594.336914,1469.851074 
	C1601.954712,1468.606323 1605.205811,1463.371582 1607.819214,1457.329956 
	C1608.787109,1455.092285 1609.958740,1452.744751 1611.646362,1451.055908 
	C1615.750366,1446.948853 1622.348511,1448.690918 1622.561035,1454.316406 
	C1623.149292,1469.888306 1623.076904,1485.498901 1622.671509,1501.078857 
	C1622.614136,1503.286743 1619.573486,1506.582764 1617.314453,1507.207031 
	C1615.433105,1507.726807 1612.031250,1505.592041 1610.457031,1503.681763 
	C1608.303711,1501.069092 1607.774048,1497.099976 1605.579468,1494.544189 
	C1602.903564,1491.427612 1599.411255,1487.262695 1595.939331,1486.919556 
	C1586.958130,1486.032349 1577.762817,1486.615967 1568.715576,1487.366577 
	C1563.527710,1487.796875 1561.116211,1491.961060 1561.089722,1496.981567 
	C1560.987671,1516.308594 1560.969238,1535.636963 1561.101318,1554.963745 
	C1561.135498,1559.970093 1564.937378,1563.757446 1570.741943,1564.833984 
	C1574.476440,1565.526489 1578.321655,1565.958618 1582.114136,1565.938599 
	C1593.919434,1565.876221 1605.743164,1565.890991 1617.521362,1565.211060 
	C1628.224731,1564.593262 1634.946045,1557.843018 1639.617798,1548.749878 
	C1641.899658,1544.308350 1644.027100,1539.786865 1646.345093,1535.364868 
	C1649.473389,1529.397339 1654.065063,1526.312866 1657.747559,1527.535645 
	C1661.953857,1528.932373 1663.587158,1533.939575 1662.534058,1540.880371 
	C1661.266235,1549.237549 1660.441040,1557.661865 1659.169067,1566.018433 
	C1657.263916,1578.535522 1653.218628,1581.646118 1639.838989,1581.877563 
	C1616.352539,1582.283691 1592.854126,1581.997681 1569.360718,1581.999512 
	C1554.364990,1582.000732 1539.368774,1582.049438 1524.373657,1581.951294 
	C1521.578735,1581.932983 1518.721802,1581.587646 1516.008057,1580.924438 
	C1509.861084,1579.421875 1508.242432,1573.903809 1512.415039,1569.191040 
	C1512.963501,1568.571533 1513.541138,1567.877075 1514.256592,1567.520996 
	C1525.661011,1561.844116 1527.926025,1551.487061 1527.957031,1540.228394 
	C1528.060059,1502.739136 1528.117798,1465.248901 1527.902466,1427.760620 
	C1527.853882,1419.311401 1527.329834,1410.601196 1519.931274,1404.519653 
	C1517.889404,1402.841064 1515.104004,1401.826294 1513.592285,1399.808350 
	C1511.941895,1397.605469 1510.237915,1394.376465 1510.688965,1391.999023 
	C1511.058960,1390.048584 1514.337280,1388.114014 1516.719604,1387.222656 
	C1519.432251,1386.207764 1522.580444,1386.054443 1525.540405,1386.048584 
	C1561.530151,1385.977417 1597.520020,1385.983643 1633.509766,1386.041626 
	C1636.140381,1386.045898 1638.773926,1386.579102 1641.399658,1386.916748 
	C1647.692383,1387.725342 1651.669800,1391.105957 1653.252319,1397.355713 
	C1655.573853,1406.524048 1658.165039,1415.625610 1660.386841,1424.817139 
	C1661.971436,1431.372070 1660.534180,1435.313965 1656.548340,1436.907837 
	C1652.552612,1438.505737 1648.440186,1436.191040 1644.878662,1430.708984 
	C1641.804321,1425.977173 1638.739990,1421.195312 1635.193726,1416.822998 
	C1628.024170,1407.983521 1618.464355,1402.702759 1607.195679,1402.448853 
	C1594.624390,1402.165527 1581.983521,1402.982788 1569.444336,1404.113403 
	C1563.369751,1404.661255 1561.066772,1408.356323 1561.033203,1414.565308 
	C1560.961914,1427.727905 1560.987427,1440.891113 1561.004639,1454.054077 
	C1561.020142,1465.955811 1564.372314,1469.493408 1576.414673,1469.926270 
	C1582.237305,1470.135620 1588.075073,1469.922607 1594.336914,1469.851074 
z"/>
<path fill="#442828" opacity="1.000000" stroke="none" 
	d="
M1123.895508,1503.838135 
	C1134.895020,1475.937744 1145.802856,1448.415405 1156.678223,1420.880249 
	C1160.817871,1410.398926 1160.066650,1408.375000 1152.260620,1400.405518 
	C1150.131958,1398.232178 1148.554565,1394.240356 1148.838623,1391.286499 
	C1149.248291,1387.028198 1153.586182,1386.132568 1157.385620,1386.078003 
	C1166.382568,1385.948853 1175.382568,1386.028564 1184.381348,1386.031250 
	C1189.877930,1386.032837 1193.375488,1388.770752 1195.362427,1393.820312 
	C1204.131958,1416.107422 1212.972778,1438.366455 1221.756958,1460.647705 
	C1233.346436,1490.044556 1244.833984,1519.481812 1256.532593,1548.834961 
	C1259.351074,1555.907104 1264.067627,1561.700806 1270.305786,1566.222046 
	C1272.036865,1567.476685 1273.692383,1569.006592 1274.931030,1570.733887 
	C1277.358032,1574.119263 1276.035278,1578.750366 1272.121094,1580.216187 
	C1269.522461,1581.189453 1266.649048,1581.869141 1263.889893,1581.900513 
	C1249.560181,1582.063599 1235.227539,1581.977417 1220.895996,1581.971680 
	C1220.230347,1581.971436 1219.549072,1581.991455 1218.901855,1581.864990 
	C1215.295166,1581.160522 1211.426758,1580.714722 1210.373169,1576.249756 
	C1209.414062,1572.185547 1211.970459,1569.822510 1214.780762,1567.516113 
	C1222.215698,1561.414429 1223.221436,1558.352295 1220.136719,1549.322021 
	C1217.990479,1543.039185 1215.648926,1536.771729 1212.703857,1530.840576 
	C1211.653687,1528.725586 1208.592407,1526.293335 1206.412964,1526.258179 
	C1184.318481,1525.901489 1162.216553,1525.974121 1140.116943,1526.022217 
	C1135.804688,1526.031616 1132.909058,1528.536865 1131.423340,1532.420288 
	C1128.749512,1539.409058 1126.211670,1546.452881 1123.768066,1553.525879 
	C1122.035400,1558.540649 1122.886353,1563.037476 1127.076538,1566.640747 
	C1127.958740,1567.399536 1129.113770,1568.127197 1129.501465,1569.119751 
	C1130.519531,1571.726929 1132.314575,1574.803467 1131.652588,1577.064087 
	C1131.059937,1579.087769 1127.655273,1581.526367 1125.403931,1581.617310 
	C1114.094849,1582.074829 1102.749512,1582.048706 1091.434326,1581.668579 
	C1088.394043,1581.566406 1084.695923,1580.764648 1083.960815,1576.371704 
	C1083.274902,1572.272095 1085.009521,1569.532349 1088.441162,1567.803101 
	C1102.459473,1560.738525 1106.779541,1547.043213 1111.923340,1533.854736 
	C1115.790527,1523.939087 1119.828857,1514.089966 1123.895508,1503.838135 
M1193.548950,1480.950562 
	C1186.699585,1463.589844 1179.850342,1446.229248 1172.811890,1428.389282 
	C1171.979126,1429.517944 1171.582520,1429.873535 1171.409424,1430.316528 
	C1162.206055,1453.860107 1153.008057,1477.405640 1143.844604,1500.964722 
	C1141.494629,1507.006470 1142.518799,1508.815918 1149.110474,1508.893188 
	C1165.270874,1509.082886 1181.435669,1509.034058 1197.597290,1508.911621 
	C1202.509033,1508.874390 1203.627441,1507.184448 1201.960938,1502.601807 
	C1199.403809,1495.569336 1196.584961,1488.631836 1193.548950,1480.950562 
z"/>
<path fill="#984715" opacity="1.000000" stroke="none" 
	d="
M1188.045410,398.000244 
	C1205.387695,396.982239 1219.919312,402.997894 1231.666992,414.449707 
	C1248.904053,431.252655 1255.138428,455.551056 1246.311523,479.123993 
	C1238.482666,500.031677 1222.889893,512.945251 1201.378052,517.528809 
	C1183.494995,521.339233 1166.702271,517.072021 1152.147949,505.598816 
	C1140.876709,496.713806 1133.629150,485.136353 1130.607422,471.129517 
	C1126.367310,451.475342 1130.922729,433.950409 1143.912598,418.546387 
	C1153.341919,407.364594 1165.596436,401.272949 1179.606079,398.314850 
	C1182.165405,397.774445 1184.904175,398.083405 1188.045410,398.000244 
z"/>
<path fill="#442828" opacity="1.000000" stroke="none" 
	d="
M1469.086182,1438.005615 
	C1462.869141,1441.244141 1459.829102,1440.261353 1456.146362,1434.205933 
	C1451.486328,1426.543579 1447.130371,1418.673462 1442.078491,1411.278687 
	C1436.839478,1403.610107 1420.786011,1399.680786 1412.618286,1404.010864 
	C1410.276733,1405.252075 1408.173584,1408.110352 1407.308960,1410.680420 
	C1406.174438,1414.052612 1406.058228,1417.873169 1406.050171,1421.502075 
	C1405.969604,1457.826660 1405.949463,1494.151733 1406.052734,1530.476318 
	C1406.069702,1536.446899 1406.613159,1542.430420 1407.188354,1548.381470 
	C1407.958740,1556.352417 1412.159424,1562.383057 1418.656616,1566.795776 
	C1422.126831,1569.152710 1423.451904,1572.296387 1422.783936,1576.230103 
	C1422.086792,1580.335083 1418.533813,1581.175903 1415.262451,1581.596802 
	C1411.485962,1582.082520 1407.623047,1581.972778 1403.797363,1581.985474 
	C1392.133545,1582.024048 1380.469116,1582.042480 1368.805786,1581.956665 
	C1366.506592,1581.939819 1363.980469,1581.924683 1361.976196,1581.002197 
	C1359.794312,1579.997803 1357.211426,1578.292358 1356.396118,1576.255249 
	C1355.133911,1573.101196 1355.835449,1569.505127 1359.258545,1567.522217 
	C1370.345581,1561.099976 1372.986572,1550.666138 1372.991699,1538.973145 
	C1373.009399,1498.149414 1373.009277,1457.325562 1372.982910,1416.501831 
	C1372.977783,1408.569458 1370.150757,1403.871704 1364.401001,1403.280762 
	C1359.981567,1402.826538 1355.390869,1402.973022 1350.989502,1403.620728 
	C1340.679321,1405.137817 1335.181274,1412.687500 1330.513916,1421.019653 
	C1328.074951,1425.374023 1325.793945,1429.817383 1323.323730,1434.153442 
	C1322.511230,1435.579590 1321.485352,1436.964600 1320.285645,1438.075073 
	C1316.003784,1442.038330 1309.569580,1440.456665 1308.993896,1434.805786 
	C1308.295532,1427.949097 1308.670288,1420.920898 1309.223755,1414.018433 
	C1309.659424,1408.585449 1310.941772,1403.203369 1312.081177,1397.848145 
	C1313.359253,1391.841309 1317.210938,1388.171997 1323.255859,1387.257690 
	C1327.843506,1386.563843 1332.510620,1386.068604 1337.143921,1386.056274 
	C1373.301880,1385.960083 1409.460205,1386.001831 1445.618408,1386.002075 
	C1446.618164,1386.002075 1447.627441,1385.924316 1448.616089,1386.031982 
	C1462.554565,1387.550781 1466.195557,1388.799438 1468.177246,1402.355347 
	C1469.590210,1412.020508 1470.198730,1421.812500 1470.882935,1431.567627 
	C1471.023438,1433.572510 1469.906128,1435.665527 1469.086182,1438.005615 
z"/>
<path fill="#442828" opacity="1.000000" stroke="none" 
	d="
M389.998657,1537.999146 
	C390.000641,1542.829590 389.973328,1547.160522 390.010712,1551.490967 
	C390.089325,1560.595703 392.970154,1564.913940 401.959229,1565.532227 
	C413.031494,1566.293945 424.232880,1565.891724 435.337524,1565.265869 
	C445.993744,1564.665283 452.829132,1558.028809 457.527618,1548.932617 
	C459.894867,1544.349487 462.075439,1539.668945 464.489166,1535.111206 
	C467.668365,1529.108032 472.258148,1526.218384 476.008942,1527.648804 
	C479.943146,1529.149170 481.566772,1534.183594 480.593262,1540.669800 
	C479.314392,1549.190552 478.582825,1557.801392 477.085114,1566.279663 
	C474.924500,1578.510742 470.726471,1581.886475 458.076477,1581.959351 
	C438.422363,1582.072510 418.767181,1581.997803 399.112457,1581.999512 
	C383.788422,1582.000854 368.464203,1582.036377 353.140594,1581.956665 
	C350.676361,1581.943848 348.215240,1581.403687 345.751953,1581.113647 
	C342.442719,1580.723877 339.532013,1579.138184 339.684875,1575.716064 
	C339.803894,1573.051514 341.255920,1570.126343 342.932739,1567.945312 
	C344.482971,1565.928833 347.138092,1564.773071 349.273499,1563.193359 
	C355.785156,1558.376221 356.834839,1551.108398 356.874725,1543.976562 
	C357.092804,1505.001587 357.146515,1466.023438 356.865692,1427.049316 
	C356.790771,1416.654419 354.071228,1406.968140 344.182251,1400.930664 
	C341.008240,1398.992798 339.382233,1395.793579 340.327698,1391.922974 
	C341.224091,1388.253540 344.150818,1387.043457 347.531006,1386.913818 
	C357.155487,1386.544312 366.784149,1386.087036 376.412079,1386.064819 
	C384.370636,1386.046509 392.389282,1386.140991 400.257050,1387.152222 
	C402.908417,1387.492920 406.557770,1390.430908 407.211914,1392.864258 
	C407.797363,1395.042358 405.597687,1399.227661 403.403595,1400.681274 
	C392.656189,1407.802368 389.958069,1418.171143 389.977600,1430.064819 
	C390.036407,1465.876221 389.998749,1501.687866 389.998657,1537.999146 
z"/>
<path fill="#984715" opacity="1.000000" stroke="none" 
	d="
M823.622375,433.023102 
	C833.272583,434.593475 842.120605,437.203857 849.637329,442.926208 
	C862.532654,452.743073 870.618591,465.168488 872.146729,481.902222 
	C874.123535,503.548615 865.336243,519.895935 848.321167,531.845154 
	C837.744629,539.272766 825.457458,541.959167 812.145874,540.301636 
	C799.215454,538.691589 788.665771,533.213074 779.640930,524.153992 
	C762.940063,507.389862 760.110657,478.129181 773.109070,458.333069 
	C784.986145,440.244629 801.943787,432.483276 823.622375,433.023102 
z"/>
<path fill="#442828" opacity="1.000000" stroke="none" 
	d="
M568.002869,1430.154541 
	C568.000122,1464.959717 567.950562,1499.283691 568.050659,1533.607422 
	C568.065674,1538.740356 568.612915,1543.891235 569.215759,1548.998169 
	C570.109558,1556.569458 574.141907,1562.375000 580.355286,1566.542725 
	C584.198181,1569.120239 585.781616,1572.490723 584.652405,1576.774536 
	C583.566101,1580.895508 579.594055,1581.704346 576.223938,1581.753784 
	C559.734680,1581.995239 543.233704,1582.090698 526.753052,1581.642578 
	C523.856628,1581.563721 519.690430,1579.318604 518.487488,1576.894531 
	C516.519897,1572.929443 518.546875,1569.177734 522.683228,1566.454102 
	C531.477051,1560.664185 534.967163,1551.897949 534.977783,1541.646729 
	C535.017334,1503.490479 535.127136,1465.333496 534.899658,1427.178711 
	C534.840942,1417.342163 532.789429,1407.954346 523.567505,1401.913818 
	C521.821167,1400.769897 520.357117,1398.946167 519.240051,1397.140869 
	C516.710632,1393.053467 518.486877,1388.498657 523.111450,1387.342407 
	C526.149109,1386.582886 529.335205,1386.098389 532.460938,1386.065308 
	C545.455933,1385.927124 558.454285,1385.916016 571.448853,1386.072876 
	C574.563965,1386.110474 577.753235,1386.673950 580.760315,1387.521118 
	C585.981079,1388.991821 587.427002,1393.617676 584.247742,1398.012695 
	C583.475037,1399.080933 582.580505,1400.210083 581.477478,1400.867554 
	C570.448975,1407.440186 568.413574,1418.165771 568.002869,1430.154541 
z"/>
<path fill="#984715" opacity="1.000000" stroke="none" 
	d="
M958.305298,406.341797 
	C938.820435,419.624878 913.214844,414.048645 901.427368,395.590485 
	C889.544739,376.983185 892.964844,352.283173 912.808960,339.206879 
	C930.266418,327.703308 954.943848,330.998322 967.794067,348.753754 
	C981.558472,367.772278 977.153442,393.193024 958.305298,406.341797 
z"/>
<path fill="#984715" opacity="1.000000" stroke="none" 
	d="
M1038.000488,337.918945 
	C1037.774292,319.703064 1052.489746,307.662903 1066.780151,306.872192 
	C1085.688965,305.826019 1098.184692,321.270813 1099.010254,335.024689 
	C1100.185669,354.610840 1085.590088,366.953857 1069.464844,367.888031 
	C1053.068848,368.837860 1038.512451,354.775940 1038.000488,337.918945 
z"/>
<path fill="#000000" opacity="1.000000" stroke="none" 
	d="
M879.996033,711.998047 
	C901.818726,722.379150 923.290955,732.615601 944.717712,742.946289 
	C949.026062,745.023438 953.327026,747.209595 957.298828,749.846313 
	C958.970093,750.955811 960.055115,753.250061 960.879333,755.225647 
	C961.413330,756.505554 960.998962,758.183716 960.999023,759.683411 
	C961.000061,870.498352 961.000122,981.313354 961.000183,1092.128296 
	C961.000183,1094.246216 961.000244,1096.364014 961.000244,1099.622314 
	C955.283264,1096.085449 950.439514,1093.131836 945.638123,1090.110962 
	C920.175659,1074.090698 893.742310,1059.870850 866.623230,1046.853882 
	C839.215149,1033.698120 810.629456,1023.681519 781.877625,1014.040710 
	C775.944397,1012.051208 769.936768,1010.138611 764.299255,1007.478821 
	C761.810364,1006.304504 759.176697,1003.684326 758.320129,1001.143555 
	C756.071411,994.473267 754.478027,987.541138 753.138306,980.613770 
	C750.234497,965.598022 747.930969,950.463257 744.878723,935.479736 
	C739.068176,906.955322 732.923889,878.498779 726.883301,850.021423 
	C720.640991,820.592590 714.272339,791.190369 708.113831,761.744080 
	C701.044800,727.944153 694.137817,694.110352 687.188049,660.285583 
	C686.591553,657.382507 686.201416,654.437012 685.509094,650.269470 
	C694.989807,651.732056 704.341309,652.121155 713.042358,654.702759 
	C747.423584,664.903442 781.807068,675.180908 815.779419,686.645691 
	C837.435791,693.954163 858.371033,703.399414 879.996033,711.998047 
z"/>
<path fill="#000000" opacity="1.000000" stroke="none" 
	d="
M1117.016357,713.995361 
	C1135.861938,706.453552 1154.187378,698.600891 1172.864136,691.699646 
	C1195.567871,683.310425 1218.317261,674.873230 1241.511108,668.030579 
	C1264.172607,661.345032 1287.415405,656.626892 1310.417236,651.104797 
	C1311.649658,650.808960 1313.014893,651.066772 1315.015869,651.066772 
	C1311.439453,670.062683 1308.093994,688.587036 1304.439819,707.050293 
	C1299.747559,730.758606 1294.883667,754.433777 1289.952271,778.093750 
	C1285.020264,801.756775 1279.851929,825.370422 1274.901733,849.029724 
	C1270.188721,871.556335 1265.645142,894.118286 1260.987549,916.656555 
	C1256.230225,939.677490 1251.440186,962.691772 1246.628418,985.701416 
	C1245.484863,991.169495 1244.049316,996.580017 1243.034424,1002.070007 
	C1242.429199,1005.344971 1240.842773,1006.993286 1237.624390,1008.057922 
	C1217.941406,1014.569092 1198.133667,1020.779541 1178.753540,1028.110718 
	C1152.818726,1037.921265 1127.441162,1049.104614 1103.302856,1062.893066 
	C1082.730591,1074.644409 1062.153564,1086.387695 1041.462036,1098.200928 
	C1041.622559,1095.516602 1041.973755,1092.374146 1041.974609,1089.231567 
	C1042.003052,978.606018 1042.036743,867.980347 1041.874390,757.355042 
	C1041.867188,752.447815 1043.406372,750.054871 1047.728027,747.963318 
	C1066.908569,738.680603 1085.901245,729.010803 1104.984619,719.526428 
	C1108.823486,717.618469 1112.760254,715.907837 1117.016357,713.995361 
z"/>
<path fill="#000000" opacity="1.000000" stroke="none" 
	d="
M727.958069,1484.986328 
	C742.546387,1494.706909 748.611084,1508.895996 748.670959,1525.228027 
	C748.747681,1546.142456 739.920776,1561.254028 714.485046,1564.849365 
	C707.609802,1565.821167 700.564392,1565.992310 693.606995,1565.885132 
	C682.975159,1565.721558 677.307190,1560.496460 677.149780,1550.034180 
	C676.819031,1528.051147 676.987122,1506.059326 677.097900,1484.072021 
	C677.120422,1479.594727 679.438721,1476.636841 684.155640,1475.778076 
	C695.482178,1473.715942 706.297485,1476.138550 716.921204,1479.612183 
	C720.661072,1480.834839 724.074951,1483.054443 727.958069,1484.986328 
z"/>
<path fill="#000000" opacity="1.000000" stroke="none" 
	d="
M681.849731,1457.677246 
	C678.180542,1456.387451 676.948792,1454.073730 676.977417,1450.624390 
	C677.083862,1437.800049 676.961060,1424.974121 677.045776,1412.149414 
	C677.083557,1406.431641 678.992371,1404.350708 684.760498,1402.869873 
	C696.222717,1399.927002 715.516296,1405.679932 722.200012,1415.269409 
	C728.555237,1424.387817 730.586060,1434.075439 726.170044,1444.367798 
	C721.636658,1454.933838 711.595215,1456.792358 701.728821,1457.821411 
	C695.311951,1458.490601 688.757751,1457.842773 681.849731,1457.677246 
z"/>
<path fill="#000000" opacity="1.000000" stroke="none" 
	d="
M1193.713135,1481.302246 
	C1196.584961,1488.631836 1199.403809,1495.569336 1201.960938,1502.601807 
	C1203.627441,1507.184448 1202.509033,1508.874390 1197.597290,1508.911621 
	C1181.435669,1509.034058 1165.270874,1509.082886 1149.110474,1508.893188 
	C1142.518799,1508.815918 1141.494629,1507.006470 1143.844604,1500.964722 
	C1153.008057,1477.405640 1162.206055,1453.860107 1171.409424,1430.316528 
	C1171.582520,1429.873535 1171.979126,1429.517944 1172.811890,1428.389282 
	C1179.850342,1446.229248 1186.699585,1463.589844 1193.713135,1481.302246 
z"/>
</svg>