<svg version="1.2" xmlns="http://www.w3.org/2000/svg" viewBox="0 0 800 280" width="800" height="280">
	<style>
		.s0 { fill: #9c4414 } 
		.s1 { fill: #442b2b } 
		.s2 { fill: #944414 } 
		.s3 { fill: #583420 } 
		.s4 { fill: #9c4820 } 
	</style>
	<g id="svgg">
		<path id="path0" fill-rule="evenodd" class="s0" d="m192.8 35.3c0 0.18 0.23 0.29 0.5 0.24 0.82-0.16 2.33 0.49 2.08 0.89-0.12 0.2 0.05 0.37 0.4 0.37 0.34 0 0.62 0.26 0.62 0.59 0 0.32 0.35 0.77 0.79 1 0.46 0.25 0.69 0.67 0.55 1.02-0.12 0.32-0.07 0.59 0.12 0.59 0.41 0 0.62 2.76 0.27 3.6-0.14 0.33-0.3 0.81-0.35 1.06-0.18 0.84-1.9 2.91-2.24 2.7-0.19-0.11-0.34-0.03-0.34 0.19 0 0.63-2.48 1.25-4 1-0.77-0.12-1.71-0.22-2.1-0.21-0.38 0.01-0.7-0.16-0.7-0.36 0-0.21-0.13-0.34-0.3-0.29-0.16 0.05-0.79-0.4-1.38-1-0.6-0.6-0.96-1.1-0.8-1.1 0.15-0.01-0.04-0.26-0.44-0.56-0.86-0.65-1.37-4-0.73-4.77 0.25-0.3 0.32-0.65 0.18-0.8-0.14-0.14-0.04-0.26 0.23-0.26 0.27 0 0.38-0.18 0.24-0.4-0.14-0.22-0.06-0.4 0.18-0.4 0.23 0 0.42-0.25 0.42-0.55 0-0.3 0.3-0.8 0.68-1.1 0.58-0.47 0.63-0.47 0.37 0.05-0.17 0.33 0.06 0.18 0.52-0.34 0.46-0.52 0.83-0.82 0.83-0.66 0 0.17 0.27 0.07 0.6-0.2 0.33-0.27 0.6-0.38 0.6-0.23 0 0.15 0.27 0.12 0.61-0.07 0.78-0.44 2.59-0.44 2.59 0zm-27.2 6.77c0 0.21 0.14 0.29 0.31 0.18 0.53-0.32 3.4 2.84 3.07 3.38q-0.28 0.47 0.14 0.22c1-0.62 1.48 5.48 0.56 7.2-0.25 0.46-0.34 0.96-0.2 1.1 0.14 0.14 0.03 0.25-0.24 0.25-0.27 0-0.4 0.15-0.28 0.33 0.11 0.18-0.11 0.59-0.48 0.9-2.57 2.19-4.12 3.27-4.34 3.04-0.15-0.14-0.5-0.07-0.79 0.17-0.6 0.5-3.81 0.26-5.55-0.43-0.66-0.25-1.2-0.43-1.2-0.39 0 0.04-0.74-0.62-1.65-1.47-1.82-1.7-2.72-3.15-2.34-3.76 0.13-0.21 0.07-0.39-0.14-0.39-0.51 0-0.31-4.4 0.25-5.45 0.25-0.46 0.34-0.96 0.2-1.1-0.14-0.14-0.04-0.25 0.21-0.25 0.26 0 0.47-0.2 0.47-0.44 0-0.68 2.64-3.16 3.36-3.16 0.35 0 0.64-0.17 0.64-0.37 0-0.2 0.32-0.44 0.7-0.52 2.24-0.47 7.3 0.19 7.3 0.96zm56.32 14.08c0.26 0.16 0.64 0.2 0.83 0.08 0.2-0.12 0.59 0.06 0.87 0.39 0.28 0.34 0.73 0.53 1 0.43 0.27-0.11 0.87 0.16 1.34 0.59 0.46 0.44 0.84 0.67 0.84 0.52 0-0.61 3.65 3.44 3.8 4.23 0.09 0.47 0.52 1.43 0.95 2.13 0.91 1.48 1.52 6.47 0.84 6.89-0.23 0.14-0.31 0.6-0.18 1.02 0.14 0.44 0.06 0.77-0.2 0.77-0.25 0-0.4 0.23-0.35 0.5 0.14 0.74-0.46 2.3-0.89 2.3-0.2 0-0.37 0.21-0.37 0.46 0 0.25-0.31 0.71-0.7 1.03-0.42 0.34-0.46 0.45-0.1 0.27q0.6-0.3-0.16 0.57c-0.42 0.48-1.04 0.87-1.37 0.87-0.33 0-0.48 0.12-0.34 0.26 0.47 0.47-3.94 3.1-4.55 2.72-0.17-0.1-0.37 0-0.45 0.22-0.07 0.22-1.3 0.4-2.73 0.4-3.54 0.01-4.12-0.05-4.68-0.49-0.27-0.21-0.67-0.26-0.9-0.12-0.23 0.14-0.42 0.07-0.42-0.15 0-0.23-0.3-0.3-0.67-0.16q-0.64 0.24-0.4-0.17c0.15-0.23-0.01-0.53-0.35-0.66-0.38-0.15-0.52-0.08-0.36 0.18 0.15 0.24-0.1 0.2-0.55-0.08-0.45-0.28-0.76-0.61-0.68-0.73 0.07-0.12-0.48-0.67-1.22-1.22-0.74-0.55-1.35-1.21-1.36-1.46-0.01-0.25-0.28-0.56-0.61-0.68-0.33-0.13-0.6-0.51-0.6-0.85 0-0.33-0.17-0.61-0.37-0.61-0.89 0-2.05-7.96-1.31-8.95 0.19-0.25 0.36-0.88 0.39-1.41 0.03-0.53 0.25-1.09 0.5-1.25 0.25-0.15 0.41-0.35 0.35-0.43-0.25-0.35 2.14-3.94 2.48-3.74 0.2 0.13 0.36-0.05 0.36-0.4 0-0.34 0.71-0.93 1.6-1.32 0.88-0.38 1.6-0.83 1.6-0.99 0-0.17 0.34-0.31 0.75-0.31 0.42 0 1.33-0.24 2.02-0.53 1.32-0.56 5.52-0.64 6.35-0.12zm-83.04 8.36c0.17 0.27 0.31 0.33 0.31 0.13 0.01-0.2 0.33-0.09 0.71 0.25 0.38 0.34 1.1 0.74 1.59 0.89 0.49 0.15 0.85 0.42 0.8 0.6-0.05 0.19 0.01 0.31 0.13 0.28 0.4-0.11 2.8 2.59 2.59 2.92-0.11 0.19 0.08 0.45 0.43 0.58 0.37 0.14 0.54 0.5 0.41 0.84-0.12 0.33-0.05 0.6 0.16 0.6 0.22 0 0.36 0.14 0.33 0.3-0.04 0.17 0.04 0.57 0.16 0.9 0.48 1.24 0.67 4.37 0.28 4.61-0.21 0.14-0.29 0.41-0.16 0.62 0.12 0.2 0.09 0.6-0.09 0.87-0.17 0.28-0.33 0.68-0.36 0.9-0.13 0.98-0.69 2.2-1.02 2.2-0.19 0-0.35 0.16-0.35 0.36 0 0.46-2.77 3.24-3.22 3.24-0.19 0-0.49 0.27-0.68 0.61-0.19 0.33-0.74 0.68-1.22 0.77-0.49 0.1-1.11 0.32-1.38 0.49-0.71 0.45-6.45 0.51-6.73 0.08-0.13-0.21-0.81-0.44-1.52-0.53-0.81-0.11-1.76-0.66-2.53-1.49-0.68-0.73-0.99-0.97-0.69-0.53 0.55 0.79 0.55 0.79-0.34 0.04-0.49-0.42-0.89-1.02-0.89-1.33 0-0.3-0.17-0.45-0.37-0.33-0.88 0.54-2.49-4.02-2.49-7.04 0-4.01 0.04-4.34 0.55-4.34 0.24 0 0.33-0.11 0.19-0.25-0.41-0.41 0.93-2.64 2.59-4.3 1.47-1.49 4.33-3.33 4.33-2.8 0 0.14 0.23 0.08 0.5-0.13 0.28-0.2 1.22-0.42 2.1-0.48 0.88-0.06 1.68-0.19 1.77-0.28 0.36-0.35 3.81 0.28 4.11 0.75zm45.72 3.23c0.44 0.23 1.06 0.46 1.37 0.52 0.31 0.05 0.73 0.37 0.92 0.71 0.19 0.35 0.66 0.63 1.03 0.63 0.38 0 0.91 0.36 1.19 0.8 0.27 0.44 0.8 0.8 1.16 0.8 0.36 0 0.54 0.12 0.4 0.27-0.15 0.14 0.32 0.8 1.03 1.45 0.72 0.66 1.03 1.07 0.7 0.9-0.33-0.16-0.21 0.04 0.26 0.45 0.98 0.83 2.48 3.97 2.8 5.86 0.37 2.2 0.4 8.27 0.03 8.27-0.19 0-0.23 0.36-0.09 0.8 0.14 0.45 0.07 0.8-0.16 0.8-0.23 0-0.31 0.27-0.18 0.6 0.12 0.33 0.06 0.6-0.13 0.6-0.2 0-0.39 0.39-0.42 0.86-0.04 0.48-0.27 0.99-0.52 1.15-0.25 0.15-0.44 0.39-0.42 0.53 0.01 0.15 0.03 0.41 0.03 0.6 0 0.51-4.99 5.6-5.62 5.74-0.3 0.07-0.9 0.43-1.32 0.81-0.43 0.37-0.93 0.59-1.12 0.47-0.19-0.11-0.34-0.02-0.34 0.2 0 0.23-0.27 0.31-0.6 0.18-0.33-0.12-0.6-0.02-0.6 0.24 0 0.26-0.17 0.36-0.37 0.24-0.21-0.13-0.48-0.06-0.61 0.15-0.13 0.21-0.55 0.39-0.93 0.4-1.99 0.06-7.89 0.08-7.89 0.02 0-0.04-0.49-0.11-1.08-0.17-0.6-0.05-1.36-0.32-1.69-0.59-0.33-0.28-0.77-0.39-0.98-0.26-0.21 0.13-0.66-0.03-0.99-0.37-0.33-0.33-0.77-0.6-0.97-0.6-0.2 0-0.69-0.36-1.08-0.79-0.39-0.44-0.92-0.68-1.16-0.54q-0.39 0.21-0.17-0.05c0.15-0.17-0.47-0.87-1.38-1.56-0.91-0.7-1.6-1.42-1.54-1.62 0.06-0.19-0.13-0.5-0.43-0.68-0.29-0.18-0.55-0.52-0.58-0.75-0.03-0.22-0.07-0.6-0.1-0.83-0.03-0.24-0.23-0.31-0.46-0.17-0.23 0.14-0.38 0.1-0.35-0.08 0.17-1-0.09-1.75-0.51-1.49q-0.47 0.3-0.21-0.37c0.14-0.37 0.07-0.67-0.17-0.67-0.23 0-0.34-0.22-0.24-0.5 0.1-0.27 0-0.95-0.22-1.5-0.45-1.13-0.69-7.6-0.29-7.6 0.15 0 0.23-0.41 0.19-0.9-0.05-0.49 0.02-1.08 0.15-1.3 0.13-0.22 0.27-0.58 0.31-0.8 0.19-1.01 1.36-3.31 1.93-3.78 0.34-0.29 0.62-0.66 0.62-0.84 0-0.54 2.9-3.58 3.42-3.58 0.27 0 0.6-0.27 0.72-0.6 0.13-0.33 0.51-0.6 0.85-0.6 0.33 0 0.61-0.16 0.61-0.35 0-0.3 1-0.78 2.07-1 0.14-0.03 0.39-0.17 0.54-0.32 0.15-0.15 0.52-0.18 0.83-0.06 0.31 0.12 0.56 0.01 0.56-0.25 0-0.26 0.13-0.39 0.3-0.29 0.17 0.09 0.66 0.04 1.1-0.12 1.9-0.69 8.89-0.09 10.8 0.93zm-100.2 22.35c1.43 0.25 3.19 0.44 3.9 0.43 0.72-0.01 1.3 0.15 1.3 0.35 0 0.2 0.63 0.25 1.4 0.1 0.81-0.15 1.4-0.1 1.4 0.12 0 0.21 0.5 0.35 1.1 0.31 0.61-0.04 1.32 0.1 1.6 0.31 0.27 0.21 0.95 0.3 1.5 0.19 0.55-0.1 1-0.06 1 0.1 0 0.16 0.45 0.2 1 0.1 0.55-0.11 1-0.01 1 0.23 0 0.23 0.44 0.34 0.97 0.24 0.54-0.1 1.09 0 1.22 0.21 0.13 0.21 0.5 0.28 0.82 0.16 0.33-0.12 0.91-0.09 1.29 0.08q1.24 0.53 2.51 0.73c0.33 0.05 0.83 0.23 1.1 0.39 0.27 0.17 0.86 0.2 1.29 0.06 0.44-0.14 0.8-0.07 0.8 0.15 0 0.22 0.36 0.33 0.8 0.25 0.44-0.08 0.8-0.02 0.8 0.14 0 0.17 0.41 0.32 0.9 0.35 1.57 0.08 3.99 0.52 4.45 0.8 0.24 0.15 0.71 0.32 1.04 0.37 1.28 0.21 3.03 0.61 3.61 0.83 0.84 0.32 1.71 0.55 2.3 0.6 0.28 0.02 0.5 0.18 0.5 0.34 0 0.17 0.32 0.25 0.7 0.19 0.38-0.06 1.15 0.06 1.7 0.27 0.55 0.21 1.43 0.46 1.95 0.56 0.53 0.1 1.45 0.44 2.05 0.75 0.61 0.31 1.18 0.48 1.29 0.38 0.1-0.11 0.71 0.08 1.35 0.41 0.64 0.33 1.56 0.61 2.06 0.61 0.49 0 0.9 0.17 0.9 0.38 0 0.2 0.32 0.36 0.7 0.34 0.39-0.02 1.24 0.21 1.9 0.49 0.66 0.29 1.34 0.56 1.5 0.61 0.17 0.04 0.43 0.12 0.6 0.18 0.17 0.05 0.43 0.07 0.6 0.05 0.17-0.03 0.3 0.15 0.3 0.39 0 0.25 0.26 0.35 0.57 0.23 0.31-0.12 0.79 0.03 1.05 0.35 0.26 0.31 0.64 0.47 0.84 0.34 0.21-0.13 0.81 0.06 1.34 0.41 0.54 0.34 1.33 0.63 1.76 0.63 0.43 0 1.03 0.25 1.34 0.56 0.31 0.31 1.54 0.87 2.73 1.25 1.19 0.37 2.97 1.07 3.96 1.54 0.98 0.47 1.93 0.8 2.1 0.75 0.17-0.06 0.31 0.08 0.31 0.3 0 0.22 0.14 0.38 0.3 0.35 0.73-0.11 1.29 0.1 1.91 0.72 0.37 0.37 0.97 0.71 1.33 0.76 1.25 0.18 2.46 0.66 2.46 0.98 0 0.18 0.54 0.45 1.2 0.59 0.66 0.14 1.2 0.44 1.2 0.66 0 0.21 0.18 0.28 0.4 0.14 0.22-0.14 0.4-0.05 0.4 0.2 0 0.25 0.18 0.34 0.4 0.2 0.22-0.14 0.4-0.05 0.4 0.2 0 0.25 0.17 0.34 0.37 0.22 0.2-0.13 0.63 0.04 0.95 0.36 0.32 0.32 0.7 0.47 0.83 0.33 0.14-0.13 0.25-0.03 0.25 0.22 0 0.26 0.27 0.47 0.6 0.47 0.33 0 0.6 0.19 0.6 0.42 0 0.24 0.18 0.32 0.4 0.18 0.22-0.14 0.4-0.05 0.4 0.2 0 0.25 0.17 0.34 0.37 0.22 0.2-0.13 0.66 0.07 1.03 0.44 1.01 1.01 3.78 1.08 5.08 0.13 0.6-0.43 1.36-0.79 1.7-0.79 0.34 0 0.62-0.19 0.62-0.42 0-0.24 0.18-0.32 0.4-0.18 0.22 0.14 0.4 0.06 0.4-0.17 0-0.56 4.72-2.92 5.22-2.62 0.21 0.13 0.49-0.04 0.62-0.38 0.14-0.35 0.4-0.53 0.6-0.4 0.2 0.12 0.36 0.02 0.36-0.23 0-0.25 0.16-0.35 0.37-0.22 0.2 0.12 0.43 0.03 0.5-0.2 0.08-0.23 0.5-0.49 0.94-0.57 0.43-0.08 0.84-0.16 0.89-0.18 0.06-0.02 0.21-0.01 0.36 0 0.14 0.02 0.36-0.11 0.5-0.3 0.34-0.47 3.15-1.73 3.85-1.73 0.33 0 0.59-0.15 0.59-0.33 0-0.36 2.78-1.53 3.28-1.37 0.18 0.06 0.32-0.08 0.32-0.3 0-0.22 0.33-0.4 0.73-0.4 0.41 0 0.87-0.13 1.04-0.3 0.16-0.16 0.42-0.32 0.56-0.35 0.15-0.03 0.63-0.18 1.07-0.32 0.44-0.15 0.9-0.22 1.03-0.15 0.12 0.07 0.55-0.21 0.95-0.6 0.4-0.4 0.97-0.63 1.27-0.52 0.3 0.12 0.55 0.02 0.55-0.22 0-0.23 0.27-0.32 0.6-0.2 0.33 0.13 0.6 0.06 0.6-0.15 0-0.22 0.28-0.39 0.62-0.39 0.33 0 1.33-0.37 2.21-0.82 0.88-0.44 1.77-0.7 1.98-0.57 0.22 0.13 0.39 0.05 0.39-0.19 0-0.23 0.14-0.39 0.3-0.36 0.17 0.04 0.81-0.14 1.43-0.4 0.62-0.25 1.52-0.46 2.01-0.46 0.48 0 1.29-0.28 1.78-0.63 0.49-0.34 1.3-0.68 1.79-0.74 0.49-0.07 1.43-0.35 2.09-0.62 0.66-0.28 1.69-0.53 2.3-0.56 0.6-0.03 1.1-0.2 1.1-0.39 0-0.19 0.27-0.24 0.6-0.12 0.33 0.13 0.6 0.06 0.6-0.15 0-0.22 0.63-0.39 1.4-0.39 0.77 0 1.4-0.2 1.4-0.45 0-0.25 0.35-0.35 0.8-0.23 0.44 0.11 0.8 0.02 0.8-0.2 0-0.23 0.36-0.32 0.8-0.2 0.44 0.11 0.8 0.02 0.8-0.2 0-0.22 0.3-0.29 0.67-0.15 0.37 0.14 0.79 0.06 0.93-0.18 0.15-0.23 0.93-0.47 1.74-0.51 0.8-0.04 1.46-0.18 1.46-0.31 0-0.13 0.41-0.2 0.9-0.16 0.49 0.04 1.35-0.1 1.9-0.31 0.55-0.2 1.36-0.43 1.8-0.5 0.44-0.07 1.37-0.31 2.07-0.53 0.7-0.22 1.37-0.3 1.48-0.18 0.12 0.11 0.54 0.07 0.93-0.1q1.47-0.62 3.42-0.67c0.61-0.02 1.1-0.16 1.1-0.32 0-0.15 0.5-0.24 1.1-0.2 0.61 0.04 1.28-0.02 1.5-0.15 0.41-0.23 1.97-0.46 3.9-0.58 0.61-0.04 1.1-0.18 1.1-0.31 0-0.13 0.49-0.2 1.1-0.16 0.61 0.04 1.29-0.07 1.53-0.25 0.23-0.18 0.95-0.32 1.6-0.32 0.64 0.01 1.71-0.08 2.37-0.19 4.36-0.72 7.24-0.53 5.77 0.38-0.23 0.14-0.32 0.54-0.19 0.87 0.13 0.34 0.08 0.81-0.12 1.06-0.19 0.25-0.36 0.72-0.38 1.05-0.01 0.33-0.12 1.19-0.25 1.9-0.13 0.72-0.31 1.8-0.4 2.4-0.1 0.61-0.37 1.87-0.6 2.8-0.24 0.93-0.6 2.39-0.82 3.24-0.21 0.84-0.5 2.6-0.64 3.9-0.14 1.3-0.43 2.47-0.65 2.61-0.22 0.14-0.28 0.63-0.14 1.1 0.15 0.47 0.11 0.85-0.1 0.85-0.2 0-0.28 0.45-0.18 1 0.11 0.55 0.02 1-0.2 1-0.21 0-0.4 0.49-0.42 1.1-0.06 1.91-0.18 2.69-0.48 3.1-0.16 0.22-0.25 0.72-0.18 1.1 0.06 0.39-0.04 0.7-0.23 0.7-0.19 0-0.34 0.32-0.33 0.7 0.01 0.77-0.32 2.96-0.69 4.5q-0.42 1.8-0.71 3.74c-0.07 0.51-0.26 1.14-0.41 1.38-0.16 0.25-0.36 1.13-0.46 1.97-0.17 1.43-0.44 2.87-0.61 3.31-0.04 0.11-0.04 0.52 0 0.9 0.04 0.39-0.1 0.7-0.3 0.7-0.2 0-0.28 0.45-0.18 1 0.12 0.63 0.01 1-0.3 1-0.29 0-0.41 0.32-0.29 0.77 0.11 0.42-0.07 1.82-0.39 3.1-0.32 1.28-0.58 2.65-0.58 3.03 0.01 0.38-0.17 0.7-0.39 0.7-0.22 0-0.37 0.32-0.33 0.7 0.04 0.39 0.03 0.79-0.01 0.9-0.05 0.11-0.16 0.74-0.25 1.4-0.23 1.69-0.44 2.8-0.54 2.8-0.09 0-0.17 0.51-0.63 3.78-0.13 0.98-0.43 2.12-0.65 2.53-0.22 0.42-0.31 0.85-0.2 0.96 0.11 0.11-0.05 0.91-0.35 1.77-0.31 0.86-0.47 1.56-0.36 1.56 0.11 0 0.02 0.34-0.21 0.75-0.43 0.81-0.94 3.66-0.92 5.15 0.01 0.5-0.12 0.9-0.28 0.9-0.16 0-0.32 0.74-0.35 1.64-0.04 0.9-0.2 1.84-0.36 2.1-0.16 0.25-0.24 0.77-0.17 1.16 0.06 0.39-0.04 0.7-0.21 0.7-0.18 0-0.38 0.85-0.45 1.89-0.07 1.03-0.31 2.1-0.54 2.38-0.22 0.27-0.29 0.68-0.15 0.91 0.14 0.23 0.12 0.64-0.04 0.9-0.17 0.27-0.35 0.85-0.42 1.3-0.16 1.13-0.45 2.42-0.55 2.42-0.05 0-0.14 0.36-0.21 0.8-0.4 2.5-0.52 3.22-0.59 3.4-0.04 0.11-0.04 0.51 0 0.9 0.04 0.39-0.14 0.7-0.4 0.7-0.3 0-0.38 0.36-0.22 0.98 0.13 0.53 0.07 1.08-0.14 1.21-0.21 0.13-0.28 0.5-0.16 0.83 0.13 0.32 0.01 0.85-0.25 1.17-0.27 0.32-0.4 0.81-0.31 1.1 0.1 0.28 0.02 0.96-0.19 1.51-0.21 0.55-0.44 1.54-0.52 2.2-0.08 0.66-0.25 1.65-0.37 2.2-0.13 0.55-0.34 1.63-0.47 2.4-0.12 0.77-0.41 1.63-0.64 1.9-0.22 0.28-0.27 0.5-0.1 0.5 0.17 0-0.02 0.37-0.42 0.81-0.41 0.45-0.96 0.73-1.24 0.63-0.27-0.11-0.56-0.01-0.63 0.21-0.08 0.23-0.93 0.49-1.91 0.58-0.97 0.09-1.89 0.37-2.04 0.62-0.15 0.25-0.48 0.33-0.73 0.18-0.24-0.15-0.44-0.07-0.44 0.19 0 0.28-0.34 0.39-0.8 0.26-0.44-0.11-0.8-0.02-0.8 0.2 0 0.22-0.27 0.3-0.6 0.18-0.33-0.13-0.6-0.07-0.6 0.14 0 0.21-0.27 0.27-0.6 0.14-0.33-0.12-0.6-0.03-0.6 0.2 0 0.24-0.27 0.33-0.6 0.2-0.33-0.12-0.6-0.04-0.6 0.18 0 0.23-0.32 0.36-0.7 0.31-0.38-0.06-0.97 0.03-1.3 0.2-0.83 0.43-2.12 0.91-2.6 0.98-0.22 0.02-1.12 0.37-2 0.76-0.88 0.38-2.01 0.71-2.5 0.72-0.49 0-0.9 0.13-0.9 0.27 0 0.39-2.46 1.25-2.86 1-0.19-0.11-0.34 0-0.34 0.26 0 0.26-0.28 0.36-0.62 0.23-0.36-0.14-0.52-0.07-0.38 0.15 0.14 0.22-0.19 0.4-0.74 0.4-0.55 0-1.06 0.2-1.14 0.45-0.09 0.25-0.51 0.49-0.94 0.53-1.03 0.1-2.25 0.65-2.91 1.3-0.29 0.29-0.7 0.43-0.9 0.3-0.2-0.12-0.37-0.07-0.37 0.12 0 0.19-1.48 1.05-3.3 1.92-1.82 0.87-3.39 1.68-3.5 1.8-0.56 0.61-3.93 2.32-4.15 2.1-0.14-0.14-0.25-0.08-0.25 0.14 0 0.22-0.81 0.8-1.8 1.3-0.99 0.49-1.8 1.07-1.8 1.29 0 0.22-0.18 0.29-0.4 0.15-0.22-0.14-0.51 0.03-0.65 0.37-0.13 0.35-0.59 0.63-1.02 0.63-0.43 0-0.67 0.18-0.53 0.4 0.14 0.22-0.13 0.4-0.6 0.4-0.47 0-0.74 0.18-0.6 0.4 0.14 0.22-0.13 0.4-0.6 0.4-0.47 0-0.74 0.18-0.6 0.4 0.14 0.22-0.03 0.4-0.38 0.4-0.34 0-0.62 0.19-0.62 0.42 0 0.24-0.18 0.32-0.4 0.18-0.22-0.14-0.4-0.06-0.4 0.18 0 0.23-0.27 0.42-0.6 0.42-0.33 0-0.6 0.18-0.6 0.4 0 0.22-0.27 0.4-0.6 0.4-0.33 0-0.6 0.18-0.6 0.4 0 0.22-0.28 0.4-0.62 0.4-0.35 0-0.55 0.14-0.44 0.3 0.1 0.16-0.28 0.65-0.85 1.07-0.65 0.49-0.91 0.56-0.73 0.2 0.17-0.31-0.16-0.03-0.73 0.63-0.56 0.66-1.03 1.02-1.03 0.81 0-0.21-0.28 0.01-0.62 0.5-0.35 0.49-0.84 0.89-1.11 0.89-0.26 0-0.71 0.38-1 0.84-0.29 0.46-0.63 0.73-0.76 0.6-0.13-0.13-0.49 0.12-0.8 0.56-0.3 0.44-0.82 0.8-1.13 0.8-0.32 0-0.58 0.18-0.58 0.39 0 0.42-2.41 1.83-2.9 1.69-0.17-0.04-0.3 0.1-0.3 0.32 0 0.67-0.72 0.45-1.61-0.5-0.46-0.49-0.96-0.92-1.11-0.93-0.76-0.1-1.65-0.69-1.47-0.98 0.11-0.18-0.21-0.46-0.7-0.62-0.5-0.15-1.31-0.72-1.81-1.25-0.49-0.53-0.9-0.84-0.9-0.68 0 0.15-0.45-0.21-1-0.8-0.55-0.6-1.01-0.94-1.01-0.76-0.01 0.18-0.2 0.01-0.42-0.38-0.23-0.39-0.67-0.7-0.99-0.7-0.32 0-0.58-0.18-0.58-0.4 0-0.22-0.26-0.4-0.59-0.4-0.32 0-0.78-0.37-1.02-0.81-0.23-0.45-0.59-0.71-0.78-0.59-0.2 0.12-0.64-0.19-0.98-0.68-0.35-0.49-0.64-0.72-0.64-0.51-0.01 0.21-0.2 0.07-0.43-0.32-0.22-0.39-0.56-0.61-0.74-0.5-0.19 0.11-0.44-0.07-0.58-0.42-0.13-0.34-0.41-0.51-0.62-0.38-0.21 0.13-1.06-0.39-1.88-1.17-0.82-0.77-1.57-1.32-1.68-1.22-0.1 0.1-0.44-0.12-0.75-0.51q-0.54-0.65-0.28-0.09c0.16 0.33-0.24 0.11-0.89-0.5-0.65-0.6-1.49-1.1-1.86-1.1-0.37 0-0.68-0.14-0.68-0.3 0-0.16-0.41-0.5-0.9-0.75-2.63-1.31-3.5-1.84-3.5-2.13 0-0.32-1.52-0.95-2.1-0.86-0.17 0.02-0.3-0.15-0.3-0.38 0-0.24-0.18-0.32-0.4-0.18-0.22 0.14-0.4 0.05-0.4-0.2 0-0.25-0.18-0.34-0.4-0.2-0.22 0.14-0.4 0.05-0.4-0.2 0-0.25-0.16-0.35-0.35-0.23-0.2 0.12-1.01-0.23-1.82-0.78-0.81-0.54-1.7-0.99-1.99-0.99-0.28 0-0.93-0.36-1.43-0.79-0.5-0.44-1.07-0.7-1.26-0.58-0.19 0.12-0.35 0.03-0.35-0.21 0-0.23-0.13-0.4-0.3-0.37-0.16 0.02-0.43 0-0.6-0.05-0.17-0.06-0.43-0.14-0.6-0.18-0.84-0.24-2.02-0.72-3.03-1.24-0.63-0.32-1.47-0.58-1.87-0.58-0.41 0-1.02-0.28-1.37-0.63-0.34-0.34-0.79-0.52-1-0.39-0.21 0.13-0.49 0.05-0.63-0.18-0.14-0.23-0.42-0.31-0.63-0.18-0.2 0.12-0.37 0.04-0.37-0.18 0-0.23-0.27-0.31-0.6-0.18-0.33 0.12-0.6 0.03-0.6-0.2 0-0.24-0.25-0.34-0.56-0.22-0.31 0.12-0.68 0.02-0.83-0.22-0.14-0.24-0.44-0.32-0.66-0.19-0.21 0.13-0.83-0.05-1.37-0.4-0.54-0.36-0.98-0.53-0.98-0.39 0 0.14-0.27 0.03-0.6-0.24-0.33-0.27-0.6-0.36-0.6-0.2 0 0.16-0.26 0.08-0.58-0.19-0.32-0.26-0.77-0.36-1-0.22-0.23 0.14-0.42 0.06-0.42-0.19 0-0.25-0.18-0.34-0.4-0.2-0.22 0.14-0.62 0.11-0.9-0.07-0.27-0.17-0.95-0.37-1.49-0.45-0.54-0.07-1.22-0.32-1.5-0.55-0.28-0.24-0.51-0.3-0.51-0.13 0 0.16-0.4 0.04-0.9-0.27-0.49-0.32-1.43-0.61-2.08-0.65-0.65-0.05-1.3-0.29-1.45-0.53-0.16-0.25-0.46-0.34-0.68-0.21-0.56 0.35-1.36-0.73-1.43-1.93-0.03-0.56-0.18-1.01-0.33-1.01-0.15 0-0.2-0.45-0.1-1 0.1-0.55 0.03-1-0.16-1-0.18 0-0.35-0.22-0.36-0.5-0.01-0.27-0.14-1.04-0.29-1.7-0.4-1.75-0.69-3.51-0.69-4.2 0-0.33-0.1-0.87-0.22-1.2-0.39-1.03-0.57-1.77-0.64-2.67-0.04-0.47-0.19-0.99-0.34-1.14-0.15-0.15-0.19-0.48-0.09-0.75 0.1-0.26-0.08-1.22-0.4-2.12-0.32-0.91-0.48-1.74-0.37-1.86 0.12-0.11 0.06-0.44-0.12-0.73-0.18-0.29-0.37-1.08-0.41-1.75-0.11-1.57-0.28-2.33-0.59-2.58-0.22-0.17-0.42-1.26-0.85-4.6-0.05-0.44-0.21-0.89-0.35-1-0.14-0.11-0.36-1.34-0.49-2.74-0.13-1.4-0.39-2.75-0.59-3-0.2-0.25-0.32-0.77-0.25-1.16 0.06-0.38-0.04-0.79-0.22-0.9-0.18-0.11-0.23-0.56-0.12-1 0.12-0.45 0.02-0.8-0.24-0.8-0.29 0-0.36-0.37-0.2-1q0.24-0.99-0.24-1c-0.28 0-0.38-0.27-0.24-0.65 0.14-0.36 0.1-0.85-0.1-1.1-0.37-0.47-0.73-2.15-1.27-5.85-0.34-2.34-0.49-2.98-0.98-4.12-0.17-0.39-0.2-0.83-0.06-0.96 0.13-0.14 0.04-0.49-0.2-0.78-0.24-0.29-0.34-0.78-0.23-1.09 0.12-0.3 0.05-0.72-0.16-0.93-0.2-0.2-0.47-1.17-0.6-2.15-0.37-2.99-0.4-3.15-0.69-3.43-0.15-0.15-0.27-1.05-0.27-2.01 0-1.01-0.19-1.73-0.45-1.73-0.25 0-0.35-0.35-0.23-0.8 0.11-0.44 0.04-0.9-0.16-1.03-0.2-0.12-0.29-0.64-0.2-1.16 0.1-0.52 0.06-1.05-0.07-1.19-0.25-0.25-0.4-0.84-0.66-2.62-0.22-1.43-0.59-3.04-0.96-4.09-0.18-0.5-0.31-1.27-0.29-1.71 0.01-0.44-0.12-0.9-0.29-1.03-0.18-0.13-0.33-1.07-0.35-2.1-0.02-1.03-0.22-1.87-0.44-1.87-0.22 0-0.3-0.36-0.18-0.8 0.11-0.44 0.06-0.89-0.12-1-0.18-0.11-0.28-0.52-0.21-0.9 0.06-0.39-0.12-1.27-0.41-1.97-0.28-0.69-0.41-1.36-0.3-1.48 0.12-0.12 0.07-0.54-0.1-0.93-0.18-0.4-0.37-0.99-0.43-1.32-0.05-0.33-0.3-1.59-0.54-2.8-0.24-1.21-0.49-2.56-0.56-3-0.07-0.44-0.25-1.07-0.39-1.4-0.15-0.33-0.32-1.23-0.38-2-0.06-0.78-0.25-1.63-0.42-1.91-0.17-0.27-0.2-0.86-0.06-1.29 0.14-0.44 0.08-0.8-0.14-0.8-0.21 0-0.34-0.45-0.28-1 0.06-0.55-0.01-1-0.16-1-0.39 0-1.22-4.72-0.96-5.42 0.13-0.32 0.01-0.58-0.26-0.58q-0.48-0.01-0.24-1c0.14-0.55 0.09-1-0.12-1-0.2 0-0.31-0.31-0.24-0.7 0.08-0.38 0.15-0.8 0.17-0.93 0.05-0.39 1.29-0.35 4.03 0.12zm20.43 23.47c-0.42 0.81-0.07 3.24 0.46 3.24 0.22 0 0.32 0.45 0.21 1-0.1 0.55-0.06 1 0.09 1 0.16 0 0.3 0.53 0.32 1.17 0.02 0.65 0.19 1.51 0.39 1.9 0.19 0.4 0.32 1.14 0.28 1.63-0.04 0.5 0.1 0.9 0.3 0.9 0.21 0 0.26 0.34 0.13 0.77-0.13 0.42-0.06 0.87 0.16 1.01 0.22 0.13 0.3 0.5 0.18 0.81-0.12 0.32-0.07 0.81 0.11 1.09 0.18 0.29 0.37 0.88 0.41 1.32 0.07 0.82 0.42 2.4 0.53 2.4 0.14 0 0.41 1.68 0.46 2.8 0.02 0.66 0.15 1.38 0.29 1.6 0.13 0.22 0.24 0.67 0.25 1 0.01 0.33 0.16 0.83 0.33 1.1 0.17 0.28 0.2 0.69 0.06 0.92-0.14 0.23-0.08 0.63 0.14 0.9 0.22 0.26 0.51 1.52 0.64 2.79 0.13 1.27 0.46 3.25 0.71 4.4 0.26 1.15 0.44 2.23 0.4 2.39-0.05 0.17 0.1 0.3 0.33 0.3 0.22 0 0.32 0.45 0.22 1-0.1 0.55-0.02 1 0.17 1 0.19 0 0.36 0.5 0.38 1.1 0.05 1.98 0.15 2.5 0.46 2.5 0.17 0 0.42 1.04 0.56 2.3 0.14 1.26 0.45 2.7 0.69 3.2 0.25 0.49 0.33 1.02 0.18 1.16-0.14 0.15-0.08 0.49 0.15 0.76 0.22 0.27 0.45 1.19 0.49 2.04 0.05 0.85 0.2 1.63 0.34 1.74 0.22 0.17 0.62 2.48 0.85 4.9 0.04 0.39 0.23 0.7 0.43 0.7 0.2 0 0.28 0.45 0.17 1-0.1 0.55-0.04 1 0.15 1 0.19 0 0.33 0.41 0.31 0.9-0.02 0.5 0.07 1.31 0.2 1.8 0.58 2.2 1.12 5.15 1.17 6.4 0.02 0.5 0.18 0.9 0.36 0.9 0.18 0 0.21 0.45 0.07 1-0.16 0.64-0.08 1 0.23 1 0.27 0 0.42 0.45 0.35 1.1-0.06 0.61 0.03 1.33 0.2 1.6 0.17 0.28 0.19 0.69 0.05 0.92-0.14 0.23-0.05 0.67 0.21 0.98 0.26 0.31 0.35 0.75 0.21 0.98-0.14 0.23-0.06 0.42 0.19 0.42 0.25 0 0.38 0.14 0.29 0.3-0.21 0.39 1.17 1.7 1.47 1.4 0.13-0.12 0.58 0.09 1.01 0.47 0.43 0.39 0.97 0.59 1.2 0.45 0.24-0.15 0.43-0.07 0.43 0.17 0 0.25 0.23 0.41 0.5 0.36 0.54-0.1 3.84 0.77 4.5 1.18 0.22 0.14 0.73 0.3 1.13 0.36 0.4 0.06 1.12 0.33 1.6 0.6 0.48 0.26 1.03 0.43 1.22 0.38 0.19-0.06 0.72 0.22 1.17 0.61 0.45 0.4 0.69 0.5 0.53 0.22q-0.3-0.5 0.33-0.25c0.34 0.13 0.62 0.41 0.62 0.62 0 0.21 0.18 0.27 0.4 0.13 0.22-0.14 0.4-0.04 0.4 0.22 0 0.26 0.26 0.37 0.57 0.25 0.31-0.12 0.79 0.04 1.05 0.35 0.26 0.32 0.82 0.58 1.23 0.58 0.78 0 2.37 0.75 2.79 1.32 0.13 0.18 0.4 0.29 0.6 0.25 0.87-0.16 1.39 0.06 1.12 0.5q-0.3 0.47 0.37 0.21c0.37-0.14 0.67-0.08 0.67 0.13 0 0.22 0.13 0.37 0.3 0.35 0.62-0.09 2.1 0.55 2.1 0.91 0 0.21 0.18 0.27 0.4 0.13 0.22-0.14 0.4-0.05 0.4 0.2 0 0.25 0.18 0.34 0.4 0.2 0.22-0.14 0.4-0.06 0.4 0.18 0 0.23 0.36 0.42 0.8 0.42 0.44 0 0.8 0.14 0.8 0.3 0.01 0.37 1.95 1.3 2.7 1.3 0.3 0 0.44 0.18 0.3 0.4-0.14 0.22-0.06 0.42 0.18 0.45 0.23 0.03 0.6 0.09 0.82 0.15 0.22 0.06 0.55 0.12 0.74 0.15 0.19 0.03 0.83 0.5 1.43 1.06 0.6 0.55 1.23 0.91 1.4 0.81 0.18-0.11 0.65 0.15 1.04 0.59 0.39 0.43 0.96 0.79 1.26 0.79 0.29 0 0.84 0.35 1.21 0.78 0.36 0.43 0.81 0.69 0.99 0.58 0.18-0.12 0.33 0.01 0.33 0.28 0 0.27 0.11 0.38 0.25 0.25 0.13-0.14 0.49-0.04 0.78 0.23 1.38 1.23 1.77 1.49 1.82 1.2 0.02-0.18 0.07-17.96 0.1-39.52 0.05-42.01 0.14-40.09-1.78-40.53-0.31-0.07-0.63-0.3-0.7-0.5-0.08-0.21-0.3-0.27-0.5-0.15-0.21 0.13-0.37 0.03-0.37-0.22 0-0.25-0.18-0.34-0.39-0.21-0.21 0.14-0.7-0.12-1.09-0.57-0.38-0.45-0.94-0.82-1.24-0.82-0.29 0-0.82-0.28-1.16-0.62-0.34-0.35-0.87-0.53-1.17-0.42-0.3 0.12-0.55 0.03-0.55-0.2 0-0.22-0.18-0.3-0.4-0.16-0.22 0.14-0.4 0.03-0.4-0.24 0-0.27-0.12-0.38-0.26-0.24-0.27 0.28-2.55-0.86-3.03-1.52-0.17-0.22-0.3-0.25-0.3-0.07-0.01 0.18-0.29 0.04-0.64-0.31-0.35-0.34-0.8-0.53-1-0.4-0.2 0.12-0.37 0.04-0.37-0.2 0-0.23-0.35-0.42-0.78-0.42-1.03 0-2.82-0.83-2.82-1.31 0-0.21-0.27-0.27-0.6-0.15-0.33 0.13-0.6 0.03-0.6-0.22 0-0.25-0.12-0.33-0.27-0.19-0.15 0.15-0.69 0-1.2-0.34-0.51-0.33-0.93-0.49-0.93-0.34 0 0.15-0.39-0.07-0.87-0.49-0.48-0.42-0.72-0.52-0.55-0.22q0.34 0.56-0.69-0.12c-0.55-0.36-1.52-0.75-2.14-0.86-0.62-0.12-1.23-0.34-1.34-0.5-0.12-0.16-1.02-0.54-2.01-0.85-0.99-0.3-1.98-0.68-2.2-0.83-0.22-0.15-1.07-0.4-1.9-0.55-0.82-0.14-1.5-0.43-1.5-0.64 0-0.2-0.27-0.26-0.6-0.13-0.33 0.12-0.6 0.01-0.6-0.26 0-0.27-0.27-0.38-0.6-0.26-0.33 0.13-0.6 0.08-0.6-0.1 0-0.19-0.49-0.34-1.08-0.34-0.6 0-1.15-0.19-1.23-0.43-0.08-0.23-0.4-0.33-0.72-0.2-0.31 0.12-0.57 0-0.57-0.27 0-0.27-0.27-0.38-0.6-0.26-0.33 0.13-0.6 0.05-0.6-0.18 0-0.22-0.17-0.3-0.37-0.18-0.21 0.13-0.5 0.04-0.64-0.2-0.15-0.24-0.52-0.34-0.83-0.22-0.31 0.12-0.56 0.05-0.56-0.16 0-0.21-0.27-0.27-0.6-0.14-0.33 0.12-0.6 0.02-0.6-0.24 0-0.26-0.17-0.36-0.37-0.24-0.21 0.13-0.49 0.04-0.64-0.19-0.14-0.23-0.6-0.31-1.02-0.18-0.43 0.13-0.77 0.06-0.77-0.17 0-0.23-0.27-0.31-0.61-0.18-0.33 0.13-0.87 0.01-1.2-0.26-0.32-0.28-0.59-0.36-0.59-0.2 0 0.16-0.3 0.05-0.66-0.25-0.37-0.3-0.73-0.5-0.8-0.45-0.08 0.06-0.18 0.09-0.24 0.07-0.05-0.02-0.37-0.09-0.7-0.16-0.33-0.07-1.14-0.26-1.8-0.4-0.66-0.15-1.69-0.35-2.3-0.44-2.98-0.46-3.55-0.43-3.87 0.19zm140.95-0.33c-0.12 0.2-0.76 0.28-1.4 0.17-0.65-0.12-1.18-0.05-1.18 0.14 0 0.19-0.45 0.26-1 0.16-0.55-0.11-1-0.02-1 0.19 0 0.21-0.22 0.4-0.5 0.42-0.73 0.06-2.87 0.42-3.1 0.52-0.11 0.05-0.38 0.13-0.6 0.17-0.22 0.04-0.91 0.28-1.53 0.54-0.63 0.26-1.3 0.36-1.5 0.24-0.21-0.13-0.37-0.02-0.37 0.24 0 0.28-0.34 0.39-0.8 0.26-0.44-0.11-0.8-0.03-0.8 0.18 0 0.21-0.16 0.29-0.36 0.17-0.2-0.13-0.87 0.04-1.5 0.37-0.63 0.33-1.53 0.6-2.01 0.6-0.47 0-0.92 0.17-1 0.38-0.07 0.2-0.67 0.48-1.33 0.62-1.9 0.39-1.97 0.41-2.5 0.73-0.27 0.18-0.5 0.17-0.51-0.01 0-0.17-0.13-0.11-0.3 0.14-0.16 0.25-0.65 0.52-1.09 0.6-0.44 0.08-0.9 0.27-1.02 0.43-0.12 0.16-0.93 0.4-1.8 0.54-0.87 0.13-1.88 0.51-2.25 0.85-0.38 0.33-0.86 0.49-1.08 0.35-0.22-0.13-0.51-0.06-0.65 0.17-0.14 0.23-0.42 0.31-0.63 0.18-0.2-0.12-0.37-0.04-0.37 0.18 0 0.23-0.27 0.31-0.6 0.18-0.33-0.12-0.6-0.01-0.6 0.26 0 0.27-0.27 0.38-0.6 0.26-0.33-0.13-0.6-0.07-0.6 0.14 0 0.21-0.27 0.27-0.6 0.14-0.33-0.12-0.6-0.03-0.6 0.2 0 0.24-0.27 0.33-0.6 0.2-0.34-0.13-0.6 0-0.6 0.28 0 0.28-0.12 0.39-0.27 0.25-0.14-0.15-0.6 0.03-1 0.39-0.4 0.37-0.85 0.55-1 0.4-0.15-0.14-0.59 0.04-1 0.4-0.4 0.37-0.73 0.53-0.73 0.37 0-0.16-0.29 0.01-0.65 0.36-0.36 0.36-0.91 0.56-1.22 0.44-0.31-0.12-0.66 0.05-0.79 0.38-0.12 0.32-0.53 0.59-0.89 0.59-0.37 0-1.07 0.28-1.56 0.62-0.49 0.35-0.89 0.52-0.89 0.39 0-0.12-0.43 0.05-0.95 0.39-0.52 0.35-1.34 0.7-1.81 0.79-0.47 0.09-1.14 0.45-1.48 0.79-0.34 0.35-0.77 0.53-0.96 0.42-0.18-0.11-0.39-0.02-0.47 0.2-0.07 0.23-0.5 0.48-0.95 0.56-0.97 0.19-4.54 2.15-5.3 2.91-0.3 0.29-0.75 0.53-1.01 0.53-0.36 0-0.47 9.5-0.47 39.74 0 33.03 0.09 39.63 0.53 39.1 0.42-0.51 0.48-0.52 0.28-0.04-0.14 0.33 0.05 0.2 0.42-0.3 0.37-0.49 1.01-0.9 1.42-0.9 0.41 0 0.75-0.16 0.75-0.35 0-0.2 0.47-0.67 1.05-1.05q1.05-0.68 0.73-0.14c-0.17 0.3 0.18 0.05 0.8-0.55 0.61-0.61 1.27-1 1.47-0.88 0.19 0.12 0.35 0.02 0.35-0.23 0-0.25 0.18-0.34 0.4-0.2 0.22 0.14 0.4 0.07 0.4-0.15 0-0.22 0.86-0.8 1.9-1.31 1.05-0.5 2.25-1.18 2.67-1.52 0.42-0.34 0.64-0.4 0.48-0.12q-0.3 0.5 0.33 0.25c0.34-0.13 0.53-0.38 0.42-0.55-0.11-0.17 0.08-0.42 0.42-0.55q0.62-0.24 0.37 0.25c-0.14 0.28 0.01 0.19 0.32-0.19 0.31-0.39 0.69-0.58 0.83-0.44 0.14 0.15 0.26 0.04 0.26-0.23 0-0.27 0.18-0.38 0.4-0.24 0.22 0.14 0.4 0.06 0.4-0.18 0-0.23 0.16-0.42 0.35-0.42 0.19 0 1.05-0.3 1.9-0.68 1.87-0.81 1.74-0.76 2.85-1.12 0.49-0.16 0.9-0.45 0.9-0.65 0-0.19 0.36-0.35 0.8-0.35 0.44 0 0.8-0.16 0.8-0.35 0-0.19 0.72-0.46 1.6-0.6 0.88-0.14 1.6-0.44 1.6-0.65 0-0.22 0.45-0.4 1-0.4 0.55 0 1-0.18 1-0.4 0-0.22 0.37-0.4 0.83-0.4 0.45 0 1.22-0.22 1.7-0.48 0.48-0.27 1.11-0.52 1.4-0.57 0.29-0.05 1.1-0.36 1.8-0.69 0.7-0.33 1.54-0.66 1.87-0.73 0.33-0.07 0.71-0.28 0.84-0.46 0.13-0.18 0.85-0.39 1.6-0.46 0.75-0.08 1.4-0.18 1.46-0.23 0.06-0.04 0.28-0.12 0.5-0.18 0.22-0.06 0.53-0.14 0.7-0.2 0.17-0.05 0.44-0.07 0.6-0.05 0.17 0.03 0.3-0.13 0.3-0.35 0-0.22 0.14-0.38 0.3-0.35 0.86 0.13 1.24-0.15 1.52-1.15 0.17-0.6 0.34-1.19 0.38-1.3 0.52-1.59 1.03-4.38 1.04-5.69 0.01-0.38 0.17-0.79 0.37-0.91 0.19-0.13 0.25-0.49 0.13-0.81-0.12-0.33-0.02-0.59 0.22-0.59 0.29 0 0.36-0.38 0.2-1-0.13-0.55-0.07-1 0.14-1 0.21 0 0.3-0.45 0.2-1-0.11-0.55-0.03-1 0.17-1 0.2 0 0.38-0.31 0.4-0.7 0.03-0.39 0.18-1.42 0.33-2.3 0.16-0.88 0.34-1.96 0.41-2.4 0.07-0.44 0.16-0.84 0.21-0.9 0.04-0.05 0.12-0.46 0.18-0.9 0.06-0.44 0.14-0.89 0.2-1 0.06-0.11 0.15-0.56 0.2-1 0.06-0.44 0.14-0.89 0.2-1 0.06-0.11 0.14-0.56 0.2-1 0.06-0.44 0.14-0.89 0.2-1 0.06-0.11 0.14-0.56 0.2-1 0.06-0.44 0.14-0.84 0.18-0.9 0.05-0.06 0.15-0.7 0.23-1.44 0.07-0.73 0.25-1.63 0.4-2 0.14-0.36 0.35-1.37 0.45-2.24 0.11-0.87 0.31-1.77 0.46-2 0.15-0.23 0.29-0.91 0.33-1.51 0.03-0.6 0.2-1.41 0.37-1.8 0.17-0.39 0.34-0.98 0.37-1.31 0.25-2.57 0.75-4.8 1.07-4.8 0.22 0 0.28-0.34 0.15-0.77-0.13-0.42-0.05-0.88 0.18-1.02 0.23-0.15 0.35-0.39 0.25-0.54-0.18-0.29 0.52-4.09 0.98-5.27 0.04-0.11 0.04-0.51 0-0.9-0.04-0.38 0.12-0.7 0.34-0.7 0.23 0 0.31-0.27 0.18-0.6-0.12-0.33-0.09-0.91 0.07-1.3 0.17-0.38 0.36-1.21 0.42-1.84 0.06-0.62 0.24-1.43 0.39-1.8 0.15-0.36 0.33-1.11 0.4-1.66 0.07-0.55 0.21-1.36 0.31-1.8 0.4-1.8 0.82-4.42 0.75-4.7-0.05-0.16 0.06-0.3 0.24-0.3 0.18 0 0.34-0.4 0.36-0.9 0.08-1.86 0.3-3.1 0.56-3.1 0.15 0 0.27-0.4 0.27-0.9-0.01-0.49 0.11-1.71 0.26-2.7 0.16-0.99 0.28-2.11 0.28-2.5 0-0.38 0.13-0.7 0.29-0.7 0.16 0 0.31-0.32 0.34-0.72 0.06-0.76-1.28-1.12-1.7-0.45z"/>
		<path id="path1" fill-rule="evenodd" class="s1" d="m334.8 106.52c1.91 0.96 1.58 2.5-1.09 5.04-3.48 3.32-3.35 2.19-3.22 28.6l0.11 22.75 1.13 0.85c1.04 0.78 1.64 0.84 7.8 0.84 9.18 0 10.14-0.54 13.92-7.85 4.79-9.28 8.14-4.18 5.37 8.18-0.7 3.1-1.15 3.88-2.6 4.49-1.68 0.7-39.8 0.87-41.59 0.19-1.96-0.74-1.44-2.73 1.34-5.15 3.39-2.95 3.31-2.26 3.16-27.46-0.15-23.86-0.04-23.07-3.3-25.55-2.46-1.88-2.89-4.25-0.92-5.04 1.45-0.58 18.71-0.49 19.89 0.11zm58.4 0c1.91 0.96 1.58 2.5-1.08 5.04-3.44 3.29-3.32 2.32-3.32 26.49 0 23.9-0.08 23.2 3.04 26.28 2.41 2.37 2.95 4.42 1.39 5.26-1 0.53-18.81 0.55-20.2 0.02-1.85-0.7-1.45-2.81 0.92-4.8 3.6-3.04 3.45-1.9 3.45-27 0-24.81 0.11-23.85-3.17-26.36-2.46-1.88-2.89-4.25-0.92-5.04 1.45-0.58 18.71-0.49 19.89 0.11zm46.8 0.46c8.35 2.28 12.14 6.49 12.09 13.43-0.03 4.69-2.32 8.36-6.56 10.5l-1.87 0.95 2.69 0.87c19.5 6.28 17.74 30.55-2.62 36.14-4.3 1.18-33.49 1.64-35.16 0.55-1.99-1.3-1.32-2.89 2.35-5.61 2.26-1.68 2.28-1.86 2.28-25.52 0-24.89 0.12-23.83-3.23-26.75-2.75-2.39-3.13-4.02-1.17-5.04 1.66-0.87 27.76-0.46 31.2 0.48zm49.69-0.43c0.75 0.57 2.88 5.47 17.88 41.16l1.47 3.5 1.28-2.7c0.71-1.49 5.24-11.35 10.08-21.91 4.88-10.65 9.17-19.51 9.64-19.9 1.19-0.98 12.49-1.05 13.87-0.08 1.47 1.03 1.14 2.41-1.1 4.57-3.07 2.96-2.95 1.64-2.21 25.61 0.77 24.95 0.72 24.58 4 27.38 2.48 2.12 3.11 4.51 1.43 5.41-1.62 0.86-19.11 0.53-20.03-0.39-1.41-1.41-1.08-2.35 1.92-5.45 2.57-2.66 2.63-3.01 2.32-15.7-0.64-26.31-0.68-27.11-1.36-25.83-0.33 0.65-2.63 5.59-5.1 10.98-2.47 5.39-6.68 14.57-9.35 20.4-5.31 11.59-5.85 12.39-8.5 12.69-2.31 0.26-2 0.75-6.87-10.92-2.29-5.48-5.83-13.93-7.87-18.77-2.04-4.84-4.28-10.22-4.99-11.96l-1.29-3.15-0.25 4.35c-0.54 9.54-1.16 34.12-0.89 35.56 0.21 1.1 0.84 2.06 2.26 3.43 4.15 4 2.84 5.17-5.78 5.17-8.96 0-10.19-1.14-5.73-5.32 3-2.82 2.9-2.12 3.91-26.71 0.99-24.04 1.01-23.78-1.39-26.11-2.75-2.67-3.14-3.76-1.84-5.06 1-1 13.22-1.21 14.49-0.25zm96.52-0.55c7.34 0 6.84-0.36 9.7 7 1.12 2.86 3.55 9.07 5.42 13.8 14.54 36.86 13.84 35.28 16.66 37.55 2.7 2.17 3.37 4.31 1.64 5.24-1.42 0.76-19.23 0.54-20.1-0.25-1.18-1.07-0.87-2.24 1.1-4.16 2.27-2.2 2.29-3.83 0.14-9.17-1.88-4.66-1.12-4.44-14.66-4.31-13.26 0.12-12.06-0.35-14.26 5.61-1.87 5.04-1.85 5.78 0.15 8.09 3.29 3.8 2.12 4.6-6.74 4.6-9.13 0-10.61-1.49-5.28-5.31 3.2-2.29 3.84-3.41 8.06-14.06 2.02-5.07 5.98-15.07 8.81-22.2 5.87-14.77 5.92-15.02 3.48-17.25-1.89-1.72-2.27-3.65-0.92-4.64 0.55-0.4 2.33-0.54 6.8-0.54zm71.83 0.02l21.84-0.02 1.36 0.91c1.97 1.33 3.16 6.06 3.16 12.55 0 6.33-3.21 5.89-6.79-0.94-3.19-6.08-8.27-8.8-12.39-6.64-2.05 1.07-2.07 1.29-1.94 25.65 0.14 25.32-0.04 23.98 3.54 27.29 4.62 4.27 2.99 5.18-9.31 5.18-12.6 0-13.66-0.75-8.32-5.93 3.08-2.98 3.01-2.32 3.01-28v-22.54l-1.12-0.96c-0.94-0.81-1.53-0.96-3.6-0.94-4.68 0.06-6.55 1.41-9.69 7.01-2.61 4.64-3.01 5.09-4.56 5.09-1.8 0-2.02-0.56-2.02-5.13 0-7.03 1.17-10.97 3.55-11.96 1.22-0.51 4.82-0.6 23.28-0.62zm83.47 0.41c2.72 0.95 6.39 12.84 4.74 15.35-1.46 2.23-3.26 1.24-6.43-3.51-3.76-5.63-6.41-6.86-14.82-6.86-11.46-0.01-11-0.45-11 10.59 0 11.35-0.1 11.2 7.36 11.2 5.37 0 5.98-0.31 7.86-4.03 1.59-3.16 3.86-3.8 4.79-1.35 0.55 1.46 0.51 15.49-0.06 16.73-1.03 2.27-3.23 1.42-5.02-1.95-2.01-3.78-2.24-3.88-8.05-3.73-4.86 0.13-4.97 0.15-5.92 1.25l-0.96 1.12v10.58c0 13.62-0.56 12.97 11.23 12.98 10.29 0 11.6-0.62 15.15-7.21 2.64-4.9 3.91-6.08 5.54-5.17 2.55 1.43 0.9 15-2.04 16.8-1.78 1.08-44.26 1.23-45.79 0.16-1.88-1.32-1.19-2.9 2.43-5.57 2.26-1.68 2.28-1.86 2.28-25.52 0-24.89 0.12-23.83-3.23-26.75-2.75-2.39-3.13-4.04-1.17-5.02 1.32-0.67 41.23-0.75 43.11-0.09zm-315.11 5.05c-1.94 0.72-2 0.98-2 9.39 0 9.31-0.49 8.54 5.4 8.51 7.72-0.02 11.14-2.47 11.14-7.98-0.01-4.65-3.08-8.26-8.21-9.62-2.13-0.57-5.2-0.71-6.33-0.3zm159.65 9.36c-0.2 0.53-2.38 6.14-4.85 12.47-2.46 6.34-4.38 11.76-4.27 12.04 0.54 1.43 18.78 1.48 19.32 0.05 0.11-0.26-1.99-6.04-4.66-12.83-5.41-13.81-5.04-13.02-5.54-11.73zm-160.75 14.95c-1.02 0.75-1.43 23.37-0.47 26.12 0.94 2.71 6.31 3.69 12.77 2.33 14.12-2.98 13.41-22.8-1-27.86-3.33-1.17-10.03-1.52-11.3-0.59z"/>
		<path id="path2" fill-rule="evenodd" class="s2" d="m230.75 62.4c0.2 0 0.56 0.54 0.79 1.2 0.23 0.66 0.34 1.2 0.25 1.2-0.09 0-0.45-0.54-0.79-1.2-0.34-0.66-0.45-1.2-0.25-1.2zm-97.15 1.29c0.77 0 1.09 0.09 0.7 0.19-0.38 0.1-1.02 0.1-1.4 0-0.38-0.1-0.07-0.19 0.7-0.19zm75 14.58l1.25 0.96c0.68 0.54 1.17 1.05 1.09 1.15-0.09 0.1-0.65-0.34-1.25-0.97zm-46.39 16.23c0.14 0.28-0.11 0.06-0.57-0.49-0.45-0.55-0.83-1.27-0.83-1.6-0.01-0.53 0.21-0.21 1.4 2.09zm5.24 5.6c0.16 0.25-0.38-0.05-1.18-0.67-0.81-0.61-1.47-1.2-1.47-1.3 0-0.28 2.34 1.46 2.65 1.97zm9.95 2.83c1.32 0 1.91 0.07 1.31 0.16-0.61 0.09-1.69 0.09-2.4 0.01-0.72-0.09-0.23-0.17 1.09-0.17zm-28.2 3.52c0.33 0.01 1.32 0.36 2.2 0.78 1.72 0.83 0.44 0.62-1.58-0.26-0.67-0.29-0.95-0.53-0.62-0.52zm11.28 4.76c0.34 0 0.87 0.3 1.17 0.66 0.5 0.61-0.81 0.19-1.62-0.52-0.09-0.08 0.11-0.14 0.45-0.14zm17.74 7.01c-0.43 0.32-1.06 0.58-1.4 0.57-0.34-0.01-0.08-0.27 0.58-0.57 1.57-0.72 1.77-0.72 0.82 0zm11.58 15.02c0.22-0.02-0.14 0.33-0.8 0.77-0.66 0.43-1.38 0.79-1.6 0.79-0.22 0 0.14-0.34 0.8-0.77 0.66-0.42 1.38-0.78 1.6-0.79zm-96.21 22.37c0.22 0.33 0.4 1.03 0.4 1.56 0.01 1.29-0.22 0.96-0.53-0.76-0.18-0.99-0.14-1.23 0.13-0.8zm91.88 5.3c0.1 0.38 0.1 1.01 0 1.4-0.1 0.38-0.18 0.07-0.18-0.7 0-0.77 0.08-1.09 0.18-0.7zm-18.39 4.2c0.1 0.49 0.1 1.3 0 1.8-0.1 0.49-0.17 0.09-0.17-0.9 0-0.99 0.07-1.4 0.17-0.9zm89.59 0.18c0.1 0.38-0.02 1.01-0.28 1.4-0.43 0.68-0.44 0.68-0.22-0.02 0.12-0.4 0.25-1.03 0.27-1.4 0.05-0.6 0.07-0.6 0.23 0.02zm-71.19 0.82c0.1 0.6 0.1 1.59 0 2.2-0.09 0.6-0.16 0.11-0.16-1.1 0-1.21 0.07-1.71 0.16-1.1zm-88.73 5.32c0.39 0.43 1.04 2.91 0.67 2.53-0.14-0.14-0.42-0.84-0.63-1.57-0.21-0.73-0.22-1.16-0.04-0.96zm70.32 15.48c0.1 0.38 0.1 1.01 0 1.4-0.1 0.38-0.18 0.07-0.18-0.7 0-0.77 0.08-1.09 0.18-0.7zm51.15 11.31c-0.43 0.32-1.06 0.58-1.4 0.57-0.34-0.01-0.08-0.27 0.58-0.57 1.57-0.72 1.77-0.72 0.82 0zm-51.13 1.08c0.08 0.81 0.09 2.25 0 3.2-0.08 0.94-0.15 0.27-0.15-1.49-0.01-1.76 0.06-2.53 0.15-1.71z"/>
		<path id="path3" class="s3" d=""/>
		<path id="path4" class="s4" d=""/>
	</g>
</svg>