<svg version="1.1" id="Layer_1" xmlns="http://www.w3.org/2000/svg" xmlns:xlink="http://www.w3.org/1999/xlink" x="0px" y="0px"
	 width="100%" viewBox="0 0 2000 2000" enable-background="new 0 0 2000 2000" xml:space="preserve">
<path fill="#000000" opacity="1.000000" stroke="none" 
	d="
M1268.000000,2001.000000 
	C845.333313,2001.000000 423.166656,2001.000000 1.000000,2001.000000 
	C1.000000,1334.333374 1.000000,667.666687 1.000000,1.000000 
	C667.666687,1.000000 1334.333374,1.000000 2001.000000,1.000000 
	C2001.000000,667.666687 2001.000000,1334.333374 2001.000000,2001.000000 
	C1756.833374,2001.000000 1512.666626,2001.000000 1268.000000,2001.000000 
M1386.306519,1427.858521 
	C1397.512573,1424.525024 1408.669312,1421.011597 1419.941650,1417.919922 
	C1427.741943,1415.780762 1432.482422,1411.243286 1434.117432,1403.221191 
	C1436.251587,1392.751221 1438.820557,1382.370361 1440.974609,1371.904175 
	C1449.701782,1329.502075 1458.272705,1287.067749 1467.031372,1244.672241 
	C1476.953369,1196.646362 1487.028320,1148.652222 1497.009644,1100.638672 
	C1501.801392,1077.588745 1506.463623,1054.511841 1511.306885,1031.472900 
	C1516.451782,1006.999146 1521.848511,982.578125 1526.939453,958.093384 
	C1532.900757,929.423157 1538.642822,900.707397 1544.494629,872.014465 
	C1549.326660,848.322205 1554.192627,824.636963 1559.021240,800.944153 
	C1563.946777,776.776367 1568.880371,752.610229 1573.738159,728.428894 
	C1575.736084,718.483337 1577.545288,708.499878 1579.535156,698.034424 
	C1576.609741,698.034424 1574.273560,697.790955 1572.002808,698.073730 
	C1556.805298,699.966309 1541.605469,701.853821 1526.437622,703.967529 
	C1505.405151,706.898438 1484.274414,709.350830 1463.412842,713.229553 
	C1432.377197,719.000000 1401.271118,724.772949 1370.685913,732.489868 
	C1331.954224,742.262390 1293.447998,753.138306 1255.346680,765.133362 
	C1224.617554,774.807434 1194.289795,785.997681 1164.412109,798.069824 
	C1132.504761,810.962097 1101.150757,825.281372 1069.911743,839.747803 
	C1051.512451,848.268311 1033.491577,857.736816 1015.899719,867.824036 
	C1004.386353,874.425842 994.241211,873.546265 983.352234,867.190979 
	C973.819641,861.627563 964.037964,856.444153 954.119141,851.598877 
	C931.032837,840.321106 908.175354,828.454346 884.534485,818.460266 
	C848.584167,803.262695 812.470642,788.240723 775.644348,775.384644 
	C738.081909,762.271545 699.736023,751.292725 661.421204,740.485535 
	C638.024353,733.886169 614.088440,729.144653 590.302734,723.993408 
	C570.703247,719.748718 551.008789,715.908020 531.279846,712.308044 
	C517.683350,709.827209 503.966370,707.992310 490.283936,706.001282 
	C479.691193,704.459839 469.071716,703.100037 458.458405,701.702820 
	C446.632019,700.145874 434.799194,698.637878 422.418518,697.037415 
	C422.937073,700.007812 423.287415,702.253174 423.724640,704.481628 
	C427.144745,721.912598 430.557770,739.344971 434.018829,756.767883 
	C439.113159,782.412842 444.166290,808.066345 449.382843,833.686523 
	C455.158356,862.052063 461.140198,890.375427 466.953857,918.733215 
	C472.139343,944.027283 477.118378,969.363831 482.369873,994.643982 
	C488.457794,1023.950745 494.824402,1053.199463 500.922668,1082.504150 
	C508.129486,1117.135742 515.090271,1151.818481 522.321960,1186.444824 
	C529.084778,1218.826294 536.146362,1251.145264 542.924744,1283.523560 
	C551.658264,1325.240601 560.403198,1366.957153 568.696960,1408.762451 
	C569.818848,1414.417236 573.046265,1415.697144 577.361389,1416.976318 
	C599.892761,1423.656250 622.479309,1430.161377 644.913391,1437.154785 
	C665.199036,1443.478271 685.477905,1449.893677 705.468323,1457.079468 
	C746.214539,1471.725464 785.473022,1489.717529 822.604126,1512.067139 
	C847.160645,1526.848022 871.604919,1541.847290 895.617188,1557.489136 
	C911.613831,1567.909546 926.855042,1579.505859 942.263184,1590.808960 
	C959.529663,1603.475342 976.638977,1616.357544 993.737183,1629.251221 
	C998.428650,1632.788940 1003.165649,1633.132446 1007.917419,1629.955811 
	C1012.698181,1626.759766 1017.222473,1623.176880 1021.823547,1619.716187 
	C1043.280640,1603.577881 1064.562134,1587.200684 1086.212158,1571.326050 
	C1119.471313,1546.939453 1154.273071,1524.894531 1190.556641,1505.308350 
	C1210.181396,1494.714966 1230.284058,1484.978516 1250.393677,1475.318604 
	C1278.679932,1461.731079 1308.427246,1451.870239 1338.191040,1442.160645 
	C1353.835815,1437.056885 1369.723145,1432.696411 1386.306519,1427.858521 
M975.861694,563.122620 
	C970.659851,565.198120 965.285034,566.926147 960.288391,569.413818 
	C945.007507,577.021606 931.501343,587.242920 921.699707,601.184998 
	C915.156311,610.492493 909.789551,620.908936 905.569275,631.496033 
	C900.397156,644.471375 899.563354,658.412292 899.883362,672.452759 
	C900.243042,688.233398 903.273315,703.393188 910.286560,717.367493 
	C928.685120,754.027832 958.758789,774.674011 999.455872,778.802063 
	C1021.196228,781.007263 1042.287109,776.973633 1061.961792,766.986450 
	C1075.790649,759.966736 1087.537842,750.252869 1097.070923,738.090881 
	C1101.727295,732.150391 1106.250488,725.835449 1109.382446,719.022827 
	C1117.368774,701.650940 1121.159180,683.458252 1120.262085,664.010376 
	C1119.492432,647.328430 1115.564331,631.801697 1108.411621,616.997681 
	C1101.772705,603.256897 1091.756592,592.227051 1080.074341,582.404053 
	C1064.147949,569.012451 1045.676636,561.363342 1025.444214,559.337646 
	C1009.220642,557.713257 992.636169,557.986755 975.861694,563.122620 
M1206.017334,639.513977 
	C1207.215942,640.385132 1208.423706,641.244080 1209.611816,642.129272 
	C1229.187988,656.715149 1251.211060,660.915833 1274.812500,656.475281 
	C1292.282593,653.188293 1307.068115,644.673401 1319.216187,631.393677 
	C1337.732666,611.152222 1344.289917,587.406860 1339.667603,560.827759 
	C1336.093262,540.274109 1325.825439,523.106079 1308.915161,510.479858 
	C1284.292847,492.095428 1257.182739,488.061157 1228.602295,499.011078 
	C1208.731689,506.624023 1193.723389,520.211060 1184.373535,539.899170 
	C1174.513184,560.661743 1173.437012,581.720581 1180.717407,603.239197 
	C1185.524292,617.446838 1193.967041,629.356750 1206.017334,639.513977 
M793.904724,554.538025 
	C775.330872,542.376648 755.096375,539.055969 733.676941,544.131409 
	C715.571960,548.421509 701.299744,558.971069 690.999023,574.246460 
	C680.118713,590.381409 676.983826,608.422974 679.924866,627.707153 
	C682.395386,643.906311 689.811035,657.774658 701.449402,668.542236 
	C717.085754,683.008728 735.896790,690.220032 757.886597,688.121887 
	C778.854980,686.121155 796.031250,677.517761 809.267029,661.209900 
	C824.541687,642.390015 828.569885,620.969116 823.282166,597.608521 
	C819.227234,579.694519 808.936157,565.910461 793.904724,554.538025 
M964.160095,445.333008 
	C963.929810,444.202515 963.813049,443.034332 963.452454,441.947021 
	C956.659058,421.460693 935.833008,404.534668 911.978027,404.803986 
	C891.555847,405.034637 875.887695,413.037598 864.888428,429.813934 
	C857.129578,441.647858 854.303772,454.767090 856.889038,469.052155 
	C860.077209,486.668488 869.411255,499.783417 884.875854,508.298370 
	C896.659546,514.786560 909.505554,516.613647 922.758972,513.868713 
	C933.521057,511.639709 943.106445,506.576019 950.587524,498.691254 
	C964.664124,483.855072 969.127563,466.066315 964.160095,445.333008 
M1123.508423,382.013458 
	C1122.073730,380.906555 1120.612671,379.831940 1119.208496,378.687653 
	C1108.524658,369.981415 1096.416504,367.304260 1083.095825,370.478363 
	C1064.841064,374.828217 1051.608521,393.425140 1051.682495,411.215088 
	C1051.781494,435.006683 1074.262573,456.698151 1099.725952,452.022552 
	C1121.480103,448.028046 1135.097168,430.815430 1134.860596,409.505859 
	C1134.748169,399.378571 1130.495483,390.371124 1123.508423,382.013458 
z"/>
<path fill="#984715" opacity="1.000000" stroke="none" 
	d="
M1385.903809,1427.929443 
	C1369.723145,1432.696411 1353.835815,1437.056885 1338.191040,1442.160645 
	C1308.427246,1451.870239 1278.679932,1461.731079 1250.393677,1475.318604 
	C1230.284058,1484.978516 1210.181396,1494.714966 1190.556641,1505.308350 
	C1154.273071,1524.894531 1119.471313,1546.939453 1086.212158,1571.326050 
	C1064.562134,1587.200684 1043.280640,1603.577881 1021.823547,1619.716187 
	C1017.222473,1623.176880 1012.698181,1626.759766 1007.917419,1629.955811 
	C1003.165649,1633.132446 998.428650,1632.788940 993.737183,1629.251221 
	C976.638977,1616.357544 959.529663,1603.475342 942.263184,1590.808960 
	C926.855042,1579.505859 911.613831,1567.909546 895.617188,1557.489136 
	C871.604919,1541.847290 847.160645,1526.848022 822.604126,1512.067139 
	C785.473022,1489.717529 746.214539,1471.725464 705.468323,1457.079468 
	C685.477905,1449.893677 665.199036,1443.478271 644.913391,1437.154785 
	C622.479309,1430.161377 599.892761,1423.656250 577.361389,1416.976318 
	C573.046265,1415.697144 569.818848,1414.417236 568.696960,1408.762451 
	C560.403198,1366.957153 551.658264,1325.240601 542.924744,1283.523560 
	C536.146362,1251.145264 529.084778,1218.826294 522.321960,1186.444824 
	C515.090271,1151.818481 508.129486,1117.135742 500.922668,1082.504150 
	C494.824402,1053.199463 488.457794,1023.950745 482.369873,994.643982 
	C477.118378,969.363831 472.139343,944.027283 466.953857,918.733215 
	C461.140198,890.375427 455.158356,862.052063 449.382843,833.686523 
	C444.166290,808.066345 439.113159,782.412842 434.018829,756.767883 
	C430.557770,739.344971 427.144745,721.912598 423.724640,704.481628 
	C423.287415,702.253174 422.937073,700.007812 422.418518,697.037415 
	C434.799194,698.637878 446.632019,700.145874 458.458405,701.702820 
	C469.071716,703.100037 479.691193,704.459839 490.283936,706.001282 
	C503.966370,707.992310 517.683350,709.827209 531.279846,712.308044 
	C551.008789,715.908020 570.703247,719.748718 590.302734,723.993408 
	C614.088440,729.144653 638.024353,733.886169 661.421204,740.485535 
	C699.736023,751.292725 738.081909,762.271545 775.644348,775.384644 
	C812.470642,788.240723 848.584167,803.262695 884.534485,818.460266 
	C908.175354,828.454346 931.032837,840.321106 954.119141,851.598877 
	C964.037964,856.444153 973.819641,861.627563 983.352234,867.190979 
	C994.241211,873.546265 1004.386353,874.425842 1015.899719,867.824036 
	C1033.491577,857.736816 1051.512451,848.268311 1069.911743,839.747803 
	C1101.150757,825.281372 1132.504761,810.962097 1164.412109,798.069824 
	C1194.289795,785.997681 1224.617554,774.807434 1255.346680,765.133362 
	C1293.447998,753.138306 1331.954224,742.262390 1370.685913,732.489868 
	C1401.271118,724.772949 1432.377197,719.000000 1463.412842,713.229553 
	C1484.274414,709.350830 1505.405151,706.898438 1526.437622,703.967529 
	C1541.605469,701.853821 1556.805298,699.966309 1572.002808,698.073730 
	C1574.273560,697.790955 1576.609741,698.034424 1579.535156,698.034424 
	C1577.545288,708.499878 1575.736084,718.483337 1573.738159,728.428894 
	C1568.880371,752.610229 1563.946777,776.776367 1559.021240,800.944153 
	C1554.192627,824.636963 1549.326660,848.322205 1544.494629,872.014465 
	C1538.642822,900.707397 1532.900757,929.423157 1526.939453,958.093384 
	C1521.848511,982.578125 1516.451782,1006.999146 1511.306885,1031.472900 
	C1506.463623,1054.511841 1501.801392,1077.588745 1497.009644,1100.638672 
	C1487.028320,1148.652222 1476.953369,1196.646362 1467.031372,1244.672241 
	C1458.272705,1287.067749 1449.701782,1329.502075 1440.974609,1371.904175 
	C1438.820557,1382.370361 1436.251587,1392.751221 1434.117432,1403.221191 
	C1432.482422,1411.243286 1427.741943,1415.780762 1419.941650,1417.919922 
	C1408.669312,1421.011597 1397.512573,1424.525024 1385.903809,1427.929443 
M871.128418,938.399475 
	C857.580017,932.326538 844.199829,925.838562 830.448059,920.267639 
	C802.244141,908.842102 774.008972,897.453613 745.467529,886.914001 
	C722.184326,878.316284 698.564209,870.567139 674.862732,863.182251 
	C646.333679,854.293091 617.932861,844.742981 588.235779,840.260986 
	C582.337402,839.370850 576.305298,839.367432 570.079712,838.937500 
	C576.008972,866.944397 581.844482,893.943054 587.417664,920.995667 
	C592.758423,946.920227 597.779785,972.910400 603.028564,998.854065 
	C607.856934,1022.719727 612.672668,1046.589233 617.729797,1070.406860 
	C622.991272,1095.187012 628.658997,1119.880737 633.922913,1144.660278 
	C639.874023,1172.674316 645.690491,1200.718262 651.341125,1228.794312 
	C655.108826,1247.514771 658.372620,1266.336304 662.078918,1285.069702 
	C664.150879,1295.542480 666.454407,1305.981445 669.090332,1316.324463 
	C670.072021,1320.176147 671.325684,1324.349487 675.970154,1325.928833 
	C694.980408,1332.393433 714.026428,1338.759644 732.952209,1345.464233 
	C761.833374,1355.695801 790.218872,1367.075317 817.939514,1380.257080 
	C850.949158,1395.953979 883.099548,1413.130127 914.299927,1432.122803 
	C924.651611,1438.424438 934.873901,1444.938599 946.000061,1451.882690 
	C946.000061,1448.958374 946.000061,1447.026855 946.000122,1445.095337 
	C946.000305,1394.775146 946.000549,1344.454956 946.000549,1294.134766 
	C946.000671,1190.161865 945.960815,1086.188843 946.132446,982.216370 
	C946.140076,977.604431 944.556519,975.549988 940.677429,973.695679 
	C933.713257,970.366638 927.117371,966.276123 920.218628,962.799377 
	C904.127441,954.689697 887.947937,946.755371 871.128418,938.399475 
M1403.493408,843.002563 
	C1396.293579,844.633850 1389.003174,845.945496 1381.909790,847.953308 
	C1354.562622,855.693848 1327.188477,863.361938 1300.006592,871.654724 
	C1285.226929,876.163879 1270.815796,881.880615 1256.235107,887.043396 
	C1236.690918,893.963684 1216.710938,899.865662 1197.695679,908.018738 
	C1166.482422,921.401917 1135.784790,936.011719 1105.090454,950.569702 
	C1090.186035,957.638672 1075.850342,965.898315 1061.102783,973.311829 
	C1057.361694,975.192505 1055.873535,977.243103 1055.890991,981.576721 
	C1056.069214,1025.733032 1055.998901,1069.890381 1056.000122,1114.047363 
	C1056.000488,1129.271729 1055.906128,1144.497192 1056.052124,1159.720215 
	C1056.123047,1167.109985 1056.953735,1174.496826 1056.919067,1181.882568 
	C1056.693481,1229.634888 1056.218994,1277.386108 1056.034302,1325.138428 
	C1055.877686,1365.629028 1055.997437,1406.120605 1056.018433,1446.611816 
	C1056.019165,1447.987061 1056.274292,1449.361938 1056.461792,1451.249878 
	C1063.288208,1446.843018 1069.339233,1442.606323 1075.695923,1438.893188 
	C1098.036499,1425.843384 1120.188354,1412.425293 1142.979248,1400.205200 
	C1162.018433,1389.996460 1181.669556,1380.862793 1201.387207,1372.004517 
	C1220.304321,1363.505737 1239.412109,1355.306152 1258.880981,1348.193237 
	C1280.800659,1340.184937 1303.166260,1333.371582 1325.471802,1326.471436 
	C1329.012695,1325.376099 1330.275269,1323.687012 1330.957886,1320.622925 
	C1333.856812,1307.612671 1336.920898,1294.637939 1339.673584,1281.597168 
	C1344.871460,1256.972046 1349.969849,1232.325439 1354.973022,1207.660034 
	C1360.203613,1181.872803 1365.118530,1156.020752 1370.460205,1130.256958 
	C1375.070190,1108.021973 1380.182983,1085.891602 1384.897827,1063.677612 
	C1390.772705,1035.998657 1396.438843,1008.275269 1402.249878,980.582520 
	C1405.763306,963.838928 1409.575684,947.155823 1412.901489,930.375732 
	C1417.060059,909.393616 1420.923950,888.351990 1424.779053,867.311218 
	C1426.480591,858.024536 1427.847534,848.676514 1429.521118,838.406921 
	C1420.481934,840.043091 1412.419434,841.502441 1403.493408,843.002563 
z"/>
<path fill="#984715" opacity="1.000000" stroke="none" 
	d="
M976.266724,563.073120 
	C992.636169,557.986755 1009.220642,557.713257 1025.444214,559.337646 
	C1045.676636,561.363342 1064.147949,569.012451 1080.074341,582.404053 
	C1091.756592,592.227051 1101.772705,603.256897 1108.411621,616.997681 
	C1115.564331,631.801697 1119.492432,647.328430 1120.262085,664.010376 
	C1121.159180,683.458252 1117.368774,701.650940 1109.382446,719.022827 
	C1106.250488,725.835449 1101.727295,732.150391 1097.070923,738.090881 
	C1087.537842,750.252869 1075.790649,759.966736 1061.961792,766.986450 
	C1042.287109,776.973633 1021.196228,781.007263 999.455872,778.802063 
	C958.758789,774.674011 928.685120,754.027832 910.286560,717.367493 
	C903.273315,703.393188 900.243042,688.233398 899.883362,672.452759 
	C899.563354,658.412292 900.397156,644.471375 905.569275,631.496033 
	C909.789551,620.908936 915.156311,610.492493 921.699707,601.184998 
	C931.501343,587.242920 945.007507,577.021606 960.288391,569.413818 
	C965.285034,566.926147 970.659851,565.198120 976.266724,563.073120 
z"/>
<path fill="#984715" opacity="1.000000" stroke="none" 
	d="
M1205.763916,639.260376 
	C1193.967041,629.356750 1185.524292,617.446838 1180.717407,603.239197 
	C1173.437012,581.720581 1174.513184,560.661743 1184.373535,539.899170 
	C1193.723389,520.211060 1208.731689,506.624023 1228.602295,499.011078 
	C1257.182739,488.061157 1284.292847,492.095428 1308.915161,510.479858 
	C1325.825439,523.106079 1336.093262,540.274109 1339.667603,560.827759 
	C1344.289917,587.406860 1337.732666,611.152222 1319.216187,631.393677 
	C1307.068115,644.673401 1292.282593,653.188293 1274.812500,656.475281 
	C1251.211060,660.915833 1229.187988,656.715149 1209.611816,642.129272 
	C1208.423706,641.244080 1207.215942,640.385132 1205.763916,639.260376 
z"/>
<path fill="#984715" opacity="1.000000" stroke="none" 
	d="
M794.181702,554.770142 
	C808.936157,565.910461 819.227234,579.694519 823.282166,597.608521 
	C828.569885,620.969116 824.541687,642.390015 809.267029,661.209900 
	C796.031250,677.517761 778.854980,686.121155 757.886597,688.121887 
	C735.896790,690.220032 717.085754,683.008728 701.449402,668.542236 
	C689.811035,657.774658 682.395386,643.906311 679.924866,627.707153 
	C676.983826,608.422974 680.118713,590.381409 690.999023,574.246460 
	C701.299744,558.971069 715.571960,548.421509 733.676941,544.131409 
	C755.096375,539.055969 775.330872,542.376648 794.181702,554.770142 
z"/>
<path fill="#984715" opacity="1.000000" stroke="none" 
	d="
M964.355103,445.705261 
	C969.127563,466.066315 964.664124,483.855072 950.587524,498.691254 
	C943.106445,506.576019 933.521057,511.639709 922.758972,513.868713 
	C909.505554,516.613647 896.659546,514.786560 884.875854,508.298370 
	C869.411255,499.783417 860.077209,486.668488 856.889038,469.052155 
	C854.303772,454.767090 857.129578,441.647858 864.888428,429.813934 
	C875.887695,413.037598 891.555847,405.034637 911.978027,404.803986 
	C935.833008,404.534668 956.659058,421.460693 963.452454,441.947021 
	C963.813049,443.034332 963.929810,444.202515 964.355103,445.705261 
z"/>
<path fill="#984715" opacity="1.000000" stroke="none" 
	d="
M1123.758911,382.271606 
	C1130.495483,390.371124 1134.748169,399.378571 1134.860596,409.505859 
	C1135.097168,430.815430 1121.480103,448.028046 1099.725952,452.022552 
	C1074.262573,456.698151 1051.781494,435.006683 1051.682495,411.215088 
	C1051.608521,393.425140 1064.841064,374.828217 1083.095825,370.478363 
	C1096.416504,367.304260 1108.524658,369.981415 1119.208496,378.687653 
	C1120.612671,379.831940 1122.073730,380.906555 1123.758911,382.271606 
z"/>
<path fill="#000000" opacity="1.000000" stroke="none" 
	d="
M871.466309,938.574707 
	C887.947937,946.755371 904.127441,954.689697 920.218628,962.799377 
	C927.117371,966.276123 933.713257,970.366638 940.677429,973.695679 
	C944.556519,975.549988 946.140076,977.604431 946.132446,982.216370 
	C945.960815,1086.188843 946.000671,1190.161865 946.000549,1294.134766 
	C946.000549,1344.454956 946.000305,1394.775146 946.000122,1445.095337 
	C946.000061,1447.026855 946.000061,1448.958374 946.000061,1451.882690 
	C934.873901,1444.938599 924.651611,1438.424438 914.299927,1432.122803 
	C883.099548,1413.130127 850.949158,1395.953979 817.939514,1380.257080 
	C790.218872,1367.075317 761.833374,1355.695801 732.952209,1345.464233 
	C714.026428,1338.759644 694.980408,1332.393433 675.970154,1325.928833 
	C671.325684,1324.349487 670.072021,1320.176147 669.090332,1316.324463 
	C666.454407,1305.981445 664.150879,1295.542480 662.078918,1285.069702 
	C658.372620,1266.336304 655.108826,1247.514771 651.341125,1228.794312 
	C645.690491,1200.718262 639.874023,1172.674316 633.922913,1144.660278 
	C628.658997,1119.880737 622.991272,1095.187012 617.729797,1070.406860 
	C612.672668,1046.589233 607.856934,1022.719727 603.028564,998.854065 
	C597.779785,972.910400 592.758423,946.920227 587.417664,920.995667 
	C581.844482,893.943054 576.008972,866.944397 570.079712,838.937500 
	C576.305298,839.367432 582.337402,839.370850 588.235779,840.260986 
	C617.932861,844.742981 646.333679,854.293091 674.862732,863.182251 
	C698.564209,870.567139 722.184326,878.316284 745.467529,886.914001 
	C774.008972,897.453613 802.244141,908.842102 830.448059,920.267639 
	C844.199829,925.838562 857.580017,932.326538 871.466309,938.574707 
z"/>
<path fill="#000000" opacity="1.000000" stroke="none" 
	d="
M1403.925049,842.982178 
	C1412.419434,841.502441 1420.481934,840.043091 1429.521118,838.406921 
	C1427.847534,848.676514 1426.480591,858.024536 1424.779053,867.311218 
	C1420.923950,888.351990 1417.060059,909.393616 1412.901489,930.375732 
	C1409.575684,947.155823 1405.763306,963.838928 1402.249878,980.582520 
	C1396.438843,1008.275269 1390.772705,1035.998657 1384.897827,1063.677612 
	C1380.182983,1085.891602 1375.070190,1108.021973 1370.460205,1130.256958 
	C1365.118530,1156.020752 1360.203613,1181.872803 1354.973022,1207.660034 
	C1349.969849,1232.325439 1344.871460,1256.972046 1339.673584,1281.597168 
	C1336.920898,1294.637939 1333.856812,1307.612671 1330.957886,1320.622925 
	C1330.275269,1323.687012 1329.012695,1325.376099 1325.471802,1326.471436 
	C1303.166260,1333.371582 1280.800659,1340.184937 1258.880981,1348.193237 
	C1239.412109,1355.306152 1220.304321,1363.505737 1201.387207,1372.004517 
	C1181.669556,1380.862793 1162.018433,1389.996460 1142.979248,1400.205200 
	C1120.188354,1412.425293 1098.036499,1425.843384 1075.695923,1438.893188 
	C1069.339233,1442.606323 1063.288208,1446.843018 1056.461792,1451.249878 
	C1056.274292,1449.361938 1056.019165,1447.987061 1056.018433,1446.611816 
	C1055.997437,1406.120605 1055.877686,1365.629028 1056.034302,1325.138428 
	C1056.218994,1277.386108 1056.693481,1229.634888 1056.919067,1181.882568 
	C1056.953735,1174.496826 1056.123047,1167.109985 1056.052124,1159.720215 
	C1055.906128,1144.497192 1056.000488,1129.271729 1056.000122,1114.047363 
	C1055.998901,1069.890381 1056.069214,1025.733032 1055.890991,981.576721 
	C1055.873535,977.243103 1057.361694,975.192505 1061.102783,973.311829 
	C1075.850342,965.898315 1090.186035,957.638672 1105.090454,950.569702 
	C1135.784790,936.011719 1166.482422,921.401917 1197.695679,908.018738 
	C1216.710938,899.865662 1236.690918,893.963684 1256.235107,887.043396 
	C1270.815796,881.880615 1285.226929,876.163879 1300.006592,871.654724 
	C1327.188477,863.361938 1354.562622,855.693848 1381.909790,847.953308 
	C1389.003174,845.945496 1396.293579,844.633850 1403.925049,842.982178 
z"/>
</svg>