<svg version="1.2" xmlns="http://www.w3.org/2000/svg" viewBox="0 0 360 140" width="360" height="140">
	<style>
		.s0 { fill: #9c4414 } 
		.s1 { fill: #442b2b } 
		.s2 { fill: #944414 } 
		.s3 { fill: #583420 } 
		.s4 { fill: #9c4820 } 
	</style>
	<g id="svgg">
		<path id="path0" fill-rule="evenodd" class="s0" d="m71.4 17.65c0 0.09 0.11 0.15 0.25 0.12 0.41-0.08 1.16 0.24 1.04 0.44-0.06 0.11 0.03 0.19 0.2 0.19 0.17 0 0.31 0.13 0.31 0.29 0 0.16 0.18 0.39 0.39 0.51 0.23 0.12 0.35 0.33 0.28 0.5-0.06 0.17-0.04 0.3 0.06 0.3 0.21 0 0.31 1.38 0.13 1.8-0.06 0.17-0.14 0.4-0.17 0.53-0.09 0.42-0.95 1.46-1.12 1.35-0.09-0.06-0.17-0.02-0.17 0.09 0 0.32-1.24 0.63-2 0.51-0.39-0.06-0.86-0.11-1.05-0.11-0.19 0-0.35-0.08-0.35-0.18 0-0.11-0.07-0.17-0.15-0.14-0.08 0.02-0.39-0.2-0.69-0.5-0.3-0.3-0.48-0.55-0.4-0.56 0.08 0-0.02-0.13-0.22-0.27-0.43-0.33-0.68-2-0.36-2.39 0.12-0.15 0.16-0.33 0.08-0.4q-0.09-0.12 0.12-0.13c0.13 0 0.19-0.09 0.12-0.2-0.07-0.11-0.03-0.2 0.09-0.2 0.11 0 0.21-0.12 0.21-0.28 0-0.15 0.15-0.39 0.34-0.55 0.29-0.23 0.31-0.23 0.18 0.03-0.08 0.16 0.04 0.09 0.26-0.17 0.23-0.26 0.42-0.41 0.42-0.33 0 0.08 0.13 0.04 0.3-0.1 0.17-0.14 0.3-0.19 0.3-0.11 0 0.07 0.14 0.05 0.3-0.04 0.4-0.22 1.3-0.22 1.3 0zm-13.6 3.38q0.01 0.17 0.16 0.1c0.26-0.17 1.7 1.42 1.53 1.69q-0.14 0.23 0.07 0.11c0.5-0.31 0.74 2.73 0.28 3.59-0.12 0.24-0.17 0.48-0.1 0.55q0.09 0.12-0.12 0.13c-0.13 0-0.2 0.07-0.14 0.16 0.05 0.1-0.05 0.3-0.24 0.46-1.29 1.09-2.06 1.63-2.17 1.52-0.07-0.08-0.25-0.04-0.39 0.08-0.31 0.25-1.91 0.13-2.78-0.21-0.33-0.13-0.6-0.22-0.6-0.2 0 0.02-0.37-0.31-0.83-0.74-0.9-0.84-1.36-1.57-1.17-1.87 0.07-0.11 0.04-0.2-0.07-0.2-0.25 0-0.15-2.2 0.13-2.72 0.12-0.24 0.17-0.48 0.1-0.55q-0.1-0.12 0.11-0.13c0.12 0 0.23-0.1 0.23-0.22 0-0.34 1.32-1.58 1.68-1.58 0.18 0 0.32-0.08 0.32-0.18 0-0.11 0.16-0.22 0.35-0.26 1.12-0.24 3.65 0.09 3.65 0.47zm28.16 7.04c0.13 0.09 0.32 0.1 0.42 0.04 0.09-0.06 0.29 0.03 0.43 0.2 0.14 0.17 0.36 0.27 0.5 0.21 0.13-0.05 0.44 0.09 0.67 0.3 0.23 0.22 0.42 0.34 0.42 0.26 0-0.31 1.82 1.72 1.9 2.11 0.04 0.24 0.26 0.72 0.47 1.07 0.46 0.74 0.76 3.23 0.43 3.44-0.12 0.08-0.16 0.31-0.1 0.52 0.07 0.22 0.03 0.38-0.1 0.38-0.12 0-0.2 0.11-0.17 0.25 0.07 0.37-0.23 1.15-0.44 1.15-0.11 0-0.19 0.1-0.19 0.23 0 0.12-0.16 0.36-0.35 0.51q-0.31 0.27-0.05 0.14 0.3-0.15-0.08 0.29c-0.21 0.24-0.52 0.43-0.68 0.43-0.17 0-0.25 0.06-0.18 0.13 0.24 0.24-1.97 1.55-2.27 1.36-0.09-0.05-0.19 0-0.22 0.11-0.04 0.11-0.66 0.2-1.37 0.2-1.77 0.01-2.06-0.02-2.34-0.24-0.13-0.11-0.34-0.14-0.45-0.06-0.12 0.07-0.21 0.03-0.21-0.08 0-0.11-0.15-0.15-0.33-0.08q-0.32 0.12-0.2-0.09c0.07-0.11-0.01-0.26-0.18-0.33q-0.29-0.1-0.18 0.1c0.07 0.11-0.05 0.1-0.28-0.05-0.22-0.13-0.37-0.3-0.34-0.36 0.04-0.06-0.23-0.33-0.6-0.61-0.38-0.28-0.68-0.6-0.68-0.73-0.01-0.12-0.15-0.28-0.31-0.34-0.17-0.07-0.3-0.25-0.3-0.42 0-0.17-0.08-0.31-0.19-0.31-0.44 0-1.02-3.98-0.65-4.47 0.09-0.13 0.18-0.45 0.19-0.71 0.02-0.27 0.13-0.55 0.26-0.62 0.12-0.08 0.2-0.18 0.17-0.22-0.12-0.18 1.07-1.97 1.24-1.87 0.1 0.06 0.18-0.03 0.18-0.2 0-0.17 0.36-0.46 0.8-0.66 0.44-0.19 0.8-0.41 0.8-0.5 0-0.08 0.17-0.15 0.38-0.15 0.2 0 0.66-0.12 1-0.27 0.66-0.27 2.76-0.31 3.18-0.06zm-41.52 4.19q0.14 0.2 0.16 0.06c0-0.1 0.16-0.04 0.35 0.12 0.19 0.17 0.55 0.37 0.8 0.45 0.24 0.07 0.42 0.21 0.4 0.3q-0.04 0.15 0.06 0.14c0.2-0.06 1.4 1.29 1.3 1.46-0.06 0.09 0.04 0.22 0.21 0.29 0.18 0.07 0.27 0.25 0.21 0.42-0.07 0.17-0.03 0.3 0.08 0.3 0.1 0 0.18 0.07 0.16 0.15-0.02 0.08 0.02 0.29 0.08 0.45 0.24 0.62 0.33 2.19 0.14 2.31-0.11 0.06-0.14 0.2-0.08 0.3 0.06 0.11 0.04 0.3-0.04 0.44-0.09 0.14-0.17 0.34-0.19 0.45-0.06 0.49-0.34 1.1-0.5 1.1-0.1 0-0.18 0.08-0.18 0.18 0 0.23-1.38 1.62-1.61 1.62-0.09 0-0.25 0.14-0.34 0.3-0.09 0.17-0.37 0.35-0.61 0.39-0.24 0.05-0.55 0.16-0.69 0.25-0.36 0.22-3.23 0.25-3.37 0.03-0.06-0.1-0.4-0.22-0.76-0.26-0.4-0.05-0.88-0.33-1.26-0.75-0.34-0.36-0.5-0.48-0.34-0.26 0.27 0.4 0.27 0.4-0.17 0.02-0.25-0.21-0.45-0.51-0.45-0.66 0-0.16-0.08-0.23-0.18-0.17-0.44 0.27-1.25-2.01-1.25-3.52 0-2.01 0.02-2.17 0.28-2.17q0.19-0.01 0.09-0.12c-0.2-0.21 0.46-1.33 1.29-2.16 0.74-0.74 2.17-1.66 2.17-1.4 0 0.07 0.11 0.05 0.25-0.06 0.14-0.1 0.61-0.21 1.05-0.24 0.44-0.03 0.84-0.09 0.89-0.14 0.17-0.18 1.9 0.14 2.05 0.38zm22.86 1.61c0.22 0.12 0.53 0.23 0.68 0.26 0.16 0.02 0.37 0.19 0.46 0.36 0.1 0.17 0.33 0.31 0.52 0.31 0.19 0 0.46 0.18 0.59 0.4 0.14 0.22 0.4 0.4 0.59 0.4 0.18 0 0.27 0.06 0.19 0.13-0.07 0.08 0.16 0.4 0.52 0.73 0.36 0.33 0.51 0.53 0.35 0.45-0.17-0.08-0.11 0.02 0.13 0.22 0.49 0.42 1.24 1.99 1.4 2.93 0.19 1.1 0.2 4.14 0.02 4.14-0.1 0-0.12 0.18-0.05 0.4 0.07 0.22 0.04 0.4-0.08 0.4-0.11 0-0.16 0.13-0.09 0.3 0.06 0.17 0.03 0.3-0.07 0.3-0.09 0-0.19 0.19-0.21 0.43-0.02 0.24-0.13 0.5-0.26 0.57-0.12 0.08-0.22 0.2-0.21 0.27 0.01 0.07 0.02 0.21 0.02 0.3 0 0.25-2.49 2.8-2.81 2.87-0.15 0.03-0.45 0.21-0.66 0.4-0.22 0.19-0.47 0.3-0.56 0.24-0.09-0.06-0.17-0.01-0.17 0.1 0 0.12-0.13 0.16-0.3 0.09-0.16-0.06-0.3-0.01-0.3 0.12 0 0.13-0.08 0.18-0.19 0.12-0.1-0.07-0.23-0.03-0.3 0.07-0.07 0.11-0.27 0.2-0.46 0.21-1 0.03-3.95 0.03-3.95 0 0-0.01-0.24-0.05-0.54-0.08-0.3-0.03-0.68-0.16-0.84-0.3-0.17-0.13-0.39-0.19-0.5-0.13-0.1 0.07-0.32-0.01-0.49-0.18-0.17-0.16-0.38-0.3-0.48-0.3-0.11 0-0.35-0.18-0.55-0.4-0.19-0.21-0.45-0.33-0.58-0.26q-0.19 0.1-0.08-0.03c0.07-0.08-0.24-0.44-0.69-0.78-0.45-0.35-0.8-0.71-0.77-0.81 0.03-0.1-0.07-0.25-0.21-0.34-0.15-0.09-0.28-0.26-0.29-0.37-0.02-0.12-0.04-0.31-0.05-0.42-0.02-0.12-0.12-0.16-0.24-0.09q-0.18 0.1-0.17-0.03c0.08-0.5-0.04-0.88-0.25-0.75q-0.24 0.15-0.11-0.19c0.07-0.18 0.03-0.33-0.08-0.33-0.12 0-0.17-0.11-0.12-0.25 0.04-0.14-0.01-0.47-0.12-0.75-0.22-0.57-0.34-3.8-0.14-3.8 0.07 0 0.12-0.2 0.09-0.45-0.02-0.25 0.02-0.54 0.08-0.65 0.07-0.11 0.14-0.29 0.16-0.4 0.09-0.5 0.68-1.66 0.96-1.89 0.17-0.14 0.31-0.33 0.31-0.42 0-0.27 1.45-1.79 1.71-1.79 0.14 0 0.3-0.14 0.36-0.3 0.07-0.16 0.25-0.3 0.42-0.3 0.17 0 0.31-0.08 0.31-0.18 0-0.14 0.5-0.39 1.03-0.49 0.08-0.02 0.2-0.09 0.27-0.17 0.08-0.07 0.26-0.08 0.42-0.02 0.15 0.05 0.28 0 0.28-0.13 0-0.13 0.07-0.2 0.15-0.15 0.08 0.05 0.33 0.02 0.55-0.06 0.95-0.34 4.44-0.04 5.4 0.47zm-50.1 11.18c0.71 0.12 1.59 0.22 1.95 0.21 0.36 0 0.65 0.07 0.65 0.18 0 0.1 0.31 0.12 0.7 0.05 0.4-0.08 0.7-0.05 0.7 0.06 0 0.1 0.25 0.17 0.55 0.15 0.3-0.02 0.66 0.05 0.8 0.15 0.14 0.11 0.47 0.15 0.75 0.1 0.27-0.05 0.5-0.03 0.5 0.05 0 0.08 0.22 0.1 0.5 0.05 0.28-0.05 0.5 0 0.5 0.11 0 0.12 0.22 0.17 0.49 0.12 0.26-0.04 0.54 0 0.6 0.11 0.07 0.11 0.26 0.14 0.42 0.08 0.16-0.06 0.45-0.04 0.64 0.04q0.62 0.27 1.25 0.36c0.17 0.03 0.42 0.12 0.56 0.2 0.13 0.09 0.42 0.1 0.64 0.03 0.22-0.07 0.4-0.04 0.4 0.08 0 0.11 0.18 0.16 0.4 0.12 0.22-0.04 0.4-0.01 0.4 0.07 0 0.08 0.2 0.16 0.45 0.17 0.78 0.05 2 0.27 2.22 0.41 0.13 0.07 0.36 0.15 0.53 0.18 0.64 0.11 1.51 0.31 1.8 0.42 0.42 0.16 0.86 0.27 1.15 0.3 0.14 0.01 0.25 0.08 0.25 0.17 0 0.08 0.16 0.12 0.35 0.09 0.19-0.03 0.57 0.03 0.85 0.14 0.28 0.1 0.71 0.23 0.98 0.28 0.26 0.05 0.72 0.22 1.02 0.37 0.3 0.16 0.59 0.24 0.64 0.19 0.06-0.05 0.36 0.04 0.68 0.2 0.32 0.17 0.78 0.31 1.03 0.31 0.25 0 0.45 0.08 0.45 0.19 0 0.1 0.16 0.18 0.35 0.17 0.19-0.01 0.62 0.1 0.95 0.25 0.33 0.14 0.67 0.28 0.75 0.3 0.08 0.02 0.22 0.06 0.3 0.09 0.08 0.03 0.22 0.04 0.3 0.02 0.08-0.01 0.15 0.08 0.15 0.2 0 0.12 0.13 0.17 0.28 0.11 0.16-0.06 0.4 0.02 0.53 0.18 0.13 0.16 0.32 0.23 0.42 0.17 0.1-0.06 0.41 0.03 0.67 0.2 0.27 0.18 0.66 0.32 0.88 0.32 0.22 0 0.52 0.13 0.67 0.28 0.15 0.15 0.77 0.43 1.36 0.62 0.6 0.19 1.49 0.54 1.98 0.77 0.5 0.24 0.97 0.41 1.05 0.38 0.09-0.03 0.16 0.04 0.16 0.15 0 0.11 0.07 0.19 0.15 0.18 0.36-0.06 0.64 0.04 0.96 0.35 0.18 0.19 0.48 0.36 0.66 0.39 0.62 0.08 1.23 0.33 1.23 0.49 0 0.09 0.27 0.22 0.6 0.29 0.33 0.07 0.6 0.22 0.6 0.33 0 0.1 0.09 0.14 0.2 0.07 0.11-0.07 0.2-0.02 0.2 0.1 0 0.12 0.09 0.17 0.2 0.1 0.11-0.07 0.2-0.02 0.2 0.1 0 0.12 0.08 0.17 0.18 0.11 0.1-0.06 0.32 0.02 0.48 0.18 0.16 0.16 0.35 0.24 0.42 0.17q0.11-0.1 0.12 0.11c0 0.13 0.14 0.23 0.3 0.23 0.17 0 0.3 0.09 0.3 0.21 0 0.12 0.09 0.16 0.2 0.09 0.11-0.07 0.2-0.02 0.2 0.1 0 0.12 0.08 0.17 0.18 0.11 0.1-0.06 0.34 0.04 0.52 0.22 0.51 0.51 1.89 0.54 2.54 0.07 0.3-0.22 0.68-0.4 0.85-0.4 0.17 0 0.31-0.1 0.31-0.21 0-0.12 0.09-0.16 0.2-0.09 0.11 0.07 0.2 0.03 0.2-0.08 0-0.28 2.36-1.47 2.61-1.31 0.11 0.06 0.25-0.03 0.31-0.2 0.07-0.17 0.2-0.26 0.3-0.2 0.1 0.06 0.18 0.01 0.18-0.11 0-0.12 0.08-0.17 0.18-0.11 0.1 0.06 0.22 0.02 0.26-0.1 0.03-0.12 0.25-0.25 0.46-0.29 0.22-0.04 0.42-0.08 0.45-0.09q0.06-0.01 0.18 0.01c0.07 0.01 0.18-0.06 0.25-0.15 0.17-0.24 1.58-0.87 1.93-0.87 0.16 0 0.29-0.07 0.29-0.16 0-0.18 1.39-0.77 1.64-0.69 0.09 0.03 0.16-0.04 0.16-0.15 0-0.11 0.17-0.2 0.37-0.2 0.2 0 0.43-0.07 0.51-0.15 0.09-0.08 0.21-0.16 0.29-0.18 0.07-0.01 0.31-0.08 0.53-0.16 0.22-0.07 0.45-0.1 0.51-0.07 0.07 0.03 0.28-0.1 0.48-0.3 0.2-0.2 0.48-0.32 0.64-0.26 0.15 0.06 0.27 0.01 0.27-0.11 0-0.12 0.13-0.16 0.3-0.1 0.16 0.07 0.3 0.03 0.3-0.08 0-0.1 0.14-0.19 0.31-0.19 0.17 0 0.66-0.18 1.1-0.41 0.44-0.22 0.89-0.35 1-0.29 0.1 0.07 0.19 0.03 0.19-0.09 0-0.11 0.07-0.2 0.15-0.18 0.08 0.02 0.4-0.07 0.71-0.2 0.31-0.12 0.76-0.23 1.01-0.23 0.24 0 0.64-0.14 0.89-0.31 0.25-0.18 0.65-0.35 0.89-0.38 0.25-0.03 0.72-0.17 1.05-0.31 0.33-0.13 0.85-0.26 1.15-0.27 0.3-0.02 0.55-0.11 0.55-0.2 0-0.1 0.13-0.12 0.3-0.06 0.17 0.07 0.3 0.03 0.3-0.08 0-0.1 0.31-0.19 0.7-0.19 0.39 0 0.7-0.1 0.7-0.22 0-0.13 0.18-0.18 0.4-0.12 0.22 0.05 0.4 0.01 0.4-0.1 0-0.11 0.18-0.16 0.4-0.1 0.22 0.05 0.4 0.01 0.4-0.1 0-0.11 0.15-0.15 0.33-0.07 0.19 0.07 0.4 0.03 0.47-0.09 0.08-0.12 0.46-0.24 0.87-0.26 0.4-0.02 0.73-0.09 0.73-0.16 0-0.06 0.2-0.1 0.45-0.08 0.25 0.03 0.68-0.04 0.95-0.15 0.27-0.1 0.68-0.22 0.9-0.25 0.22-0.04 0.69-0.16 1.03-0.26 0.35-0.11 0.69-0.16 0.75-0.1 0.05 0.06 0.26 0.04 0.46-0.04q0.73-0.32 1.71-0.34c0.3-0.01 0.55-0.08 0.55-0.16 0-0.07 0.25-0.12 0.55-0.1 0.3 0.02 0.64-0.01 0.75-0.07 0.2-0.12 0.99-0.24 1.95-0.29 0.3-0.02 0.55-0.09 0.55-0.16 0-0.06 0.25-0.1 0.55-0.08 0.3 0.02 0.65-0.04 0.76-0.13 0.12-0.09 0.48-0.16 0.8-0.15 0.33 0 0.86-0.04 1.19-0.1 2.18-0.36 3.62-0.27 2.89 0.19-0.12 0.07-0.17 0.27-0.1 0.44 0.06 0.16 0.04 0.4-0.06 0.53-0.1 0.12-0.18 0.35-0.19 0.52 0 0.17-0.06 0.59-0.13 0.95-0.06 0.36-0.15 0.9-0.2 1.2-0.04 0.3-0.18 0.93-0.3 1.4-0.11 0.47-0.3 1.2-0.4 1.62-0.11 0.42-0.25 1.3-0.32 1.95-0.07 0.65-0.22 1.24-0.33 1.3-0.11 0.07-0.14 0.32-0.07 0.56 0.08 0.23 0.05 0.42-0.05 0.42-0.1 0-0.14 0.23-0.09 0.5 0.05 0.27 0.01 0.5-0.1 0.5-0.11 0-0.2 0.25-0.21 0.55-0.03 0.96-0.09 1.34-0.24 1.55-0.08 0.11-0.12 0.36-0.09 0.55 0.03 0.19-0.02 0.35-0.11 0.35-0.1 0-0.17 0.16-0.17 0.35 0.01 0.39-0.16 1.48-0.34 2.25q-0.22 0.9-0.36 1.87c-0.04 0.26-0.13 0.57-0.21 0.69-0.07 0.13-0.18 0.57-0.23 0.98-0.08 0.72-0.21 1.44-0.3 1.66-0.02 0.06-0.02 0.26 0 0.45 0.02 0.19-0.05 0.35-0.15 0.35-0.1 0-0.14 0.23-0.09 0.5q0.09 0.49-0.15 0.5c-0.15 0-0.21 0.16-0.15 0.39 0.06 0.21-0.03 0.9-0.19 1.55-0.16 0.64-0.29 1.32-0.29 1.51 0 0.19-0.09 0.35-0.19 0.35-0.12 0-0.19 0.16-0.17 0.35 0.02 0.19 0.02 0.4-0.01 0.45-0.02 0.06-0.08 0.37-0.12 0.7-0.11 0.84-0.22 1.4-0.27 1.4-0.04 0-0.08 0.25-0.31 1.89-0.07 0.49-0.22 1.06-0.33 1.27-0.11 0.2-0.16 0.42-0.1 0.47 0.05 0.06-0.03 0.46-0.18 0.89-0.15 0.43-0.23 0.78-0.17 0.78 0.05 0 0 0.17-0.11 0.38-0.21 0.4-0.47 1.82-0.46 2.57 0 0.25-0.06 0.45-0.14 0.45-0.08 0-0.16 0.37-0.18 0.82-0.01 0.45-0.09 0.92-0.17 1.05-0.08 0.13-0.12 0.39-0.09 0.58 0.03 0.19-0.02 0.35-0.11 0.35-0.09 0-0.19 0.42-0.22 0.94-0.03 0.52-0.15 1.06-0.27 1.19-0.11 0.14-0.15 0.35-0.08 0.46 0.08 0.12 0.07 0.32-0.02 0.45-0.08 0.13-0.17 0.43-0.2 0.65-0.08 0.57-0.23 1.21-0.28 1.21-0.02 0-0.07 0.18-0.11 0.4-0.19 1.25-0.26 1.61-0.29 1.7-0.02 0.06-0.02 0.26 0 0.45 0.02 0.19-0.07 0.35-0.2 0.35q-0.23 0.01-0.11 0.49c0.07 0.27 0.03 0.54-0.07 0.6-0.11 0.07-0.14 0.26-0.08 0.42 0.06 0.16 0.01 0.43-0.13 0.59-0.13 0.16-0.2 0.4-0.15 0.54 0.05 0.14 0.01 0.49-0.1 0.76-0.1 0.27-0.22 0.77-0.26 1.1-0.04 0.33-0.12 0.83-0.18 1.1-0.07 0.28-0.17 0.82-0.23 1.2-0.07 0.39-0.21 0.81-0.32 0.95-0.12 0.14-0.14 0.25-0.05 0.25 0.08 0-0.01 0.18-0.22 0.41-0.2 0.22-0.48 0.36-0.61 0.31-0.14-0.05-0.28-0.01-0.32 0.11-0.04 0.11-0.47 0.24-0.95 0.28-0.49 0.05-0.95 0.19-1.03 0.31-0.07 0.13-0.23 0.17-0.36 0.09-0.12-0.07-0.22-0.03-0.22 0.1 0 0.14-0.17 0.19-0.4 0.13-0.22-0.05-0.4-0.01-0.4 0.1 0 0.11-0.14 0.15-0.3 0.09-0.16-0.07-0.3-0.03-0.3 0.07 0 0.1-0.13 0.14-0.3 0.07-0.17-0.06-0.3-0.02-0.3 0.1 0 0.12-0.14 0.17-0.3 0.1-0.17-0.06-0.3-0.02-0.3 0.09 0 0.11-0.16 0.18-0.35 0.15-0.19-0.03-0.49 0.02-0.65 0.11-0.41 0.21-1.06 0.45-1.3 0.48-0.11 0.02-0.56 0.19-1 0.38-0.44 0.2-1 0.36-1.25 0.36-0.25 0.01-0.45 0.07-0.45 0.14 0 0.19-1.23 0.63-1.43 0.5-0.09-0.06-0.17 0-0.17 0.13 0 0.13-0.14 0.18-0.31 0.11q-0.28-0.09-0.19 0.08c0.07 0.11-0.1 0.2-0.37 0.2-0.27 0-0.53 0.1-0.57 0.23-0.04 0.12-0.25 0.24-0.47 0.26-0.51 0.05-1.13 0.32-1.46 0.65-0.14 0.15-0.35 0.21-0.45 0.15-0.1-0.06-0.18-0.04-0.18 0.06 0 0.09-0.74 0.53-1.65 0.96-0.91 0.43-1.7 0.84-1.75 0.9-0.28 0.31-1.96 1.16-2.07 1.05q-0.12-0.1-0.13 0.07c0 0.11-0.4 0.4-0.9 0.65-0.5 0.25-0.9 0.54-0.9 0.65 0 0.1-0.09 0.14-0.2 0.07-0.11-0.07-0.26 0.01-0.32 0.19-0.07 0.17-0.3 0.31-0.51 0.31-0.22 0-0.34 0.09-0.27 0.2 0.07 0.11-0.07 0.2-0.3 0.2-0.23 0-0.37 0.09-0.3 0.2 0.07 0.11-0.07 0.2-0.3 0.2-0.23 0-0.37 0.09-0.3 0.2 0.07 0.11-0.02 0.2-0.19 0.2-0.17 0-0.31 0.09-0.31 0.21 0 0.12-0.09 0.16-0.2 0.09-0.11-0.07-0.2-0.03-0.2 0.09 0 0.12-0.14 0.21-0.3 0.21-0.17 0-0.3 0.09-0.3 0.2 0 0.11-0.13 0.2-0.3 0.2-0.16 0-0.3 0.09-0.3 0.2 0 0.11-0.14 0.2-0.31 0.2-0.17 0-0.27 0.07-0.22 0.15 0.05 0.08-0.14 0.32-0.42 0.53q-0.5 0.37-0.37 0.1c0.08-0.15-0.08-0.01-0.37 0.32-0.28 0.33-0.51 0.51-0.51 0.4 0-0.1-0.14 0.01-0.31 0.25-0.17 0.25-0.42 0.45-0.55 0.45-0.14 0-0.36 0.19-0.51 0.42-0.14 0.23-0.31 0.37-0.38 0.3-0.06-0.06-0.24 0.06-0.39 0.28-0.16 0.22-0.41 0.4-0.57 0.4-0.16 0-0.29 0.09-0.29 0.2 0 0.21-1.2 0.91-1.45 0.84-0.08-0.02-0.15 0.05-0.15 0.16 0 0.34-0.36 0.22-0.8-0.25-0.23-0.25-0.48-0.46-0.56-0.47-0.38-0.05-0.83-0.34-0.74-0.49 0.06-0.09-0.1-0.22-0.35-0.3-0.25-0.08-0.65-0.36-0.9-0.63-0.25-0.26-0.45-0.42-0.45-0.34 0 0.08-0.23-0.1-0.5-0.4-0.28-0.3-0.5-0.47-0.51-0.38 0 0.09-0.09 0-0.21-0.19-0.11-0.19-0.33-0.35-0.49-0.35-0.16 0-0.29-0.09-0.29-0.2 0-0.11-0.13-0.2-0.29-0.2-0.16 0-0.39-0.18-0.51-0.41-0.12-0.22-0.3-0.35-0.4-0.29-0.09 0.06-0.31-0.09-0.49-0.34-0.17-0.25-0.31-0.36-0.32-0.25 0 0.1-0.1 0.03-0.21-0.16-0.11-0.2-0.28-0.31-0.37-0.25-0.09 0.05-0.22-0.04-0.29-0.21-0.06-0.17-0.2-0.26-0.31-0.2-0.11 0.07-0.53-0.19-0.94-0.58-0.41-0.39-0.79-0.66-0.84-0.61-0.05 0.05-0.22-0.06-0.37-0.25q-0.28-0.33-0.14-0.05c0.08 0.16-0.12 0.05-0.45-0.25-0.33-0.3-0.74-0.55-0.93-0.55-0.19 0-0.34-0.07-0.34-0.15 0-0.08-0.2-0.25-0.45-0.37-1.31-0.66-1.75-0.93-1.75-1.07 0-0.16-0.76-0.47-1.05-0.43-0.08 0.01-0.15-0.07-0.15-0.19 0-0.12-0.09-0.16-0.2-0.09-0.11 0.07-0.2 0.02-0.2-0.1 0-0.12-0.09-0.17-0.2-0.1-0.11 0.07-0.2 0.02-0.2-0.1 0-0.12-0.08-0.17-0.18-0.11-0.09 0.06-0.5-0.12-0.9-0.39-0.41-0.28-0.86-0.5-1-0.5-0.14 0-0.46-0.18-0.72-0.4-0.25-0.21-0.53-0.34-0.63-0.28-0.09 0.05-0.17 0.01-0.17-0.11 0-0.12-0.07-0.2-0.15-0.19-0.08 0.02-0.22 0-0.3-0.02-0.08-0.03-0.22-0.07-0.3-0.09-0.42-0.12-1.01-0.36-1.52-0.62-0.31-0.16-0.73-0.29-0.93-0.29-0.21 0-0.51-0.14-0.68-0.31-0.18-0.17-0.4-0.26-0.51-0.2-0.1 0.06-0.24 0.02-0.31-0.09-0.07-0.11-0.21-0.16-0.31-0.09-0.11 0.06-0.19 0.02-0.19-0.09 0-0.11-0.14-0.16-0.3-0.09-0.17 0.06-0.3 0.02-0.3-0.1 0-0.12-0.13-0.17-0.28-0.11-0.15 0.06-0.34 0.01-0.41-0.11-0.08-0.12-0.22-0.16-0.33-0.1-0.11 0.07-0.42-0.02-0.69-0.2-0.27-0.17-0.49-0.26-0.49-0.19 0 0.07-0.14 0.02-0.3-0.12-0.16-0.14-0.3-0.18-0.3-0.1 0 0.08-0.13 0.04-0.29-0.09-0.16-0.14-0.39-0.19-0.5-0.11-0.12 0.07-0.21 0.02-0.21-0.1 0-0.12-0.09-0.17-0.2-0.1-0.11 0.07-0.31 0.05-0.45-0.03-0.14-0.09-0.47-0.19-0.75-0.23-0.27-0.04-0.6-0.16-0.75-0.28-0.14-0.11-0.25-0.14-0.25-0.06 0 0.08-0.2 0.02-0.45-0.14-0.25-0.15-0.72-0.3-1.04-0.32-0.32-0.02-0.65-0.14-0.73-0.27-0.07-0.12-0.23-0.17-0.34-0.1-0.28 0.18-0.68-0.37-0.71-0.97-0.02-0.27-0.09-0.5-0.17-0.5-0.07 0-0.09-0.22-0.04-0.5 0.05-0.28 0.01-0.5-0.08-0.5-0.1 0-0.18-0.11-0.18-0.25-0.01-0.14-0.08-0.52-0.15-0.85-0.2-0.87-0.35-1.76-0.35-2.1 0.01-0.17-0.04-0.43-0.11-0.6-0.19-0.52-0.28-0.89-0.32-1.33-0.01-0.24-0.09-0.5-0.17-0.57-0.07-0.08-0.09-0.25-0.04-0.38 0.05-0.13-0.04-0.61-0.2-1.06-0.16-0.45-0.24-0.87-0.19-0.93 0.06-0.06 0.04-0.22-0.05-0.37-0.1-0.14-0.19-0.53-0.21-0.87-0.05-0.79-0.14-1.17-0.29-1.29-0.11-0.09-0.21-0.63-0.43-2.3-0.03-0.22-0.11-0.44-0.18-0.5-0.07-0.06-0.17-0.67-0.24-1.37-0.06-0.7-0.2-1.38-0.3-1.5-0.1-0.13-0.15-0.39-0.12-0.58 0.03-0.19-0.02-0.39-0.11-0.45-0.09-0.05-0.12-0.28-0.06-0.5 0.06-0.23 0.01-0.4-0.12-0.4q-0.22-0.02-0.1-0.5 0.12-0.5-0.12-0.5c-0.14 0-0.19-0.14-0.12-0.33 0.07-0.17 0.05-0.42-0.05-0.54-0.18-0.24-0.37-1.08-0.63-2.93-0.17-1.17-0.25-1.49-0.49-2.06-0.09-0.2-0.1-0.41-0.04-0.48 0.07-0.07 0.03-0.24-0.09-0.39-0.12-0.14-0.18-0.39-0.12-0.54 0.06-0.16 0.02-0.37-0.08-0.47-0.1-0.1-0.24-0.59-0.3-1.07-0.19-1.5-0.2-1.58-0.34-1.72-0.08-0.08-0.14-0.53-0.14-1 0-0.51-0.09-0.87-0.22-0.87-0.13 0-0.18-0.18-0.12-0.4 0.06-0.22 0.02-0.45-0.08-0.51-0.1-0.06-0.15-0.33-0.1-0.59 0.05-0.25 0.03-0.52-0.04-0.59-0.12-0.12-0.19-0.42-0.33-1.31-0.1-0.72-0.29-1.52-0.48-2.04-0.08-0.25-0.15-0.64-0.14-0.86 0-0.22-0.06-0.45-0.15-0.52-0.08-0.06-0.16-0.53-0.17-1.05-0.01-0.51-0.11-0.93-0.22-0.93-0.11 0-0.15-0.18-0.09-0.4 0.05-0.22 0.03-0.45-0.06-0.5-0.09-0.06-0.14-0.26-0.11-0.45 0.03-0.19-0.06-0.63-0.2-0.98-0.14-0.35-0.21-0.69-0.15-0.74 0.06-0.06 0.04-0.27-0.05-0.47-0.09-0.2-0.18-0.49-0.21-0.66-0.03-0.16-0.15-0.8-0.27-1.4-0.12-0.6-0.25-1.28-0.29-1.5-0.03-0.22-0.12-0.53-0.19-0.7-0.07-0.17-0.16-0.62-0.19-1-0.03-0.39-0.13-0.82-0.21-0.95-0.09-0.14-0.1-0.43-0.03-0.65 0.07-0.22 0.04-0.4-0.07-0.4-0.11 0-0.17-0.23-0.14-0.5 0.03-0.27-0.01-0.5-0.08-0.5-0.2 0-0.61-2.36-0.48-2.71 0.06-0.16 0-0.29-0.13-0.29q-0.24 0-0.12-0.5c0.07-0.27 0.04-0.5-0.06-0.5-0.1 0-0.15-0.16-0.12-0.35 0.04-0.19 0.08-0.4 0.09-0.47 0.02-0.19 0.64-0.17 2.01 0.07zm10.21 11.73c-0.21 0.4-0.03 1.62 0.24 1.62 0.11 0 0.15 0.23 0.1 0.5-0.05 0.28-0.03 0.5 0.05 0.5 0.07 0 0.15 0.26 0.16 0.59 0.01 0.32 0.09 0.75 0.19 0.95 0.1 0.2 0.16 0.56 0.14 0.81-0.02 0.25 0.05 0.45 0.15 0.45 0.1 0 0.13 0.17 0.07 0.38-0.07 0.21-0.04 0.44 0.07 0.51 0.11 0.07 0.15 0.25 0.09 0.41-0.06 0.15-0.03 0.4 0.06 0.54 0.09 0.14 0.18 0.44 0.2 0.66 0.04 0.41 0.22 1.2 0.27 1.2 0.07 0 0.21 0.84 0.23 1.4 0.01 0.33 0.08 0.69 0.14 0.8 0.07 0.11 0.13 0.34 0.13 0.5 0 0.16 0.08 0.41 0.16 0.55 0.09 0.14 0.11 0.34 0.04 0.46-0.08 0.11-0.05 0.32 0.06 0.45 0.11 0.13 0.26 0.76 0.32 1.4 0.07 0.63 0.23 1.62 0.36 2.2 0.13 0.57 0.22 1.11 0.2 1.19-0.02 0.08 0.05 0.15 0.16 0.15 0.12 0 0.17 0.22 0.12 0.5-0.05 0.28-0.02 0.5 0.08 0.5 0.09 0 0.18 0.25 0.19 0.55 0.03 0.99 0.08 1.25 0.23 1.25 0.08 0 0.21 0.52 0.28 1.15 0.07 0.63 0.23 1.35 0.35 1.6 0.12 0.25 0.16 0.51 0.08 0.58-0.07 0.07-0.03 0.24 0.08 0.38 0.11 0.14 0.22 0.59 0.25 1.02 0.02 0.42 0.1 0.82 0.17 0.87 0.1 0.09 0.3 1.24 0.42 2.45 0.02 0.19 0.12 0.35 0.22 0.35 0.09 0 0.13 0.23 0.08 0.5-0.05 0.27-0.02 0.5 0.07 0.5 0.1 0 0.17 0.2 0.16 0.45-0.01 0.25 0.03 0.65 0.1 0.9 0.29 1.1 0.56 2.58 0.58 3.2 0.01 0.25 0.09 0.45 0.18 0.45 0.09 0 0.11 0.23 0.04 0.5q-0.12 0.49 0.11 0.5c0.14 0 0.22 0.23 0.18 0.55-0.03 0.3 0.01 0.66 0.1 0.8 0.08 0.14 0.1 0.34 0.02 0.46-0.07 0.11-0.02 0.34 0.11 0.49 0.13 0.16 0.18 0.38 0.1 0.49-0.07 0.12-0.02 0.21 0.1 0.21 0.12 0 0.19 0.07 0.14 0.15-0.1 0.19 0.59 0.85 0.74 0.7 0.07-0.06 0.29 0.04 0.51 0.24 0.21 0.19 0.48 0.29 0.6 0.22 0.11-0.07 0.21-0.03 0.21 0.09 0 0.12 0.11 0.2 0.25 0.17 0.27-0.04 1.92 0.39 2.25 0.59 0.11 0.07 0.36 0.15 0.57 0.18 0.2 0.04 0.56 0.17 0.8 0.3 0.23 0.14 0.51 0.22 0.61 0.19 0.09-0.02 0.35 0.12 0.58 0.31 0.23 0.2 0.34 0.25 0.26 0.11q-0.14-0.25 0.17-0.13c0.17 0.07 0.31 0.21 0.31 0.31 0 0.11 0.09 0.14 0.2 0.07 0.11-0.07 0.2-0.02 0.2 0.11 0 0.13 0.13 0.18 0.28 0.12 0.16-0.06 0.4 0.02 0.53 0.18 0.13 0.16 0.41 0.29 0.62 0.29 0.39 0 1.18 0.38 1.39 0.66 0.06 0.09 0.2 0.15 0.3 0.13 0.44-0.09 0.69 0.03 0.56 0.24q-0.15 0.24 0.19 0.11c0.18-0.07 0.33-0.04 0.33 0.07 0 0.1 0.07 0.18 0.15 0.17 0.31-0.05 1.05 0.27 1.05 0.46 0 0.1 0.09 0.13 0.2 0.06 0.11-0.07 0.2-0.02 0.2 0.1 0 0.12 0.09 0.17 0.2 0.1 0.11-0.07 0.2-0.03 0.2 0.09 0 0.12 0.18 0.21 0.4 0.21 0.22 0 0.4 0.07 0.4 0.15 0 0.18 0.97 0.65 1.35 0.65 0.15 0 0.22 0.09 0.15 0.2-0.07 0.11-0.03 0.21 0.09 0.23 0.11 0.01 0.3 0.04 0.41 0.07 0.11 0.03 0.28 0.06 0.37 0.08 0.09 0.01 0.42 0.25 0.72 0.52 0.29 0.28 0.61 0.46 0.7 0.41 0.08-0.06 0.32 0.08 0.51 0.3 0.2 0.21 0.48 0.39 0.63 0.39 0.15 0 0.42 0.17 0.61 0.39 0.18 0.21 0.41 0.34 0.5 0.29 0.09-0.06 0.16 0.01 0.16 0.14q0.01 0.21 0.12 0.12c0.07-0.06 0.25-0.01 0.4 0.12 0.69 0.61 0.88 0.74 0.9 0.6 0.02-0.09 0.04-8.98 0.05-19.76 0.03-21.01 0.07-20.04-0.89-20.26-0.15-0.04-0.31-0.15-0.35-0.26-0.03-0.1-0.15-0.13-0.25-0.07-0.1 0.06-0.18 0.01-0.18-0.11 0-0.12-0.09-0.17-0.19-0.1-0.11 0.06-0.36-0.07-0.55-0.29-0.19-0.23-0.47-0.41-0.62-0.41-0.15 0-0.41-0.14-0.58-0.31-0.17-0.17-0.44-0.27-0.59-0.21-0.15 0.06-0.27 0.01-0.27-0.1 0-0.11-0.09-0.15-0.2-0.08-0.11 0.07-0.2 0.01-0.2-0.12q-0.01-0.21-0.13-0.12c-0.14 0.14-1.28-0.43-1.52-0.76q-0.13-0.17-0.15-0.04c0 0.1-0.14 0.03-0.32-0.15-0.17-0.17-0.4-0.26-0.5-0.2-0.1 0.06-0.18 0.02-0.18-0.1 0-0.11-0.18-0.21-0.39-0.21-0.52 0-1.41-0.41-1.41-0.65 0-0.11-0.14-0.14-0.3-0.08-0.17 0.07-0.3 0.02-0.3-0.11q-0.01-0.19-0.13-0.09c-0.08 0.07-0.35-0.01-0.6-0.17-0.26-0.17-0.47-0.25-0.47-0.17 0 0.07-0.2-0.04-0.43-0.25-0.24-0.21-0.37-0.26-0.28-0.11q0.17 0.28-0.35-0.06c-0.27-0.18-0.75-0.37-1.06-0.43-0.32-0.06-0.62-0.17-0.68-0.25-0.05-0.08-0.51-0.27-1-0.42-0.5-0.16-0.99-0.34-1.1-0.42-0.11-0.08-0.54-0.2-0.95-0.27-0.41-0.08-0.75-0.22-0.75-0.32 0-0.1-0.13-0.14-0.3-0.07-0.16 0.06-0.3 0-0.3-0.13 0-0.13-0.14-0.19-0.3-0.13-0.17 0.07-0.3 0.04-0.3-0.05 0-0.09-0.24-0.17-0.54-0.17-0.3 0-0.58-0.1-0.62-0.21-0.03-0.12-0.2-0.17-0.35-0.11-0.16 0.06-0.29 0-0.29-0.13 0-0.13-0.13-0.19-0.3-0.13-0.17 0.07-0.3 0.03-0.3-0.09 0-0.11-0.08-0.15-0.19-0.09-0.1 0.06-0.24 0.02-0.32-0.1-0.07-0.12-0.26-0.17-0.41-0.11-0.15 0.06-0.28 0.02-0.28-0.08 0-0.1-0.14-0.14-0.3-0.07-0.17 0.06-0.3 0.01-0.3-0.12 0-0.13-0.08-0.18-0.19-0.12-0.1 0.07-0.24 0.02-0.31-0.09-0.08-0.12-0.31-0.16-0.52-0.09-0.21 0.06-0.38 0.02-0.38-0.09 0-0.11-0.14-0.16-0.3-0.09-0.17 0.06-0.44 0-0.6-0.13-0.17-0.14-0.3-0.18-0.3-0.1 0 0.08-0.15 0.03-0.33-0.13-0.18-0.15-0.36-0.25-0.4-0.22q-0.07 0.04-0.12 0.04c-0.03-0.01-0.19-0.05-0.35-0.09-0.17-0.03-0.57-0.12-0.9-0.2-0.33-0.07-0.85-0.17-1.15-0.22-1.49-0.22-1.77-0.21-1.94 0.1zm70.48-0.17c-0.06 0.11-0.38 0.14-0.7 0.09-0.33-0.06-0.59-0.03-0.59 0.07 0 0.1-0.23 0.13-0.5 0.08-0.28-0.05-0.5-0.01-0.5 0.09 0 0.11-0.11 0.2-0.25 0.21-0.37 0.03-1.43 0.22-1.55 0.27-0.06 0.02-0.19 0.06-0.3 0.08-0.11 0.02-0.46 0.14-0.77 0.27-0.31 0.13-0.65 0.18-0.75 0.12-0.1-0.06-0.18-0.01-0.18 0.12 0 0.14-0.17 0.19-0.4 0.13-0.22-0.05-0.4-0.02-0.4 0.09 0 0.11-0.08 0.14-0.18 0.08-0.1-0.06-0.44 0.03-0.75 0.19-0.31 0.16-0.76 0.3-1 0.3-0.24 0-0.47 0.08-0.5 0.19-0.04 0.1-0.34 0.24-0.67 0.31-0.95 0.19-0.99 0.2-1.25 0.37-0.14 0.08-0.25 0.08-0.25-0.01q-0.02-0.13-0.15 0.07c-0.08 0.13-0.33 0.26-0.55 0.3-0.22 0.04-0.45 0.13-0.51 0.21-0.06 0.08-0.46 0.2-0.9 0.27-0.43 0.07-0.94 0.26-1.13 0.43-0.18 0.16-0.42 0.24-0.53 0.18-0.11-0.07-0.26-0.03-0.33 0.08-0.07 0.11-0.21 0.15-0.31 0.09-0.11-0.06-0.19-0.02-0.19 0.09 0 0.12-0.14 0.16-0.3 0.09-0.17-0.06-0.3 0-0.3 0.13 0 0.13-0.14 0.19-0.3 0.13-0.17-0.07-0.3-0.03-0.3 0.07 0 0.1-0.14 0.14-0.3 0.07-0.17-0.06-0.3-0.02-0.3 0.1 0 0.12-0.14 0.17-0.3 0.1-0.17-0.06-0.3 0-0.3 0.14q-0.01 0.22-0.13 0.12c-0.08-0.07-0.3 0.02-0.51 0.2-0.2 0.19-0.42 0.28-0.5 0.2-0.07-0.07-0.29 0.02-0.49 0.2-0.21 0.18-0.37 0.27-0.37 0.19 0-0.08-0.15 0-0.33 0.18-0.18 0.18-0.45 0.27-0.6 0.21-0.16-0.05-0.34 0.03-0.4 0.19-0.06 0.17-0.26 0.3-0.45 0.3-0.18 0-0.53 0.14-0.78 0.31-0.24 0.17-0.44 0.26-0.44 0.2 0-0.07-0.21 0.02-0.48 0.19-0.26 0.17-0.66 0.35-0.9 0.4-0.23 0.04-0.57 0.22-0.74 0.39-0.17 0.17-0.39 0.27-0.48 0.21-0.09-0.06-0.2-0.01-0.23 0.1-0.04 0.11-0.26 0.24-0.48 0.28-0.48 0.1-2.27 1.07-2.65 1.45-0.15 0.15-0.38 0.27-0.5 0.27-0.18 0-0.24 4.75-0.24 19.87 0 16.52 0.04 19.82 0.26 19.55q0.31-0.38 0.15-0.02c-0.07 0.17 0.02 0.1 0.2-0.15 0.19-0.25 0.51-0.45 0.71-0.45 0.21 0 0.38-0.08 0.38-0.18 0-0.09 0.24-0.33 0.52-0.52q0.53-0.34 0.37-0.07c-0.09 0.15 0.09 0.02 0.4-0.28 0.31-0.3 0.64-0.49 0.73-0.43 0.1 0.06 0.18 0 0.18-0.12 0-0.12 0.09-0.17 0.2-0.1 0.11 0.07 0.2 0.04 0.2-0.07 0-0.11 0.43-0.41 0.95-0.66 0.52-0.25 1.12-0.59 1.33-0.76 0.22-0.17 0.32-0.2 0.24-0.06q-0.14 0.25 0.17 0.13c0.17-0.07 0.26-0.19 0.21-0.28-0.05-0.09 0.04-0.21 0.21-0.28q0.31-0.11 0.19 0.13c-0.07 0.14 0 0.09 0.15-0.1 0.16-0.19 0.35-0.29 0.42-0.21q0.12 0.09 0.13-0.12c0-0.13 0.09-0.19 0.2-0.12 0.11 0.07 0.2 0.03 0.2-0.09 0-0.12 0.08-0.21 0.18-0.21 0.09 0 0.52-0.15 0.95-0.34 0.93-0.4 0.86-0.38 1.42-0.56 0.25-0.08 0.45-0.23 0.45-0.32 0-0.1 0.18-0.18 0.4-0.18 0.22 0 0.4-0.08 0.4-0.17 0-0.1 0.36-0.24 0.8-0.31 0.44-0.07 0.8-0.21 0.8-0.32 0-0.11 0.22-0.2 0.5-0.2 0.27 0 0.5-0.09 0.5-0.2 0-0.11 0.19-0.2 0.41-0.2 0.23 0 0.61-0.11 0.85-0.24 0.24-0.13 0.56-0.26 0.71-0.28 0.14-0.03 0.55-0.18 0.9-0.35 0.34-0.16 0.76-0.33 0.93-0.36 0.16-0.04 0.35-0.14 0.42-0.23 0.07-0.09 0.43-0.2 0.8-0.24 0.37-0.03 0.7-0.08 0.73-0.11 0.03-0.02 0.14-0.06 0.25-0.09 0.11-0.03 0.27-0.07 0.35-0.1 0.08-0.02 0.22-0.04 0.3-0.02 0.08 0.01 0.15-0.07 0.15-0.18 0-0.11 0.07-0.19 0.15-0.18 0.43 0.07 0.62-0.07 0.76-0.57 0.09-0.3 0.17-0.6 0.19-0.65 0.26-0.8 0.52-2.19 0.52-2.85 0-0.19 0.09-0.39 0.18-0.45 0.1-0.06 0.13-0.25 0.07-0.41-0.06-0.16-0.01-0.29 0.11-0.29 0.14 0 0.18-0.19 0.1-0.5-0.07-0.28-0.04-0.5 0.07-0.5 0.11 0 0.15-0.23 0.1-0.5-0.05-0.27-0.02-0.5 0.08-0.5 0.1 0 0.19-0.16 0.21-0.35 0.01-0.19 0.08-0.71 0.16-1.15 0.08-0.44 0.17-0.98 0.2-1.2 0.04-0.22 0.08-0.42 0.11-0.45 0.02-0.03 0.06-0.23 0.09-0.45 0.03-0.22 0.07-0.45 0.1-0.5 0.03-0.05 0.07-0.28 0.1-0.5 0.03-0.22 0.07-0.45 0.1-0.5 0.03-0.05 0.07-0.28 0.1-0.5 0.03-0.22 0.07-0.45 0.1-0.5 0.03-0.05 0.07-0.28 0.1-0.5 0.03-0.22 0.07-0.42 0.09-0.45 0.03-0.03 0.08-0.35 0.11-0.72 0.04-0.37 0.13-0.82 0.2-1 0.08-0.18 0.18-0.69 0.23-1.12 0.05-0.44 0.16-0.89 0.23-1 0.07-0.12 0.15-0.45 0.16-0.75 0.02-0.3 0.1-0.71 0.19-0.9 0.08-0.2 0.17-0.5 0.18-0.66 0.13-1.29 0.38-2.4 0.54-2.4 0.11 0 0.14-0.17 0.07-0.38-0.06-0.21-0.02-0.44 0.09-0.52 0.12-0.07 0.18-0.19 0.13-0.27-0.09-0.14 0.26-2.04 0.49-2.63 0.02-0.05 0.02-0.26 0-0.45-0.02-0.19 0.06-0.35 0.17-0.35 0.11 0 0.16-0.13 0.09-0.3-0.06-0.17-0.05-0.46 0.04-0.65 0.08-0.19 0.17-0.61 0.2-0.92 0.04-0.31 0.12-0.72 0.2-0.9 0.08-0.18 0.17-0.55 0.2-0.83 0.04-0.28 0.1-0.68 0.15-0.9 0.2-0.9 0.41-2.21 0.38-2.35-0.02-0.08 0.03-0.15 0.12-0.15 0.09 0 0.17-0.2 0.18-0.45 0.04-0.93 0.15-1.55 0.28-1.55 0.08 0 0.14-0.2 0.13-0.45 0-0.25 0.06-0.86 0.14-1.35 0.07-0.49 0.13-1.06 0.13-1.25 0-0.19 0.07-0.35 0.15-0.35 0.08 0 0.16-0.16 0.17-0.36 0.03-0.38-0.64-0.56-0.85-0.23z"/>
		<path id="path1" fill-rule="evenodd" class="s1" d="m142.4 53.26c0.95 0.48 0.79 1.25-0.54 2.52-1.75 1.66-1.68 1.09-1.62 14.3l0.06 11.38 0.57 0.42c0.52 0.39 0.81 0.42 3.89 0.42 4.6 0 5.08-0.27 6.96-3.92 2.4-4.64 4.07-2.1 2.69 4.08-0.35 1.55-0.58 1.95-1.3 2.25-0.84 0.35-19.9 0.44-20.8 0.1-0.98-0.38-0.72-1.37 0.68-2.58 1.69-1.47 1.65-1.13 1.57-13.73-0.07-11.93-0.02-11.53-1.64-12.77-1.24-0.94-1.45-2.13-0.46-2.53 0.72-0.29 9.35-0.24 9.94 0.06zm29.2 0c0.95 0.48 0.79 1.25-0.54 2.52-1.72 1.64-1.66 1.16-1.66 13.24 0 11.95-0.04 11.6 1.52 13.14 1.2 1.19 1.48 2.21 0.69 2.63-0.49 0.27-9.4 0.28-10.1 0.02-0.92-0.36-0.72-1.41 0.46-2.41 1.8-1.51 1.73-0.94 1.73-13.49 0-12.41 0.06-11.93-1.58-13.18-1.24-0.94-1.45-2.13-0.46-2.53 0.72-0.29 9.35-0.24 9.94 0.06zm23.4 0.23c4.18 1.14 6.07 3.24 6.05 6.71-0.02 2.35-1.16 4.18-3.29 5.26l-0.93 0.47 1.34 0.43c9.75 3.14 8.88 15.28-1.3 18.08-2.16 0.59-16.75 0.81-17.58 0.27-1-0.65-0.67-1.45 1.17-2.8 1.13-0.84 1.14-0.93 1.14-12.76 0-12.45 0.06-11.92-1.62-13.38-1.37-1.19-1.56-2.01-0.58-2.52 0.83-0.43 13.88-0.23 15.6 0.24zm24.84-0.21c0.38 0.28 1.44 2.73 8.94 20.57l0.74 1.76 0.64-1.36c0.35-0.74 2.62-5.67 5.04-10.95 2.44-5.33 4.59-9.76 4.82-9.95 0.6-0.49 6.24-0.52 6.93-0.04 0.74 0.52 0.57 1.21-0.55 2.29-1.53 1.47-1.47 0.81-1.1 12.8 0.39 12.48 0.36 12.29 2 13.69 1.24 1.06 1.55 2.25 0.71 2.7-0.81 0.44-9.55 0.27-10.01-0.19-0.71-0.71-0.54-1.17 0.96-2.73 1.29-1.32 1.31-1.5 1.16-7.84-0.32-13.16-0.34-13.56-0.68-12.92-0.17 0.33-1.32 2.8-2.55 5.49-1.24 2.69-3.34 7.28-4.68 10.2-2.65 5.79-2.92 6.19-4.24 6.34-1.16 0.13-1 0.38-3.44-5.45-1.15-2.75-2.92-6.97-3.94-9.39-1.01-2.42-2.14-5.11-2.49-5.98l-0.64-1.58-0.13 2.18c-0.27 4.77-0.58 17.06-0.44 17.78 0.1 0.55 0.42 1.03 1.12 1.71 2.08 2 1.43 2.59-2.89 2.59-4.47 0-5.09-0.57-2.86-2.66 1.5-1.41 1.45-1.06 1.96-13.35 0.49-12.03 0.5-11.89-0.7-13.06-1.37-1.34-1.57-1.88-0.92-2.53 0.5-0.5 6.61-0.61 7.24-0.12zm48.26-0.28c3.67 0 3.42-0.18 4.86 3.5 0.55 1.43 1.77 4.53 2.71 6.9 7.26 18.43 6.91 17.64 8.32 18.77 1.36 1.09 1.69 2.16 0.82 2.62-0.71 0.38-9.61 0.27-10.04-0.12-0.59-0.54-0.44-1.12 0.55-2.08 1.13-1.1 1.14-1.91 0.06-4.59-0.94-2.32-0.56-2.21-7.32-2.15-6.63 0.06-6.04-0.18-7.14 2.81-0.93 2.51-0.92 2.88 0.08 4.04 1.64 1.9 1.06 2.3-3.37 2.3-4.57 0-5.31-0.74-2.64-2.65 1.6-1.15 1.92-1.71 4.03-7.03 1.01-2.54 2.99-7.54 4.41-11.1 2.93-7.39 2.95-7.52 1.74-8.63-0.95-0.86-1.14-1.83-0.47-2.32 0.28-0.2 1.17-0.27 3.4-0.27zm35.92 0.01l10.92-0.01 0.68 0.46c0.98 0.66 1.58 3.03 1.58 6.27 0 3.17-1.6 2.95-3.39-0.47-1.6-3.04-4.14-4.4-6.2-3.32-1.03 0.53-1.03 0.65-0.97 12.82 0.07 12.66-0.02 12 1.77 13.65 2.31 2.14 1.5 2.59-4.66 2.59-6.29 0-6.82-0.38-4.15-2.96 1.53-1.5 1.5-1.17 1.5-14.01v-11.26l-0.56-0.49c-0.47-0.4-0.77-0.48-1.8-0.47-2.34 0.03-3.27 0.71-4.85 3.51-1.3 2.32-1.5 2.55-2.28 2.55-0.89 0-1-0.28-1-2.57 0-3.52 0.58-5.49 1.77-5.98 0.61-0.25 2.41-0.3 11.64-0.31zm41.74 0.21c1.35 0.47 3.19 6.41 2.36 7.67-0.73 1.11-1.63 0.62-3.21-1.75-1.88-2.82-3.2-3.43-7.41-3.44-5.73 0-5.5-0.22-5.5 5.3 0 5.68-0.05 5.6 3.68 5.6 2.68 0 2.99-0.16 3.93-2.02 0.8-1.58 1.93-1.9 2.39-0.67 0.28 0.73 0.26 7.75-0.02 8.36-0.52 1.14-1.62 0.71-2.52-0.97-1-1.89-1.12-1.94-4.02-1.86-2.43 0.06-2.49 0.07-2.96 0.62l-0.48 0.56v5.29c0 6.81-0.28 6.49 5.61 6.49 5.15 0 5.81-0.31 7.58-3.61 1.32-2.44 1.95-3.04 2.77-2.58 1.28 0.71 0.45 7.5-1.02 8.4-0.89 0.54-22.13 0.61-22.89 0.08-0.94-0.66-0.6-1.45 1.21-2.78 1.13-0.84 1.14-0.93 1.14-12.76 0-12.45 0.06-11.92-1.62-13.38q-2.05-1.78-0.58-2.51c0.66-0.33 20.61-0.37 21.56-0.04zm-157.56 2.52c-0.97 0.36-1 0.49-1 4.7 0 4.65-0.25 4.26 2.7 4.25 3.86-0.01 5.57-1.24 5.57-3.99 0-2.33-1.54-4.13-4.11-4.81-1.06-0.29-2.6-0.36-3.16-0.15zm79.83 4.68c-0.1 0.27-1.2 3.07-2.43 6.24-1.23 3.16-2.19 5.87-2.14 6.02 0.28 0.71 9.39 0.73 9.67 0.02 0.05-0.13-1-3.02-2.33-6.42-2.71-6.9-2.52-6.5-2.77-5.86zm-80.38 7.47c-0.51 0.38-0.72 11.69-0.24 13.07 0.48 1.35 3.16 1.84 6.39 1.16 7.06-1.49 6.7-11.4-0.5-13.93-1.66-0.58-5.01-0.76-5.65-0.3z"/>
		<path id="path2" fill-rule="evenodd" class="s2" d="m90.38 31.2c0.1 0 0.28 0.27 0.39 0.6 0.12 0.33 0.17 0.6 0.13 0.6-0.05 0-0.23-0.27-0.4-0.6-0.17-0.33-0.23-0.6-0.12-0.6zm-48.58 0.65c0.39 0 0.54 0.04 0.35 0.09-0.19 0.05-0.51 0.05-0.7 0-0.19-0.05-0.03-0.09 0.35-0.09zm37.5 7.28l0.62 0.49c0.35 0.26 0.59 0.52 0.55 0.57-0.05 0.05-0.33-0.17-0.63-0.48zm-23.19 8.11c0.07 0.14-0.06 0.03-0.28-0.25-0.23-0.27-0.42-0.63-0.42-0.8 0-0.26 0.1-0.1 0.7 1.05zm2.62 2.8c0.08 0.12-0.19-0.03-0.59-0.33-0.41-0.31-0.74-0.6-0.74-0.65 0-0.14 1.17 0.72 1.33 0.98zm4.97 1.41c0.66 0 0.96 0.04 0.66 0.09-0.3 0.04-0.84 0.04-1.2 0-0.36-0.05-0.12-0.08 0.54-0.09zm-14.1 1.77c0.17 0 0.66 0.18 1.1 0.39 0.87 0.41 0.23 0.31-0.78-0.13-0.34-0.15-0.48-0.27-0.32-0.26zm5.65 2.37c0.17 0 0.43 0.15 0.58 0.34 0.25 0.3-0.41 0.09-0.81-0.26-0.04-0.04 0.06-0.08 0.23-0.08zm8.87 3.51c-0.22 0.16-0.53 0.29-0.7 0.28-0.18 0-0.05-0.13 0.28-0.28 0.79-0.36 0.89-0.36 0.42 0zm5.78 7.51c0.11-0.01-0.07 0.16-0.4 0.38-0.33 0.22-0.69 0.4-0.8 0.4-0.11 0 0.07-0.17 0.4-0.38 0.33-0.21 0.69-0.39 0.8-0.4zm-48.1 11.18c0.11 0.17 0.2 0.52 0.2 0.79 0 0.64-0.11 0.48-0.27-0.39q-0.13-0.72 0.07-0.4zm45.94 2.65c0.05 0.2 0.05 0.51 0 0.7-0.05 0.2-0.09 0.04-0.09-0.35 0-0.38 0.04-0.54 0.09-0.35zm-9.19 2.1c0.04 0.25 0.04 0.66 0 0.9-0.05 0.25-0.09 0.05-0.09-0.45 0-0.49 0.04-0.69 0.09-0.45zm44.79 0.1c0.05 0.19-0.01 0.5-0.14 0.7-0.21 0.33-0.22 0.33-0.11-0.01 0.06-0.2 0.12-0.52 0.14-0.7 0.02-0.3 0.03-0.3 0.11 0.01zm-35.59 0.4c0.04 0.31 0.04 0.8 0 1.1-0.05 0.31-0.09 0.06-0.09-0.55 0-0.6 0.04-0.85 0.09-0.55zm-44.37 2.67c0.2 0.21 0.52 1.45 0.33 1.26-0.06-0.07-0.2-0.42-0.31-0.79-0.1-0.36-0.11-0.58-0.02-0.47zm35.16 7.73c0.05 0.2 0.05 0.51 0 0.7-0.05 0.2-0.09 0.04-0.09-0.35 0-0.38 0.04-0.54 0.09-0.35zm25.58 5.66c-0.22 0.16-0.53 0.29-0.7 0.28-0.18 0-0.05-0.13 0.28-0.28 0.79-0.36 0.89-0.36 0.42 0zm-25.57 0.54c0.04 0.41 0.04 1.13 0 1.6-0.04 0.47-0.08 0.13-0.08-0.75 0-0.88 0.04-1.26 0.08-0.85z"/>
		<path id="path3" class="s3" d=""/>
		<path id="path4" class="s4" d=""/>
	</g>
</svg>