<svg version="1.1" id="Layer_1" xmlns="http://www.w3.org/2000/svg" xmlns:xlink="http://www.w3.org/1999/xlink" x="0px" y="0px"
	 width="100%" viewBox="0 0 2000 2000" enable-background="new 0 0 2000 2000" xml:space="preserve">
<path fill="#000000" opacity="1.000000" stroke="none" 
	d="
M1055.000000,2001.000000 
	C703.333313,2001.000000 352.166656,2001.000000 1.000000,2001.000000 
	C1.000000,1334.333374 1.000000,667.666687 1.000000,1.000000 
	C667.666687,1.000000 1334.333374,1.000000 2001.000000,1.000000 
	C2001.000000,667.666687 2001.000000,1334.333374 2001.000000,2001.000000 
	C1685.833374,2001.000000 1370.666626,2001.000000 1055.000000,2001.000000 
M972.904480,951.158691 
	C972.565247,941.885742 974.490051,933.822388 982.962585,928.147522 
	C984.990723,926.789001 986.766052,922.316772 985.997009,920.282593 
	C985.216919,918.219360 981.179321,916.307129 978.508545,916.222595 
	C965.527039,915.811584 952.518433,915.811890 939.536743,916.219604 
	C936.856628,916.303772 932.823547,918.187012 932.017273,920.255615 
	C931.232483,922.269165 932.995361,926.694702 935.013733,928.133057 
	C943.227783,933.987000 945.007874,942.155151 945.004150,951.319885 
	C944.992249,980.641174 944.869568,1009.963440 945.072083,1039.283325 
	C945.142395,1049.464966 943.314270,1058.296265 934.245911,1064.623779 
	C932.378418,1065.926880 931.102539,1070.027100 931.695984,1072.271851 
	C932.145752,1073.973145 935.976135,1075.755371 938.343994,1075.813965 
	C951.830078,1076.148560 965.332947,1076.146973 978.819092,1075.814087 
	C981.160583,1075.756348 985.158264,1073.823975 985.381775,1072.312378 
	C985.763489,1069.730713 984.552368,1065.894287 982.605225,1064.192017 
	C978.036438,1060.197754 974.380554,1055.875000 973.306091,1049.889404 
	C972.723511,1046.643555 972.963379,1043.250122 972.911804,1039.001831 
	C972.884094,1010.025146 972.856384,981.048401 972.904480,951.158691 
M826.914856,1051.002930 
	C826.886108,1018.025879 826.857422,985.048767 826.904480,951.158691 
	C826.566711,941.888611 828.486816,933.825195 836.958740,928.151550 
	C838.987915,926.792603 840.580444,922.559021 840.004089,920.235413 
	C839.543335,918.378113 835.517334,916.310120 833.017883,916.236450 
	C819.704590,915.844177 806.367676,915.844910 793.054199,916.231628 
	C790.540771,916.304626 786.514587,918.319580 786.022278,920.186218 
	C785.415894,922.485779 786.985046,926.681763 788.998291,928.118713 
	C797.383484,934.103577 799.033386,942.451477 799.017822,951.794067 
	C798.969421,980.942749 798.803894,1010.093506 799.105164,1039.239136 
	C799.212402,1049.614990 797.987366,1058.874390 787.994446,1064.572144 
	C787.854248,1064.652100 787.684387,1064.778564 787.642395,1064.917603 
	C786.876221,1067.456055 785.199341,1070.205078 785.700562,1072.470337 
	C786.035889,1073.985962 789.361084,1075.401123 791.545471,1075.811401 
	C794.605042,1076.386108 797.848083,1075.997925 801.012634,1075.997925 
	C828.662292,1075.998291 856.312012,1076.017212 883.961609,1075.973633 
	C891.275757,1075.962158 895.330017,1074.045410 896.472778,1068.482910 
	C898.469421,1058.764648 899.854797,1048.876099 900.658691,1038.990845 
	C900.846191,1036.684326 898.145996,1032.958374 895.893005,1032.034546 
	C894.259521,1031.364624 890.327209,1033.644043 888.905090,1035.657349 
	C885.765015,1040.102905 883.644775,1045.256836 880.956726,1050.036499 
	C877.484924,1056.209717 872.873535,1061.445312 865.401978,1061.979736 
	C855.648376,1062.677490 845.802856,1063.093750 836.060425,1062.530884 
	C830.993286,1062.238037 826.566284,1060.496704 826.914856,1051.002930 
M618.408997,1173.040649 
	C619.583496,1170.924072 621.345276,1168.935547 621.839294,1166.670532 
	C625.694702,1148.994751 629.305847,1131.265869 632.993408,1113.553467 
	C637.952759,1089.731934 642.943542,1065.917114 647.864258,1042.087524 
	C652.621582,1019.049316 657.289001,995.992432 662.029419,972.950623 
	C666.635315,950.562927 671.305176,928.188416 675.903809,905.799194 
	C677.970947,895.734863 679.933105,885.648987 682.124634,874.661682 
	C677.549683,875.167358 673.812683,875.504089 670.097839,876.004944 
	C657.205200,877.742981 644.190613,878.894653 631.462402,881.460083 
	C611.652222,885.452881 591.939514,890.035339 572.364624,895.065125 
	C541.981567,902.872131 512.701050,913.930786 484.216797,927.013977 
	C471.620483,932.799744 459.356049,939.310364 446.967896,945.545471 
	C442.938599,947.573425 439.336914,947.815735 434.965271,945.625061 
	C417.412537,936.829163 399.877533,927.920959 381.874329,920.119568 
	C356.932220,909.311401 331.158691,900.749329 304.834808,893.792908 
	C275.366241,886.005615 245.539001,880.189758 215.360718,876.092773 
	C210.726288,875.463623 206.023956,875.334595 200.903534,874.939575 
	C201.132385,877.184143 201.156830,878.500244 201.413544,879.769348 
	C203.238937,888.792664 205.138458,897.801086 206.964752,906.824219 
	C213.424789,938.741089 219.756805,970.684326 226.345352,1002.574585 
	C232.069000,1030.278564 238.167877,1057.904785 243.929031,1085.601196 
	C249.756226,1113.614990 255.320694,1141.683594 261.211884,1169.683716 
	C261.557770,1171.327759 263.543091,1173.353271 265.189789,1173.883789 
	C279.601837,1178.524414 294.181946,1182.646118 308.575409,1187.341064 
	C337.619049,1196.814819 364.702148,1210.444336 389.952606,1227.537842 
	C405.765839,1238.242798 421.144592,1249.613403 436.374725,1261.139160 
	C440.307373,1264.115234 443.041229,1263.540405 446.336090,1261.133667 
	C460.032288,1251.128662 473.542511,1240.858521 487.440918,1231.143555 
	C508.726379,1216.265137 531.052063,1203.012451 555.473450,1194.027222 
	C575.991089,1186.478271 597.023560,1180.328369 618.408997,1173.040649 
M1354.980103,1050.266113 
	C1354.335571,1040.161621 1353.441528,1030.065552 1353.096069,1019.950806 
	C1352.261108,995.511658 1351.790527,971.059998 1350.937622,946.621582 
	C1350.661987,938.725830 1352.594971,932.404236 1359.430908,927.598145 
	C1361.341064,926.255249 1362.757935,922.210205 1362.184204,919.973450 
	C1361.731567,918.208923 1357.933960,916.355164 1355.523560,916.213684 
	C1347.551758,915.745728 1339.535156,916.054260 1331.536011,916.026794 
	C1327.589844,916.013184 1324.922852,917.864441 1323.301147,921.393433 
	C1321.217896,925.926819 1319.092896,930.441223 1317.012939,934.976135 
	C1306.192627,958.568420 1295.404541,982.175537 1284.552246,1005.753052 
	C1281.187744,1013.062927 1277.657227,1020.296326 1273.808838,1028.393677 
	C1272.634888,1026.173462 1271.941284,1025.061401 1271.433350,1023.870239 
	C1266.280518,1011.785217 1261.128296,999.699829 1256.033203,987.590271 
	C1247.001587,966.124695 1238.009644,944.642456 1229.002197,923.166626 
	C1226.925293,918.214966 1223.589233,915.612305 1217.835205,915.914551 
	C1210.688599,916.289917 1203.507446,915.993530 1196.341187,916.014465 
	C1192.982788,916.024292 1189.318604,915.812378 1187.899170,919.754333 
	C1186.464111,923.739685 1189.003906,926.255920 1191.867920,928.538513 
	C1196.874023,932.528381 1199.488037,937.593628 1199.034180,944.184692 
	C1198.566406,950.977600 1198.358765,957.789246 1198.084473,964.594543 
	C1197.046631,990.343750 1195.786255,1016.087524 1195.129517,1041.846680 
	C1194.891846,1051.172729 1193.479858,1059.186768 1185.036499,1064.875488 
	C1183.182251,1066.124756 1181.906372,1070.270264 1182.522095,1072.480591 
	C1182.985962,1074.145386 1186.854126,1075.698242 1189.283936,1075.825073 
	C1197.261841,1076.241333 1205.274658,1075.971680 1213.274170,1075.993164 
	C1216.396729,1076.001587 1220.143677,1075.816406 1220.372070,1072.198853 
	C1220.538086,1069.569092 1218.968384,1065.999146 1216.957153,1064.230347 
	C1212.354614,1060.182739 1209.807861,1055.657959 1209.987915,1049.517334 
	C1210.373169,1036.380371 1210.666870,1023.240784 1211.000000,1010.102295 
	C1211.345825,996.464172 1211.617432,982.823364 1212.091187,969.189697 
	C1212.220337,965.469482 1212.960693,961.770569 1213.545410,957.054321 
	C1214.637939,958.848999 1215.337891,959.729248 1215.757690,960.727356 
	C1229.816040,994.156677 1243.845825,1027.598022 1257.884277,1061.035645 
	C1260.660522,1067.648315 1266.920654,1069.101318 1272.192383,1064.125244 
	C1273.950562,1062.465576 1275.322021,1060.232056 1276.380615,1058.025879 
	C1279.906128,1050.678833 1283.201416,1043.221558 1286.598755,1035.812866 
	C1297.487549,1012.066895 1308.369873,988.317810 1319.291260,964.586731 
	C1320.759399,961.396606 1322.436523,958.302673 1324.486328,954.232178 
	C1325.034058,963.657715 1325.737915,971.771118 1325.931763,979.896729 
	C1326.411987,1000.032715 1326.476074,1020.179749 1327.079956,1040.311157 
	C1327.365723,1049.832520 1325.775391,1057.998413 1317.309204,1063.968140 
	C1315.462036,1065.270630 1314.191528,1069.644165 1314.965332,1071.757080 
	C1315.693115,1073.743896 1319.440063,1075.716187 1321.915039,1075.789429 
	C1335.069214,1076.177979 1348.244141,1076.110352 1361.403442,1075.816772 
	C1363.497559,1075.770142 1366.835449,1074.165039 1367.313599,1072.588013 
	C1368.008789,1070.293579 1367.010742,1067.211060 1365.993774,1064.773682 
	C1365.365723,1063.268311 1363.109253,1062.529541 1362.026489,1061.109009 
	C1359.564453,1057.879150 1357.375610,1054.441040 1354.980103,1050.266113 
M1020.338013,1072.005981 
	C1022.221191,1075.811646 1025.696655,1076.000977 1029.294678,1075.998657 
	C1047.614014,1075.987061 1065.949951,1076.465576 1084.246094,1075.816040 
	C1094.442627,1075.454102 1104.987915,1074.571777 1114.654663,1071.587158 
	C1142.666626,1062.938843 1153.338745,1043.777344 1149.581787,1016.387390 
	C1147.280518,999.610168 1135.473633,989.906982 1120.313354,983.999573 
	C1117.450195,982.883972 1114.483521,982.033997 1110.650757,980.756836 
	C1113.164307,979.260559 1114.755859,978.175232 1116.462280,977.318848 
	C1133.072632,968.981567 1135.989868,945.232727 1125.210938,932.043945 
	C1118.460938,923.784668 1109.005249,919.900024 1098.834351,918.126404 
	C1075.046753,913.978210 1051.018677,916.558777 1027.097290,916.294006 
	C1024.847778,916.269043 1021.079407,918.588745 1020.683777,920.401917 
	C1020.199280,922.622681 1021.808350,926.558655 1023.763916,927.834595 
	C1032.030396,933.227783 1034.222168,940.661011 1034.125977,950.057800 
	C1033.802124,981.696960 1033.908081,1013.341980 1034.065186,1044.983643 
	C1034.104858,1052.969604 1031.465210,1058.986328 1024.732056,1063.611084 
	C1022.515503,1065.133545 1021.664246,1068.643677 1020.338013,1072.005981 
M1814.500000,916.000000 
	C1794.673828,916.001404 1774.847656,915.967041 1755.021851,916.049866 
	C1752.570190,916.060120 1750.000366,916.339111 1747.698120,917.120300 
	C1743.895996,918.410400 1742.843018,922.378174 1745.282837,925.564148 
	C1746.275391,926.860291 1747.574585,928.008484 1748.938110,928.918762 
	C1755.289185,933.158813 1758.093872,938.960693 1758.059937,946.650208 
	C1757.913574,979.804504 1757.951904,1012.959900 1758.033081,1046.114624 
	C1758.050781,1053.354492 1755.462646,1059.024780 1749.321533,1062.961060 
	C1746.060913,1065.051025 1743.123169,1067.685425 1744.435181,1071.843750 
	C1745.795288,1076.154297 1749.945801,1075.996216 1753.671631,1075.995972 
	C1769.999268,1075.994629 1786.326782,1076.000366 1802.654419,1075.999512 
	C1819.148560,1075.998535 1835.642944,1076.045532 1852.136719,1075.957642 
	C1857.080200,1075.931396 1862.358643,1075.348633 1864.288330,1069.979858 
	C1868.146729,1059.244263 1869.503540,1047.987671 1868.722046,1036.623657 
	C1868.373657,1031.556152 1863.436401,1029.802124 1859.618896,1033.117432 
	C1857.786133,1034.708740 1856.310547,1036.848267 1855.091675,1038.979004 
	C1853.028442,1042.585693 1851.364624,1046.418213 1849.410522,1050.090820 
	C1846.312866,1055.912231 1841.844238,1061.251099 1835.286133,1061.647095 
	C1821.579102,1062.474609 1807.772705,1062.332886 1794.041016,1061.766479 
	C1787.926392,1061.514404 1786.057617,1058.463745 1786.031982,1052.397461 
	C1785.970093,1037.736206 1785.958130,1023.074341 1786.038452,1008.413330 
	C1786.075073,1001.726562 1789.372681,998.387390 1796.182617,998.076904 
	C1800.505859,997.879883 1804.880737,998.367737 1809.168091,997.925171 
	C1816.837524,997.133423 1820.872070,1001.257202 1823.729614,1007.550293 
	C1824.676758,1009.635864 1825.675171,1011.857117 1827.214966,1013.480530 
	C1830.149902,1016.574951 1833.911255,1015.929565 1835.767090,1012.130737 
	C1836.537109,1010.554565 1836.908081,1008.633972 1836.925903,1006.864502 
	C1837.030029,996.536011 1837.014771,986.205505 1836.934204,975.876526 
	C1836.921509,974.251343 1836.759033,972.399048 1835.966431,971.068115 
	C1835.047607,969.524963 1833.367432,967.417969 1831.998047,967.403381 
	C1830.039917,967.382568 1827.573608,968.593689 1826.218994,970.089294 
	C1824.491333,971.996521 1823.694702,974.732971 1822.428711,977.075195 
	C1819.933472,981.691711 1816.335083,984.341125 1810.778564,984.039795 
	C1806.459717,983.805603 1802.117432,984.034912 1797.786255,983.992859 
	C1788.912842,983.906616 1786.049072,981.107544 1786.013184,972.398499 
	C1785.969971,961.902405 1785.977417,951.405945 1786.010132,940.909729 
	C1786.034058,933.216003 1787.655762,930.910156 1795.334717,930.154419 
	C1803.751831,929.326172 1812.253906,929.064270 1820.718018,929.078552 
	C1832.083984,929.097778 1841.253540,933.930847 1848.069580,943.055847 
	C1851.147095,947.175659 1853.723145,951.752014 1857.265991,955.404114 
	C1858.794556,956.979797 1862.675537,957.831299 1864.602051,956.988037 
	C1866.250977,956.266296 1867.742676,952.466736 1867.382446,950.356628 
	C1866.017212,942.362244 1864.212158,934.401184 1861.926392,926.617065 
	C1859.339233,917.807556 1856.583984,916.063599 1847.488647,916.018799 
	C1836.826050,915.966309 1826.162842,916.002441 1814.500000,916.000000 
M1441.528076,976.052551 
	C1432.086060,999.867615 1422.638550,1023.680542 1413.204956,1047.498901 
	C1410.412720,1054.549194 1405.679688,1059.797974 1399.397827,1064.091431 
	C1397.070068,1065.682495 1394.620483,1069.335327 1394.810913,1071.852173 
	C1395.104980,1075.736572 1399.323853,1075.997314 1402.784424,1075.992432 
	C1410.617676,1075.981445 1418.471558,1076.310669 1426.273193,1075.813110 
	C1428.997681,1075.639404 1432.675537,1074.063843 1433.877075,1071.962036 
	C1434.713501,1070.498413 1432.652222,1066.496826 1430.859497,1064.597168 
	C1427.216919,1060.737305 1426.096924,1056.745850 1427.914551,1051.852173 
	C1429.766724,1046.865723 1431.801758,1041.939819 1433.455322,1036.888672 
	C1435.063354,1031.975952 1438.638672,1030.102295 1443.330200,1030.075317 
	C1459.495972,1029.982056 1475.665894,1029.881836 1491.825928,1030.202881 
	C1494.473145,1030.255371 1498.382935,1031.724243 1499.456177,1033.738770 
	C1502.554932,1039.554810 1504.808472,1045.886841 1506.817505,1052.199707 
	C1508.831421,1058.527710 1504.285645,1062.232910 1500.463379,1066.291870 
	C1499.134033,1067.703735 1498.271851,1070.619263 1498.787842,1072.382202 
	C1499.232666,1073.902466 1501.919922,1075.728394 1503.646240,1075.760010 
	C1517.973145,1076.022949 1532.310791,1076.081543 1546.637207,1075.797852 
	C1551.738037,1075.696899 1553.792114,1070.476318 1550.747437,1066.301880 
	C1549.878906,1065.110840 1548.498657,1064.302856 1547.564209,1063.148315 
	C1543.851562,1058.561646 1538.967773,1054.432129 1536.774780,1049.189087 
	C1526.058105,1023.566101 1516.054443,997.644653 1505.824707,971.818359 
	C1499.452881,955.731384 1493.072144,939.647461 1486.813965,923.516235 
	C1484.767090,918.240479 1481.577637,915.504700 1475.530273,915.901611 
	C1468.725830,916.348145 1461.848633,915.708252 1455.048828,916.188354 
	C1452.650757,916.357727 1448.748779,918.119324 1448.437866,919.718384 
	C1447.942139,922.269104 1449.092651,926.031067 1450.928711,927.977783 
	C1456.598755,933.989685 1457.384888,935.986877 1454.325439,943.793579 
	C1450.198120,954.324768 1446.021118,964.836426 1441.528076,976.052551 
M1631.997314,946.642334 
	C1631.670532,979.611389 1631.304199,1012.580200 1631.045288,1045.549805 
	C1630.983887,1053.367920 1627.362427,1058.983398 1621.570679,1063.919800 
	C1619.513672,1065.672974 1617.686523,1069.149292 1617.848267,1071.706543 
	C1618.082642,1075.408936 1621.876343,1075.985962 1625.234497,1075.983643 
	C1638.399780,1075.974609 1651.571899,1076.199585 1664.724976,1075.799561 
	C1667.407471,1075.717896 1671.942017,1073.612427 1672.212769,1071.900757 
	C1672.618164,1069.336792 1670.729858,1065.373535 1668.529175,1063.644409 
	C1663.578003,1059.754150 1660.392944,1055.077148 1660.072998,1049.015503 
	C1659.424561,1036.731812 1659.119263,1024.420288 1659.043945,1012.118103 
	C1658.897949,988.288025 1658.974487,964.456360 1659.034424,940.625488 
	C1659.051758,933.756287 1661.629517,930.028870 1667.861206,929.421021 
	C1674.363403,928.786682 1681.467896,929.300476 1685.850464,934.658630 
	C1691.264771,941.278015 1695.495239,948.875183 1700.128784,956.119263 
	C1702.063965,959.144897 1704.923950,961.126160 1708.009399,959.559265 
	C1709.942749,958.577393 1711.855225,955.213013 1711.764771,952.999939 
	C1711.406616,944.237976 1710.697144,935.435181 1709.265747,926.788574 
	C1707.968262,918.949707 1704.118042,916.087952 1696.066162,916.064819 
	C1662.403198,915.967957 1628.739624,915.971497 1595.076660,916.060059 
	C1587.016113,916.081299 1582.613159,919.216492 1581.350830,927.063293 
	C1579.933105,935.876160 1579.489258,944.879028 1579.213623,953.817444 
	C1579.149536,955.899109 1581.211060,959.536926 1582.768799,959.816528 
	C1584.921753,960.202942 1588.188354,958.678345 1589.777954,956.899597 
	C1592.156128,954.238770 1593.432983,950.611389 1595.280151,947.454712 
	C1599.314331,940.560486 1602.973511,932.824158 1611.664429,931.076538 
	C1628.210693,927.749207 1631.679443,930.401917 1631.997314,946.642334 
M482.523712,890.910156 
	C497.016266,870.208679 492.441559,841.315186 474.346436,826.638184 
	C461.169983,815.950623 435.922729,813.553040 421.710510,822.821655 
	C403.085815,834.967957 395.897583,851.343628 400.088013,873.312500 
	C404.602173,896.978516 428.115936,912.831787 453.306122,908.454773 
	C465.224701,906.383728 474.306458,900.230530 482.523712,890.910156 
M582.171875,819.356201 
	C581.425293,811.221863 577.380066,805.009277 571.814697,799.125793 
	C558.654297,785.213379 532.191284,788.507385 521.236755,802.721802 
	C512.113525,814.559937 512.508667,832.212280 518.446899,841.778137 
	C525.833252,853.676758 539.934814,861.201050 554.811279,858.160339 
	C572.517334,854.541382 584.962463,838.098572 582.171875,819.356201 
M322.067688,814.452454 
	C309.619171,821.971680 304.550415,836.191711 308.700592,850.409546 
	C314.897064,871.637451 342.470917,877.113770 357.481171,864.320801 
	C371.822906,852.097656 371.745789,830.777344 359.153717,818.663879 
	C350.487091,810.326538 336.738373,806.163513 322.067688,814.452454 
M415.480591,755.851501 
	C407.671112,750.710999 393.777863,752.609070 387.306366,759.930176 
	C380.718353,767.383118 379.142853,775.518555 382.356903,784.228394 
	C385.448395,792.606018 391.900269,797.999878 401.211853,798.972595 
	C411.748566,800.073364 419.708496,795.678955 424.640411,786.562012 
	C430.289795,776.118896 427.028290,765.253479 415.480591,755.851501 
M483.821686,772.916809 
	C488.109680,771.145874 492.139252,769.208679 494.639099,764.844971 
	C498.694489,757.765869 497.621490,749.003662 491.598083,743.106750 
	C486.375824,737.994141 477.073669,736.800049 471.103027,740.475952 
	C463.413177,745.210144 460.277802,753.184753 462.958282,761.191101 
	C465.751343,769.533569 471.737396,773.057434 483.821686,772.916809 
z"/>
<path fill="#984715" opacity="1.000000" stroke="none" 
	d="
M618.118530,1173.299805 
	C597.023560,1180.328369 575.991089,1186.478271 555.473450,1194.027222 
	C531.052063,1203.012451 508.726379,1216.265137 487.440918,1231.143555 
	C473.542511,1240.858521 460.032288,1251.128662 446.336090,1261.133667 
	C443.041229,1263.540405 440.307373,1264.115234 436.374725,1261.139160 
	C421.144592,1249.613403 405.765839,1238.242798 389.952606,1227.537842 
	C364.702148,1210.444336 337.619049,1196.814819 308.575409,1187.341064 
	C294.181946,1182.646118 279.601837,1178.524414 265.189789,1173.883789 
	C263.543091,1173.353271 261.557770,1171.327759 261.211884,1169.683716 
	C255.320694,1141.683594 249.756226,1113.614990 243.929031,1085.601196 
	C238.167877,1057.904785 232.069000,1030.278564 226.345352,1002.574585 
	C219.756805,970.684326 213.424789,938.741089 206.964752,906.824219 
	C205.138458,897.801086 203.238937,888.792664 201.413544,879.769348 
	C201.156830,878.500244 201.132385,877.184143 200.903534,874.939575 
	C206.023956,875.334595 210.726288,875.463623 215.360718,876.092773 
	C245.539001,880.189758 275.366241,886.005615 304.834808,893.792908 
	C331.158691,900.749329 356.932220,909.311401 381.874329,920.119568 
	C399.877533,927.920959 417.412537,936.829163 434.965271,945.625061 
	C439.336914,947.815735 442.938599,947.573425 446.967896,945.545471 
	C459.356049,939.310364 471.620483,932.799744 484.216797,927.013977 
	C512.701050,913.930786 541.981567,902.872131 572.364624,895.065125 
	C591.939514,890.035339 611.652222,885.452881 631.462402,881.460083 
	C644.190613,878.894653 657.205200,877.742981 670.097839,876.004944 
	C673.812683,875.504089 677.549683,875.167358 682.124634,874.661682 
	C679.933105,885.648987 677.970947,895.734863 675.903809,905.799194 
	C671.305176,928.188416 666.635315,950.562927 662.029419,972.950623 
	C657.289001,995.992432 652.621582,1019.049316 647.864258,1042.087524 
	C642.943542,1065.917114 637.952759,1089.731934 632.993408,1113.553467 
	C629.305847,1131.265869 625.694702,1148.994751 621.839294,1166.670532 
	C621.345276,1168.935547 619.583496,1170.924072 618.118530,1173.299805 
M418.001129,1179.330688 
	C418.000854,1118.200562 417.965149,1057.070435 418.084076,995.940674 
	C418.091583,992.084961 416.959778,989.771545 413.483917,988.123596 
	C401.715851,982.544434 390.123260,976.590332 378.303040,971.126892 
	C346.682739,956.511536 313.680725,945.702637 280.218811,936.267883 
	C274.815735,934.744507 269.044037,934.528442 262.779694,933.610962 
	C263.155823,936.265259 263.276398,937.722900 263.576904,939.142334 
	C266.368744,952.329102 269.233673,965.500549 271.996490,978.693359 
	C277.318542,1004.106506 282.692657,1029.509399 287.847595,1054.956665 
	C292.383881,1077.349731 296.852142,1099.760986 300.930542,1122.240234 
	C302.421082,1130.456055 305.127136,1136.182373 314.181122,1138.795044 
	C349.911224,1149.105591 383.074768,1165.137695 414.159515,1185.516724 
	C415.131989,1186.154297 416.403473,1186.335571 418.001282,1186.891602 
	C418.001282,1184.248901 418.001282,1182.261108 418.001129,1179.330688 
M609.861206,983.271545 
	C612.926819,967.140869 615.992432,951.010193 619.115295,934.578247 
	C617.811646,934.396362 616.801208,933.962646 615.960693,934.181458 
	C599.598999,938.442200 583.033630,942.082642 566.957825,947.244812 
	C533.334351,958.041809 500.550140,971.007019 469.498230,988.059021 
	C466.216705,989.860962 464.876892,991.689941 464.891113,995.610901 
	C465.059631,1042.085205 464.999847,1088.560425 464.999451,1135.035400 
	C464.999359,1148.028442 465.087524,1161.022339 464.945312,1174.013794 
	C464.898193,1178.318481 464.256073,1182.616821 463.817474,1187.714478 
	C465.967346,1186.508789 467.109039,1185.890625 468.229767,1185.236572 
	C479.320953,1178.764282 490.163971,1171.814209 501.548920,1165.908691 
	C524.261719,1154.127197 547.768311,1144.118530 572.430542,1137.091064 
	C576.447998,1135.946289 578.283875,1133.880493 579.087524,1129.830566 
	C583.022339,1110.002075 587.171631,1090.215576 591.317139,1070.429443 
	C597.351135,1041.629639 603.446838,1012.842834 609.861206,983.271545 
z"/>
<path fill="#442828" opacity="1.000000" stroke="none" 
	d="
M1355.027954,1050.676880 
	C1357.375610,1054.441040 1359.564453,1057.879150 1362.026489,1061.109009 
	C1363.109253,1062.529541 1365.365723,1063.268311 1365.993774,1064.773682 
	C1367.010742,1067.211060 1368.008789,1070.293579 1367.313599,1072.588013 
	C1366.835449,1074.165039 1363.497559,1075.770142 1361.403442,1075.816772 
	C1348.244141,1076.110352 1335.069214,1076.177979 1321.915039,1075.789429 
	C1319.440063,1075.716187 1315.693115,1073.743896 1314.965332,1071.757080 
	C1314.191528,1069.644165 1315.462036,1065.270630 1317.309204,1063.968140 
	C1325.775391,1057.998413 1327.365723,1049.832520 1327.079956,1040.311157 
	C1326.476074,1020.179749 1326.411987,1000.032715 1325.931763,979.896729 
	C1325.737915,971.771118 1325.034058,963.657715 1324.486328,954.232178 
	C1322.436523,958.302673 1320.759399,961.396606 1319.291260,964.586731 
	C1308.369873,988.317810 1297.487549,1012.066895 1286.598755,1035.812866 
	C1283.201416,1043.221558 1279.906128,1050.678833 1276.380615,1058.025879 
	C1275.322021,1060.232056 1273.950562,1062.465576 1272.192383,1064.125244 
	C1266.920654,1069.101318 1260.660522,1067.648315 1257.884277,1061.035645 
	C1243.845825,1027.598022 1229.816040,994.156677 1215.757690,960.727356 
	C1215.337891,959.729248 1214.637939,958.848999 1213.545410,957.054321 
	C1212.960693,961.770569 1212.220337,965.469482 1212.091187,969.189697 
	C1211.617432,982.823364 1211.345825,996.464172 1211.000000,1010.102295 
	C1210.666870,1023.240784 1210.373169,1036.380371 1209.987915,1049.517334 
	C1209.807861,1055.657959 1212.354614,1060.182739 1216.957153,1064.230347 
	C1218.968384,1065.999146 1220.538086,1069.569092 1220.372070,1072.198853 
	C1220.143677,1075.816406 1216.396729,1076.001587 1213.274170,1075.993164 
	C1205.274658,1075.971680 1197.261841,1076.241333 1189.283936,1075.825073 
	C1186.854126,1075.698242 1182.985962,1074.145386 1182.522095,1072.480591 
	C1181.906372,1070.270264 1183.182251,1066.124756 1185.036499,1064.875488 
	C1193.479858,1059.186768 1194.891846,1051.172729 1195.129517,1041.846680 
	C1195.786255,1016.087524 1197.046631,990.343750 1198.084473,964.594543 
	C1198.358765,957.789246 1198.566406,950.977600 1199.034180,944.184692 
	C1199.488037,937.593628 1196.874023,932.528381 1191.867920,928.538513 
	C1189.003906,926.255920 1186.464111,923.739685 1187.899170,919.754333 
	C1189.318604,915.812378 1192.982788,916.024292 1196.341187,916.014465 
	C1203.507446,915.993530 1210.688599,916.289917 1217.835205,915.914551 
	C1223.589233,915.612305 1226.925293,918.214966 1229.002197,923.166626 
	C1238.009644,944.642456 1247.001587,966.124695 1256.033203,987.590271 
	C1261.128296,999.699829 1266.280518,1011.785217 1271.433350,1023.870239 
	C1271.941284,1025.061401 1272.634888,1026.173462 1273.808838,1028.393677 
	C1277.657227,1020.296326 1281.187744,1013.062927 1284.552246,1005.753052 
	C1295.404541,982.175537 1306.192627,958.568420 1317.012939,934.976135 
	C1319.092896,930.441223 1321.217896,925.926819 1323.301147,921.393433 
	C1324.922852,917.864441 1327.589844,916.013184 1331.536011,916.026794 
	C1339.535156,916.054260 1347.551758,915.745728 1355.523560,916.213684 
	C1357.933960,916.355164 1361.731567,918.208923 1362.184204,919.973450 
	C1362.757935,922.210205 1361.341064,926.255249 1359.430908,927.598145 
	C1352.594971,932.404236 1350.661987,938.725830 1350.937622,946.621582 
	C1351.790527,971.059998 1352.261108,995.511658 1353.096069,1019.950806 
	C1353.441528,1030.065552 1354.335571,1040.161621 1355.027954,1050.676880 
z"/>
<path fill="#442828" opacity="1.000000" stroke="none" 
	d="
M1020.263367,1071.625488 
	C1021.664246,1068.643677 1022.515503,1065.133545 1024.732056,1063.611084 
	C1031.465210,1058.986328 1034.104858,1052.969604 1034.065186,1044.983643 
	C1033.908081,1013.341980 1033.802124,981.696960 1034.125977,950.057800 
	C1034.222168,940.661011 1032.030396,933.227783 1023.763916,927.834595 
	C1021.808350,926.558655 1020.199280,922.622681 1020.683777,920.401917 
	C1021.079407,918.588745 1024.847778,916.269043 1027.097290,916.294006 
	C1051.018677,916.558777 1075.046753,913.978210 1098.834351,918.126404 
	C1109.005249,919.900024 1118.460938,923.784668 1125.210938,932.043945 
	C1135.989868,945.232727 1133.072632,968.981567 1116.462280,977.318848 
	C1114.755859,978.175232 1113.164307,979.260559 1110.650757,980.756836 
	C1114.483521,982.033997 1117.450195,982.883972 1120.313354,983.999573 
	C1135.473633,989.906982 1147.280518,999.610168 1149.581787,1016.387390 
	C1153.338745,1043.777344 1142.666626,1062.938843 1114.654663,1071.587158 
	C1104.987915,1074.571777 1094.442627,1075.454102 1084.246094,1075.816040 
	C1065.949951,1076.465576 1047.614014,1075.987061 1029.294678,1075.998657 
	C1025.696655,1076.000977 1022.221191,1075.811646 1020.263367,1071.625488 
M1119.892456,1024.001709 
	C1117.986694,1012.894287 1113.293091,1003.419983 1103.561646,997.133545 
	C1092.631592,990.072815 1080.443970,988.141174 1067.719971,989.229614 
	C1063.618530,989.580444 1061.941772,992.361511 1061.967651,996.559387 
	C1062.078247,1014.541321 1061.960571,1032.524536 1062.039795,1050.506714 
	C1062.072266,1057.890869 1065.811646,1062.648926 1073.016968,1062.713379 
	C1081.586060,1062.790161 1090.340942,1062.369751 1098.699829,1060.640259 
	C1109.689697,1058.366577 1116.853638,1051.055054 1118.932251,1039.761841 
	C1119.824829,1034.912354 1119.641968,1029.864868 1119.892456,1024.001709 
M1062.186157,970.780945 
	C1064.435181,972.155273 1066.666382,974.653992 1068.936646,974.689880 
	C1075.355591,974.791565 1081.858032,974.303162 1088.204834,973.283447 
	C1100.088135,971.374268 1105.021606,960.685364 1103.319092,950.849243 
	C1100.312622,933.478149 1081.363770,927.281921 1068.425537,929.432007 
	C1064.195801,930.134949 1061.873047,932.753662 1061.959473,937.473206 
	C1062.157471,948.282959 1062.062256,959.098145 1062.186157,970.780945 
z"/>
<path fill="#442828" opacity="1.000000" stroke="none" 
	d="
M1815.000000,916.000061 
	C1826.162842,916.002441 1836.826050,915.966309 1847.488647,916.018799 
	C1856.583984,916.063599 1859.339233,917.807556 1861.926392,926.617065 
	C1864.212158,934.401184 1866.017212,942.362244 1867.382446,950.356628 
	C1867.742676,952.466736 1866.250977,956.266296 1864.602051,956.988037 
	C1862.675537,957.831299 1858.794556,956.979797 1857.265991,955.404114 
	C1853.723145,951.752014 1851.147095,947.175659 1848.069580,943.055847 
	C1841.253540,933.930847 1832.083984,929.097778 1820.718018,929.078552 
	C1812.253906,929.064270 1803.751831,929.326172 1795.334717,930.154419 
	C1787.655762,930.910156 1786.034058,933.216003 1786.010132,940.909729 
	C1785.977417,951.405945 1785.969971,961.902405 1786.013184,972.398499 
	C1786.049072,981.107544 1788.912842,983.906616 1797.786255,983.992859 
	C1802.117432,984.034912 1806.459717,983.805603 1810.778564,984.039795 
	C1816.335083,984.341125 1819.933472,981.691711 1822.428711,977.075195 
	C1823.694702,974.732971 1824.491333,971.996521 1826.218994,970.089294 
	C1827.573608,968.593689 1830.039917,967.382568 1831.998047,967.403381 
	C1833.367432,967.417969 1835.047607,969.524963 1835.966431,971.068115 
	C1836.759033,972.399048 1836.921509,974.251343 1836.934204,975.876526 
	C1837.014771,986.205505 1837.030029,996.536011 1836.925903,1006.864502 
	C1836.908081,1008.633972 1836.537109,1010.554565 1835.767090,1012.130737 
	C1833.911255,1015.929565 1830.149902,1016.574951 1827.214966,1013.480530 
	C1825.675171,1011.857117 1824.676758,1009.635864 1823.729614,1007.550293 
	C1820.872070,1001.257202 1816.837524,997.133423 1809.168091,997.925171 
	C1804.880737,998.367737 1800.505859,997.879883 1796.182617,998.076904 
	C1789.372681,998.387390 1786.075073,1001.726562 1786.038452,1008.413330 
	C1785.958130,1023.074341 1785.970093,1037.736206 1786.031982,1052.397461 
	C1786.057617,1058.463745 1787.926392,1061.514404 1794.041016,1061.766479 
	C1807.772705,1062.332886 1821.579102,1062.474609 1835.286133,1061.647095 
	C1841.844238,1061.251099 1846.312866,1055.912231 1849.410522,1050.090820 
	C1851.364624,1046.418213 1853.028442,1042.585693 1855.091675,1038.979004 
	C1856.310547,1036.848267 1857.786133,1034.708740 1859.618896,1033.117432 
	C1863.436401,1029.802124 1868.373657,1031.556152 1868.722046,1036.623657 
	C1869.503540,1047.987671 1868.146729,1059.244263 1864.288330,1069.979858 
	C1862.358643,1075.348633 1857.080200,1075.931396 1852.136719,1075.957642 
	C1835.642944,1076.045532 1819.148560,1075.998535 1802.654419,1075.999512 
	C1786.326782,1076.000366 1769.999268,1075.994629 1753.671631,1075.995972 
	C1749.945801,1075.996216 1745.795288,1076.154297 1744.435181,1071.843750 
	C1743.123169,1067.685425 1746.060913,1065.051025 1749.321533,1062.961060 
	C1755.462646,1059.024780 1758.050781,1053.354492 1758.033081,1046.114624 
	C1757.951904,1012.959900 1757.913574,979.804504 1758.059937,946.650208 
	C1758.093872,938.960693 1755.289185,933.158813 1748.938110,928.918762 
	C1747.574585,928.008484 1746.275391,926.860291 1745.282837,925.564148 
	C1742.843018,922.378174 1743.895996,918.410400 1747.698120,917.120300 
	C1750.000366,916.339111 1752.570190,916.060120 1755.021851,916.049866 
	C1774.847656,915.967041 1794.673828,916.001404 1815.000000,916.000061 
z"/>
<path fill="#442828" opacity="1.000000" stroke="none" 
	d="
M1441.696777,975.704529 
	C1446.021118,964.836426 1450.198120,954.324768 1454.325439,943.793579 
	C1457.384888,935.986877 1456.598755,933.989685 1450.928711,927.977783 
	C1449.092651,926.031067 1447.942139,922.269104 1448.437866,919.718384 
	C1448.748779,918.119324 1452.650757,916.357727 1455.048828,916.188354 
	C1461.848633,915.708252 1468.725830,916.348145 1475.530273,915.901611 
	C1481.577637,915.504700 1484.767090,918.240479 1486.813965,923.516235 
	C1493.072144,939.647461 1499.452881,955.731384 1505.824707,971.818359 
	C1516.054443,997.644653 1526.058105,1023.566101 1536.774780,1049.189087 
	C1538.967773,1054.432129 1543.851562,1058.561646 1547.564209,1063.148315 
	C1548.498657,1064.302856 1549.878906,1065.110840 1550.747437,1066.301880 
	C1553.792114,1070.476318 1551.738037,1075.696899 1546.637207,1075.797852 
	C1532.310791,1076.081543 1517.973145,1076.022949 1503.646240,1075.760010 
	C1501.919922,1075.728394 1499.232666,1073.902466 1498.787842,1072.382202 
	C1498.271851,1070.619263 1499.134033,1067.703735 1500.463379,1066.291870 
	C1504.285645,1062.232910 1508.831421,1058.527710 1506.817505,1052.199707 
	C1504.808472,1045.886841 1502.554932,1039.554810 1499.456177,1033.738770 
	C1498.382935,1031.724243 1494.473145,1030.255371 1491.825928,1030.202881 
	C1475.665894,1029.881836 1459.495972,1029.982056 1443.330200,1030.075317 
	C1438.638672,1030.102295 1435.063354,1031.975952 1433.455322,1036.888672 
	C1431.801758,1041.939819 1429.766724,1046.865723 1427.914551,1051.852173 
	C1426.096924,1056.745850 1427.216919,1060.737305 1430.859497,1064.597168 
	C1432.652222,1066.496826 1434.713501,1070.498413 1433.877075,1071.962036 
	C1432.675537,1074.063843 1428.997681,1075.639404 1426.273193,1075.813110 
	C1418.471558,1076.310669 1410.617676,1075.981445 1402.784424,1075.992432 
	C1399.323853,1075.997314 1395.104980,1075.736572 1394.810913,1071.852173 
	C1394.620483,1069.335327 1397.070068,1065.682495 1399.397827,1064.091431 
	C1405.679688,1059.797974 1410.412720,1054.549194 1413.204956,1047.498901 
	C1422.638550,1023.680542 1432.086060,999.867615 1441.696777,975.704529 
M1475.532471,970.956909 
	C1472.994263,964.645203 1470.456055,958.333557 1467.917847,952.021912 
	C1467.421143,952.103027 1466.924561,952.184204 1466.427856,952.265320 
	C1463.603027,959.502014 1460.771484,966.736206 1457.954712,973.976013 
	C1453.313843,985.903992 1448.659180,997.826538 1444.064697,1009.772278 
	C1443.013306,1012.506104 1441.828491,1015.810059 1446.550659,1015.901001 
	C1459.801758,1016.156189 1473.069580,1016.437988 1486.308716,1016.015503 
	C1492.399780,1015.821106 1492.641113,1014.692810 1490.364746,1008.806641 
	C1485.570068,996.408813 1480.705200,984.038208 1475.532471,970.956909 
z"/>
<path fill="#442828" opacity="1.000000" stroke="none" 
	d="
M1631.995972,946.164062 
	C1631.679443,930.401917 1628.210693,927.749207 1611.664429,931.076538 
	C1602.973511,932.824158 1599.314331,940.560486 1595.280151,947.454712 
	C1593.432983,950.611389 1592.156128,954.238770 1589.777954,956.899597 
	C1588.188354,958.678345 1584.921753,960.202942 1582.768799,959.816528 
	C1581.211060,959.536926 1579.149536,955.899109 1579.213623,953.817444 
	C1579.489258,944.879028 1579.933105,935.876160 1581.350830,927.063293 
	C1582.613159,919.216492 1587.016113,916.081299 1595.076660,916.060059 
	C1628.739624,915.971497 1662.403198,915.967957 1696.066162,916.064819 
	C1704.118042,916.087952 1707.968262,918.949707 1709.265747,926.788574 
	C1710.697144,935.435181 1711.406616,944.237976 1711.764771,952.999939 
	C1711.855225,955.213013 1709.942749,958.577393 1708.009399,959.559265 
	C1704.923950,961.126160 1702.063965,959.144897 1700.128784,956.119263 
	C1695.495239,948.875183 1691.264771,941.278015 1685.850464,934.658630 
	C1681.467896,929.300476 1674.363403,928.786682 1667.861206,929.421021 
	C1661.629517,930.028870 1659.051758,933.756287 1659.034424,940.625488 
	C1658.974487,964.456360 1658.897949,988.288025 1659.043945,1012.118103 
	C1659.119263,1024.420288 1659.424561,1036.731812 1660.072998,1049.015503 
	C1660.392944,1055.077148 1663.578003,1059.754150 1668.529175,1063.644409 
	C1670.729858,1065.373535 1672.618164,1069.336792 1672.212769,1071.900757 
	C1671.942017,1073.612427 1667.407471,1075.717896 1664.724976,1075.799561 
	C1651.571899,1076.199585 1638.399780,1075.974609 1625.234497,1075.983643 
	C1621.876343,1075.985962 1618.082642,1075.408936 1617.848267,1071.706543 
	C1617.686523,1069.149292 1619.513672,1065.672974 1621.570679,1063.919800 
	C1627.362427,1058.983398 1630.983887,1053.367920 1631.045288,1045.549805 
	C1631.304199,1012.580200 1631.670532,979.611389 1631.995972,946.164062 
z"/>
<path fill="#984715" opacity="1.000000" stroke="none" 
	d="
M482.277466,891.174072 
	C474.306458,900.230530 465.224701,906.383728 453.306122,908.454773 
	C428.115936,912.831787 404.602173,896.978516 400.088013,873.312500 
	C395.897583,851.343628 403.085815,834.967957 421.710510,822.821655 
	C435.922729,813.553040 461.169983,815.950623 474.346436,826.638184 
	C492.441559,841.315186 497.016266,870.208679 482.277466,891.174072 
z"/>
<path fill="#442828" opacity="1.000000" stroke="none" 
	d="
M826.838013,1051.924683 
	C826.566284,1060.496704 830.993286,1062.238037 836.060425,1062.530884 
	C845.802856,1063.093750 855.648376,1062.677490 865.401978,1061.979736 
	C872.873535,1061.445312 877.484924,1056.209717 880.956726,1050.036499 
	C883.644775,1045.256836 885.765015,1040.102905 888.905090,1035.657349 
	C890.327209,1033.644043 894.259521,1031.364624 895.893005,1032.034546 
	C898.145996,1032.958374 900.846191,1036.684326 900.658691,1038.990845 
	C899.854797,1048.876099 898.469421,1058.764648 896.472778,1068.482910 
	C895.330017,1074.045410 891.275757,1075.962158 883.961609,1075.973633 
	C856.312012,1076.017212 828.662292,1075.998291 801.012634,1075.997925 
	C797.848083,1075.997925 794.605042,1076.386108 791.545471,1075.811401 
	C789.361084,1075.401123 786.035889,1073.985962 785.700562,1072.470337 
	C785.199341,1070.205078 786.876221,1067.456055 787.642395,1064.917603 
	C787.684387,1064.778564 787.854248,1064.652100 787.994446,1064.572144 
	C797.987366,1058.874390 799.212402,1049.614990 799.105164,1039.239136 
	C798.803894,1010.093506 798.969421,980.942749 799.017822,951.794067 
	C799.033386,942.451477 797.383484,934.103577 788.998291,928.118713 
	C786.985046,926.681763 785.415894,922.485779 786.022278,920.186218 
	C786.514587,918.319580 790.540771,916.304626 793.054199,916.231628 
	C806.367676,915.844910 819.704590,915.844177 833.017883,916.236450 
	C835.517334,916.310120 839.543335,918.378113 840.004089,920.235413 
	C840.580444,922.559021 838.987915,926.792603 836.958740,928.151550 
	C828.486816,933.825195 826.566711,941.888611 826.747803,952.001099 
	C826.396484,954.821533 826.034790,956.799377 826.032288,958.777771 
	C825.995422,987.528931 825.987732,1016.280212 826.042358,1045.031250 
	C826.046692,1047.329590 826.560730,1049.626953 826.838013,1051.924683 
z"/>
<path fill="#442828" opacity="1.000000" stroke="none" 
	d="
M972.832153,1039.923218 
	C972.963379,1043.250122 972.723511,1046.643555 973.306091,1049.889404 
	C974.380554,1055.875000 978.036438,1060.197754 982.605225,1064.192017 
	C984.552368,1065.894287 985.763489,1069.730713 985.381775,1072.312378 
	C985.158264,1073.823975 981.160583,1075.756348 978.819092,1075.814087 
	C965.332947,1076.146973 951.830078,1076.148560 938.343994,1075.813965 
	C935.976135,1075.755371 932.145752,1073.973145 931.695984,1072.271851 
	C931.102539,1070.027100 932.378418,1065.926880 934.245911,1064.623779 
	C943.314270,1058.296265 945.142395,1049.464966 945.072083,1039.283325 
	C944.869568,1009.963440 944.992249,980.641174 945.004150,951.319885 
	C945.007874,942.155151 943.227783,933.987000 935.013733,928.133057 
	C932.995361,926.694702 931.232483,922.269165 932.017273,920.255615 
	C932.823547,918.187012 936.856628,916.303772 939.536743,916.219604 
	C952.518433,915.811890 965.527039,915.811584 978.508545,916.222595 
	C981.179321,916.307129 985.216919,918.219360 985.997009,920.282593 
	C986.766052,922.316772 984.990723,926.789001 982.962585,928.147522 
	C974.490051,933.822388 972.565247,941.885742 972.747803,952.001099 
	C972.396484,954.820679 972.035461,956.797729 972.032349,958.775269 
	C971.993469,983.527344 971.984680,1008.279541 972.042053,1033.031494 
	C972.047424,1035.329346 972.556885,1037.625977 972.832153,1039.923218 
z"/>
<path fill="#984715" opacity="1.000000" stroke="none" 
	d="
M582.377075,819.742432 
	C584.962463,838.098572 572.517334,854.541382 554.811279,858.160339 
	C539.934814,861.201050 525.833252,853.676758 518.446899,841.778137 
	C512.508667,832.212280 512.113525,814.559937 521.236755,802.721802 
	C532.191284,788.507385 558.654297,785.213379 571.814697,799.125793 
	C577.380066,805.009277 581.425293,811.221863 582.377075,819.742432 
z"/>
<path fill="#984715" opacity="1.000000" stroke="none" 
	d="
M322.395325,814.270508 
	C336.738373,806.163513 350.487091,810.326538 359.153717,818.663879 
	C371.745789,830.777344 371.822906,852.097656 357.481171,864.320801 
	C342.470917,877.113770 314.897064,871.637451 308.700592,850.409546 
	C304.550415,836.191711 309.619171,821.971680 322.395325,814.270508 
z"/>
<path fill="#984715" opacity="1.000000" stroke="none" 
	d="
M415.838806,755.964600 
	C427.028290,765.253479 430.289795,776.118896 424.640411,786.562012 
	C419.708496,795.678955 411.748566,800.073364 401.211853,798.972595 
	C391.900269,797.999878 385.448395,792.606018 382.356903,784.228394 
	C379.142853,775.518555 380.718353,767.383118 387.306366,759.930176 
	C393.777863,752.609070 407.671112,750.710999 415.838806,755.964600 
z"/>
<path fill="#984715" opacity="1.000000" stroke="none" 
	d="
M483.398987,772.946045 
	C471.737396,773.057434 465.751343,769.533569 462.958282,761.191101 
	C460.277802,753.184753 463.413177,745.210144 471.103027,740.475952 
	C477.073669,736.800049 486.375824,737.994141 491.598083,743.106750 
	C497.621490,749.003662 498.694489,757.765869 494.639099,764.844971 
	C492.139252,769.208679 488.109680,771.145874 483.398987,772.946045 
z"/>
<path fill="#461717" opacity="1.000000" stroke="none" 
	d="
M826.876465,1051.463867 
	C826.560730,1049.626953 826.046692,1047.329590 826.042358,1045.031250 
	C825.987732,1016.280212 825.995422,987.528931 826.032288,958.777771 
	C826.034790,956.799377 826.396484,954.821533 826.709961,952.457581 
	C826.857422,985.048767 826.886108,1018.025879 826.876465,1051.463867 
z"/>
<path fill="#461717" opacity="1.000000" stroke="none" 
	d="
M972.872009,1039.462524 
	C972.556885,1037.625977 972.047424,1035.329346 972.042053,1033.031494 
	C971.984680,1008.279541 971.993469,983.527344 972.032349,958.775269 
	C972.035461,956.797729 972.396484,954.820679 972.709961,952.457581 
	C972.856384,981.048401 972.884094,1010.025146 972.872009,1039.462524 
z"/>
<path fill="#000000" opacity="1.000000" stroke="none" 
	d="
M418.001221,1179.802002 
	C418.001282,1182.261108 418.001282,1184.248901 418.001282,1186.891602 
	C416.403473,1186.335571 415.131989,1186.154297 414.159515,1185.516724 
	C383.074768,1165.137695 349.911224,1149.105591 314.181122,1138.795044 
	C305.127136,1136.182373 302.421082,1130.456055 300.930542,1122.240234 
	C296.852142,1099.760986 292.383881,1077.349731 287.847595,1054.956665 
	C282.692657,1029.509399 277.318542,1004.106506 271.996490,978.693359 
	C269.233673,965.500549 266.368744,952.329102 263.576904,939.142334 
	C263.276398,937.722900 263.155823,936.265259 262.779694,933.610962 
	C269.044037,934.528442 274.815735,934.744507 280.218811,936.267883 
	C313.680725,945.702637 346.682739,956.511536 378.303040,971.126892 
	C390.123260,976.590332 401.715851,982.544434 413.483917,988.123596 
	C416.959778,989.771545 418.091583,992.084961 418.084076,995.940674 
	C417.965149,1057.070435 418.000854,1118.200562 418.001221,1179.802002 
z"/>
<path fill="#000000" opacity="1.000000" stroke="none" 
	d="
M609.688721,983.661011 
	C603.446838,1012.842834 597.351135,1041.629639 591.317139,1070.429443 
	C587.171631,1090.215576 583.022339,1110.002075 579.087524,1129.830566 
	C578.283875,1133.880493 576.447998,1135.946289 572.430542,1137.091064 
	C547.768311,1144.118530 524.261719,1154.127197 501.548920,1165.908691 
	C490.163971,1171.814209 479.320953,1178.764282 468.229767,1185.236572 
	C467.109039,1185.890625 465.967346,1186.508789 463.817474,1187.714478 
	C464.256073,1182.616821 464.898193,1178.318481 464.945312,1174.013794 
	C465.087524,1161.022339 464.999359,1148.028442 464.999451,1135.035400 
	C464.999847,1088.560425 465.059631,1042.085205 464.891113,995.610901 
	C464.876892,991.689941 466.216705,989.860962 469.498230,988.059021 
	C500.550140,971.007019 533.334351,958.041809 566.957825,947.244812 
	C583.033630,942.082642 599.598999,938.442200 615.960693,934.181458 
	C616.801208,933.962646 617.811646,934.396362 619.115295,934.578247 
	C615.992432,951.010193 612.926819,967.140869 609.688721,983.661011 
z"/>
<path fill="#000000" opacity="1.000000" stroke="none" 
	d="
M1119.920166,1024.454590 
	C1119.641968,1029.864868 1119.824829,1034.912354 1118.932251,1039.761841 
	C1116.853638,1051.055054 1109.689697,1058.366577 1098.699829,1060.640259 
	C1090.340942,1062.369751 1081.586060,1062.790161 1073.016968,1062.713379 
	C1065.811646,1062.648926 1062.072266,1057.890869 1062.039795,1050.506714 
	C1061.960571,1032.524536 1062.078247,1014.541321 1061.967651,996.559387 
	C1061.941772,992.361511 1063.618530,989.580444 1067.719971,989.229614 
	C1080.443970,988.141174 1092.631592,990.072815 1103.561646,997.133545 
	C1113.293091,1003.419983 1117.986694,1012.894287 1119.920166,1024.454590 
z"/>
<path fill="#000000" opacity="1.000000" stroke="none" 
	d="
M1062.136108,970.346069 
	C1062.062256,959.098145 1062.157471,948.282959 1061.959473,937.473206 
	C1061.873047,932.753662 1064.195801,930.134949 1068.425537,929.432007 
	C1081.363770,927.281921 1100.312622,933.478149 1103.319092,950.849243 
	C1105.021606,960.685364 1100.088135,971.374268 1088.204834,973.283447 
	C1081.858032,974.303162 1075.355591,974.791565 1068.936646,974.689880 
	C1066.666382,974.653992 1064.435181,972.155273 1062.136108,970.346069 
z"/>
<path fill="#000000" opacity="1.000000" stroke="none" 
	d="
M1475.700684,971.306641 
	C1480.705200,984.038208 1485.570068,996.408813 1490.364746,1008.806641 
	C1492.641113,1014.692810 1492.399780,1015.821106 1486.308716,1016.015503 
	C1473.069580,1016.437988 1459.801758,1016.156189 1446.550659,1015.901001 
	C1441.828491,1015.810059 1443.013306,1012.506104 1444.064697,1009.772278 
	C1448.659180,997.826538 1453.313843,985.903992 1457.954712,973.976013 
	C1460.771484,966.736206 1463.603027,959.502014 1466.427856,952.265320 
	C1466.924561,952.184204 1467.421143,952.103027 1467.917847,952.021912 
	C1470.456055,958.333557 1472.994263,964.645203 1475.700684,971.306641 
z"/>
</svg>